<svg xmlns="http://www.w3.org/2000/svg" width="100" height="100" fill="none"><path d="M50.23 53.702c-4.45-3.014-8.972-3.69-12.53-1.842-3.29 1.71-5.174 5.268-5.043 9.515.107 3.476 1.548 7.036 4.167 10.295 2.975 3.703 7.286 6.825 12.81 9.278.19.084.392.126.594.126s.405-.042.594-.126c5.525-2.453 9.835-5.574 12.81-9.278 2.62-3.26 4.06-6.82 4.167-10.295.13-4.248-1.754-7.805-5.043-9.515-3.556-1.85-8.078-1.172-12.53 1.842zm14.644 7.583c-.06 1.977-.722 5.065-3.522 8.55-2.575 3.205-6.314 5.95-11.12 8.166-4.807-2.216-8.547-4.96-11.12-8.166-2.8-3.485-3.46-6.574-3.522-8.55-.096-3.096 1.2-5.647 3.466-6.826.894-.465 1.893-.694 2.965-.694 2.23 0 4.774 1 7.335 2.907.52.39 1.235.39 1.755 0 3.792-2.838 7.546-3.645 10.3-2.213 2.266 1.18 3.562 3.73 3.466 6.826z" fill="#ccc"/><path d="M17.78 97.07H5.37c-1.346 0-2.44-1.095-2.44-2.44v-57.3a5.34 5.34 0 0 0 2.441.588h72.004c.8 0 1.465-.656 1.465-1.465s-.656-1.465-1.465-1.465H5.37c-1.346 0-2.44-1.095-2.44-2.44V15.944c0-1.346 1.095-2.44 2.44-2.44h8.196v3.48a5.38 5.38 0 0 0 5.371 5.371h.238l.14-.002a5.38 5.38 0 0 0 5.171-4.552l.02-.134.022-.203.02-.48v-3.48h7.07c.8 0 1.465-.656 1.465-1.465s-.656-1.465-1.465-1.465h-7.07V5.37A5.38 5.38 0 0 0 19.175 0h-.238a5.38 5.38 0 0 0-5.371 5.371v5.202H5.37A5.38 5.38 0 0 0 0 15.944V94.63A5.38 5.38 0 0 0 5.371 100h12.4c.8 0 1.465-.656 1.465-1.465a1.45 1.45 0 0 0-1.456-1.465zm-1.285-91.7c0-1.346 1.095-2.44 2.44-2.44h.238c1.346 0 2.44 1.095 2.44 2.44v11.612c0 1.346-1.095 2.44-2.44 2.44h-.238c-1.346 0-2.44-1.095-2.44-2.44V5.37zm78.135 5.203H86.9V5.37A5.38 5.38 0 0 0 81.519 0h-.238a5.38 5.38 0 0 0-5.371 5.371v5.202H38.45c-.8 0-1.465.656-1.465 1.465s.656 1.465 1.465 1.465H75.9v3.48a5.38 5.38 0 0 0 5.371 5.371h.238a5.38 5.38 0 0 0 5.371-5.371v-3.48h7.738c1.346 0 2.44 1.095 2.44 2.44v16.602c0 1.346-1.095 2.44-2.44 2.44H84.2c-.8 0-1.465.656-1.465 1.465s.656 1.465 1.465 1.465h10.42a5.34 5.34 0 0 0 2.441-.588v29.447c0 .8.656 1.465 1.465 1.465S100 67.584 100 66.775v-50.83a5.38 5.38 0 0 0-5.371-5.371zm-10.668 6.4c0 1.346-1.095 2.44-2.44 2.44h-.238c-1.346 0-2.44-1.095-2.44-2.44V5.37c0-1.346 1.095-2.44 2.44-2.44h.238c1.346 0 2.44 1.095 2.44 2.44v11.612zm14.573 55.174c-.8 0-1.465.656-1.465 1.465V94.63c0 1.346-1.095 2.44-2.44 2.44H24.617c-.8 0-1.465.656-1.465 1.465S23.808 100 24.617 100H94.63a5.38 5.38 0 0 0 5.37-5.371V73.6c0-.8-.656-1.465-1.465-1.465z" fill="#5b5bd5"/><path d="M27.84 24.245c0 .81.656 1.465 1.465 1.465H71.15c.81 0 1.465-.656 1.465-1.465s-.656-1.465-1.465-1.465H29.306c-.81 0-1.465.656-1.465 1.465z" fill="#ccc"/></svg>