<svg width="979" height="562" viewBox="0 0 979 562" fill="none" xmlns="../../external.html?link=http://www.w3.org/2000/svg">
<path d="M1 484.828H977.39" stroke="#D8DBDE" stroke-width="1.9964" stroke-miterlimit="10" stroke-linecap="round" stroke-linejoin="round"/>
<path d="M776.188 263.135H761.677C759.583 263.135 757.788 261.938 757.04 259.993C756.89 259.545 756.591 259.096 756.442 258.497C755.694 256.702 756.142 254.458 757.489 253.112L768.259 242.341C770.204 240.397 770.204 237.255 768.259 235.311L747.765 214.816C745.821 212.872 742.679 212.872 740.734 214.816L730.263 225.288C728.767 226.784 726.523 227.083 724.578 226.335C724.279 226.185 723.98 226.036 723.681 226.036C721.736 225.288 720.39 223.493 720.39 221.398V205.841C720.39 203.148 718.146 200.904 715.453 200.904H686.432C683.74 200.904 681.496 203.148 681.496 205.841V221.398C681.496 223.493 680.149 225.288 678.205 226.036C678.055 226.036 677.906 226.185 677.756 226.185C675.811 226.933 673.567 226.634 672.221 225.138L660.852 213.769C658.907 211.825 655.766 211.825 653.821 213.769L633.327 234.263C631.382 236.208 631.382 239.35 633.327 241.294L644.696 252.663C646.192 254.159 646.491 256.403 645.743 258.348V258.497C644.995 260.442 643.2 261.639 641.106 261.639H624.501C621.808 261.639 619.564 263.883 619.564 266.575V295.596C619.564 298.289 621.808 300.533 624.501 300.533H640.657C642.751 300.533 644.546 301.879 645.294 303.824C646.042 305.769 645.743 307.863 644.247 309.359L632.429 321.177C630.485 323.121 630.485 326.263 632.429 328.207L652.924 348.702C654.868 350.646 658.01 350.646 659.954 348.702L671.174 337.482C672.67 335.986 674.914 335.687 676.858 336.435C677.008 336.435 677.008 336.585 677.158 336.585C679.102 337.333 680.299 339.128 680.299 341.222V357.677C680.299 360.37 682.543 362.614 685.236 362.614H714.256C716.949 362.614 719.193 360.37 719.193 357.677V342.568C719.193 340.474 720.39 338.679 722.334 337.931C722.634 337.781 722.933 337.632 723.382 337.482C725.177 336.734 727.421 337.183 728.767 338.529L739.837 349.599C741.782 351.544 744.923 351.544 746.868 349.599L767.362 329.105C769.306 327.16 769.306 324.019 767.362 322.074L757.04 311.752C755.544 310.256 755.095 308.162 755.993 306.217C756.142 305.769 756.442 305.32 756.591 304.871C757.339 303.076 759.134 301.879 761.229 301.879H776.487C779.18 301.879 781.424 299.635 781.424 296.943V267.922C781.124 265.379 778.88 263.135 776.188 263.135ZM700.045 310.855C684.039 310.855 671.024 297.84 671.024 281.834C671.024 265.827 684.039 252.813 700.045 252.813C716.052 252.813 729.066 265.827 729.066 281.834C729.066 297.84 716.052 310.855 700.045 310.855Z" fill="#D8DBDE"/>
<path d="M683.142 452.071H295.249C285.076 452.071 276.699 443.843 276.699 433.521V173.081C276.699 162.908 284.927 154.531 295.249 154.531H683.142C693.314 154.531 701.691 162.759 701.691 173.081V433.521C701.691 443.843 693.464 452.071 683.142 452.071Z" fill="#0E0F2D"/>
<path d="M276.85 435.766C277.897 444.891 285.825 452.071 295.249 452.071H683.143C692.567 452.071 700.495 444.891 701.543 435.766H276.85Z" fill="#E5E5E5"/>
<path d="M668.034 430.829H310.358C300.186 430.829 291.809 422.601 291.809 412.28V188.19C291.809 178.018 300.036 169.641 310.358 169.641H668.034C678.206 169.641 686.583 177.868 686.583 188.19V412.13C686.583 422.452 678.356 430.829 668.034 430.829Z" fill="#5B5BD5"/>
<path d="M352.244 296.046C352.244 272.261 370.943 255.656 396.374 255.656C411.932 255.656 424.198 261.191 431.977 271.064L415.073 285.724C410.436 280.04 404.901 276.599 397.72 276.599C386.65 276.599 379.171 284.079 379.171 295.897C379.171 307.714 386.65 315.194 397.72 315.194C404.901 315.194 410.436 311.903 415.073 306.069L431.977 320.729C424.198 330.602 411.932 336.137 396.374 336.137C370.943 336.436 352.244 319.682 352.244 296.046Z" fill="white"/>
<path d="M515.151 334.641L514.852 299.487L497.649 327.61H485.831L468.628 300.534V334.492H444.244V257.152H466.234L492.114 298.29L517.245 257.152H539.235L539.535 334.492H515.151V334.641Z" fill="white"/>
<path d="M551.949 328.508L560.476 309.51C567.956 313.848 577.978 316.54 586.655 316.54C594.284 316.54 596.977 315.044 596.977 312.352C596.977 302.628 553.146 310.407 553.146 281.685C553.146 267.324 565.562 255.656 590.095 255.656C600.716 255.656 611.786 257.9 620.014 262.388L611.936 281.237C604.157 277.347 596.827 275.552 589.796 275.552C582.017 275.552 579.474 277.796 579.474 280.339C579.474 289.614 623.305 281.835 623.305 310.407C623.305 324.469 610.889 336.436 586.355 336.436C573.191 336.436 559.878 333.145 551.949 328.508Z" fill="white"/>
<path d="M531.607 347.654H358.678V353.488H531.607V347.654Z" fill="#719BFF"/>
<path d="M571.998 347.654H537.891V353.488H571.998V347.654Z" fill="#719BFF"/>
<path d="M609.992 347.654H575.885V353.488H609.992V347.654Z" fill="white"/>
<path d="M571.998 369.643H537.891V375.477H571.998V369.643Z" fill="#719BFF"/>
<path d="M571.847 381.014H461.896V386.848H571.847V381.014Z" fill="#719BFF"/>
<path d="M609.992 369.643H575.885V375.477H609.992V369.643Z" fill="white"/>
<path d="M571.997 358.725H399.068V364.559H571.997V358.725Z" fill="white"/>
<path d="M609.843 358.725H575.736V364.559H609.843V358.725Z" fill="#719BFF"/>
<path d="M609.843 381.014H575.736V386.848H609.843V381.014Z" fill="#719BFF"/>
<path d="M323.072 199.109C326.707 199.109 329.654 196.163 329.654 192.527C329.654 188.892 326.707 185.945 323.072 185.945C319.437 185.945 316.49 188.892 316.49 192.527C316.49 196.163 319.437 199.109 323.072 199.109Z" fill="white"/>
<path d="M344.912 199.109C348.547 199.109 351.494 196.163 351.494 192.527C351.494 188.892 348.547 185.945 344.912 185.945C341.277 185.945 338.33 188.892 338.33 192.527C338.33 196.163 341.277 199.109 344.912 199.109Z" fill="white"/>
<path d="M366.752 199.109C370.387 199.109 373.334 196.163 373.334 192.527C373.334 188.892 370.387 185.945 366.752 185.945C363.117 185.945 360.17 188.892 360.17 192.527C360.17 196.163 363.117 199.109 366.752 199.109Z" fill="white"/>
<path d="M303.775 207.037H669.978" stroke="white" stroke-width="0.9732" stroke-miterlimit="10"/>
<path d="M719.941 484.534H258.449C247.828 484.534 238.254 477.952 234.514 467.929L226.137 445.191H752.253L743.876 467.929C740.136 477.952 730.562 484.534 719.941 484.534Z" fill="#D8DBDE"/>
<path d="M233.914 466.283L234.512 467.929C238.252 477.951 247.677 484.533 258.447 484.533H719.94C730.561 484.533 740.135 477.951 743.875 467.929L744.473 466.283H233.914Z" fill="#E5E5E5"/>
<path d="M295.1 393.427H214.02C195.471 393.427 180.512 378.467 180.512 359.918V317.284C180.512 298.735 195.471 283.775 214.02 283.775H295.1C313.649 283.775 328.608 298.735 328.608 317.284V359.918C328.608 378.318 313.649 393.427 295.1 393.427Z" fill="white" stroke="#D8DBDE" stroke-width="2.8805" stroke-miterlimit="10"/>
<path d="M290.313 339.724L230.326 308.16V371.887L290.313 339.724Z" fill="#5B5BD5"/>
<path d="M95.517 181.623L82.6855 180.703L64.7305 431.216L77.562 432.135L95.517 181.623Z" fill="#D8DBDE"/>
<path d="M278.496 21.2402H224.941V29.019H278.496V21.2402Z" fill="#D8DBDE"/>
<path d="M97.3377 180.855L241.096 11.2175L231.672 4.03711L81.9297 180.855H97.3377Z" fill="#D8DBDE"/>
<path d="M85.5184 424.842H58.5918V459.846H85.5184V424.842Z" fill="#0E0F2D"/>
<path d="M85.5184 441.896H58.5918V459.848H85.5184V441.896Z" fill="#E5E5E5"/>
<path d="M152.089 484.531H56.4992C50.5155 484.531 45.7285 479.744 45.7285 473.76V462.241C45.7285 456.258 50.5155 451.471 56.4992 451.471H152.089C158.072 451.471 162.859 456.258 162.859 462.241V473.76C162.859 479.744 158.072 484.531 152.089 484.531Z" fill="#0E0F2D"/>
<path d="M45.877 470.17V473.76C45.877 479.744 50.6639 484.531 56.6476 484.531H152.088C158.071 484.531 162.858 479.744 162.858 473.76V470.17H45.877Z" fill="#E5E5E5"/>
<path d="M303.476 56.546H250.67V13.9121C250.67 6.28289 256.953 0 264.582 0H289.564C297.193 0 303.476 6.28289 303.476 13.9121V56.546Z" fill="#5B5BD5"/>
<path d="M303.476 33.957H250.67V56.5455H303.476V33.957Z" fill="#E5E5E5"/>
<path d="M338.481 122.665H220.004V99.7777C220.004 67.0169 246.482 40.5391 279.243 40.5391C312.003 40.5391 338.481 67.0169 338.481 99.7777V122.665Z" fill="#5B5BD5"/>
<path d="M338.481 103.818H220.004V122.667H338.481V103.818Z" fill="#E5E5E5"/>
<path d="M347.157 109.951H211.178V129.249H347.157V109.951Z" fill="#0E0F2D"/>
<path d="M90.7552 194.471C99.9257 194.471 107.36 187.037 107.36 177.866C107.36 168.696 99.9257 161.262 90.7552 161.262C81.5846 161.262 74.1504 168.696 74.1504 177.866C74.1504 187.037 81.5846 194.471 90.7552 194.471Z" fill="#0E0F2D"/>
<path d="M323.519 511.157C328.456 512.653 330.849 515.795 330.849 523.274V540.627C330.849 545.713 333.393 548.705 338.778 548.705H340.723V561.869H334.44C320.976 561.869 313.946 554.988 313.946 542.422V522.825C313.946 519.385 312.15 517.739 309.159 517.739H305.568V504.575H309.159C312.15 504.575 313.946 502.93 313.946 499.489V479.892C313.946 467.476 320.827 460.445 334.44 460.445H340.723V473.609H338.778C333.542 473.609 330.849 476.601 330.849 481.687V499.04C330.7 506.52 328.456 509.661 323.519 511.157Z" fill="#5B5BD5"/>
<path d="M339.375 531.054C339.375 524.771 344.012 520.732 349.846 520.732C355.681 520.732 360.318 524.921 360.318 531.054C360.318 537.188 355.681 541.675 349.846 541.675C344.012 541.675 339.375 537.337 339.375 531.054ZM368.396 531.054C368.396 524.771 373.033 520.732 378.867 520.732C384.702 520.732 389.339 524.921 389.339 531.054C389.339 537.188 384.702 541.675 378.867 541.675C373.033 541.675 368.396 537.337 368.396 531.054ZM397.417 531.054C397.417 524.771 402.054 520.732 407.888 520.732C413.722 520.732 418.36 524.921 418.36 531.054C418.36 537.188 413.722 541.675 407.888 541.675C402.054 541.675 397.417 537.337 397.417 531.054Z" fill="#5B5BD5"/>
<path d="M452.318 504.575V517.739H448.728C445.736 517.739 443.941 519.385 443.941 522.825V542.422C443.941 554.838 437.06 561.869 423.447 561.869H417.164V548.705H419.109C424.344 548.705 427.037 545.713 427.037 540.627V523.274C427.037 515.795 429.281 512.653 434.367 511.157C429.431 509.661 427.037 506.52 427.037 499.04V481.687C427.037 476.601 424.494 473.609 419.109 473.609H417.164V460.445H423.447C436.91 460.445 443.941 467.327 443.941 479.892V499.489C443.941 502.93 445.736 504.575 448.728 504.575H452.318Z" fill="#5B5BD5"/>
<path d="M735.049 386.398H614.926V555.737H735.049V386.398Z" fill="white" stroke="#D8DBDE" stroke-width="2.8805" stroke-miterlimit="10"/>
<path d="M719.491 408.09H630.035V412.428H719.491V408.09Z" fill="#5B5BD5"/>
<path d="M689.423 416.316H630.035V420.655H689.423V416.316Z" fill="#5B5BD5"/>
<path d="M707.674 424.693H630.035V429.032H707.674V424.693Z" fill="#5B5BD5"/>
<path d="M702.288 432.771H630.035V437.11H702.288V432.771Z" fill="#5B5BD5"/>
<path d="M702.288 503.531H630.035V507.869H702.288V503.531Z" fill="#5B5BD5"/>
<path d="M682.542 512.057H630.035V516.395H682.542V512.057Z" fill="#5B5BD5"/>
<path d="M689.573 520.734H630.035V525.073H689.573V520.734Z" fill="#5B5BD5"/>
<path d="M664.891 43.3796H431.826C425.244 43.3796 420.008 37.9943 420.008 31.5618V12.8627C420.008 6.28065 425.393 1.04492 431.826 1.04492H664.891C671.473 1.04492 676.709 6.43024 676.709 12.8627V31.4122C676.709 38.1438 671.473 43.3796 664.891 43.3796Z" fill="white" stroke="#D8DBDE" stroke-width="2" stroke-miterlimit="10"/>
<path d="M664.891 1.04492H601.165C593.985 1.04492 588.15 6.87902 588.15 14.0595V30.5146C588.15 37.6951 593.985 43.5292 601.165 43.5292H664.891C671.473 43.5292 676.709 38.1439 676.709 31.7114V12.8627C676.709 6.43024 671.473 1.04492 664.891 1.04492Z" fill="#5B5BD5"/>
<path d="M664.891 96.3355H431.826C425.244 96.3355 420.008 90.9501 420.008 84.5177V65.9682C420.008 59.3861 425.393 54.1504 431.826 54.1504H664.891C671.473 54.1504 676.709 59.5357 676.709 65.9682V84.5177C676.709 90.9501 671.473 96.3355 664.891 96.3355Z" fill="white" stroke="#D8DBDE" stroke-width="2" stroke-miterlimit="10"/>
<path d="M664.891 53.8516H601.165C593.985 53.8516 588.15 59.6857 588.15 66.8661V83.3213C588.15 90.5017 593.985 96.3358 601.165 96.3358H664.891C671.473 96.3358 676.709 90.9505 676.709 84.518V65.9685C676.709 59.2369 671.473 53.8516 664.891 53.8516Z" fill="#0E0F2D"/>
<path d="M714.107 220.646C769.709 220.646 814.783 175.572 814.783 119.971C814.783 64.369 769.709 19.2949 714.107 19.2949C658.506 19.2949 613.432 64.369 613.432 119.971C613.432 175.572 658.506 220.646 714.107 220.646Z" fill="white" stroke="#D8DBDE" stroke-width="2.8805" stroke-miterlimit="10"/>
<path d="M655.617 121.914L674.017 96.334H692.118L674.316 121.914L692.118 147.345H673.867L655.617 121.914Z" fill="#5B5BD5"/>
<path d="M727.572 56.8418H745.672L702.739 179.508H684.639L727.572 56.8418Z" fill="#5B5BD5"/>
<path d="M736.248 147.345L754.05 121.914L736.248 96.334H754.498L772.898 121.914L754.498 147.345H736.248Z" fill="#5B5BD5"/>
<path d="M923.535 205.689H842.755C828.244 205.689 816.576 217.358 816.576 231.868V242.34C816.576 256.85 828.244 268.518 842.755 268.518H878.507L897.206 301.877L917.701 268.518H923.684C938.195 268.518 949.863 256.85 949.863 242.34V231.868C949.713 217.358 938.045 205.689 923.535 205.689Z" fill="#5B5BD5"/>
<path d="M845 237.404C845 231.121 849.637 227.082 855.471 227.082C861.306 227.082 865.943 231.271 865.943 237.404C865.943 243.537 861.306 248.025 855.471 248.025C849.637 248.025 845 243.537 845 237.404Z" fill="white"/>
<path d="M873.422 237.404C873.422 231.121 878.059 227.082 883.893 227.082C889.727 227.082 894.365 231.271 894.365 237.404C894.365 243.537 889.727 248.025 883.893 248.025C878.059 248.025 873.422 243.537 873.422 237.404Z" fill="white"/>
<path d="M901.844 237.404C901.844 231.121 906.481 227.082 912.315 227.082C918.149 227.082 922.787 231.271 922.787 237.404C922.787 243.537 918.149 248.025 912.315 248.025C906.481 248.025 901.844 243.537 901.844 237.404Z" fill="white"/>
<path d="M924.735 324.615H841.711V351.841H924.735V324.615Z" fill="#D8DBDE"/>
<path d="M924.735 333.592H841.711V351.992H924.735V333.592Z" fill="#E5E5E5"/>
<path d="M914.113 484.53H849.639L838.27 352.439H928.025L914.113 484.53Z" fill="#5B5BD5"/>
<path d="M928.025 352.439H838.27L841.261 373.682H924.435L928.025 352.439Z" fill="#E5E5E5"/>
<path d="M940.891 337.033H825.256V364.259H940.891V337.033Z" fill="#0E0F2D"/>
<path d="M883.15 445.486C897.113 445.486 908.431 434.167 908.431 420.205C908.431 406.243 897.113 394.924 883.15 394.924C869.188 394.924 857.869 406.243 857.869 420.205C857.869 434.167 869.188 445.486 883.15 445.486Z" fill="white"/>
</svg>
