<svg xmlns="http://www.w3.org/2000/svg" xmlns:xlink="http://www.w3.org/1999/xlink" width="1034.95" height="831.61"><style><![CDATA[.B{opacity:.1}.C{opacity:.25}.D{fill:#65617d}.E{fill:#6c63ff}.F{fill:#e7effd}.G{fill:#fbbebe}.H{stroke-miterlimit:10}]]></style><defs><linearGradient id="A" x1="924.49" y1="836.62" x2="924.49" y2="217.05" gradientUnits="userSpaceOnUse"><stop offset="0" stop-color="gray" stop-opacity=".25"/><stop offset=".54" stop-color="gray" stop-opacity=".12"/><stop offset="1" stop-color="gray" stop-opacity=".1"/></linearGradient><path id="B" d="M31.68 573.3c4 7.83 30.73 23.68 30.73 23.68s3.36-29.6-.67-37.45-14-11.1-22.32-7.3-11.77 13.24-7.74 21.08z"/><path id="C" d="M29.13 628.08c7.9 4.5 39.44 4.1 39.44 4.1s-14.23-26.58-22.1-31.1-18.16-2.13-22.94 5.32-2.3 17.15 5.6 21.66z"/><path id="D" d="M68.34 701.8c9.22.13 36.23-15.25 36.23-15.25s-26.5-16.16-35.72-16.3-16.82 6.82-17 15.53 7.26 15.86 16.5 16.02z"/><path id="E" d="M111.3 751.23c9.06 1.6 38.44-9.25 38.44-9.25s-23.22-20.18-32.27-21.76-17.8 4-19.5 12.6 4.26 16.8 13.33 18.4z"/><path id="F" d="M100.9 619.25c-3.15 8.2-28 26.55-28 26.55s-6.58-29.12-3.43-37.3 12.74-12.42 21.4-9.45 13.17 12.03 10.02 20.2z"/><path id="G" d="M150.38 677.7c-5.6 6.93-35.12 17.43-35.12 17.43s3-29.65 8.56-36.57c5.825-6.963 16.028-8.27 23.42-3a15.2 15.2 0 0 1 3.14 22.14z"/><path id="H" d="M190.2 740.72c-4.28 7.72-31.5 22.78-31.5 22.78s-2.4-29.7 1.9-37.4 14.37-10.7 22.55-6.66 11.32 13.57 7.05 21.3z"/><path id="I" d="M894.92 507.28s18.5-1.77 20.12-.44 12.13 8.13 18.35 3.84 2.07-19.23 2.07-19.82-.6-21.75-.6-21.75l-11.1-14.94-13.9-26.18-28.4-2.82.74 41.58-.15 21.3z"/></defs><g class="E"><path d="M601.3 95.07c-66.35-1.9-129.54-19.75-189.84-39.27S291.3 14.7 226.55 4.35c-41.65-6.65-89.28-7.6-122.84 11-32.3 17.9-42.73 48.78-48.34 77.45-4.23 21.56-6.7 44.26 4.86 64.44 8 14 22.3 25.8 32.15 39.2 34.3 46.7 10.06 104.3-27.12 149.9-17.44 21.4-37.67 41.8-51.13 64.57S-5.53 459.8 6.22 483c11.67 23 39.48 40.3 69.6 52.48 61.2 24.7 133.3 31.77 203.6 35.78 155.64 8.86 312.12 5 468.18 1.18 57.75-1.42 115.76-2.86 172.58-10.3 31.55-4.13 64.12-10.68 87-26.5 29.08-20.08 36.28-54.1 16.8-79.27-32.68-42.24-123-52.73-145.9-98.06-12.58-24.95.34-52.75 18.6-75.9 39.2-49.64 104.9-93.2 108.37-149.93 2.37-39-29.2-78-78.05-96.44-51.2-19.33-122.18-16.9-160 15.1C728.23 84.1 659.9 96.8 601.3 95.07z" class="B"/><ellipse cx="435.45" cy="802.29" rx="290.75" ry="29.32" class="B"/></g><path d="M169.47 799.1s-12.9-73.1-60.78-109.3c-20.1-15.2-34.8-35.87-41.2-59.4a179.25 179.25 0 0 1-5.78-34.1" fill="none" stroke="#535461" stroke-width="2" class="H"/><g class="E"><use xlink:href="#B"/><use xlink:href="#C"/><use xlink:href="#D"/><use xlink:href="#E"/><use xlink:href="#F"/><use xlink:href="#G"/><use xlink:href="#H"/></g><use xlink:href="#B" class="C"/><use xlink:href="#C" class="C"/><use xlink:href="#D" class="C"/><use xlink:href="#E" class="C"/><use xlink:href="#F" class="C"/><use xlink:href="#G" class="C"/><use xlink:href="#H" class="C"/><path d="M167.85 797.2s19.57-71.76-8.65-123.2c-11.84-21.58-16.4-46.1-12.17-70.08a180 180 0 0 1 9.35-33.38" fill="none" stroke="#535461" stroke-width="2" class="H"/><path d="M138.8 538.02c.32 8.7 17.93 33.4 17.93 33.4s15.78-25.8 15.46-34.5-8.05-15.52-17.27-15.22-16.45 7.6-16.12 16.3zm-25.84 49.12c5.28 7.14 34.28 18.84 34.28 18.84s-1.6-29.74-6.88-36.9a17.34 17.34 0 0 0-23.26-3.9 15.23 15.23 0 0 0-4.14 21.96zm4.2 82.36c8.38 3.65 39.68-.07 39.68-.07s-17.3-24.92-25.67-28.57-18.3-.2-22.17 7.7-.2 17.28 8.16 20.93zm18.04 61.66c7.6 4.94 39.12 6.25 39.12 6.25s-12.58-27.3-20.18-32.24c-7.597-4.95-17.725-3.205-23.23 4a15.23 15.23 0 0 0 4.29 21.99zm47.17-124.63c-6.4 6.28-37 13.57-37 13.57s6.5-29.15 12.88-35.43c6.557-6.285 16.843-6.476 23.63-.44a15.16 15.16 0 0 1 .49 22.3zm20.1 72.35c-8.1 4.2-39.58 2.5-39.58 2.5s15.43-26 23.52-30.16 18.25-1.4 22.68 6.25 1.5 17.22-6.62 21.4zm9.4 72.86c-7.23 5.42-38.57 8.78-38.57 8.78s10.56-28.07 17.8-33.5a17.38 17.38 0 0 1 23.47 2.55 15.19 15.19 0 0 1-2.69 22.16z" class="E"/><path d="M1074.74 412.36c.6-1.64-3.9-10.73-3.9-11.18s-4.65-5.52-4.65-8.35-6.16-8.94-6.16-8.94-8.25-3.43-9.15-10.88-9.9-7.6-9.9-7.6h0s0-.68.06-1.7c0-2.32-.07-6.46-1.1-8.72a8.85 8.85 0 0 0-5.11-4.33s-.9-5.8-2.7-7.6A8.56 8.56 0 0 1 1030 335c.9-2.83-1.2-10-5.56-11s-9.3-2.68-9.3-2.68-.5.1-1.2.2l-.6-.2a26.78 26.78 0 0 1-3.16.39 3.85 3.85 0 0 1-2.54-.84c-1.5-1.64-13.67-4.77-15.92-4.77s-8.7-3-8.7-3l-6.44-4.92c-1.8-1.38-5.16-7-5.65-7.8l-.06-.1a27 27 0 0 1-1.36-3.92h0a35.44 35.44 0 0 0 5.58-7.67c.16-.3.3-.6.44-.88a3.59 3.59 0 0 0 1-.16c.13 0 .26-.1.4-.15a6.55 6.55 0 0 0 3.19-3.81h0c.1-.32.2-.65.3-1 0-.1 0-.23.07-.34s.1-.45.14-.68l.07-.38c.02-.12.07-.45.1-.68s0-.25 0-.37c0-.3.07-.57.1-.85h0a30.28 30.28 0 0 1 .47-3.15h0c.9-4 3.33-7.46 5.06-11.2h0c.25-.53.48-1.08.7-1.63a21.34 21.34 0 0 0 .59-1.81l.15-.56c.1-.44.2-.9.3-1.34 0-.2.08-.4.1-.6.1-.62.2-1.24.24-1.87a23.18 23.18 0 0 0-1.49-10.51c-1.13-2.8-2.8-5.32-3.94-8.12-1.73-4.24-2.18-9-4.3-13.08-3.53-6.78-11.85-10.17-18.7-7.62-3.27 1.2-6.1 3.57-9.4 4.63-4.44 1.4-9.18.35-13.77-.3s-9.67-.7-13.36 2.3c-4.25 3.45-5.42 9.94-9.4 13.73-1.67 1.6-3.76 2.6-5.53 4.08a9 9 0 0 0-2.77 3.79c0 .1-.07.2-.1.32s-.07.25-.1.38-.06.3-.08.45 0 .2 0 .3a5.33 5.33 0 0 0 0 .8h0a6.54 6.54 0 0 0 .13.75v.2c0 .07.12.4.2.62a.56.56 0 0 0 0 .12c.08.23.17.45.26.68l.15.34.12.28a17.38 17.38 0 0 1 1.39 3.46 3.91 3.91 0 0 1-.13 2.29 7 7 0 0 1-1.67 2.18 31 31 0 0 0-6.77 10.85 28.78 28.78 0 0 0-.49 1.4h0l.2.05a8.52 8.52 0 0 0 1.31.29c.25 0 .5.06.76.08a11.75 11.75 0 0 0 3.06-.24 10.45 10.45 0 0 0 .76-.18 18.87 18.87 0 0 0 3-1.11v1.42a35.47 35.47 0 0 0 19.69 31.71c0 .32.1.65.13 1l.1.8-.4-.4s-2.7-1.34-5.26 2.53-7.35 5.67-7.35 5.67-27.32 4.32-28.37 7.9l-12.76.74s-4.5.6-5 10-2.85 10.3-2.85 10.3-5.25 9.24-4.8 14-4 7.16-4 7.16l-.6 8.5s-5-.74-6.3 5.07-3.75 8.5-3.75 8.5-8.26 6.86-8.7 12.67l-5.1 3.13s-11.86-2.68-14.56-7.45l-.83-.78a.75.75 0 0 1-.07-.12.28.28 0 0 0 0 .06c-1.78-1.68-5.54-5.18-5-4.38a3.64 3.64 0 0 1 .24 2.4l-.88-1-2.36-2.62s-19.17-18-30.43-19.38h0c-.15-.3-.87-3.12-2.8-1.35a15.65 15.65 0 0 0-.11 23l17.95 16.77.46.34 3.86 5a60.03 60.03 0 0 0-1.65 4.45s0 .1-.05.13c-.1.3-.2.58-.28.86l-.1.3c-.08.28-.17.56-.25.82s-.1.33-.14.5 0 .2-.08.28c-.42 1.5-.7 2.65-.84 3.3l-1-.3 1 .42v.16l-.06.3.92.4c5.26 2.3 31.5 13.8 32.86 15.55 1.5 1.93 11.4 7.6 20.4 2.83s11-12.08 11-12.08 8.7-12.07 9-13.86 7.06-3.88 7.06-3.88.6 20-2.85 27.28-9.9 39.66-9.9 39.66a4.76 4.76 0 0 1 1.28-.08l-.38 1.87a4.46 4.46 0 0 1 1.59 0c-.48 3.68-3.24 20.76-3.24 20.76s-.9 7.75-2.4 10.43-1.65 16.7-1.65 16.7l-2.4 10.13a19.57 19.57 0 0 0 .91 1.75h0s2.58 5.72 6.9 8.93a18.3 18.3 0 0 1-1.21 4.64 16.07 16.07 0 0 0-1.2 7.15c0 0-2.55 11.48-2.25 14.76s-1.65 11.33-1.65 11.33l-2.8 25.86s-1.8 22.5-.9 28.63-.6 14.45-.6 14.45 1.8 17.74 1.35 19.68-2.7 10.28-1.35 14.9.6 17.3.6 17.3.9 16.7 1.94 22.06-.3 12.23-.3 12.23-1 11.47-1.5 11.47-4.35 7.9 3.6 15.66 3 6.55 3 6.55-6.3-3.13-5.56 3.28c.72 6.1 1.7 4.5 1.8 4.34l-1.5 4.9 1 .15-.87 1a23.29 23.29 0 0 1-3 3.14c-1.8 1.34-2 4.32-2 4.32s-11.1 12.08-21.46 18.2c-5.45 3.22-10.15 5.94-12.2 8.2-1.85 2-1.55 3.66 2.3 4.93 8.1 2.68 22.36 4 32.57.6a38.06 38.06 0 0 0 15.91-10.29c0 0 6.46-3.28 12.77-2.1s18.9-7 18.9-7l-.23-2.12-.67-6.1a4.79 4.79 0 0 1-1.05-3.72 19.31 19.31 0 0 0-.53-5.36c-.1-.6-.22-1.18-.33-1.73l1.15-.2s-1.5-7.6 1.2-9.1 1.94-21 1.94-21-3.44-4.47-5.25-5.2-.15-10 .16-11.2 2.7-24.3 2.7-24.3-.9-7.3.3-10.43S897 694 897 694s-.9-1.5.76-3.28 1-17.74 1-17.74l-.14-10.14c0-2.1 1.8-9.7 3.45-12.22s.6-10.44.6-10.44h0l.1-.6c0-.23.08-.5.14-.85l.13-.8a112.6 112.6 0 0 1 2.97-13.01c2-6.26 4.2-17.3 4.2-17.3l14.16-36.83s6.45 11.93 6.45 23c0 0 1.65 13.27 1.2 16.85s1.33 20.33 1.33 20.33l1.95 25.2c0 1.05 2.4 19.68 3.9 22.5s-1.5 11.48-2.4 12.37.3 22.8.3 22.8l-2.7 20.87c-.45 3.58-2.25 17.3-.75 22.66s.9 6.1.9 6.1 5.4 5.52 2.25 6a8.25 8.25 0 0 0-6 10.87 139.25 139.25 0 0 0 6.61 16c0 0 .93-.2 2.48-.52v1.77l.18 8.88s1 8.5.45 10.44c-.44 1.42-1 8.1-1.33 11.6l-.17 2.12s0 7.9 16.66 5.52 19.66-8.94 19.66-8.94 0-.3.12-.82c.25-1.5.8-4.7 1.23-6.5.6-2.4-4.8-13.12-4.8-13.12s-.9-7.3-2.4-8.94a7.92 7.92 0 0 1-1.2-3.13c-.14-.6-.26-1.23-.36-1.84a11 11 0 0 1 1.11.2s-.9-5.22 2.56-6.86 2.55-5.06 2.1-6.56 1.35-9.84 1.35-9.84a4.85 4.85 0 0 1 1.2-4.76c2.1-2.1 3.75-16.7 3.75-16.7l.3-56.35s1.06-10-.14-14-2.4-11.77-.76-13.86.15-11.77.15-11.77 0-20.43 2.26-25.5 1.5-37.12 1.5-37.12l.6-21s4.9-4.64 3.75-28.83c5.23-.33 11.13-.52 12 .2 1.65 1.35 12.3 8.2 18.6 3.88 1.35-.6 7.5-5.8 7.5-5.8l-2.64-44.7c1.65 2.5 2.65 4.15 2.65 4.15 0-6.26 17.7-26.54 17.7-26.54s16.5-21.3 20.1-23.85 10.66-15.95 10.66-15.95a64.65 64.65 0 0 1 3.61-7.45c1.7-2.75-3.7-9.9-3.1-11.55zM1036 428c-4.5.45-14 10.74-14.1 13-.07 1.18-1.07 2.76-2 4l-.22-2.75c-1.06-13.17-2.2-29.22-1.7-30.78.9-2.68.6-14.75.6-14.75h0l.16-.23c3 9.35 12.43 20.38 12.43 20.38s1.65 4.77 3.6 4.92 1.23 6.2 1.23 6.2z" transform="translate(-82.53 -34.2)" fill="url(#A)"/><path d="M712.8 390.4s5.47-28.7 23.08-28.85l12.87 26.48-8.58 5.92s-18.64.6-27.37-3.55z" class="D"/><path d="M748.76 388.04l-8.58 5.92s-13.12.42-22.5-1.9a26.92 26.92 0 0 1-4.87-1.66s0-.16.1-.46v-.1a64.76 64.76 0 0 1 3.33-10.54 75.81 75.81 0 0 1 1.82-3.95c2.58-5 6.2-9.82 11.16-12.23a15.17 15.17 0 0 1 5.87-1.53h.78l.28.6 4.35 8.94z" class="B"/><use xlink:href="#I" class="D"/><use xlink:href="#I" class="B"/><path d="M732.2 360.8s-1.48 18.05-12.72 18.34c0 0-3.2-1.92-7.48-5.12-9.88-7.4-25.55-21.6-21.22-34.82 6.2-18.93 36.4 16 36.4 16l2.3 2.6z" class="G"/><path d="M732.2 360.8s-1.48 18.05-12.72 18.34c0 0-3.2-1.92-7.48-5.12l-.95-1.23a14.79 14.79 0 0 0 6.16 1.66 8.33 8.33 0 0 0 8-5.07 63.51 63.51 0 0 0 3.11-7.16 20.87 20.87 0 0 0 1.16-4.42z" class="B"/><path d="M727.3 393.52l-2.53-3.26-12.86-16.6a14.62 14.62 0 0 0 6.16 1.66c2.83.07 6-1 8-5.06a64.62 64.62 0 0 0 3.11-7.17c1.4-4 1.38-6 .88-6.73s3.14 2.68 4.9 4.34l.06.06.82.77 4.6 9.17v.36c.42 2.75 1.87 20.02-13.12 22.47z" class="F"/><path d="M815.93 774.3s-12.43 8.14-18.64 7-12.58 2.08-12.58 2.08a37.48 37.48 0 0 1-15.69 10.21c-10 3.4-24.1 2.06-32.1-.6-3.78-1.26-4.1-2.88-2.27-4.9 2-2.24 6.66-4.93 12-8.13 10.2-6.06 21.15-18 21.15-18s.15-3 1.93-4.28a23.06 23.06 0 0 0 3-3.12c1.6-1.88 3.08-3.84 3.08-3.84l36.56 1.06a113.1 113.1 0 0 0 1.1 5.32 19.27 19.27 0 0 1 .51 5.33 4.82 4.82 0 0 0 1 3.69l.66 6zm76.47 10.22c-.44 1.77-1 4.94-1.2 6.43l-.13.82s-3 6.5-19.37 8.88-16.42-5.48-16.42-5.48l.16-2.1c.3-3.46.88-10.1 1.32-11.5.58-1.92-.45-10.36-.45-10.36l-.17-8.8-.13-6.12 27.23-2.82a49.4 49.4 0 0 0 .88 6.06 7.75 7.75 0 0 0 1.19 3.11c1.48 1.63 2.36 8.88 2.36 8.88s5.33 10.65 4.74 13.02z" class="D"/><path d="M812.38 751.8l1.1 5.32c-3.95.73-21.2 3.72-25.52 1.63-4.9-2.37-15.4-3.7-15.4-3.7l.17-.6c1.6-1.88 3.08-3.84 3.08-3.84zm71.74 7.7c-6.9-1.17-22 1.66-28 2.88l-.13-6.12 27.23-2.82a49.4 49.4 0 0 0 .9 6.06z" class="B"/><path d="M899.47 535.24l-.6 20.86s.74 31.8-1.48 36.84-2.22 25.3-2.22 25.3 1.48 9.6-.15 11.68-.44 9.76.74 13.76.15 13.9.15 13.9l-.3 55.92s-1.62 14.5-3.7 16.57a4.85 4.85 0 0 0-1.18 4.73s-1.77 8.28-1.33 9.77 1.33 4.88-2.07 6.5-2.52 6.8-2.52 6.8c-8.13-1.93-31.2 3.26-31.2 3.26a138.84 138.84 0 0 1-6.51-15.84 8.19 8.19 0 0 1 5.92-10.79c3.1-.45-2.22-5.92-2.22-5.92s.6-.74-.9-6.06.3-19 .74-22.5l2.66-20.7s-1.18-21.74-.3-22.63 3.84-9.47 2.37-12.28-3.86-21.3-3.86-22.34-1.9-25-1.9-25-1.78-16.72-1.33-20.27-1.2-16.7-1.2-16.7c0-11-6.36-22.8-6.36-22.8l-.16.43-13.7 36.12s-2.22 10.94-4.14 17.15a112.18 112.18 0 0 0-2.89 12.85l-.13.8c0 .33-.1.6-.13.83l-.1.6s1 7.84-.6 10.36-3.4 10.06-3.4 12.13l.15 10.06s.6 15.83-1 17.6-.75 3.25-.75 3.25 2.66 12 1.48 15.1-.3 10.35-.3 10.35l-2.66 24.12c-.3 1.18-1.93 10.36-.15 11.1s5.17 5.17 5.17 5.17.75 19.4-1.92 20.86-1.2 9-1.2 9-21.44 4.14-26.32 1.77-15.4-3.7-15.4-3.7l1.47-4.86c-.1.17-1.07 1.75-1.77-4.3-.73-6.36 5.48-3.26 5.48-3.26s4.88 1.2-3-6.5-4-15.54-3.55-15.54 1.5-11.38 1.5-11.38 1.33-6.8.3-12.14-1.92-21.9-1.92-21.9.74-12.57-.6-17.15.88-12.88 1.33-14.8-1.38-19.48-1.38-19.48 1.48-8.28.6-14.34.9-28.4.9-28.4l2.66-25.74s1.92-8 1.63-11.25 2.23-14.64 2.23-14.64a16 16 0 0 1 1.18-7.1c1.48-3 2.07-12.72 2.07-12.72l14.2-32.55 7-28.7 93.93-.9.92 7 2.26 19.48 2.6 26.17c2.84 31.38-3.16 37-3.16 37z" fill="#3f3d56"/><path d="M890.78 276.2l-21.9 23.38s-28.1-11.25-25.14-15.1c1.14-1.5 1-6.2.3-11.37-1-8.2-3.26-17.63-3.26-17.63s49.1-8 45 .3c-1.5 3-1.25 6.56-.3 9.83a37 37 0 0 0 5.31 10.59z" class="G"/><path d="M885.75 255.8c-1.5 3-2.23 3.32-1.3 6.6-6.42 6.87-14.6 14.4-24.75 14.4a35.06 35.06 0 0 1-15.67-3.67c-1-8.2-3.26-17.63-3.26-17.63s49.1-8 44.97.3z" class="B"/><path d="M894.93 240.7c-.324 19.217-15.995 34.627-35.215 34.627s-34.89-15.41-35.215-34.627v-.5c.138-19.446 16.014-35.098 35.46-34.96s35.098 16.014 34.96 35.46z" class="G"/><path d="M900.02 472.98l-37.76.44-5.73.1h-.18c-20.58.33-40.87-3.7-49-2.93-17.3 1.62 6.22-16 6.22-16a144.78 144.78 0 0 0 39.43 4l5-.26c15.72-.9 31.53-2.37 39.8-4.85l2.23 19.5z" class="B"/><path d="M900.02 472.1l-37.76.44-5.73.1h-.18c-20.58.33-40.87-3.7-49-2.93-17.3 1.63 6.22-16 6.22-16a144.78 144.78 0 0 0 39.43 4l5-.26c15.72-.9 31.53-2.37 39.8-4.84l2.23 19.5z" fill="#5f5d7e"/><path d="M850.25 285.96l-27.22 12.73-21 162.43s12.42-5.62 19.53-2.07 29 .3 29 .3 16-.9 18.35.9 30.16-7.44 30.16-7.44 5-11.24 1.18-13 1.22-19.2 1.22-19.2l-2.4-117.17-4.74-15.1-12.72-7.7-13 10.35-6.2.9z" class="B"/><path d="M850.25 284.2l-27.22 12.72-21 162.44s12.42-5.62 19.53-2.07 29 .3 29 .3 16-.88 18.35.9 30.18-7.4 30.18-7.4 5-11.24 1.18-13 1.2-19.26 1.2-19.26l-2.4-117.16-4.74-15.08-12.72-7.7-13 10.36-6.2.9z" class="F"/><path d="M849.8 291.73s7.84 9.32 7.7 11.25l-.45 6.5-5.92 12s-3.25 14.94-3.25 18.05-5.18 30-5.18 30l-6.23 41.43-7.84 54.3 8 13.75 9.46-8 12.58-96.76 2.66-19.08 2.8-37.87c0-3.55-1.62-12.87-1.62-12.87s1.92-8.88 9.9-11-.6-.45-.6-.45l-4.6-3.7-4 1.62s-11.08-3.33-13.45.8z" class="B"/><path d="M848.9 290.85s7.85 9.32 7.7 11.24l-.45 6.5-5.9 12S847 335.54 847 338.65s-5.18 30-5.18 30l-6.2 41.42-7.84 54.3 8 13.76 9.47-8 12.57-96.75 2.67-19.07 2.8-37.87c0-3.55-1.62-12.87-1.62-12.87s1.92-8.88 9.9-10.95-.6-.44-.6-.44l-4.6-3.7-4 1.63s-11.1-3.4-13.48.74z" class="E"/><path d="M843.74 275.3s-1.2.9-1.48 6.8-4.44 19.23-4.44 19.23 15.4-10.65 23.08-9.47z" class="B"/><path d="M843.74 273.54s-1.2.88-1.48 6.8-4.44 19.23-4.44 19.23 15.4-10.65 23.08-9.46z" class="F"/><path d="M885.75 270.58l-24.28 21.3s20.42 12.13 23.08 15.1 5.32-29 5.32-29z" class="B"/><path d="M886.64 268.8l-24.26 21.3s20.4 12.13 23.1 15.1 5.32-29 5.32-29z" class="F"/><path d="M844.62 275.3s-2.66-1.33-5.17 2.52a16.8 16.8 0 0 1-7.25 5.62s-26.93 4.3-28 7.84l-12.58.74s-4.44.6-4.88 9.9-2.8 10.2-2.8 10.2-5.18 9.17-4.73 13.9-4 7.1-4 7.1l18.5 48.08s.6 19.82-2.8 27.07-9.76 39.35-9.76 39.35 2.66-.6 2.5 1.18-3.16 21.16-3.16 21.16-.9 7.7-2.37 10.36-1.63 16.56-1.63 16.56l-2.36 10.06s5.62 12.58 14.2 10.8 24.1-35.35 24.1-35.35l9.92-36.25 7.7-35.8 2.22-24.26 3.55-53.7 5.18-35.5s5.72-19.1 3.64-21.6z" class="B"/><path d="M843.74 273.54s-2.67-1.33-5.18 2.5a16.71 16.71 0 0 1-7.25 5.62s-26.92 4.3-28 7.84l-12.58.74s-4.43.6-4.88 9.92-2.8 10.2-2.8 10.2-5.18 9.18-4.73 13.9-4 7.1-4 7.1l18.5 48.08s.6 19.82-2.8 27.07-9.77 39.36-9.77 39.36 2.66-.6 2.52 1.18-3.26 21.15-3.26 21.15-.9 7.7-2.37 10.36-1.62 16.57-1.62 16.57l-2.37 10.06s5.62 12.57 14.2 10.8 24.14-35.36 24.14-35.36l9.9-36.24 7.7-35.8 2.22-24.27 3.55-53.7 5.18-35.5s5.8-19.1 3.72-21.6z" class="D"/><path d="M748.76 388.04l-8.58 5.92s-13.12.42-22.5-1.9l-4.77-2.12-1-.42 1 .3c4.95 1.47 8.82 1.44 11.85.42 12.14-4.1 10.8-24.14 10.33-28.67 0-.46-.08-.75-.1-.86a.28.28 0 0 1 0-.06l.07.12a6.62 6.62 0 0 0 .56.78 14.3 14.3 0 0 0 .54.58h0l4.3 8.57v.36z" class="B"/><path d="M778.47 330.2l-4.15 1.18-.6 8.43s-4.88-.74-6.2 5-3.7 8.44-3.7 8.44-8.14 6.8-8.58 12.57l-5 3.1s-11.7-2.67-14.35-7.4c0 0 5.33 38.17-23.08 28.85 0 0 31.8 13.9 33.3 15.83s11.24 7.54 20.12 2.8 10.8-12 10.8-12 8.58-12 8.87-13.76 7-3.85 7-3.85l12.72-30.77z" class="D"/><path d="M882.35 288.33l4.3-19.53s1.92 6.36 3.85 7.84l6.36 4.9s6.36 2.95 8.58 2.95 14.2 3.1 15.68 4.74 7.4.44 7.4.44 4.88 1.63 9.17 2.66 6.36 8.14 5.47 11a8.53 8.53 0 0 0 2.07 8c1.78 1.78 2.67 7.55 2.67 7.55a8.66 8.66 0 0 1 5 4.29c1.48 3.25 1 10.35 1 10.35l-22 31.07s.3 12-.6 14.65 3.1 47.93 3.1 47.93l4.6 77.8s-6.07 5.18-7.4 5.77-2.66-27.5-2.66-28.55-34.17-51.2-34.17-51.2-4.6-7.4-4.6-9-4.3-16.57-4.3-16.57l-6.5-28.85z" class="B"/><path d="M955.78 331.8v1.7l-22 31s.3 12-.58 14.64c-.52 1.55.6 17.47 1.66 30.55l1.44 17.38 4.58 77.8s-6.06 5.18-7.4 5.77-2.66-27.5-2.66-28.55-34.18-51.18-34.18-51.18-4.6-7.4-4.6-9-4.3-16.57-4.3-16.57l-6.5-28.85 2.95-88.17 2.42-19.52s3.7 6.37 5.62 7.84l6.36 4.88s6.36 3 8.58 3 14.2 3.1 15.7 4.73 7.4.44 7.4.44 4.88 1.63 9.17 2.66 6.37 8.14 5.48 11a8.51 8.51 0 0 0 2.07 8c1.77 1.77 2.66 7.54 2.66 7.54a8.7 8.7 0 0 1 5 4.3c1.06 2.15 1.16 6.26 1.12 8.6z" class="D"/><path d="M774.95 725.94c.73 0 31.8 1.18 31.2 6.2s-31.2-6.2-31.2-6.2zm6.95 8.43s20.86 3.4 15.38 6.5-15.38-6.5-15.38-6.5zm77.57-11.7s34.62 3 29.44 6.8-17.46 4.43-18 4.58-11.44-11.4-11.44-11.4zm-4.2 15.24s19.23 3.25 19.82 7-19.82-7-19.82-7zm10.65-89.06s17.6 4.14 18.64 7zm-67.9 12.72s-9.17 2.66-.3 8 .3-8 .3-8zM838.7 519.4c1 0 17.16-5.32 22.78-3a37.49 37.49 0 0 0 12.57 2.39zm2.08 16.87l-.16 1.47-13.75 36.12s-2.22 10.94-4.14 17.15a112.18 112.18 0 0 0-2.89 12.85l12.2-75.72z" class="B"/><path d="M862.26 472.53l-5.73.1h-.18l-3.36-14.9 5-.27z" fill="#3f3d56"/><path d="M932.06 454.47l-3.7 3-12.3 10.13s-33.3 17.76-42.46.9c-8.08-14.86 29.66-25.47 38.75-27.78l1.93-.47z" class="G"/><path d="M789.9 309.04s6.5 3 8 7.1-8-7.1-8-7.1zm-20.13 44.38s-9.47 11.54-5.62 16 5.62-16 5.62-16zM939 315.55s-8.88.9-9.17 8.58zm-82.24 121.3c.88-.9 21.3-31.07 26-28.4zm38.17-196.16a35 35 0 0 1-4.17 16.62l-.26-.05c-2.23-.47-3.4-3.07-5.1-4.7a6.93 6.93 0 0 0-8-1.12 8.13 8.13 0 0 0-3.92 7.59c-1.13-4.74-.77-9.77-1.87-14.52s-4.4-9.55-8.95-9.63c-2 0-4.23.7-5.65-.75-.85-.88-1-2.27-1.66-3.35-3.24-5.24-13.1-2.6-17.14.1s-8.7 7-13.7 9.3c.138-19.446 16.014-35.098 35.46-34.96s35.098 16.014 34.96 35.46z" class="B"/><path d="M855.36 229.9c.64 1.07.8 2.46 1.66 3.34 1.4 1.47 3.7.7 5.65.75 4.54.08 7.85 4.88 8.95 9.63s.74 9.78 1.87 14.52a8.11 8.11 0 0 1 3.93-7.59 6.93 6.93 0 0 1 8 1.12c1.7 1.62 2.87 4.22 5.1 4.7s4.38-1.67 5.2-4 .75-4.93 1.28-7.37c1-4.6 4-8.4 5.68-12.8a23.17 23.17 0 0 0-.15-16.52c-1.1-2.78-2.76-5.28-3.9-8.05-1.7-4.22-2.14-9-4.22-13-3.48-6.73-11.68-10.1-18.43-7.56-3.2 1.2-6 3.54-9.27 4.6-4.37 1.4-9.05.35-13.57-.28s-9.53-.7-13.17 2.28c-4.2 3.43-5.33 9.87-9.27 13.63-1.65 1.58-3.7 2.6-5.44 4s-3.25 3.63-3 6c.26 3.06 3.26 5.84 2.15 8.68a7 7 0 0 1-1.64 2.17 30.93 30.93 0 0 0-7.16 12.18c7.9 2.48 16.48-6.25 22.68-10.38 3.97-2.63 13.83-5.3 17.07-.04z" fill="#7c5c5c"/><path d="M932.06 454.47l-3.7 3c-3.25-5.4-16.58-16.2-16.58-16.2l.58-.56 1.93-.47z" class="B"/><path d="M935.6 449l-2.7 6.14c-1.36 2.84-2.86 5.44-2.93 3.33-.15-4.14-17.3-18.05-17.3-18.05l2.33-2.26 2.7-2.62z" class="F"/><path d="M936.2 427.1l1.95 33c-4.6-7.15-17.22-25.47-25.33-24.88l19.65-22.6a26.81 26.81 0 0 0 2.26-2.89l1.47 17.38z" class="B"/><path d="M935.6 449l-2.7 6.14c-5.16-7.07-12.25-15.42-17.9-17l2.7-2.62z" class="B"/><path d="M950.4 329.3l5.33 4.14s8.87.15 9.76 7.55 9 10.8 9 10.8 6.06 6.06 6.06 8.87 4.6 7.84 4.6 8.3 4.44 9.47 3.84 11.1 4.74 8.73 3.1 11.4a65.63 65.63 0 0 0-3.55 7.4c0 0-6.95 13.32-10.5 15.83s-19.83 23.67-19.83 23.67-17.45 20.12-17.45 26.33c0 0-17-28.4-27.08-27.66l19.68-22.64s3.4-3.7 3.55-5.9 9.47-12.43 13.9-12.87c0 0 .73-6.07-1.2-6.22s-3.55-4.88-3.55-4.88-13-15.38-13.17-25.15 17.5-30.03 17.5-30.03z" class="D"/><path d="M958.24 343.36s-12.42 9.18-9.76 12.13 9.76-12.13 9.76-12.13zm.6 37.88s23.08-7.4 25.45 0zM815.93 774.3s-12.43 8.14-18.64 7-12.58 2.08-12.58 2.08a37.48 37.48 0 0 1-15.69 10.21c-10 3.4-24.1 2.06-32.1-.6-3.78-1.26-4.1-2.88-2.27-4.9 8.7 1.73 28.1 5.18 33.33 2.67 6.8-3.26 16.57-10.36 16.57-10.36s12.73-1.77 14.5-1.77c1.26 0 11.1-4.06 16.64-6.38zm75.27 16.65l-.13.82s-3 6.5-19.37 8.88-16.42-5.48-16.42-5.48l.16-2.1c5.2 1.97 16.54 4.17 35.76-2.1zM796.03 341.6s0 33.73-2.9 37.06 2.9-37.06 2.9-37.06zm133.37 10.86l4.3 12.06s1.7-11.84-4.3-12.06z" class="B"/><g class="B"><path d="M824.8 223.15c1.08-2.78-1.76-5.5-2.13-8.48a5.56 5.56 0 0 0-.47 2.68c.2 2.24 1.84 4.33 2.28 6.4a4 4 0 0 0 .32-.61zM873.9 255c-1.06-4.66-.75-9.6-1.83-14.27s-4.4-9.55-8.94-9.63c-2 0-4.24.72-5.65-.74-.86-.88-1-2.28-1.67-3.35-3.24-5.25-13.1-2.6-17.14.1-6 4-14.36 12.43-22.12 10.53a31.72 31.72 0 0 0-1 2.73c7.9 2.48 16.48-6.25 22.68-10.38 4-2.68 13.9-5.34 17.14-.1.64 1.07.8 2.46 1.66 3.34 1.4 1.47 3.7.7 5.65.75 4.54.08 7.85 4.88 8.95 9.63s.74 9.78 1.87 14.52a8.16 8.16 0 0 1 .4-3.14z"/><path d="M896.13 249.47c-.8 2.34-2.9 4.5-5.2 4s-3.4-3.07-5.1-4.7a7 7 0 0 0-8-1.11 8.06 8.06 0 0 0-3.93 7.16 7.76 7.76 0 0 1 3.49-4.28 6.93 6.93 0 0 1 8 1.12c1.7 1.62 2.87 4.22 5.1 4.7s4.38-1.67 5.2-4a20.21 20.21 0 0 0 .81-4.25 11.1 11.1 0 0 1-.38 1.37zm6.97-20.17c-1.66 4.4-4.68 8.17-5.68 12.8-.2.93-.32 1.88-.43 2.84 1-4.6 4-8.37 5.67-12.75a22.81 22.81 0 0 0 1.37-6.13 22.39 22.39 0 0 1-.93 3.25z"/></g><circle cx="689.3" cy="336.07" r=".36" fill="#e6e8ec"/><ellipse cx="817.04" cy="792.28" rx="86.34" ry="8.81" class="B E"/><path d="M499.55 214.4l-261.5 169.66 170.66 307.8a11.91 11.91 0 0 0 7.6 5.8l154.63 37.72a11.92 11.92 0 0 0 13.54-6.41l76.7-159.35 84.06-112.37-199.48-236c-11.484-13.58-31.27-16.514-46.2-6.85z" fill="#dcdfed"/><path d="M747.9 458.57l-.74 1-83.32 111.4-76.7 159.35a11.92 11.92 0 0 1-13.56 6.41l-154.63-37.74a11.89 11.89 0 0 1-7.6-5.8l-17.54-31.6-153.1-276.2 261.5-169.66c14.93-9.683 34.733-6.752 46.22 6.84l91 107.7 4 4.8 103.8 122.8z" class="B"/><path d="M707.26 412.3l-10.5 72.9-8.73 226.9a11.93 11.93 0 0 1-14.51 11.17L281.3 635.72l4.2-282.46 92-59.68c80.26 8.23 187 24.06 259.3 35.35l4 4.8 66 78.14z" class="B"/><path d="M716.4 345.9l-20.62 143.3-8.73 226.9a11.93 11.93 0 0 1-14.51 11.17L280.3 639.72l5.16-347.43c18.78-.9 49.68 1.12 86.57 4.83 82.6 8.3 195.2 25.06 268.82 36.6l75.54 12.17z" class="E"/><path d="M740.47 451.58l-258 126.53-239-197.58-5.42 3.52 44.86 80.9-2.6 174.77 113.56 25.36 14.84 26.77a11.89 11.89 0 0 0 7.6 5.8l154.63 37.72a11.92 11.92 0 0 0 13.53-6.41l9.26-19.23 78.78 17.6a11.93 11.93 0 0 0 14.51-11.17l7.34-190.9 50.13-67 .14-1.7z" class="B"/><path d="M238.04 384.05L220.2 689.38a11.92 11.92 0 0 0 9.31 12.33l473.52 105.15a11.92 11.92 0 0 0 14.43-10.67l27.75-338.95L482.47 586.1z" fill="#dcdfed"/><path d="M223.47 696.37l246-151.77a18.06 18.06 0 0 1 23 3.6L712.65 805c.8.92 1.2.26 0 0L223.47 696.37c-1.4-.3-1.22.73 0 0z" class="B"/><path d="M225.23 696.12L468.7 549.05a19.09 19.09 0 0 1 24.28 3.82l218.2 250.93a2.63 2.63 0 0 1-2.55 4.29l-482.6-107.16a2.62 2.62 0 0 1-.79-4.81z" fill="#e3e5f1"/></svg>