<svg xmlns="http://www.w3.org/2000/svg" width="100" height="100" fill="none"><g clip-path="url(#A)"><g fill="#fff"><path d="M64.656 9.692a2.54 2.54 0 0 0 2.538-2.538 2.54 2.54 0 0 0-2.538-2.538 2.54 2.54 0 0 0-2.538 2.538 2.54 2.54 0 0 0 2.538 2.538zM91.108 8.52c-1.796-1.796-3.448-2.736-4.15-2.736L59.323 33.4a2.63 2.63 0 0 0-.001 3.713l3.182 3.182a2.61 2.61 0 0 0 3.713 0l27.628-27.628c.038-.48-.696-2.114-2.738-4.156zm-67.03 20.666a8.72 8.72 0 0 0 .509-4.489L9.052 31.5c2.425 3 6.655 4.162 10.362 2.54a8.73 8.73 0 0 0 4.664-4.845zM34.33 57.34l-2.16-7.058-9.112.7-.18.007a2.31 2.31 0 0 1-2.298-2.129 2.31 2.31 0 0 1 2.122-2.48l7.323-.57c-1.187-1.636-2.553-2.258-4.478-2.258-1.175 0-2.557.225-4.225.7-5.193 1.44-6.217 3.303-6.55 5.1-.523 2.823.566 7.095 2.16 12.822 2.916 10.508 5.645 12.62 9.104 12.62 1.04 0 2.224-.2 3.614-.577 6.137-1.715 8.144-4.44 4.68-16.875zM7.718 22.784a8.74 8.74 0 0 0-.518 4.48l15.537-6.794c-.947-1.178-2.2-2.095-3.637-2.663a8.79 8.79 0 0 0-3.212-.612 8.75 8.75 0 0 0-3.513.739 8.72 8.72 0 0 0-4.657 4.85z"/></g><g fill="#5b5bd5"><path d="M64.656 14.308c3.945 0 7.154-3.2 7.154-7.154S68.6 0 64.656 0s-7.154 3.2-7.154 7.154 3.2 7.154 7.154 7.154zm0-9.692a2.54 2.54 0 0 1 2.538 2.538 2.54 2.54 0 0 1-2.538 2.538 2.54 2.54 0 0 1-2.539-2.538 2.54 2.54 0 0 1 2.539-2.538zM97.624 9.55c-.92-1.825-2.433-3.474-3.253-4.294-1.865-1.865-4.665-4.087-7.415-4.087-1.256 0-2.38.46-3.25 1.33L56.06 30.147a7.25 7.25 0 0 0-.04 10.198l-3.744 3.744-17.148 1.334c-1.982-3.907-4.77-6.476-9.584-6.476-1.6 0-3.385.28-5.46.857-3.73 1.035-8.807 3.063-9.853 8.706-.704 3.798.5 8.572 2.252 14.9 2.665 9.602 6 15.998 13.55 15.998.095 0 .193-.004.3-.006 1.765 4.36-.22 8.22-2.653 10.317-3.038 2.62-8.62 4.095-14.347-.38-.516-.403-1.18-.57-1.825-.454a2.31 2.31 0 0 0-1.557 1.055l-4.06 6.535a2.31 2.31 0 0 0 .743 3.178c.38.236.8.348 1.215.348.77 0 1.526-.387 1.962-1.1l2.787-4.487c6.804 4.048 13.83 2.47 18.094-1.2 4.378-3.777 5.923-9.354 4.26-14.57 2.48-.7 4.404-1.646 5.86-2.828 5.14-1.395 9.814.15 12.565 4.18 2.464 3.608 3.6 10.035-1.266 16.277A2.31 2.31 0 0 0 49.924 100h7.693a2.31 2.31 0 0 0 2.308-2.307 2.31 2.31 0 0 0-2.308-2.308h-3.523c1.195-2.42 1.87-4.995 1.983-7.606.16-3.73-.868-7.42-2.895-10.388-3.017-4.417-7.77-6.773-13.055-6.685 1.05-3.814.287-8.723-1.35-14.603-.6-2.163-1.183-4.255-1.83-6.193l10.3-.802-.102.102a2.31 2.31 0 0 0 0 3.264 2.3 2.3 0 0 0 3.264 0l8.865-8.865a7.19 7.19 0 0 0 5.078 2.081c1.934 0 3.753-.753 5.12-2.12L97.13 15.92c.92-.92 2.208-2.97.496-6.37zm-71.6 65.242c-3.46 0-6.188-2.1-9.104-12.62-1.596-5.727-2.685-10-2.16-12.822.333-1.797 1.357-3.66 6.55-5.1 1.668-.464 3.05-.7 4.225-.7 1.925 0 3.3.622 4.478 2.258l-7.323.57a2.31 2.31 0 0 0-2.122 2.48 2.31 2.31 0 0 0 2.298 2.129 2.41 2.41 0 0 0 .181-.007l9.112-.7c.67 1.863 1.363 4.184 2.16 7.058 3.463 12.436 1.456 15.16-4.682 16.875-1.4.388-2.573.577-3.614.577zm38.328-33.72a2.61 2.61 0 0 1-1.857-.769l-3.182-3.182a2.63 2.63 0 0 1 .001-3.713L86.95 5.785c.7 0 2.363.94 4.158 2.736 2.042 2.042 2.776 3.676 2.738 4.156L66.218 40.305a2.61 2.61 0 0 1-1.857.77zM3.615 31.35c2.2 5.03 7.13 8.033 12.298 8.033a13.33 13.33 0 0 0 5.349-1.122 13.31 13.31 0 0 0 7.113-7.39 13.29 13.29 0 0 0 .537-8.063l6.53-2.855a2.31 2.31 0 0 0 1.19-3.039 2.31 2.31 0 0 0-3.039-1.19l-6.528 2.854a13.31 13.31 0 0 0-6.28-5.067 13.31 13.31 0 0 0-10.26.196c-3.276 1.433-5.8 4.06-7.106 7.397s-1.235 6.974.195 10.246zM19.1 17.806c1.447.568 2.7 1.485 3.637 2.663L7.2 27.262a8.75 8.75 0 0 1 .518-4.479c.856-2.2 2.5-3.912 4.657-4.85a8.75 8.75 0 0 1 3.513-.739c1.085 0 2.172.204 3.213.612zM9.052 31.5l15.534-6.793a8.72 8.72 0 0 1-.509 4.489c-.855 2.183-2.5 3.903-4.664 4.844-3.707 1.62-7.937.47-10.362-2.54z"/></g></g><defs><clipPath id="A"><path fill="#fff" d="M0 0h100v100H0z"/></clipPath></defs></svg>