<svg xmlns="http://www.w3.org/2000/svg" width="100" height="100" fill="none"><g clip-path="url(#A)"><path d="M61.486 45.555A22.18 22.18 0 0 0 82.41 60.374h5.416c0 13.42-6.99 25.214-17.524 31.932a37.6 37.6 0 0 1-11.181 4.801c-2.927.727-5.988 1.11-9.14 1.11s-6.212-.384-9.14-1.11c-4.02-.996-7.783-2.634-11.18-4.8-10.538-6.718-17.524-18.5-17.524-31.932h5.413a22.18 22.18 0 0 0 20.924-14.819 12.2 12.2 0 0 1 23.012 0z" fill="#fff"/><path d="M43.374 97.108c2.116.727 4.33 1.11 6.608 1.11-3.15 0-6.212-.384-9.14-1.11-4.02-.996-7.783-2.634-11.18-4.8-10.538-6.718-17.524-18.5-17.524-31.932h5.413a22.18 22.18 0 0 0 20.924-14.82c.86-2.44 2.442-4.48 4.455-5.905s4.46-2.243 7.05-2.243c-1.87 0-3.64.816-5.094 2.243s-2.6 3.464-3.222 5.905c-2.258 8.88-8.32 14.82-15.125 14.82h-3.91c0 13.42 5.048 25.214 12.666 31.932 2.457 2.166 5.178 3.805 8.08 4.8z" fill="#ccc"/><path d="M47.846 1.817c0 13.558-9.595 11.262-9.386 20.442.093 4.072 2.807 6.776 6.34 8.026 1 .357 1.927-.722 1.43-1.67-1.456-2.78-2.42-7.306 3.287-11.154.257 5.218 4.587 6.05 4.587 9.803a9.42 9.42 0 0 1-.082 1.286c-.125.926.835 1.62 1.68 1.22 2.97-1.41 5.257-3.966 5.703-7.72C62.866 9.742 47.846 1.817 47.846 1.817z" fill="#fff"/><g fill="#5b5bd5"><path d="M50 100a39.75 39.75 0 0 1-9.572-1.164 39.35 39.35 0 0 1-11.714-5.03 39.49 39.49 0 0 1-18.356-33.449 1.8 1.8 0 0 1 1.799-1.799h5.413a20.41 20.41 0 0 0 19.226-13.617A14.01 14.01 0 0 1 50 35.6a14.02 14.02 0 0 1 13.203 9.351 20.41 20.41 0 0 0 19.226 13.617h5.415a1.8 1.8 0 0 1 1.8 1.799 39.7 39.7 0 0 1-1.511 10.875 1.8 1.8 0 0 1-2.223 1.238 1.8 1.8 0 0 1-1.238-2.223 36.03 36.03 0 0 0 1.328-8.1h-3.57a24.01 24.01 0 0 1-22.62-16.02C58.345 41.98 54.404 39.2 50 39.2s-8.346 2.792-9.808 6.947C36.82 55.72 27.73 62.16 17.572 62.16H14c.573 11.677 6.704 22.276 16.648 28.615a35.76 35.76 0 0 0 10.646 4.572 36.51 36.51 0 0 0 17.411 0 35.75 35.75 0 0 0 10.646-4.572 36.18 36.18 0 0 0 12.838-14.18 1.8 1.8 0 0 1 2.418-.794 1.8 1.8 0 0 1 .794 2.418 39.79 39.79 0 0 1-14.115 15.591c-3.62 2.3-7.562 4.002-11.715 5.03A39.77 39.77 0 0 1 50 100.001zm-4.786-67.865a2.99 2.99 0 0 1-.997-.172c-4.618-1.635-7.435-5.254-7.537-9.68-.113-4.973 2.355-7.282 4.532-9.32 2.496-2.335 4.853-4.542 4.853-11.163a1.8 1.8 0 0 1 .87-1.541 1.8 1.8 0 0 1 1.769-.051c.163.086 4.032 2.147 7.75 5.8 5.085 5 7.42 10.62 6.755 16.226-.482 4.062-2.868 7.306-6.718 9.134-.995.47-2.158.357-3.043-.3a2.97 2.97 0 0 1-1.192-2.796 7.73 7.73 0 0 0 .065-1.046c0-1.044-.53-1.72-1.548-2.926-.804-.95-1.73-2.048-2.35-3.574-1.8 2.04-1.977 4.353-.582 7.016a2.97 2.97 0 0 1-.391 3.345c-.578.667-1.394 1.03-2.237 1.03zM49.482 4.93c-.73 5.906-3.513 8.5-5.812 10.662-2.014 1.885-3.47 3.247-3.393 6.6.07 3.083 1.977 4.807 3.708 5.738-1.693-4.56-.1-8.864 4.543-11.988a1.8 1.8 0 0 1 2.803 1.404c.107 2.177 1.073 3.32 2.2 4.643 1.124 1.33 2.398 2.84 2.398 5.25l-.005.356c1.66-1.027 3.364-2.795 3.72-5.78.955-8.046-6.22-14.175-10.154-16.892z"/></g></g><defs><clipPath id="A"><path fill="#fff" d="M0 0h100v100H0z"/></clipPath></defs></svg>