<svg xmlns="http://www.w3.org/2000/svg" width="100" height="100" fill="none"><g clip-path="url(#A)" fill="#5b5bd5"><path d="M13.816 35.063c1.228.886 2.753 2.7 3.046 6.3.2 2.35.97 7.722 2.677 12.935 4.3 13.124 10.72 13.95 15.9 10.442.46 1.128.38 2.94 1.797 5.56-1.826 2.392-3.946 3.788-6.313 4.145-2.2.33-2.44 3.4-.324 4.077 4.737 1.494 9.312.837 12.56-2.918a14.83 14.83 0 0 0 .646.256l.83 16.262c.016.313-.144.62-.44.84-3 2.254-1.347 7.03 2.24 7.03h7.206c3.837 0 5.283-4.84 2.327-7.04-.33-.245-.513-.604-.494-.96l.896-16.132a16.26 16.26 0 0 0 .645-.255c3.25 3.756 7.825 4.4 12.562 2.918 2.113-.667 1.867-3.746-.325-4.077-2.367-.357-4.486-1.753-6.313-4.145 1.417-2.62 1.338-4.436 1.798-5.56 2.208 1.5 4.654 2.25 7.185 1.46 4.012-1.254 7.2-6.097 9.474-14.394.215-.785-.247-1.595-1.032-1.8a1.46 1.46 0 0 0-1.8 1.032c-1.936 7.062-4.603 11.452-7.5 12.36-1.365.427-2.904.076-4.6-1.04 3.72-4.775 5.553-10.825 5.084-17.4a18.18 18.18 0 0 0 .636-6.361c2.76-4.433 6.518-5.708 10.747-4.276-2.6 3.178-2.348 6.316-2.928 10.002-.127.804.422 1.558 1.226 1.685s1.558-.423 1.685-1.226a46.76 46.76 0 0 0 .423-3.404c.293-3.6 1.818-5.423 3.046-6.3a2.71 2.71 0 0 0 .246-4.192c-3.952-3.63-8.825-5.637-13.94-3.944-1.757-7.107-6.135-13.55-12.578-17.032a9.97 9.97 0 0 0-5.553-9.42c-.73-.362-1.613-.066-1.975.662s-.066 1.613.662 1.976a7.04 7.04 0 0 1 3.874 5.43A20.98 20.98 0 0 0 50.1 7.321a20.91 20.91 0 0 0-7.016 1.223 7.13 7.13 0 0 1 4.473-5.696c.758-.292 1.137-1.145.845-1.904S47.256-.194 46.497.1a10.08 10.08 0 0 0-6.408 9.796c-6.432 3.474-10.82 9.913-12.58 17.04a12.15 12.15 0 0 0-1.005-.288c-3.02-.717-7.716-.566-12.932 4.225-1.262 1.158-1.145 3.188.244 4.192h0zm68.204-4.03c-3.92-.74-7.65.393-10.57 3.632a19.69 19.69 0 0 0-1.233-3.038c3.776-3.008 7.92-3.004 11.804-.594zM34.68 76.3c1.58-.793 3.046-1.977 4.356-3.522a11.45 11.45 0 0 0 1.505 1.33c-1.764 1.765-3.87 2.275-5.86 2.2h0zm3.965-11.036C38.26 62.97 37 61.678 36.56 61.16c-3.503-4.142-5.18-9.397-5.025-14.887l2.354.005c.387 3.857 2.318 8.397 8.916 9.732l.845 16.582c-2.9-1.48-4.466-4.074-5.006-7.316zm-1.698-18.376c2.906 1.168 5.008 4.32 5.53 6.02-2.4-.65-4.833-2.152-5.53-6.02h0zm17.548 9.842l-1.95 35.096c-.076 1.347.552 2.652 1.677 3.5.278.208.5.616.324 1.142-.122.346-.488.587-.898.587H46.57c-.696-.058-.983-.536-.983-.96a.95.95 0 0 1 .388-.765c1.076-.806 1.68-2.058 1.614-3.348l-1.898-37.27c-.01-1.78-.472-3.4-1.476-5-3.3-5.336-6.656-6.4-12.426-6.4 1.505-10.34 9.747-13.618 15.04-12.38 3.693.863 6.297.008 7.203-.125 3.696-.546 7.984.92 10.784 4.112 2.05 2.338 3.14 5.304 3.594 8.394-1.755 0-7.56-.542-11.396 5.025-2.43 3.527-2.28 4.094-2.52 8.4h0zM50.1 27.174c2.62 0 4.778-1.4 5.8-3.426 5.678 1.6 10.474 5.557 12.455 10.953-3.6-5.42-10.235-7.89-15.645-6.628a11.49 11.49 0 0 1-5.2 0C42.224 26.84 35.57 29.11 31.854 34.7c.427-1.162 1.018-2.26 1.16-2.474 0 0 3.07-6.168 11.295-8.48 1.083 2.18 3.346 3.426 5.8 3.426h0zm-.001-13.47c4.467 3.242 5.006 10.836-.255 10.515-4.945-.317-3.82-7.557.255-10.515zM63.244 46.94c-.698 3.78-3.078 5.286-5.415 5.952.587-1.847 2.586-4.772 5.415-5.952h0zM65.52 76.3c-1.987.084-4.096-.425-5.86-2.2a11.48 11.48 0 0 0 1.505-1.331c1.3 1.545 2.775 2.73 4.356 3.522zM63.352 61.5v.001c-.565.565-1.504 2.022-1.797 3.783-.537 3.226-2.1 5.824-4.988 7.307l.92-16.583c6.524-1.376 8.437-5.892 8.823-9.72.344-.01-.252-.008 2.354-.008.17 6.02-1.862 11.324-5.312 15.22h0zM50.1 10.268c9.275 0 17.512 7.437 19.865 17.92a14.51 14.51 0 0 0-1.314.891c-2.8-3.86-7.07-6.826-12.093-8.202a11.45 11.45 0 0 0-4.974-9.732c-.9-.616-2.093-.598-2.966 0-3.27 2.245-5.073 5.95-4.974 9.732-5.12 1.403-9.36 4.42-12.093 8.202-.376-.286-.816-.592-1.315-.9C32.5 18.047 40.53 10.268 50.1 10.268h0zM29.996 31.604a19.5 19.5 0 0 0-1.244 3.06c-2.912-3.23-6.64-4.375-10.57-3.633 4.16-2.55 8.328-2.226 11.816.572zm-1.98 6.987a18.12 18.12 0 0 0 .636 6.361c-.472 6.64 1.405 12.68 5.087 17.4-1.844 1.23-3.477 1.527-4.965.903-5.523-2.3-8.5-16.195-8.972-22.125-.263-3.24-1.388-5.413-2.53-6.817 4.233-1.434 8-.153 10.747 4.276zm22.086-.535a4.01 4.01 0 0 0-4.005 4.005 4.01 4.01 0 0 0 4.005 4.005 4.01 4.01 0 0 0 4.005-4.005 4.01 4.01 0 0 0-4.005-4.005zm0 5.064a1.06 1.06 0 0 1-1.058-1.059 1.06 1.06 0 0 1 1.058-1.058 1.06 1.06 0 0 1 1.059 1.058 1.06 1.06 0 0 1-1.059 1.059zm0 3.677c-.813 0-1.473.66-1.473 1.473v.43c0 .814.66 1.473 1.473 1.473s1.473-.66 1.473-1.473v-.43c0-.813-.66-1.473-1.473-1.473z"/></g><defs><clipPath id="A"><path fill="#fff" d="M0 0h100v100H0z"/></clipPath></defs></svg>