<svg xmlns="http://www.w3.org/2000/svg" width="100" height="101" fill="none"><style><![CDATA[.B{stroke-width:5}.C{stroke-miterlimit:10}.D{stroke-linejoin:round}.E{stroke-linecap:round}]]></style><g clip-path="url(#A)" class="B C D"><g stroke="#ccc" class="E"><path d="M33.777 98.458v-8.67c0-7.66-5.32-14.043-12.447-15.692a9.2 9.2 0 0 0 5.479-8.404c0-5.106-4.15-9.202-9.255-9.202S8.3 60.64 8.3 65.692c0 3.777 2.234 6.968 5.48 8.404-7.13 1.702-12.45 8.084-12.45 15.69v8.67m65.425.001v-8.67c0-7.66-5.32-14.043-12.447-15.692a9.2 9.2 0 0 0 5.479-8.404c0-5.106-4.15-9.202-9.255-9.202s-9.255 4.15-9.255 9.202c0 3.777 2.234 6.968 5.48 8.404C39.63 75.798 34.3 82.18 34.3 89.788v8.67"/><path d="M98.67 98.458v-8.67c0-7.66-5.32-14.043-12.5-15.692a9.2 9.2 0 0 0 5.479-8.404c0-5.106-4.15-9.202-9.255-9.202s-9.255 4.15-9.255 9.202c0 3.777 2.234 6.968 5.48 8.404C71.49 75.798 66.17 82.18 66.17 89.787v8.67"/></g><g stroke="#5b5bd5"><path d="M39.628 25.32V1.117h59.574V49.52H50.48m-21.597.533V33.457h24.15a3.68 3.68 0 0 0 3.67-3.67 3.68 3.68 0 0 0-3.67-3.67h-31.8a9.2 9.2 0 0 0 5.479-8.404A9.21 9.21 0 0 0 17.5 8.511a9.21 9.21 0 0 0-9.202 9.202c0 3.777 2.234 6.968 5.48 8.404C6.65 27.872 1.33 34.255 1.33 41.915v8.138m48.404-41.49h19.15m-19.15 6.383h16.5" class="E"/><path d="M92.287 25.85c0-5.745-4.628-10.372-10.372-10.372S71.543 20.106 71.543 25.85s4.628 10.372 10.372 10.372c5.69 0 10.372-4.68 10.372-10.372z"/><path d="M73.138 21.33l8.5 5.106-4.894 9.255m4.896-9.574l7.98-5.85"/></g></g><defs><clipPath id="A"><path fill="#fff" d="M0 0h100v100.266H0z"/></clipPath></defs></svg>