<svg width="180" height="253" viewBox="0 0 180 253" fill="none" xmlns="../../external.html?link=http://www.w3.org/2000/svg">
<path d="M49.5121 238.577H44.6414V232.692C44.6056 230.113 45.5919 227.625 47.3849 225.771C49.1779 223.917 51.6318 222.848 54.2105 222.798H159.288C161.866 222.848 164.32 223.917 166.113 225.771C167.906 227.625 168.893 230.113 168.857 232.692V237.907H163.986V232.692C164.022 231.4 163.545 230.146 162.659 229.205C161.773 228.263 160.551 227.711 159.259 227.668H54.2392C52.9472 227.711 51.7246 228.263 50.8388 229.205C49.953 230.146 49.476 231.4 49.5121 232.692V238.577Z" fill="#5B5BD5"/>
<path d="M139.241 242.788V227.248H133.643V235.994C132.722 235.663 131.75 235.495 130.772 235.496C129.069 235.496 127.404 236.001 125.987 236.947C124.571 237.894 123.467 239.239 122.815 240.812C122.164 242.386 121.993 244.118 122.325 245.788C122.658 247.459 123.478 248.993 124.682 250.198C125.887 251.402 127.421 252.222 129.092 252.555C130.762 252.887 132.494 252.717 134.068 252.065C135.641 251.413 136.986 250.309 137.933 248.893C138.879 247.477 139.384 245.811 139.384 244.108C139.368 243.665 139.32 243.224 139.241 242.788V242.788ZM130.762 251.017C128.92 251.017 127.153 250.285 125.85 248.982C124.547 247.679 123.815 245.912 123.815 244.07H137.71C137.71 245.912 136.978 247.679 135.675 248.982C134.372 250.285 132.605 251.017 130.762 251.017Z" fill="#5B5BD5"/>
<path d="M80.0277 242.788V227.248H74.4298V235.994C73.5091 235.662 72.5377 235.494 71.5591 235.496C69.8558 235.496 68.1908 236.001 66.7745 236.947C65.3582 237.894 64.2544 239.239 63.6026 240.812C62.9508 242.386 62.7802 244.118 63.1125 245.788C63.4448 247.459 64.265 248.993 65.4694 250.198C66.6739 251.402 68.2084 252.222 69.879 252.555C71.5496 252.887 73.2812 252.717 74.8548 252.065C76.4285 251.413 77.7735 250.309 78.7198 248.893C79.6661 247.477 80.1712 245.811 80.1712 244.108C80.16 243.665 80.112 243.223 80.0277 242.788V242.788ZM71.5496 251.017C69.7071 251.017 67.9401 250.285 66.6372 248.982C65.3344 247.679 64.6025 245.912 64.6025 244.07H78.4967C78.4967 245.912 77.7647 247.679 76.4619 248.982C75.1591 250.285 73.3921 251.017 71.5496 251.017Z" fill="#5B5BD5"/>
<path d="M168.713 242.788V230.664C168.713 229.758 168.353 228.889 167.712 228.248C167.072 227.607 166.203 227.248 165.297 227.248H163.125V235.994C161.35 235.353 159.414 235.313 157.615 235.879C155.815 236.446 154.251 237.588 153.164 239.129C152.076 240.671 151.525 242.527 151.594 244.412C151.664 246.298 152.351 248.108 153.549 249.565C154.748 251.022 156.392 252.045 158.228 252.477C160.065 252.909 161.992 252.726 163.715 251.957C165.437 251.187 166.859 249.873 167.762 248.216C168.665 246.56 168.999 244.652 168.713 242.788ZM160.244 251.017C158.402 251.017 156.635 250.285 155.332 248.982C154.029 247.679 153.297 245.912 153.297 244.07H167.192C167.189 245.907 166.46 247.668 165.164 248.969C163.868 250.271 162.11 251.007 160.273 251.017H160.244Z" fill="#5B5BD5"/>
<path d="M50.6125 242.587L50.5168 227.276H48.0767C47.6633 227.276 47.2539 227.358 46.8719 227.516C46.49 227.674 46.1429 227.906 45.8506 228.198C45.5583 228.491 45.3264 228.838 45.1681 229.22C45.0099 229.602 44.9285 230.011 44.9285 230.425V236.022C43.7395 235.562 42.4632 235.372 41.1917 235.465C39.9202 235.558 38.6852 235.932 37.5759 236.561C36.4666 237.189 35.5106 238.056 34.7769 239.098C34.0433 240.141 33.5503 241.334 33.3336 242.59C33.1169 243.846 33.1818 245.135 33.5236 246.363C33.8655 247.592 34.4758 248.729 35.3105 249.692C36.1451 250.656 37.1834 251.422 38.3502 251.936C39.517 252.45 40.7834 252.698 42.0578 252.663C44.3605 252.643 46.5611 251.709 48.1759 250.067C49.7907 248.426 50.6877 246.21 50.6699 243.907L50.6125 242.587ZM42.0004 251.017C40.1587 251.015 38.3931 250.282 37.0908 248.98C35.7886 247.677 35.0558 245.912 35.0533 244.07H48.9475C48.9475 245.906 48.2209 247.667 46.9263 248.969C45.6317 250.271 43.8745 251.007 42.0387 251.017H42.0004Z" fill="#5B5BD5"/>
<path d="M110.869 184.704H102.553C99.8579 184.704 97.673 186.889 97.673 189.584V230.109C97.673 232.804 99.8579 234.989 102.553 234.989H110.869C113.564 234.989 115.749 232.804 115.749 230.109V189.584C115.749 186.889 113.564 184.704 110.869 184.704Z" fill="#5B5BD5"/>
<path d="M110.256 160.456H103.156V189.507H110.256V160.456Z" stroke="#5B5BD5" stroke-miterlimit="10"/>
<path d="M138.178 144.6H75.3483C74.9311 145.499 74.7156 146.479 74.7168 147.47C74.7168 149.275 75.4336 151.005 76.7095 152.281C77.9854 153.557 79.7159 154.274 81.5203 154.274H98.3426V157.259C96.5079 159.08 94.0466 160.131 91.4625 160.197H68.4108C67.9667 160.197 67.5407 160.374 67.2267 160.688C66.9126 161.002 66.7362 161.428 66.7362 161.872V161.872C66.7362 162.316 66.9126 162.742 67.2267 163.056C67.5407 163.37 67.9667 163.546 68.4108 163.546H91.8931C92.0954 163.545 92.296 163.509 92.4864 163.441C94.7689 163.151 96.9854 162.474 99.0412 161.441H115.184V154.274H132.006C132.9 154.274 133.785 154.098 134.61 153.756C135.435 153.414 136.185 152.913 136.817 152.281C137.449 151.649 137.95 150.899 138.292 150.074C138.634 149.248 138.81 148.364 138.81 147.47V147.47C138.811 146.479 138.596 145.499 138.178 144.6Z" fill="#5B5BD5"/>
<path d="M29.3024 4.05008H104.754C104.754 4.05008 112.935 3.70559 113.653 11.5905C114.371 19.4753 124.409 115.041 124.409 115.041C124.409 115.041 124.839 130.399 141.059 130.256C158.56 130.112 172.636 130.256 172.636 130.256C172.636 130.256 179.67 130.112 179.459 138.217C179.459 138.217 179.239 143.451 174.675 144.6H97.3667L50.6126 140.667L33.4745 113.328L26.9867 9.98286L29.3024 4.05008Z" fill="#478AFF" stroke="#5B5BD5" stroke-width="0.5" stroke-miterlimit="10"/>
<path d="M26.0106 3.34277C31.5798 3.34277 33.4361 8.06029 33.8476 13.0649C33.8476 13.0649 40.1536 90.1432 44.1056 115.597C46.5744 131.481 58.1242 129.826 64.2962 129.95L90.2664 130.381C90.2664 130.381 99.5197 130.237 98.8786 138.629C98.2374 147.021 90.2664 145.969 90.2664 145.969L57.3108 145.538C48.3638 144.82 32.0486 137.586 29.2832 119.903C25.1781 93.3966 18.5946 13.0649 18.5946 13.0649C18.1832 8.06029 21.4653 3.7064 26.0106 3.34277Z" fill="white" stroke="#5B5BD5" stroke-width="0.5" stroke-miterlimit="10"/>
<path d="M53.5311 25.083H98.6585" stroke="#5B5BD5" stroke-width="0.75" stroke-linecap="round" stroke-linejoin="round"/>
<path d="M53.5311 23.0254H98.6585" stroke="white" stroke-linecap="round" stroke-linejoin="round"/>
<path d="M54.9664 45.5513H100.094" stroke="#5B5BD5" stroke-width="0.75" stroke-linecap="round" stroke-linejoin="round"/>
<path d="M54.9664 43.4937H100.094" stroke="white" stroke-linecap="round" stroke-linejoin="round"/>
<path d="M84.9556 66.5933H102.677" stroke="#5B5BD5" stroke-width="0.75" stroke-linecap="round" stroke-linejoin="round"/>
<path d="M84.9556 64.5361H102.677" stroke="white" stroke-linecap="round" stroke-linejoin="round"/>
<path d="M97.8546 130.112H133.308" stroke="white" stroke-linecap="round" stroke-linejoin="round"/>
<path d="M50.0575 4.04082C50.0575 4.04082 56.7558 -2.80102 60.9662 4.04082L76.066 53.4551" stroke="#5B5BD5" stroke-width="0.75" stroke-miterlimit="10"/>
<path d="M21.8671 50.8047L9.19775 71.8565" stroke="#5B5BD5" stroke-width="0.75" stroke-miterlimit="10"/>
<path d="M36.4598 20.6338L38.8999 48.1829" stroke="white" stroke-miterlimit="10"/>
<path d="M39.9718 56.7183L40.8139 63.4261" stroke="white" stroke-miterlimit="10"/>
<path d="M44.4596 100.985L46.3734 117.338C46.3734 117.338 47.8087 127.96 61.5881 128.247C75.3675 128.534 92.5821 128.247 92.5821 128.247C92.5821 128.247 99.1751 127.673 101.041 136.993" stroke="white" stroke-miterlimit="10"/>
<path d="M80.6287 52.1813L1 74.6689L8.30256 100.527L87.9313 78.0397L80.6287 52.1813Z" fill="white" stroke="#5B5BD5" stroke-width="0.75" stroke-miterlimit="10"/>
<path d="M80.8811 55.3899L4.78857 76.8789L11.0795 99.1551L87.172 77.6661L80.8811 55.3899Z" fill="#478AFF"/>
<path d="M31.6725 75.9508L34.8835 86.7979L32.0628 87.6329L28.8518 76.7858L31.6725 75.9508ZM41.1303 80.0592C41.4529 81.149 41.6548 81.9297 41.7361 82.4011C41.8205 82.8668 41.782 83.3276 41.6206 83.7834C41.4637 84.2379 41.1849 84.6338 40.7844 84.971C40.3838 85.3082 39.8776 85.5673 39.2657 85.7485C38.685 85.9204 38.1346 85.9813 37.6146 85.9312C37.0977 85.8753 36.6423 85.6992 36.2485 85.4028C35.8547 85.1065 35.5649 84.7429 35.3791 84.3121C35.1933 83.8813 34.9351 83.1076 34.6045 81.9909L34.0552 80.135C33.7325 79.0452 33.529 78.2674 33.4446 77.8018C33.3633 77.3303 33.4012 76.8673 33.5581 76.4128C33.7195 75.9569 34.0005 75.5604 34.401 75.2232C34.8016 74.886 35.3078 74.6269 35.9198 74.4457C36.5004 74.2738 37.0492 74.2158 37.5661 74.2717C38.0862 74.3218 38.5431 74.495 38.9369 74.7914C39.3307 75.0877 39.6205 75.4513 39.8063 75.8821C39.9921 76.3129 40.2503 77.0866 40.5809 78.2033L41.1303 80.0592ZM37.2545 77.3298C37.1051 76.8251 36.9808 76.5121 36.8818 76.3908C36.7859 76.2637 36.6508 76.226 36.4766 76.2775C36.3292 76.3212 36.2325 76.4129 36.1865 76.5529C36.1436 76.687 36.2048 77.0333 36.3701 77.5916L37.8695 82.6567C38.0559 83.2865 38.1955 83.6678 38.2883 83.8007C38.3855 83.9322 38.5279 83.9702 38.7155 83.9147C38.9076 83.8578 39.0053 83.7366 39.0087 83.551C39.012 83.3654 38.9191 82.9532 38.7301 82.3145L37.2545 77.3298ZM46.6066 71.5299L49.8176 82.3771L47.3453 83.1089L44.4183 78.6122L45.878 83.5433L43.5197 84.2414L40.3087 73.3943L42.667 72.6961L45.694 77.1123L44.2482 72.2281L46.6066 71.5299ZM50.5662 70.3578L53.7772 81.2049L50.9566 82.0399L47.7456 71.1928L50.5662 70.3578ZM59.6847 72.8031L56.8641 73.6381L56.3048 71.7487C56.1422 71.1993 56.0097 70.8669 55.9075 70.7514C55.8085 70.6301 55.6562 70.5999 55.4508 70.6607C55.2185 70.7295 55.0956 70.8558 55.0819 71.0395C55.0683 71.2233 55.1428 71.5899 55.3055 72.1393L56.7969 77.1776C56.953 77.7047 57.086 78.0394 57.1962 78.1816C57.3063 78.3239 57.4708 78.3627 57.6897 78.2979C57.8996 78.2357 58.012 78.115 58.027 77.9357C58.0464 77.7551 57.9681 77.3677 57.7923 76.7737L57.3897 75.4136L60.2103 74.5786L60.3353 75.0007C60.6672 76.1218 60.8221 76.9407 60.8002 77.4573C60.7827 77.9725 60.5537 78.4873 60.1132 79.0014C59.6772 79.5143 59.0617 79.8884 58.2666 80.1237C57.4403 80.3684 56.7148 80.4204 56.0903 80.2798C55.4657 80.1392 54.9883 79.8311 54.658 79.3556C54.3265 78.8757 54.0034 78.1042 53.6887 77.0411L52.7506 73.8721C52.5192 73.0904 52.3728 72.4973 52.3114 72.0929C52.2486 71.6839 52.2954 71.2596 52.4519 70.8198C52.6128 70.3786 52.8973 69.9859 53.3055 69.6416C53.7168 69.2916 54.2284 69.0259 54.8403 68.8448C55.6711 68.5989 56.4043 68.5567 57.04 68.7183C57.6757 68.8799 58.1498 69.1768 58.4623 69.6089C58.7735 70.0366 59.0792 70.7574 59.3793 71.7713L59.6847 72.8031Z" fill="white"/>
</svg>
