<svg xmlns="http://www.w3.org/2000/svg" width="100" height="100" fill="none"><path d="M93.75 4L54.375 6a2 2 0 0 0-1.562.313l-.062.063a2 2 0 0 0-.812 1.812l-7.812 44.875c-7.06 7.477-7.54 17.786-9.062 25.688-.778 4.037-1.828 7.407-3.687 9.625S26.827 92 21.688 92C13.563 92 8 84.92 8 78.125c0-8.873 4.13-14.905 8.625-21.375S26 43.365 26 33.5C26 19.172 15.438 8.625 15.438 8.625A2 2 0 0 0 13.625 8a2 2 0 0 0-1.063 3.375S22 21.172 22 33.5c0 8.563-4.12 14.518-8.625 21S4 68 4 78.125C4 87.1 11.27 96 21.688 96c5.93 0 10.12-1.925 12.75-5.062s3.682-7.2 4.5-11.437c1.598-8.295 2.25-17.417 8.063-23.625l45-7.812a2.03 2.03 0 0 0 .313-.062 2 2 0 0 0 .563-.187 2.03 2.03 0 0 0 .25-.125 2 2 0 0 0 .375-.312v-.062c.042-.02.084-.04.125-.062v-.062a1.99 1.99 0 0 0 .125-.125V47a2.43 2.43 0 0 0 .063-.125v-.062a2.43 2.43 0 0 0 .063-.125v-.062a2.43 2.43 0 0 0 .063-.125v-.062a2.43 2.43 0 0 0 .063-.125v-.062c.001-.042.001-.083 0-.125v-.187a2.04 2.04 0 0 0 0-.437l2-38.875a2.02 2.02 0 0 0 0-.187 2 2 0 0 0-.5-1.812c-.04-.043-.082-.085-.125-.125a2 2 0 0 0-.5-.312c-.02-.02-.04-.042-.062-.062-.042-.001-.083-.001-.125 0-.02-.02-.04-.042-.062-.062-.042-.001-.083-.001-.125 0A2 2 0 0 0 94.25 4a2 2 0 0 0-.375 0h-.125zm-4.875 4.25L73 24.125 58.688 9.813 88.875 8.25zm2.875 2.875l-1.562 30.188L75.875 27 91.75 11.125zM55.375 12.25L70.125 27l-21 21 6.25-35.75zM73 29.875l14.75 14.75L52 50.875l21-21z" fill="#5b5bd5"/></svg>