<svg xmlns="http://www.w3.org/2000/svg" viewBox="6637 51 6006.2 1178"><linearGradient id="A" gradientUnits="userSpaceOnUse" x1="10827.803" y1="53" x2="10827.803" y2="1229"><stop offset="0" stop-color="#395ed8"/><stop offset="1" stop-color="#bc53ce"/></linearGradient><path d="M11225 1123c0 58-48 106-106 106h-583c-67 0-110-60-105-121V159c0-58 47-106 105-106s106 48 106 106v858h477c58 0 106 48 106 106z" fill="url(#A)"/><linearGradient id="B" gradientUnits="userSpaceOnUse" x1="12045.66" y1="53" x2="12045.66" y2="1228.537"><stop offset="0" stop-color="#395ed8"/><stop offset="1" stop-color="#bc53ce"/></linearGradient><path d="M12046 385l-214 419h428l-214-419zm-319 625l-80 156c-70 138-246 21-187-95l490-961c19-36 57-57 96-57s77 21 96 57l489 961c61 118-123 219-186 95l-80-156h-638z" fill="url(#B)"/><linearGradient id="C" gradientUnits="userSpaceOnUse" x1="9689" y1="53.052" x2="9689" y2="1226"><stop offset="0" stop-color="#395ed8"/><stop offset="1" stop-color="#bc53ce"/></linearGradient><path d="M10206 611c-22 168-139 343-328 382V239c3-152 207-193 328-185v557zm-671 362c54 45 518 207 671-260-17 611-631 623-671 260zm-36-211c4 173-28 372 211 464-510-30-538-389-538-466V240c3-153 207-193 328-185l-1 707z" fill="url(#C)"/><linearGradient id="D" gradientUnits="userSpaceOnUse" x1="8493" y1="51" x2="8493" y2="1227"><stop offset="0" stop-color="#395ed8"/><stop offset="1" stop-color="#bc53ce"/></linearGradient><path d="M8542 887h-294v234c0 59-47 106-106 106h0c-58 0-105-47-105-106V153c0-56 45-102 101-102h404c233 0 407 189 407 420 0 372-328 413-407 416zm0-632h-294v428h294c0-1 189-2 198-203 0-197-167-225-198-225z" fill="url(#D)"/><linearGradient id="E" gradientUnits="userSpaceOnUse" x1="7225" y1="51" x2="7225" y2="1228"><stop offset="0" stop-color="#395ed8"/><stop offset="1" stop-color="#bc53ce"/></linearGradient><path d="M7225 51c325 0 588 264 588 588 0 325-263 589-588 589s-588-264-588-589c0-324 263-588 588-588z" fill="url(#E)"/></svg>