<svg width="180" height="253" viewBox="0 0 180 253" fill="none" xmlns="../../external.html?link=http://www.w3.org/2000/svg">
<path d="M49.512 238.577H44.6413V232.692C44.6055 230.113 45.5918 227.625 47.3848 225.771C49.1778 223.917 51.6317 222.848 54.2104 222.798H159.288C161.866 222.848 164.32 223.917 166.113 225.771C167.906 227.625 168.893 230.113 168.857 232.692V237.907H163.986V232.692C164.022 231.4 163.545 230.146 162.659 229.205C161.773 228.263 160.551 227.711 159.259 227.668H54.2391C52.9471 227.711 51.7245 228.263 50.8387 229.205C49.9529 230.146 49.4759 231.4 49.512 232.692V238.577Z" fill="#5B5BD5"/>
<path d="M139.241 242.788V227.248H133.643V235.994C132.722 235.663 131.75 235.495 130.772 235.496C129.069 235.496 127.404 236.001 125.987 236.947C124.571 237.894 123.467 239.239 122.815 240.812C122.164 242.386 121.993 244.118 122.325 245.788C122.658 247.459 123.478 248.993 124.682 250.198C125.887 251.402 127.421 252.222 129.092 252.555C130.762 252.887 132.494 252.717 134.068 252.065C135.641 251.413 136.986 250.309 137.933 248.893C138.879 247.477 139.384 245.811 139.384 244.108C139.368 243.665 139.32 243.224 139.241 242.788ZM130.762 251.017C128.92 251.017 127.153 250.285 125.85 248.982C124.547 247.679 123.815 245.912 123.815 244.07H137.71C137.71 245.912 136.978 247.679 135.675 248.982C134.372 250.285 132.605 251.017 130.762 251.017Z" fill="#5B5BD5"/>
<path d="M80.0277 242.788V227.248H74.4298V235.994C73.5091 235.662 72.5377 235.494 71.5591 235.496C69.8558 235.496 68.1908 236.001 66.7745 236.947C65.3582 237.894 64.2544 239.239 63.6026 240.812C62.9508 242.386 62.7802 244.118 63.1125 245.788C63.4448 247.459 64.265 248.993 65.4694 250.198C66.6739 251.402 68.2084 252.222 69.879 252.555C71.5496 252.887 73.2812 252.717 74.8548 252.065C76.4285 251.413 77.7735 250.309 78.7198 248.893C79.6661 247.477 80.1712 245.811 80.1712 244.108C80.16 243.665 80.112 243.223 80.0277 242.788ZM71.5496 251.017C69.7071 251.017 67.9401 250.285 66.6372 248.982C65.3344 247.679 64.6025 245.912 64.6025 244.07H78.4967C78.4967 245.912 77.7647 247.679 76.4619 248.982C75.1591 250.285 73.3921 251.017 71.5496 251.017Z" fill="#5B5BD5"/>
<path d="M168.713 242.788V230.664C168.713 229.758 168.353 228.889 167.712 228.248C167.072 227.607 166.203 227.248 165.297 227.248H163.125V235.994C161.35 235.353 159.414 235.313 157.615 235.879C155.815 236.446 154.251 237.588 153.164 239.129C152.076 240.671 151.525 242.527 151.594 244.412C151.664 246.298 152.351 248.108 153.549 249.565C154.748 251.022 156.392 252.045 158.228 252.477C160.065 252.909 161.992 252.726 163.715 251.957C165.437 251.187 166.859 249.873 167.762 248.216C168.665 246.56 168.999 244.652 168.713 242.788ZM160.244 251.017C158.402 251.017 156.635 250.285 155.332 248.982C154.029 247.679 153.297 245.912 153.297 244.07H167.192C167.189 245.907 166.46 247.668 165.164 248.969C163.868 250.271 162.11 251.007 160.273 251.017H160.244Z" fill="#5B5BD5"/>
<path d="M50.6125 242.587L50.5168 227.276H48.0767C47.6633 227.276 47.2539 227.358 46.8719 227.516C46.49 227.674 46.1429 227.906 45.8506 228.198C45.5583 228.491 45.3264 228.838 45.1681 229.22C45.0099 229.602 44.9285 230.011 44.9285 230.425V236.022C43.7395 235.562 42.4632 235.372 41.1917 235.465C39.9202 235.558 38.6852 235.932 37.5759 236.561C36.4666 237.189 35.5106 238.056 34.7769 239.098C34.0433 240.141 33.5503 241.334 33.3336 242.59C33.1169 243.846 33.1818 245.135 33.5236 246.363C33.8655 247.592 34.4758 248.729 35.3105 249.692C36.1451 250.656 37.1834 251.422 38.3502 251.936C39.517 252.45 40.7834 252.698 42.0578 252.663C44.3605 252.643 46.5611 251.709 48.1759 250.067C49.7907 248.426 50.6877 246.21 50.6699 243.907L50.6125 242.587ZM42.0004 251.017C40.1587 251.015 38.3931 250.282 37.0908 248.98C35.7886 247.677 35.0558 245.912 35.0533 244.07H48.9475C48.9475 245.906 48.2209 247.667 46.9263 248.969C45.6317 250.271 43.8745 251.007 42.0387 251.017H42.0004Z" fill="#5B5BD5"/>
<path d="M110.869 184.704H102.553C99.858 184.704 97.6731 186.889 97.6731 189.584V230.109C97.6731 232.804 99.858 234.989 102.553 234.989H110.869C113.564 234.989 115.749 232.804 115.749 230.109V189.584C115.749 186.889 113.564 184.704 110.869 184.704Z" fill="#5B5BD5"/>
<path d="M110.256 160.456H103.156V189.507H110.256V160.456Z" stroke="#5B5BD5" stroke-miterlimit="10"/>
<path d="M138.178 144.6H75.3482C74.931 145.499 74.7155 146.479 74.7167 147.47C74.7167 149.275 75.4335 151.005 76.7094 152.281C77.9853 153.557 79.7158 154.274 81.5202 154.274H98.3425V157.259C96.5078 159.08 94.0465 160.131 91.4624 160.197H68.4107C67.9666 160.197 67.5406 160.374 67.2266 160.688C66.9125 161.002 66.7361 161.428 66.7361 161.872C66.7361 162.316 66.9125 162.742 67.2266 163.056C67.5406 163.37 67.9666 163.546 68.4107 163.546H91.893C92.0953 163.545 92.2959 163.509 92.4863 163.441C94.7688 163.151 96.9853 162.474 99.0411 161.441H115.184V154.274H132.006C132.9 154.274 133.785 154.098 134.61 153.756C135.435 153.414 136.185 152.913 136.817 152.281C137.449 151.649 137.95 150.899 138.292 150.074C138.634 149.248 138.81 148.364 138.81 147.47C138.811 146.479 138.596 145.499 138.178 144.6Z" fill="#5B5BD5"/>
<path d="M29.3025 4.05008H104.754C104.754 4.05008 112.935 3.70559 113.653 11.5905C114.371 19.4753 124.409 115.041 124.409 115.041C124.409 115.041 124.839 130.399 141.059 130.256C158.56 130.112 172.636 130.256 172.636 130.256C172.636 130.256 179.67 130.112 179.459 138.217C179.459 138.217 179.239 143.451 174.675 144.6H97.3668L50.6127 140.667L33.4746 113.328L26.9868 9.98286L29.3025 4.05008Z" fill="#FF9D0A" stroke="#5B5BD5" stroke-width="0.5" stroke-miterlimit="10"/>
<path d="M26.0106 3.34277C31.5798 3.34277 33.4361 8.06029 33.8476 13.0649C33.8476 13.0649 40.1536 90.1432 44.1056 115.597C46.5744 131.481 58.1242 129.826 64.2962 129.95L90.2664 130.381C90.2664 130.381 99.5197 130.237 98.8786 138.629C98.2374 147.021 90.2664 145.969 90.2664 145.969L57.3108 145.538C48.3638 144.82 32.0486 137.586 29.2832 119.903C25.1781 93.3966 18.5946 13.0649 18.5946 13.0649C18.1832 8.06029 21.4653 3.7064 26.0106 3.34277Z" fill="white" stroke="#5B5BD5" stroke-width="0.5" stroke-miterlimit="10"/>
<path d="M53.531 25.083H98.6584" stroke="#5B5BD5" stroke-width="0.75" stroke-linecap="round" stroke-linejoin="round"/>
<path d="M53.531 23.0254H98.6584" stroke="white" stroke-linecap="round" stroke-linejoin="round"/>
<path d="M54.9663 45.5513H100.094" stroke="#5B5BD5" stroke-width="0.75" stroke-linecap="round" stroke-linejoin="round"/>
<path d="M54.9663 43.4937H100.094" stroke="white" stroke-linecap="round" stroke-linejoin="round"/>
<path d="M84.9556 66.5933H102.677" stroke="#5B5BD5" stroke-width="0.75" stroke-linecap="round" stroke-linejoin="round"/>
<path d="M84.9556 64.5361H102.677" stroke="white" stroke-linecap="round" stroke-linejoin="round"/>
<path d="M97.8545 130.112H133.308" stroke="white" stroke-linecap="round" stroke-linejoin="round"/>
<path d="M50.0576 4.04082C50.0576 4.04082 56.7559 -2.80102 60.9663 4.04082L76.0661 53.4551" stroke="#5B5BD5" stroke-width="0.75" stroke-miterlimit="10"/>
<path d="M21.8671 50.8047L9.19775 71.8565" stroke="#5B5BD5" stroke-width="0.75" stroke-miterlimit="10"/>
<path d="M36.4597 20.6338L38.8998 48.1829" stroke="white" stroke-miterlimit="10"/>
<path d="M39.9717 56.7183L40.8138 63.4261" stroke="white" stroke-miterlimit="10"/>
<path d="M44.4597 100.985L46.3735 117.338C46.3735 117.338 47.8088 127.96 61.5882 128.247C75.3676 128.534 92.5822 128.247 92.5822 128.247C92.5822 128.247 99.1752 127.673 101.041 136.993" stroke="white" stroke-miterlimit="10"/>
<path d="M80.6287 52.1812L1 74.6688L8.30256 100.527L87.9313 78.0396L80.6287 52.1812Z" fill="white" stroke="#5B5BD5" stroke-width="0.75" stroke-miterlimit="10"/>
<path d="M80.8811 55.3901L4.78857 76.8791L11.0795 99.1553L87.172 77.6663L80.8811 55.3901Z" fill="#FF9D0A"/>
<path d="M19.0181 80.1783L21.2405 79.5704L23.7619 84.7403L23.3818 78.9846L25.5231 78.3989L28.2498 87.7301L26.7798 88.1322L24.8996 81.9409L25.5182 88.4773L24.2102 88.8351L21.3335 82.8666L22.9139 89.1897L21.4207 89.5982L19.0181 80.1783ZM28.3601 77.6228L30.7214 76.9769L35.0338 85.8743L33.124 86.3968L32.27 84.503L30.8926 84.8798L31.11 86.9477L29.1538 87.4828L28.3601 77.6228ZM31.7345 83.3183L30.2362 79.7968L30.739 83.5906L31.7345 83.3183ZM33.4157 76.2398L35.9969 75.5338C37.0232 75.253 37.8483 75.2222 38.4723 75.4414C39.0962 75.6605 39.5348 76.2331 39.7881 77.1591C39.9591 77.7841 40.0142 78.304 39.9535 78.7187C39.8928 79.1334 39.671 79.5051 39.2881 79.8338L41.8141 84.0196L39.6728 84.6054L37.4933 80.6855L36.9029 80.847L38.0523 85.0486L35.9804 85.6154L33.4157 76.2398ZM37.1556 79.4965C37.5722 79.3825 37.8321 79.1953 37.935 78.9349C38.0436 78.6647 38.0377 78.3097 37.9174 77.8698C37.8013 77.4454 37.6375 77.1502 37.4262 76.984C37.2128 76.8102 36.917 76.775 36.5389 76.8784L35.8676 77.0621L36.5768 79.6548L37.1556 79.4965ZM40.3561 74.3413L42.428 73.7746L43.476 77.6058L44.0021 73.344L46.0277 72.7899L45.4503 77.5012L48.6734 82.1433L46.5668 82.7195L44.079 78.9462L43.9604 79.3768L44.9926 83.1501L42.9207 83.7169L40.3561 74.3413ZM46.9234 72.5449L51.1366 71.3923L51.5229 72.8045L49.3816 73.3902L50.018 75.7167L51.65 75.2703L52.0426 76.7056L50.4106 77.152L51.1768 79.9531L53.3413 79.361L53.7244 80.7616L49.4881 81.9204L46.9234 72.5449ZM53.3664 72.437L51.9543 72.8233L51.5332 71.2839L56.4293 69.9445L56.8504 71.484L55.4499 71.8671L57.5935 79.7032L55.51 80.2731L53.3664 72.437ZM57.2663 69.7156L59.3382 69.1488L61.9029 78.5244L59.831 79.0911L57.2663 69.7156ZM60.7362 68.7664L62.1946 68.3674L65.3509 72.356L64.1161 67.8418L65.8291 67.3732L68.3938 76.7488L66.9932 77.1319L63.742 72.7961L65.0718 77.6575L63.3009 78.1419L60.7362 68.7664ZM72.2693 75.8379C71.3434 76.0912 70.6066 75.9901 70.0589 75.5344C69.5113 75.0787 69.0961 74.3339 68.8132 73.2999L67.952 70.1516C67.6628 69.0944 67.6544 68.23 67.9269 67.5583C68.207 66.8845 68.8564 66.4083 69.8749 66.1297C70.8549 65.8616 71.6226 65.9087 72.1778 66.271C72.7331 66.6334 73.13 67.2505 73.3686 68.1225L73.5332 68.7244L71.5076 69.2785L71.2986 68.5145C71.1973 68.1441 71.0789 67.878 70.9434 67.716C70.8057 67.5463 70.5903 67.5015 70.297 67.5818C69.9961 67.6641 69.8278 67.8221 69.7922 68.0558C69.7643 68.2873 69.801 68.5883 69.9024 68.9587L71.0897 73.2992C71.191 73.6696 71.3252 73.9481 71.4924 74.1346C71.6651 74.3113 71.8981 74.3595 72.1913 74.2793C72.7315 74.1315 72.8907 73.6525 72.6691 72.8423L72.3683 71.7427L71.5234 71.9738L71.1909 70.7585L73.8994 70.0176L75.2292 74.879L73.8634 75.2526L73.5355 74.5087C73.409 75.1986 72.987 75.6416 72.2693 75.8379Z" fill="white"/>
</svg>
