<svg xmlns="http://www.w3.org/2000/svg" width="100" height="113" fill="none"><path d="M40.38 36.953c4.66 0 8.436-3.774 8.436-8.43s-3.777-8.43-8.436-8.43-8.436 3.774-8.436 8.43 3.777 8.43 8.436 8.43zm-4.878 24.824c-.05 3.403-.02 3.723 3.928 4.308l13.684 2.027c3.577.53 4.335-6.614.887-7.095l-10.896-1.52v-16.47L26.38 31.75l-21.286.253c-3.467.04-3.514.217-3.548 4.308L1.42 51.894c-.03 3.617 7.645 4.45 7.602.127l-.127-12.924L19.8 40.1 9.528 54.555l17.23 12.037 8.87-13.684-.127 8.87z" fill="#5b5bd5"/><path d="M8.008 56.7l32.3 22.553c3.5 2.914 3.5 2.914.127 8.362l-8.87 19.132c-2.82 4.34-9.403.1-7.602-4.054l9.376-17.74-8.996-5.32-5.955 27.62c-2.163 4.733-9.153 2.652-7.73-2.407l5.575-20.78L3.827 68.112C.97 63.72 1.324 63.5 4.08 60.257l3.928-3.548zm58.79 51.313l.253-25.847 5.45-9.756c.976-1.75 4.5-.98 3.42 1.394l-2.534 5.575c-1.334 2.935-1.352 2.85-.253 7.856l4.56 20.78c.9 4.106 8.62 3.732 7.982-.633L80.987 87.88c-.58-2.42 0-4.704.76-7.222l2.027-6.715 6.208 1.774-.633-19.512-19.132-2.787L68.95 69l-3.294.38-5.828 8.236c-1.64 2.316-1.14 2.422-1.14 5.828v24.834c0 4.083 8.07 3.786 8.1-.254z" fill="#ccc"/><g fill="#5b5bd5"><path d="M65.28 28.27c4.3 0 7.805-3.494 7.805-7.805S69.6 12.66 65.28 12.66s-7.805 3.494-7.805 7.805 3.494 7.805 7.805 7.805zm5.572 22.357L88.6 48.98l-.253-37.757c-.002-6.37-.562-6.324-6.588-7.35L66.67 1.467C62.437.8 61.594 7.47 65.403 8.182l15.584 2.914-1.014 13.43-16.598 9.25-1.014 10.77-5.575-6.6c-2.653-3.145-9.064.875-5.955 4.688l9.25 12.417c3.08 3.466 6.553 2.996 6.715 0l.76-8.1 3.294 3.674z"/><g stroke="#5b5bd5"><path d="M27.795 16.432c4.628 7.33 12.22 13.432 29.44 15.806-6.817-5.974-13.44-12.352-29.44-15.806z" stroke-width="2.335" stroke-linejoin="round"/><path d="M40.67 14.18c-2.537 2.345-3.815 4.27-5.12 7.375l13.274 6.758c1.13-2.287 3.957-4.693 2.573-7.398-3.302-6.452-8.364-8.92-10.727-6.735z" stroke-width=".985"/></g></g><path d="M70.263 53.233c-3.89 12.42-18.488 12.04-23.63 43.27 3.52-4.636 4.96.327 7.35.253 3.07-.095 5.606-3.808 8.11 0 3.553-3.972 5.053.415 7.855 0 3.54-.524 6.967-4.845 10.643 0 4.812-4.65 7.695-.327 11.403 0 2.894.255 3.885-4.938 6.588-.507-.87-20.69-7.73-19.76-9.233-40.038l-19.084-2.977z" fill="#ccc"/></svg>