<svg width="180" height="253" viewBox="0 0 180 253" fill="none" xmlns="../../external.html?link=http://www.w3.org/2000/svg">
<path d="M49.512 238.577H44.6413V232.692C44.6055 230.113 45.5918 227.625 47.3848 225.771C49.1778 223.917 51.6317 222.848 54.2104 222.798H159.288C161.866 222.848 164.32 223.917 166.113 225.771C167.906 227.625 168.893 230.113 168.857 232.692V237.907H163.986V232.692C164.022 231.4 163.545 230.146 162.659 229.205C161.773 228.263 160.551 227.711 159.259 227.668H54.2391C52.9471 227.711 51.7245 228.263 50.8387 229.205C49.9529 230.146 49.4759 231.4 49.512 232.692V238.577Z" fill="#5B5BD5"/>
<path d="M139.241 242.788V227.248H133.643V235.994C132.722 235.663 131.75 235.495 130.772 235.496C129.069 235.496 127.404 236.001 125.987 236.947C124.571 237.894 123.467 239.239 122.815 240.812C122.164 242.386 121.993 244.118 122.325 245.788C122.658 247.459 123.478 248.993 124.682 250.198C125.887 251.402 127.421 252.222 129.092 252.555C130.762 252.887 132.494 252.717 134.068 252.065C135.641 251.413 136.986 250.309 137.933 248.893C138.879 247.477 139.384 245.811 139.384 244.108C139.368 243.665 139.32 243.224 139.241 242.788ZM130.762 251.017C128.92 251.017 127.153 250.285 125.85 248.982C124.547 247.679 123.815 245.912 123.815 244.07H137.71C137.71 245.912 136.978 247.679 135.675 248.982C134.372 250.285 132.605 251.017 130.762 251.017Z" fill="#5B5BD5"/>
<path d="M80.0277 242.788V227.248H74.4298V235.994C73.5091 235.662 72.5377 235.494 71.5591 235.496C69.8558 235.496 68.1908 236.001 66.7745 236.947C65.3582 237.894 64.2544 239.239 63.6026 240.812C62.9508 242.386 62.7802 244.118 63.1125 245.788C63.4448 247.459 64.265 248.993 65.4694 250.198C66.6739 251.402 68.2084 252.222 69.879 252.555C71.5496 252.887 73.2812 252.717 74.8548 252.065C76.4285 251.413 77.7735 250.309 78.7198 248.893C79.6661 247.477 80.1712 245.811 80.1712 244.108C80.16 243.665 80.112 243.223 80.0277 242.788ZM71.5496 251.017C69.7071 251.017 67.9401 250.285 66.6372 248.982C65.3344 247.679 64.6025 245.912 64.6025 244.07H78.4967C78.4967 245.912 77.7647 247.679 76.4619 248.982C75.1591 250.285 73.3921 251.017 71.5496 251.017Z" fill="#5B5BD5"/>
<path d="M168.713 242.788V230.664C168.713 229.758 168.353 228.889 167.712 228.248C167.072 227.607 166.203 227.248 165.297 227.248H163.125V235.994C161.35 235.353 159.414 235.313 157.615 235.879C155.815 236.446 154.251 237.588 153.164 239.129C152.076 240.671 151.525 242.527 151.594 244.412C151.664 246.298 152.351 248.108 153.549 249.565C154.748 251.022 156.392 252.045 158.228 252.477C160.065 252.909 161.992 252.726 163.715 251.957C165.437 251.187 166.859 249.873 167.762 248.216C168.665 246.56 168.999 244.652 168.713 242.788ZM160.244 251.017C158.402 251.017 156.635 250.285 155.332 248.982C154.029 247.679 153.297 245.912 153.297 244.07H167.192C167.189 245.907 166.46 247.668 165.164 248.969C163.868 250.271 162.11 251.007 160.273 251.017H160.244Z" fill="#5B5BD5"/>
<path d="M50.6125 242.587L50.5168 227.276H48.0767C47.6633 227.276 47.2539 227.358 46.8719 227.516C46.49 227.674 46.1429 227.906 45.8506 228.198C45.5583 228.491 45.3264 228.838 45.1681 229.22C45.0099 229.602 44.9285 230.011 44.9285 230.425V236.022C43.7395 235.562 42.4632 235.372 41.1917 235.465C39.9202 235.558 38.6852 235.932 37.5759 236.561C36.4666 237.189 35.5106 238.056 34.7769 239.098C34.0433 240.141 33.5503 241.334 33.3336 242.59C33.1169 243.846 33.1818 245.135 33.5236 246.363C33.8655 247.592 34.4758 248.729 35.3105 249.692C36.1451 250.656 37.1834 251.422 38.3502 251.936C39.517 252.45 40.7834 252.698 42.0578 252.663C44.3605 252.643 46.5611 251.709 48.1759 250.067C49.7907 248.426 50.6877 246.21 50.6699 243.907L50.6125 242.587ZM42.0004 251.017C40.1587 251.015 38.3931 250.282 37.0908 248.98C35.7886 247.677 35.0558 245.912 35.0533 244.07H48.9475C48.9475 245.906 48.2209 247.667 46.9263 248.969C45.6317 250.271 43.8745 251.007 42.0387 251.017H42.0004Z" fill="#5B5BD5"/>
<path d="M110.869 184.704H102.553C99.858 184.704 97.6731 186.889 97.6731 189.584V230.109C97.6731 232.804 99.858 234.989 102.553 234.989H110.869C113.564 234.989 115.749 232.804 115.749 230.109V189.584C115.749 186.889 113.564 184.704 110.869 184.704Z" fill="#5B5BD5"/>
<path d="M110.256 160.456H103.156V189.507H110.256V160.456Z" stroke="#5B5BD5" stroke-miterlimit="10"/>
<path d="M138.178 144.6H75.3482C74.931 145.499 74.7155 146.479 74.7167 147.47C74.7167 149.275 75.4335 151.005 76.7094 152.281C77.9853 153.557 79.7158 154.274 81.5202 154.274H98.3425V157.259C96.5078 159.08 94.0465 160.131 91.4624 160.197H68.4107C67.9666 160.197 67.5406 160.374 67.2266 160.688C66.9125 161.002 66.7361 161.428 66.7361 161.872C66.7361 162.316 66.9125 162.742 67.2266 163.056C67.5406 163.37 67.9666 163.546 68.4107 163.546H91.893C92.0953 163.545 92.2959 163.509 92.4863 163.441C94.7688 163.151 96.9853 162.474 99.0411 161.441H115.184V154.274H132.006C132.9 154.274 133.785 154.098 134.61 153.756C135.435 153.414 136.185 152.913 136.817 152.281C137.449 151.649 137.95 150.899 138.292 150.074C138.634 149.248 138.81 148.364 138.81 147.47C138.811 146.479 138.596 145.499 138.178 144.6Z" fill="#5B5BD5"/>
<path d="M29.3025 4.05008H104.754C104.754 4.05008 112.935 3.70559 113.653 11.5905C114.371 19.4753 124.409 115.041 124.409 115.041C124.409 115.041 124.839 130.399 141.059 130.256C158.56 130.112 172.636 130.256 172.636 130.256C172.636 130.256 179.67 130.112 179.459 138.217C179.459 138.217 179.239 143.451 174.675 144.6H97.3668L50.6127 140.667L33.4746 113.328L26.9868 9.98286L29.3025 4.05008Z" fill="#8BC500" stroke="#5B5BD5" stroke-width="0.5" stroke-miterlimit="10"/>
<path d="M26.0106 3.34277C31.5798 3.34277 33.4361 8.06029 33.8476 13.0649C33.8476 13.0649 40.1536 90.1432 44.1056 115.597C46.5744 131.481 58.1242 129.826 64.2962 129.95L90.2664 130.381C90.2664 130.381 99.5197 130.237 98.8786 138.629C98.2374 147.021 90.2664 145.969 90.2664 145.969L57.3108 145.538C48.3638 144.82 32.0486 137.586 29.2832 119.903C25.1781 93.3966 18.5946 13.0649 18.5946 13.0649C18.1832 8.06029 21.4653 3.7064 26.0106 3.34277Z" fill="white" stroke="#5B5BD5" stroke-width="0.5" stroke-miterlimit="10"/>
<path d="M53.531 25.083H98.6584" stroke="#5B5BD5" stroke-width="0.75" stroke-linecap="round" stroke-linejoin="round"/>
<path d="M53.531 23.0254H98.6584" stroke="white" stroke-linecap="round" stroke-linejoin="round"/>
<path d="M54.9663 45.5513H100.094" stroke="#5B5BD5" stroke-width="0.75" stroke-linecap="round" stroke-linejoin="round"/>
<path d="M54.9663 43.4937H100.094" stroke="white" stroke-linecap="round" stroke-linejoin="round"/>
<path d="M84.9556 66.5933H102.677" stroke="#5B5BD5" stroke-width="0.75" stroke-linecap="round" stroke-linejoin="round"/>
<path d="M84.9556 64.5361H102.677" stroke="white" stroke-linecap="round" stroke-linejoin="round"/>
<path d="M97.8545 130.112H133.308" stroke="white" stroke-linecap="round" stroke-linejoin="round"/>
<path d="M50.0576 4.04082C50.0576 4.04082 56.7559 -2.80102 60.9663 4.04082L76.0661 53.4551" stroke="#5B5BD5" stroke-width="0.75" stroke-miterlimit="10"/>
<path d="M21.8671 50.8047L9.19775 71.8565" stroke="#5B5BD5" stroke-width="0.75" stroke-miterlimit="10"/>
<path d="M36.4597 20.6338L38.8998 48.1829" stroke="white" stroke-miterlimit="10"/>
<path d="M39.9717 56.7183L40.8138 63.4261" stroke="white" stroke-miterlimit="10"/>
<path d="M44.4597 100.985L46.3735 117.338C46.3735 117.338 47.8088 127.96 61.5882 128.247C75.3676 128.534 92.5822 128.247 92.5822 128.247C92.5822 128.247 99.1752 127.673 101.041 136.993" stroke="white" stroke-miterlimit="10"/>
<path d="M80.6287 52.1812L1 74.6688L8.30256 100.527L87.9313 78.0396L80.6287 52.1812Z" fill="white" stroke="#5B5BD5" stroke-width="0.75" stroke-miterlimit="10"/>
<path d="M81.0925 55.3901L5 76.8791L11.2909 99.1553L87.3834 77.6663L81.0925 55.3901Z" fill="#8BC500"/>
<path d="M26.7653 77.902L28.2237 77.503L31.3799 81.4916L30.1451 76.9774L31.8582 76.5088L34.4228 85.8844L33.0223 86.2675L29.771 81.9317L31.1009 86.7931L29.3299 87.2775L26.7653 77.902ZM38.5415 84.907C37.5306 85.1836 36.7384 85.1224 36.1648 84.7236C35.5892 84.3171 35.162 83.6046 34.8834 82.586L33.9304 79.102C33.6517 78.0834 33.6588 77.2604 33.9516 76.6329C34.2423 75.9977 34.8931 75.5418 35.904 75.2653C36.9226 74.9866 37.7186 75.0467 38.2922 75.4455C38.8734 75.8422 39.3023 76.546 39.5788 77.5568L40.5319 81.0408C40.8105 82.0594 40.8017 82.8912 40.5054 83.5363C40.2147 84.1715 39.56 84.6284 38.5415 84.907ZM38.1393 83.437C38.4326 83.3568 38.5991 83.2076 38.6389 82.9894C38.6766 82.7634 38.6491 82.4807 38.5562 82.1411L37.3214 77.627C37.2264 77.2797 37.1062 77.0223 36.9608 76.8547C36.8154 76.6872 36.5962 76.6435 36.3029 76.7237C36.0251 76.7997 35.8674 76.9507 35.8297 77.1766C35.7898 77.3949 35.8164 77.6737 35.9092 78.0133L37.1441 82.5274C37.2369 82.8669 37.3533 83.1254 37.493 83.3028C37.6307 83.4725 37.8461 83.5173 38.1393 83.437ZM40.0355 74.2719L42.4084 73.6229C43.2186 73.4012 43.8788 73.3284 44.3889 73.4045C44.8991 73.4806 45.3059 73.7094 45.6093 74.0909C45.9183 74.4625 46.171 75.0071 46.3673 75.7248L47.2981 79.1278C47.4966 79.8531 47.5584 80.4582 47.4837 80.9431C47.4167 81.4259 47.1841 81.8337 46.7858 82.1666C46.3952 82.4974 45.7987 82.7725 44.9962 82.9921L42.6002 83.6475L40.0355 74.2719ZM44.6036 81.5568C44.9045 81.4745 45.1128 81.3719 45.2285 81.249C45.3498 81.1163 45.4075 80.9637 45.4018 80.7911C45.3939 80.6107 45.3457 80.3585 45.257 80.0344L44.1394 75.9485C44.057 75.6476 43.9716 75.4263 43.8831 75.2846C43.8002 75.1331 43.6749 75.0389 43.5071 75.0018C43.3471 74.9626 43.1167 74.9842 42.8157 75.0665L42.5032 75.152L44.2795 81.6455L44.6036 81.5568ZM46.8176 72.4167L51.0308 71.2642L51.4171 72.6763L49.2758 73.2621L49.9122 75.5886L51.5442 75.1422L51.9369 76.5774L50.3048 77.0239L51.071 79.825L53.2355 79.2329L53.6186 80.6334L49.3823 81.7923L46.8176 72.4167ZM56.6475 78.511C56.9484 78.4287 57.1697 78.3433 57.3114 78.2548C57.4531 78.1663 57.5407 78.0469 57.5742 77.8967C57.6057 77.7388 57.5845 77.5249 57.5106 77.2548L55.5349 70.0321L57.6067 69.4654L59.6078 76.7806C59.7535 77.3131 59.8061 77.7631 59.7657 78.1308C59.7252 78.4985 59.5662 78.8116 59.2886 79.07C59.0186 79.3263 58.6059 79.5304 58.0503 79.6824L57.0433 79.9579L56.6475 78.511ZM64.0827 77.9203C63.1876 78.1651 62.4557 78.1124 61.8871 77.762C61.3241 77.4018 60.8858 76.7089 60.572 75.6833L62.2702 74.9327C62.4404 75.5247 62.627 75.934 62.83 76.1605C63.0385 76.3771 63.2778 76.4485 63.5479 76.3746C63.8951 76.2796 64.0065 76.0045 63.882 75.5492C63.7828 75.1866 63.6124 74.8973 63.3708 74.6813C63.137 74.4633 62.8015 74.2524 62.3642 74.0485L61.3608 73.5641C60.8667 73.3343 60.456 73.061 60.1288 72.7441C59.8072 72.4174 59.5746 71.9917 59.4311 71.4669C59.2158 70.6799 59.2816 70.0108 59.6285 69.4597C59.9831 68.9066 60.5694 68.5181 61.3873 68.2944C62.2747 68.0516 62.9473 68.1455 63.4051 68.5759C63.8706 69.0043 64.2163 69.5857 64.4421 70.3201L62.7197 71.0277C62.5713 70.5457 62.43 70.2112 62.2959 70.0239C62.1673 69.8269 61.9796 69.7621 61.7327 69.8296C61.5552 69.8782 61.4374 69.9934 61.3793 70.1751C61.3268 70.3471 61.3259 70.5256 61.3765 70.7108C61.4631 71.0272 61.6054 71.2744 61.8034 71.4525C62.0091 71.6285 62.3081 71.8121 62.7005 72.0033L63.6628 72.4741C64.2334 72.741 64.7062 73.0595 65.0812 73.4297C65.4562 73.7999 65.726 74.2859 65.8906 74.8878C66.0109 75.3276 66.0165 75.7574 65.9074 76.1771C65.8039 76.5869 65.5954 76.9467 65.282 77.2563C64.9686 77.566 64.5688 77.7873 64.0827 77.9203Z" fill="white"/>
</svg>
