<svg xmlns="http://www.w3.org/2000/svg" xmlns:xlink="http://www.w3.org/1999/xlink" width="150" height="100" fill="none"><style><![CDATA[.B{fill:#fff}.C{stroke-width:5}.D{stroke-miterlimit:10}.E{stroke:#5b5bd5}]]></style><g clip-path="url(#A)"><g stroke="#ccc" stroke-linecap="round" class="C D"><path d="M32.655 39.565l71.605-24.92M66.94 33.97l39.46-13.73m-55.625 6.865l39.465-13.73M55.2 37.74l6.83-2.375M23.3 42.85l4.515-1.57"/></g><g class="B"><path d="M106.535 73.065l-2.2-6.5h-19l-2.195 6.5S68.535 72.47 68.535 89.73l14.13 7.74h24.365l14.13-7.74c-.005-17.26-14.625-16.665-14.625-16.665z" class="C D E"/><path d="M94.77 72.315c-4.435-.175-7.865-3.065-10.195-8.6-2-4.785-2.735-10.625-2.735-14.5-.014-3.472 1.328-6.812 3.742-9.307S91.3 35.97 94.76 35.87h.165c3.47.1 6.764 1.553 9.178 4.048a13.31 13.31 0 0 1 3.742 9.307c0 3.87-.72 9.7-2.735 14.5-2.33 5.5-5.76 8.415-10.195 8.6h-.145z"/></g><path d="M94.84 37.125h.04a12.06 12.06 0 0 1 11.715 12.105c0 5.94-2.105 21.45-11.73 21.84h-.045c-9.625-.4-11.73-15.9-11.73-21.84A12.06 12.06 0 0 1 94.8 37.125h.04zm.125-2.5h-.245c-3.8.126-7.382 1.72-10.02 4.445s-4.11 6.368-4.11 10.16c0 7.955 2.85 23.88 14.13 24.335h.245c11.28-.455 14.13-16.38 14.13-24.335 0-3.792-1.475-7.435-4.11-10.16s-6.23-4.32-10.02-4.445h0z" fill="#5b5bd5"/><use xlink:href="#B" class="B"/><g class="C D"><g class="E"><use xlink:href="#B"/><g class="B"><path d="M98.055 73.835H91.63c-1 0-1.5 1.55-.76 2.4L93.22 79c.5.6 2.735.6 3.245 0l2.345-2.745c.74-.86.255-2.4-.755-2.4zm-1.02 5.605l-2.195.735-2.2-.735-2.315 17.3h9.015l-2.315-17.3z"/></g><path d="M83.33 72.375l7.3 3.4m16.1-3.4l-7.3 3.4"/></g><g class="B"><path d="M56.76 76.8l-1.695-5.035h-14.7l-1.7 5.035S27.34 76.35 27.34 89.7l10.94 6h18.86l10.935-6c0-13.36-11.315-12.9-11.315-12.9z" stroke="#ccc"/></g></g><path d="M47.665 75.95c-3.315-.135-5.885-2.315-7.64-6.5-1.38-3.542-2.09-7.31-2.1-11.1a10 10 0 0 1 9.73-10.035h.105A10 10 0 0 1 57.5 58.36c0 2.97-.55 7.445-2.095 11.1-1.755 4.165-4.33 6.345-7.64 6.5h-.1l-.01-.02z" class="B"/><path d="M47.7 49.555c2.285.072 4.45 1.032 6.038 2.676s2.47 3.843 2.462 6.13c0 4.45-1.53 16.05-8.53 16.34-7-.3-8.535-11.9-8.535-16.34-.01-2.286.874-4.485 2.462-6.13s3.754-2.605 6.038-2.676h.065zm.03-2.5h-.2a11.31 11.31 0 0 0-10.94 11.3c0 6.16 2.2 18.5 10.94 18.84h.2c8.73-.355 10.935-12.68 10.935-18.84a11.31 11.31 0 0 0-10.935-11.3h0z" fill="#ccc"/><use xlink:href="#C" class="B"/><g stroke="#ccc" class="C D"><use xlink:href="#C"/><g class="B"><path d="M50.195 77.405h-5c-.78 0-1.155 1.2-.585 1.865l1.82 2.125c.395.465 2.115.465 2.5 0l1.815-2.125c.605-.665.255-1.865-.55-1.865zm-.8 4.34l-1.695.57-1.7-.57-1.8 13.4h6.975l-1.8-13.4z"/></g><path d="M38.8 76.275l5.655 2.64m12.445-2.64l-5.655 2.64"/></g><path d="M100.77 2.53l7.905 22.945L126.7 5.38l-25.94-2.85z" class="B C D E"/></g><defs><clipPath id="A"><path d="M0 0h150v100H0z" class="B"/></clipPath><path id="B" d="M83.27 53.855c7.46 0 13.97-5.06 16.22-7a1 1 0 0 1 .789-.257 1 1 0 0 1 .402.136c.122.074.228.173.31.29a75.18 75.18 0 0 0 6.175 6.855"/><path id="C" d="M38.75 61.945c5.775 0 10.815-3.92 12.555-5.44.082-.073.18-.128.284-.16s.216-.044.325-.032.215.047.3.103.177.13.24.22c1.527 1.862 3.16 3.635 4.9 5.3"/></defs></svg>