<svg width="180" height="254" viewBox="0 0 180 254" fill="none" xmlns="../../external.html?link=http://www.w3.org/2000/svg">
<path d="M49.1864 238.927H44.3158V233.042C44.2799 230.463 45.2662 227.975 47.0592 226.121C48.8522 224.267 51.3061 223.198 53.8848 223.147H158.962C161.541 223.198 163.995 224.267 165.788 226.121C167.581 227.975 168.567 230.463 168.531 233.042V238.257H163.66V233.042C163.696 231.75 163.219 230.496 162.334 229.554C161.448 228.613 160.225 228.061 158.933 228.018H53.9135C52.6215 228.061 51.399 228.613 50.5131 229.554C49.6273 230.496 49.1503 231.75 49.1864 233.042V238.927Z" fill="#5B5BD5"/>
<path d="M138.915 243.137V227.597H133.317V236.343C132.396 236.013 131.425 235.845 130.446 235.846C128.743 235.846 127.078 236.351 125.662 237.297C124.245 238.243 123.142 239.588 122.49 241.162C121.838 242.736 121.667 244.467 122 246.138C122.332 247.808 123.152 249.343 124.357 250.547C125.561 251.752 127.096 252.572 128.766 252.904C130.437 253.237 132.168 253.066 133.742 252.414C135.316 251.762 136.661 250.659 137.607 249.242C138.553 247.826 139.058 246.161 139.058 244.458C139.042 244.015 138.994 243.573 138.915 243.137V243.137ZM130.437 251.367C128.594 251.367 126.827 250.635 125.524 249.332C124.222 248.029 123.49 246.262 123.49 244.419H137.384C137.384 246.262 136.652 248.029 135.349 249.332C134.046 250.635 132.279 251.367 130.437 251.367Z" fill="#5B5BD5"/>
<path d="M79.702 243.137V227.597H74.1041V236.343C73.1834 236.012 72.212 235.844 71.2334 235.846C69.5301 235.846 67.8651 236.351 66.4488 237.297C65.0326 238.243 63.9287 239.588 63.2769 241.162C62.6251 242.736 62.4545 244.467 62.7868 246.138C63.1191 247.808 63.9393 249.343 65.1438 250.547C66.3482 251.752 67.8827 252.572 69.5533 252.904C71.2239 253.237 72.9555 253.066 74.5292 252.414C76.1028 251.762 77.4478 250.659 78.3941 249.242C79.3405 247.826 79.8455 246.161 79.8455 244.458C79.8343 244.014 79.7863 243.573 79.702 243.137V243.137ZM71.2239 251.367C69.3814 251.367 67.6144 250.635 66.3115 249.332C65.0087 248.029 64.2768 246.262 64.2768 244.419H78.171C78.171 246.262 77.439 248.029 76.1362 249.332C74.8334 250.635 73.0664 251.367 71.2239 251.367Z" fill="#5B5BD5"/>
<path d="M168.387 243.137V231.013C168.387 230.107 168.027 229.238 167.387 228.598C166.746 227.957 165.877 227.597 164.971 227.597H162.799V236.343C161.024 235.703 159.089 235.663 157.289 236.229C155.489 236.795 153.926 237.937 152.838 239.479C151.75 241.02 151.199 242.876 151.269 244.762C151.338 246.647 152.025 248.457 153.224 249.915C154.422 251.372 156.066 252.395 157.903 252.827C159.739 253.259 161.667 253.076 163.389 252.306C165.111 251.536 166.533 250.222 167.436 248.566C168.339 246.909 168.674 245.002 168.387 243.137ZM159.919 251.367C158.076 251.367 156.309 250.635 155.006 249.332C153.704 248.029 152.972 246.262 152.972 244.419H166.866C166.863 246.256 166.135 248.017 164.838 249.319C163.542 250.62 161.784 251.356 159.947 251.367H159.919Z" fill="#5B5BD5"/>
<path d="M50.2868 242.936L50.1911 227.626H47.751C47.3376 227.626 46.9282 227.707 46.5463 227.866C46.1643 228.024 45.8173 228.256 45.5249 228.548C45.2326 228.84 45.0007 229.187 44.8425 229.569C44.6843 229.951 44.6028 230.361 44.6028 230.774V236.372C43.4138 235.912 42.1375 235.722 40.866 235.815C39.5945 235.908 38.3595 236.282 37.2502 236.91C36.1409 237.539 35.1849 238.405 34.4513 239.448C33.7176 240.491 33.2247 241.683 33.0079 242.94C32.7912 244.196 32.8561 245.485 33.198 246.713C33.5398 247.941 34.1501 249.078 34.9848 250.042C35.8195 251.006 36.8577 251.772 38.0245 252.286C39.1914 252.799 40.4577 253.048 41.7321 253.013C44.0349 252.992 46.2354 252.059 47.8502 250.417C49.465 248.775 50.3621 246.56 50.3442 244.257L50.2868 242.936ZM41.6747 251.367C39.833 251.364 38.0675 250.631 36.7652 249.329C35.4629 248.027 34.7301 246.261 34.7276 244.42H48.6218C48.6218 246.255 47.8952 248.017 46.6006 249.318C45.306 250.62 43.5488 251.357 41.713 251.367H41.6747Z" fill="#5B5BD5"/>
<path d="M110.543 185.053H102.227C99.5322 185.053 97.3473 187.238 97.3473 189.933V230.458C97.3473 233.153 99.5322 235.338 102.227 235.338H110.543C113.238 235.338 115.423 233.153 115.423 230.458V189.933C115.423 187.238 113.238 185.053 110.543 185.053Z" fill="#5B5BD5"/>
<path d="M109.93 160.805H102.83V189.857H109.93V160.805Z" stroke="#5B5BD5" stroke-miterlimit="10"/>
<path d="M137.853 144.949H75.0226C74.6054 145.849 74.3899 146.828 74.3911 147.82C74.3911 149.624 75.1079 151.355 76.3838 152.631C77.6597 153.907 79.3902 154.623 81.1946 154.623H98.0169V157.609C96.1822 159.43 93.7209 160.481 91.1368 160.547H68.0851C67.641 160.547 67.215 160.723 66.901 161.037C66.587 161.351 66.4105 161.777 66.4105 162.221V162.221C66.4105 162.665 66.587 163.091 66.901 163.405C67.215 163.719 67.641 163.896 68.0851 163.896H91.5674C91.7697 163.894 91.9703 163.859 92.1607 163.791C94.4432 163.5 96.6597 162.824 98.7155 161.791H114.858V154.623H131.681C132.574 154.623 133.459 154.448 134.284 154.106C135.11 153.764 135.86 153.263 136.492 152.631C137.123 151.999 137.624 151.249 137.966 150.424C138.308 149.598 138.484 148.713 138.484 147.82V147.82C138.485 146.828 138.27 145.849 137.853 144.949Z" fill="#5B5BD5"/>
<path d="M28.9767 4.39969H104.428C104.428 4.39969 112.61 4.0552 113.327 11.9401C114.045 19.8249 124.083 115.391 124.083 115.391C124.083 115.391 124.514 130.749 140.733 130.605C158.235 130.462 172.311 130.605 172.311 130.605C172.311 130.605 179.344 130.462 179.133 138.567C179.133 138.567 178.913 143.801 174.349 144.949H97.041L50.2869 141.016L33.1488 113.678L26.661 10.3325L28.9767 4.39969Z" fill="#8F9ED1" stroke="#5B5BD5" stroke-width="0.5" stroke-miterlimit="10"/>
<path d="M25.6849 3.69238C31.2541 3.69238 33.1105 8.4099 33.5219 13.4145C33.5219 13.4145 39.8279 90.4928 43.7799 115.946C46.2487 131.831 57.7985 130.175 63.9705 130.3L89.9408 130.73C89.9408 130.73 99.194 130.587 98.5529 138.979C97.9117 147.371 89.9408 146.318 89.9408 146.318L56.9851 145.888C48.0381 145.17 31.723 137.936 28.9575 120.252C24.8524 93.7463 18.2689 13.4145 18.2689 13.4145C17.8575 8.4099 21.1396 4.056 25.6849 3.69238Z" fill="white" stroke="#5B5BD5" stroke-width="0.5" stroke-miterlimit="10"/>
<path d="M53.2054 25.4326H98.3329" stroke="#5B5BD5" stroke-width="0.75" stroke-linecap="round" stroke-linejoin="round"/>
<path d="M53.2054 23.375H98.3329" stroke="white" stroke-linecap="round" stroke-linejoin="round"/>
<path d="M54.6407 45.9009H99.7682" stroke="#5B5BD5" stroke-width="0.75" stroke-linecap="round" stroke-linejoin="round"/>
<path d="M54.6407 43.8433H99.7682" stroke="white" stroke-linecap="round" stroke-linejoin="round"/>
<path d="M84.6299 66.9429H102.352" stroke="#5B5BD5" stroke-width="0.75" stroke-linecap="round" stroke-linejoin="round"/>
<path d="M84.6299 64.8857H102.352" stroke="white" stroke-linecap="round" stroke-linejoin="round"/>
<path d="M97.5289 130.462H132.982" stroke="white" stroke-linecap="round" stroke-linejoin="round"/>
<path d="M49.7318 4.39043C49.7318 4.39043 56.4301 -2.45141 60.6405 4.39043L75.7404 53.8047" stroke="#5B5BD5" stroke-width="0.75" stroke-miterlimit="10"/>
<path d="M21.5414 51.1543L8.87207 72.2061" stroke="#5B5BD5" stroke-width="0.75" stroke-miterlimit="10"/>
<path d="M36.1342 20.9834L38.5742 48.5326" stroke="white" stroke-miterlimit="10"/>
<path d="M39.6461 57.0679L40.4882 63.7757" stroke="white" stroke-miterlimit="10"/>
<path d="M44.1339 101.334L46.0477 117.688C46.0477 117.688 47.4831 128.309 61.2624 128.597C75.0418 128.884 92.2564 128.597 92.2564 128.597C92.2564 128.597 98.8495 128.022 100.715 137.343" stroke="white" stroke-miterlimit="10"/>
<path d="M80.3031 52.5309L0.674316 75.0186L7.97688 100.877L87.6056 78.3893L80.3031 52.5309Z" fill="white" stroke="#5B5BD5" stroke-width="0.75" stroke-miterlimit="10"/>
<path d="M80.5554 55.7395L4.46289 77.2285L10.7538 99.5047L86.8464 78.0157L80.5554 55.7395Z" fill="#8F9ED1"/>
<path d="M33.0486 75.7966L35.8893 74.9557C36.6576 74.7283 37.265 74.614 37.7116 74.613C38.1627 74.6106 38.5247 74.6929 38.7976 74.8599C39.075 75.0256 39.2977 75.2608 39.4657 75.5657C39.6368 75.8649 39.8229 76.3539 40.0238 77.0328L40.3035 77.9775C40.5084 78.6698 40.5864 79.1957 40.5373 79.5551C40.4883 79.9146 40.2968 80.236 39.9629 80.5195C39.6335 80.8016 39.1606 81.0339 38.5442 81.2163L37.7871 81.4405L39.0802 85.8088L36.2596 86.6438L33.0486 75.7966ZM36.4186 76.8175L37.2357 79.5779C37.3175 79.5586 37.3874 79.5403 37.4454 79.5231C37.7045 79.4464 37.8646 79.331 37.9259 79.1768C37.9903 79.0169 37.963 78.7359 37.844 78.3339L37.5802 77.4428C37.4704 77.0721 37.341 76.8481 37.1918 76.7708C37.0426 76.6935 36.7849 76.7091 36.4186 76.8175ZM46.4216 71.8379L49.6326 82.6851L46.8119 83.52L45.4633 78.9641L44.6191 79.214L45.9677 83.7699L43.1471 84.6049L39.9361 73.7578L42.7567 72.9228L43.9051 76.802L44.7493 76.5521L43.6009 72.6729L46.4216 71.8379ZM47.5606 71.5007L50.4013 70.6598C51.1696 70.4324 51.777 70.3181 52.2237 70.3171C52.6748 70.3147 53.0367 70.397 53.3096 70.564C53.587 70.7297 53.8097 70.9649 53.9777 71.2698C54.1488 71.569 54.3349 72.058 54.5358 72.7369L54.8155 73.6816C55.0204 74.3739 55.0984 74.8998 55.0493 75.2592C55.0003 75.6187 54.8088 75.9401 54.4749 76.2236C54.1455 76.5057 53.6726 76.738 53.0562 76.9204L52.2991 77.1446L53.5922 81.5129L50.7716 82.3479L47.5606 71.5007ZM50.9306 72.5216L51.7477 75.282C51.8295 75.2627 51.8994 75.2444 51.9574 75.2272C52.2165 75.1505 52.3766 75.0351 52.4379 74.8809C52.5023 74.721 52.475 74.44 52.356 74.038L52.0922 73.1469C51.9824 72.7762 51.853 72.5522 51.7038 72.4749C51.5546 72.3976 51.2969 72.4132 50.9306 72.5216Z" fill="white"/>
</svg>
