<svg width="751" height="485" viewBox="0 0 751 485" fill="none" xmlns="../../external.html?link=http://www.w3.org/2000/svg">
<path d="M351.936 359.504L397.09 430.848C398.775 433.508 399.715 436.571 399.811 439.719C399.908 442.866 399.158 445.982 397.639 448.74C396.121 451.499 393.89 453.799 391.179 455.401C388.468 457.003 385.377 457.848 382.228 457.848H260.328C257.362 457.848 254.444 457.097 251.845 455.667C249.246 454.236 247.052 452.172 245.465 449.666L194.213 368.688C192.529 366.027 191.589 362.963 191.493 359.816C191.396 356.669 192.147 353.553 193.665 350.795C195.183 348.036 197.414 345.736 200.125 344.134C202.836 342.532 205.927 341.687 209.076 341.688H330.976C333.942 341.687 336.86 342.438 339.459 343.868C342.057 345.299 344.252 347.364 345.838 349.87L351.938 359.505L351.936 359.504Z" fill="#5B5BD5"/>
<path d="M285.077 363.941C285.077 363.941 289.806 356.08 298.851 362.741L349.636 408.495C349.636 408.495 354.428 415.29 344.606 416.161H277.412C277.412 416.161 262.906 416.888 266.393 406.22L285.077 363.941Z" fill="white"/>
<path d="M584.185 173.438L694.205 347.27C712.264 375.805 691.762 413.046 657.991 413.046H360.982C353.755 413.046 346.645 411.218 340.313 407.732C333.982 404.247 328.635 399.216 324.769 393.109L199.894 195.809C181.834 167.274 202.337 130.033 236.108 130.033H533.117C540.345 130.033 547.455 131.861 553.786 135.347C560.118 138.833 565.465 143.863 569.33 149.97L584.186 173.443L584.185 173.438Z" fill="white"/>
<path d="M495.013 275.012L475.223 243.744L472.55 239.519C471.771 238.282 470.69 237.263 469.41 236.559C468.129 235.854 466.69 235.486 465.228 235.49H411.803C410.251 235.489 408.728 235.905 407.392 236.694C406.056 237.483 404.957 238.616 404.208 239.975C403.46 241.334 403.091 242.869 403.139 244.42C403.187 245.971 403.65 247.48 404.481 248.79L426.942 284.282C427.72 285.52 428.801 286.539 430.082 287.244C431.363 287.95 432.802 288.317 434.264 288.313H487.691C489.242 288.314 490.765 287.898 492.101 287.109C493.436 286.32 494.535 285.186 495.283 283.828C496.032 282.469 496.401 280.934 496.354 279.384C496.306 277.833 495.844 276.324 495.014 275.013L495.013 275.012Z" fill="#5B5BD5"/>
<path d="M619.578 184.32C622.891 183.37 626.404 183.37 629.716 184.32C635.322 185.898 637.191 189.687 637.638 195.42C638.085 201.153 633.207 208.757 621.884 205.975C621.884 205.975 604.484 208.317 600.09 216.84C595.696 225.363 595.676 226.754 595.676 226.754C595.676 226.754 592.376 239.684 597.21 246.089C597.21 246.089 577.541 248.826 574.41 256.04C574.41 256.04 563.355 252.347 559.385 251.201C555.415 250.055 550.348 244.148 546.557 240.078C542.766 236.008 535.717 229.689 535.664 227.517C535.611 225.345 536.25 221.872 538.825 221.238C541.4 220.604 546.615 220.896 552.141 227.338C557.667 233.78 561.247 235.524 561.452 234.296C561.657 233.068 554.024 224.096 547.152 218.674C540.28 213.252 530.074 205.285 528.575 203.539C527.076 201.793 529.26 196.948 531.4 195.959C533.54 194.97 536.831 194.221 542.7 198.518C548.569 202.815 553.231 206.548 553.231 206.548C553.231 206.548 561.185 200.009 570.121 205.266C571.346 204.423 572.766 203.908 574.246 203.768C575.727 203.628 577.218 203.868 578.579 204.466L579.205 201.101C579.205 201.101 570.939 193.672 571.28 190.876C571.621 188.08 585.153 178.502 585.153 178.502L587.993 157.293C587.993 157.293 592.451 170.118 603.966 177.598C615.481 185.078 619.578 184.32 619.578 184.32Z" fill="white"/>
<path d="M406.38 270.107C406.38 270.107 399.537 274.407 401.86 281.976C401.86 281.976 395.16 285.834 398.238 297.104C401.316 308.374 405.347 317.638 412.979 325.224C420.611 332.81 432.288 338.987 433.072 341.688C437.923 336.642 443.194 332.017 448.828 327.863C454.183 323.795 459.891 320.214 465.884 317.163C465.884 317.163 451.139 293.529 448.384 287.115C445.629 280.701 441.241 271.43 434.784 273.123C428.327 274.816 429.493 281.773 431.419 286.991C433.345 292.209 438.837 302.441 433.073 303.566C427.309 304.691 423.138 293.798 423.138 293.798C423.138 293.798 420.964 292.925 416.36 284.944C413.426 279.922 410.088 275.146 406.38 270.664V270.107Z" fill="white"/>
<path d="M594.486 139.21C604.986 129.2 619.272 132.675 627.03 135.746C634.788 138.817 640.688 141.182 643.939 145.328C643.939 145.328 656.305 149.469 662.286 153.155C668.267 156.841 672.545 164.471 670.714 174.879C668.883 185.287 662.319 194.421 662.319 194.421C662.319 194.421 659.163 200.5 663.483 203.41C667.803 206.32 679.742 214.237 680.52 232.81C681.298 251.383 668.92 261.505 656.078 261.9C643.236 262.295 627.161 257.826 626.193 255.355C626.193 255.355 609.156 263.115 598.638 249.337C588.12 235.559 598.706 215.569 605.038 212.229C609.088 210.189 613.561 209.132 618.095 209.142C620.763 206.351 622.808 203.027 624.095 199.388C625.323 195.91 621.981 189.429 617.464 187.314C615.303 186.392 613.002 185.839 610.657 185.678C610.657 185.678 595.992 182.131 588.42 162.554C588.422 162.553 583.988 149.22 594.486 139.21Z" fill="#7780A9"/>
<path d="M669.844 257.279C669.844 257.279 677.438 264.179 682.165 280.902C682.165 280.902 701.086 314.231 708.04 334.027C714.994 353.823 726.92 381.64 716.251 400.412C705.582 419.184 686.267 417.603 682.078 416.279C681.058 425.995 680.917 435.784 681.659 445.525C682.936 460.732 686.483 483.668 686.483 483.668H535.748C535.748 483.668 539.3 467.877 540.275 461.505C541.25 455.133 542.522 444.234 542.522 444.234C542.522 444.234 529.622 452.547 502.598 439.618C475.574 426.689 450.967 388.063 445.365 378.235C439.763 368.407 429 346.401 429 346.401C429 346.401 453.831 319.515 476.705 312.051L519.088 359.158C519.088 359.158 530.505 333.971 538.876 315.233C547.247 296.495 558.613 268.868 570.915 259.251C583.217 249.634 588.155 247.201 597.208 246.086C597.208 246.086 602.374 255.986 611.173 257.317C616.264 258.157 621.489 257.474 626.193 255.355C626.193 255.355 640.232 262.611 651.998 262.113C663.764 261.615 669.844 257.279 669.844 257.279Z" fill="#5B5BD5"/>
<path d="M499.546 34.7025L519.336 65.9725C520.074 67.1384 520.485 68.4808 520.527 69.8597C520.569 71.2387 520.24 72.6037 519.575 73.8123C518.91 75.0208 517.932 76.0287 516.745 76.7307C515.557 77.4328 514.203 77.8032 512.823 77.8035H459.397C458.097 77.8035 456.818 77.4747 455.679 76.8475C454.54 76.2204 453.578 75.3153 452.883 74.2166L430.42 38.7255C429.682 37.5596 429.27 36.2171 429.228 34.8379C429.186 33.4587 429.515 32.0936 430.181 30.8849C430.846 29.6762 431.824 28.6682 433.012 27.9663C434.2 27.2644 435.554 26.8943 436.934 26.8945H490.364C491.664 26.8946 492.943 27.2234 494.082 27.8503C495.221 28.4773 496.183 29.382 496.878 30.4805L499.549 34.7025H499.546Z" fill="#7780A9"/>
<path d="M280.856 120.838L333.492 204.002C335.455 207.103 336.551 210.674 336.663 214.343C336.776 218.011 335.902 221.643 334.131 224.858C332.361 228.073 329.761 230.754 326.6 232.621C323.44 234.488 319.837 235.472 316.167 235.471H174.072C170.614 235.471 167.212 234.597 164.183 232.929C161.154 231.261 158.596 228.855 156.747 225.933L97.0035 131.543C95.0396 128.443 93.9445 124.871 93.8319 121.203C93.7194 117.534 94.5938 113.903 96.3639 110.687C98.134 107.472 100.735 104.791 103.895 102.924C107.055 101.057 110.658 100.073 114.329 100.074H256.424C259.882 100.074 263.283 100.948 266.312 102.616C269.342 104.283 271.9 106.69 273.749 109.612L280.855 120.842L280.856 120.838Z" fill="#7780A9"/>
<path d="M528.072 202.73C528.072 202.73 524.745 208.051 532.111 211.43L536.304 210.102C536.304 210.102 527.513 203.753 528.072 202.73Z" fill="#C6CBDE"/>
<path d="M112.461 113.709H301.75L289.311 94.8509C289.311 94.8509 286.31 90.9169 277.577 88.5699C268.844 86.2229 130.512 88.6568 130.512 88.6568C130.512 88.6568 108.871 90.7188 112.461 113.709Z" fill="#5B5BD5"/>
<path d="M279.376 104.576C277.076 106.489 273.009 105.396 270.302 102.136C267.595 98.8759 267.268 94.68 269.573 92.768C271.878 90.856 275.94 91.9469 278.647 95.2089C281.354 98.4709 281.681 102.663 279.376 104.576Z" fill="#000444"/>
<path d="M257.957 104.576C255.657 106.489 251.59 105.396 248.882 102.136C246.174 98.8759 245.849 94.68 248.153 92.768C250.457 90.856 254.52 91.9469 257.227 95.2089C259.934 98.4709 260.261 102.663 257.957 104.576Z" fill="white"/>
<path d="M237.05 104.576C234.75 106.489 230.684 105.396 227.976 102.136C225.268 98.8759 224.942 94.68 227.247 92.768C229.552 90.856 233.614 91.9469 236.321 95.2089C239.028 98.4709 239.354 102.663 237.05 104.576Z" fill="white"/>
<path d="M30.7787 203.965C24.9467 208.808 14.6617 206.04 7.80971 197.787C0.957707 189.534 0.132737 178.916 5.96474 174.074C11.7967 169.232 22.0817 171.998 28.9337 180.252C35.7857 188.506 36.6117 199.122 30.7787 203.965Z" fill="#5B5BD5"/>
<path d="M594.487 139.209C583.987 149.219 588.423 162.553 588.423 162.553C595.995 182.129 610.66 185.677 610.66 185.677C611.572 185.745 612.48 185.869 613.378 186.047C607.808 181.682 597.124 170.768 600.963 153.412C604.052 139.444 613.187 134.928 619.939 133.539C612.185 131.782 602.291 131.77 594.487 139.209Z" fill="white"/>
<path d="M613.635 257.463C588.681 242.7 606.351 214.903 615.567 209.242C611.896 209.545 608.32 210.558 605.036 212.226C598.707 215.566 588.12 235.555 598.636 249.334C600.381 251.712 602.631 253.674 605.224 255.08C607.817 256.485 610.69 257.299 613.635 257.463V257.463Z" fill="white"/>
<path d="M493.258 434.121C493.258 434.121 518.79 453.821 542.523 444.235C542.523 444.235 557.252 438.2 562.162 432.469C562.162 432.469 554.113 411.733 528.738 412.415C503.363 413.097 496.658 426.496 493.258 434.121Z" fill="#7780A9"/>
<path d="M528.179 447.657C489.606 447.657 449.696 396.578 428.007 346.832C427.931 346.655 427.903 346.461 427.926 346.269C427.949 346.078 428.023 345.896 428.139 345.742C434.255 338.241 441.407 331.649 449.381 326.165C466.496 314.526 475.794 311.03 476.181 310.886C476.375 310.815 476.585 310.801 476.787 310.846C476.989 310.89 477.174 310.991 477.32 311.136C477.82 311.636 527.42 361.485 542.704 392.102C542.832 392.359 542.852 392.656 542.761 392.927C542.67 393.199 542.474 393.424 542.218 393.551C541.961 393.679 541.664 393.7 541.392 393.608C541.12 393.517 540.896 393.322 540.768 393.065C526.468 364.411 481.558 318.499 476.297 313.165C473.918 314.165 464.979 318.17 450.597 327.945C442.993 333.188 436.145 339.452 430.246 346.559C452.776 397.893 494.646 450.409 533.676 445.127C575.146 439.446 592.709 385.751 611.356 316.142C611.435 315.867 611.617 315.633 611.865 315.491C612.113 315.348 612.407 315.308 612.684 315.378C612.961 315.453 613.198 315.635 613.341 315.884C613.484 316.133 613.522 316.429 613.447 316.706C594.584 387.096 576.755 441.406 533.963 447.263C532.047 447.527 530.114 447.658 528.179 447.657V447.657Z" fill="#000444"/>
<path d="M519.677 361.14C519.525 361.142 519.374 361.11 519.235 361.046C519.106 360.989 518.989 360.906 518.892 360.803C518.794 360.699 518.718 360.578 518.668 360.445C518.617 360.313 518.594 360.172 518.598 360.03C518.603 359.888 518.635 359.749 518.693 359.619C523.367 349.253 527.671 339.013 531.83 329.119C550.842 283.876 565.867 248.142 596.157 245.464C596.299 245.447 596.443 245.46 596.58 245.501C596.717 245.541 596.844 245.61 596.953 245.702C597.063 245.793 597.152 245.907 597.216 246.035C597.28 246.162 597.317 246.302 597.325 246.444C597.338 246.585 597.323 246.728 597.281 246.863C597.239 246.998 597.17 247.124 597.079 247.232C596.987 247.34 596.876 247.43 596.75 247.495C596.624 247.56 596.486 247.599 596.345 247.61C567.345 250.178 552.557 285.386 533.822 329.955C529.657 339.867 525.348 350.117 520.663 360.505C520.578 360.695 520.439 360.856 520.264 360.969C520.089 361.081 519.885 361.141 519.677 361.14Z" fill="#000444"/>
<path d="M465.889 317.504C465.728 317.504 465.569 317.467 465.423 317.398C465.278 317.329 465.149 317.229 465.048 317.104C464.993 317.033 463.583 315.268 456.623 305.068C454.015 301.301 451.722 297.327 449.764 293.186C448.911 291.367 448.164 289.491 447.423 287.622C446.413 284.929 445.24 282.301 443.911 279.751C443.49 278.982 443.043 278.23 442.551 277.505C441.823 276.297 440.845 275.258 439.685 274.457C439.003 274.059 438.239 273.823 437.452 273.767C436.665 273.71 435.875 273.835 435.144 274.131C434.288 274.435 433.511 274.926 432.869 275.569C432.228 276.213 431.738 276.991 431.437 277.848C430.629 280.437 431.575 283.567 432.527 286.3C433.042 287.777 433.639 289.216 434.236 290.659C434.906 292.285 435.597 293.959 436.167 295.677C436.228 295.865 436.317 296.077 436.411 296.313C437.158 298.15 438.895 302.459 433.124 305.235C428.584 307.403 425.48 301.335 423.412 297.325C422.969 296.467 422.577 295.693 422.217 295.106C422.068 294.861 422.023 294.567 422.092 294.289C422.16 294.011 422.336 293.772 422.581 293.623C422.826 293.475 423.12 293.43 423.398 293.499C423.676 293.567 423.915 293.743 424.064 293.988C424.44 294.607 424.864 295.427 425.331 296.334C427.466 300.489 429.751 304.449 432.191 303.288C436.134 301.388 435.178 299.022 434.409 297.12C434.293 296.838 434.193 296.578 434.122 296.356C433.574 294.719 432.893 293.076 432.241 291.483C431.626 290.006 431.017 288.524 430.493 287.008C429.425 283.949 428.373 280.419 429.381 277.208C429.774 276.033 430.43 274.964 431.299 274.08C432.167 273.197 433.224 272.522 434.392 272.108C435.434 271.698 436.556 271.531 437.672 271.621C438.788 271.712 439.869 272.056 440.832 272.628C442.247 273.593 443.443 274.844 444.344 276.301C444.869 277.081 445.351 277.889 445.804 278.712C447.178 281.338 448.388 284.046 449.427 286.821C450.157 288.658 450.888 290.495 451.727 292.276C453.636 296.311 455.871 300.183 458.41 303.854C465.258 313.894 466.68 315.68 466.734 315.754C466.861 315.912 466.941 316.104 466.964 316.306C466.987 316.507 466.953 316.712 466.865 316.895C466.777 317.078 466.639 317.233 466.467 317.341C466.295 317.45 466.096 317.507 465.893 317.507L465.889 317.504Z" fill="#000444"/>
<path d="M403.12 285.314C402.925 285.315 402.733 285.262 402.565 285.162C402.398 285.061 402.261 284.917 402.17 284.744C400.785 281.818 400.425 278.512 401.146 275.357C401.893 272.171 403.365 270.457 406.064 269.627C406.2 269.584 406.343 269.57 406.484 269.583C406.626 269.596 406.763 269.637 406.889 269.704C407.014 269.771 407.125 269.862 407.215 269.972C407.305 270.083 407.372 270.209 407.413 270.346C407.495 270.62 407.466 270.916 407.331 271.169C407.196 271.421 406.967 271.611 406.694 271.696C405.052 272.196 403.9 273.067 403.248 275.855C402.65 278.498 402.939 281.264 404.071 283.726C404.159 283.89 404.203 284.075 404.199 284.261C404.195 284.448 404.142 284.63 404.046 284.79C403.95 284.95 403.814 285.082 403.652 285.174C403.49 285.266 403.306 285.314 403.12 285.314V285.314Z" fill="#000444"/>
<path d="M416.658 308.392C416.493 308.393 416.329 308.356 416.18 308.283C416.032 308.21 415.902 308.104 415.801 307.972C408.494 298.425 402.201 284.822 402.145 284.689C402.085 284.561 402.052 284.422 402.046 284.28C402.04 284.139 402.062 283.997 402.111 283.864C402.159 283.731 402.234 283.609 402.33 283.505C402.426 283.401 402.542 283.317 402.67 283.257C402.798 283.194 402.938 283.158 403.08 283.15C403.223 283.142 403.366 283.164 403.5 283.213C403.634 283.262 403.756 283.338 403.86 283.436C403.964 283.534 404.047 283.652 404.103 283.783C404.169 283.921 410.36 297.308 417.517 306.656C417.641 306.816 417.718 307.007 417.738 307.208C417.758 307.409 417.721 307.612 417.632 307.793C417.542 307.975 417.404 308.127 417.232 308.233C417.06 308.339 416.861 308.395 416.659 308.393L416.658 308.392Z" fill="#000444"/>
<path d="M433.074 342.766C432.923 342.767 432.775 342.737 432.637 342.677C432.499 342.616 432.376 342.528 432.274 342.417C430.486 340.48 428.367 338.877 426.017 337.683C422.014 335.51 418.385 332.711 415.268 329.391C405.953 319.921 398.84 304.968 396.622 295.099C394.094 283.886 402.032 281.399 402.115 281.375C402.251 281.332 402.394 281.317 402.535 281.331C402.677 281.345 402.815 281.387 402.94 281.455C403.065 281.523 403.175 281.616 403.263 281.728C403.351 281.84 403.416 281.968 403.454 282.105C403.535 282.378 403.506 282.672 403.371 282.923C403.236 283.174 403.007 283.361 402.735 283.443C402.481 283.52 396.662 285.443 398.724 294.623C400.876 304.198 407.78 318.691 416.807 327.873C419.787 331.048 423.257 333.724 427.085 335.8C429.631 337.106 431.927 338.851 433.866 340.955C434.008 341.11 434.102 341.303 434.136 341.51C434.17 341.717 434.143 341.93 434.058 342.122C433.973 342.314 433.834 342.477 433.658 342.591C433.481 342.705 433.276 342.766 433.066 342.765L433.074 342.766Z" fill="#000444"/>
<path d="M612.543 210.853C610.462 210.852 608.413 210.345 606.571 209.376C604.73 208.406 603.152 207.003 601.973 205.288C601.892 205.171 601.835 205.039 601.805 204.9C601.775 204.762 601.773 204.618 601.799 204.478C601.825 204.338 601.878 204.205 601.955 204.086C602.032 203.966 602.132 203.864 602.249 203.783C602.366 203.702 602.498 203.645 602.637 203.615C602.776 203.586 602.919 203.584 603.059 203.609C603.199 203.635 603.332 203.688 603.452 203.765C603.571 203.842 603.674 203.942 603.755 204.059C604.965 205.821 606.675 207.179 608.665 207.958C610.655 208.738 612.832 208.903 614.917 208.432C617.002 207.962 618.897 206.877 620.359 205.318C621.821 203.76 622.782 201.799 623.118 199.688C623.455 197.578 623.151 195.415 622.245 193.479C621.34 191.544 619.875 189.924 618.04 188.828C616.205 187.733 614.084 187.214 611.95 187.336C609.817 187.459 607.769 188.218 606.072 189.516C605.96 189.608 605.83 189.676 605.691 189.717C605.552 189.758 605.407 189.77 605.263 189.754C605.119 189.737 604.98 189.692 604.854 189.62C604.728 189.549 604.618 189.453 604.529 189.338C604.441 189.223 604.377 189.092 604.34 188.952C604.304 188.812 604.296 188.666 604.317 188.522C604.338 188.379 604.388 188.241 604.463 188.118C604.539 187.994 604.638 187.887 604.756 187.802C606.377 186.56 608.271 185.723 610.281 185.359C612.291 184.996 614.358 185.117 616.312 185.712C618.266 186.307 620.05 187.359 621.516 188.782C622.982 190.204 624.087 191.955 624.741 193.89C625.395 195.825 625.578 197.888 625.275 199.908C624.972 201.927 624.193 203.846 623 205.504C621.808 207.163 620.238 208.513 618.419 209.443C616.601 210.373 614.587 210.856 612.544 210.852L612.543 210.853Z" fill="#000444"/>
<path d="M613.443 205.106C613.273 205.106 613.105 205.066 612.954 204.989C612.802 204.912 612.67 204.8 612.569 204.663L606.849 196.819C606.747 196.679 606.68 196.515 606.655 196.343C606.629 196.171 606.645 195.996 606.701 195.831C606.758 195.667 606.853 195.518 606.979 195.399C607.105 195.279 607.258 195.191 607.426 195.143L617.166 192.327C617.442 192.253 617.736 192.288 617.986 192.427C618.236 192.565 618.422 192.795 618.505 193.068C618.584 193.344 618.551 193.64 618.412 193.891C618.273 194.142 618.04 194.328 617.764 194.407L609.506 196.791L614.319 203.391C614.437 203.552 614.508 203.743 614.524 203.942C614.54 204.141 614.501 204.34 614.41 204.518C614.319 204.696 614.181 204.845 614.01 204.949C613.84 205.053 613.644 205.107 613.444 205.106H613.443Z" fill="#000444"/>
<path d="M594.677 228.401C588.25 227.815 583.753 225.464 581.207 221.414C576.467 213.875 580.307 203.304 580.478 202.857L589.113 167.521C589.186 167.247 589.362 167.011 589.603 166.862C589.845 166.713 590.134 166.663 590.412 166.721C590.691 166.789 590.931 166.964 591.081 167.208C591.231 167.453 591.278 167.747 591.212 168.026L582.539 203.484C582.462 203.706 578.866 213.641 583.039 220.273C585.213 223.713 589.156 225.727 594.777 226.247C595.055 226.271 595.313 226.401 595.496 226.61C595.68 226.82 595.775 227.092 595.762 227.371C595.749 227.649 595.629 227.911 595.427 228.103C595.224 228.295 594.956 228.401 594.678 228.399L594.677 228.401Z" fill="#000444"/>
<path d="M580.139 198.152C579.419 198.153 578.708 197.987 578.063 197.667C577.418 197.346 576.856 196.881 576.421 196.307C575.987 195.733 575.691 195.066 575.557 194.358C575.424 193.65 575.456 192.922 575.652 192.228L581.018 173.116C581.354 171.928 582.148 170.921 583.226 170.316C584.303 169.712 585.576 169.559 586.766 169.89C587.303 169.98 587.814 170.189 588.26 170.502C588.706 170.815 589.076 171.224 589.343 171.7C589.609 172.175 589.765 172.704 589.8 173.248C589.835 173.791 589.747 174.336 589.543 174.841C589.506 174.979 589.442 175.108 589.355 175.221C589.268 175.334 589.158 175.427 589.034 175.497C588.91 175.567 588.772 175.611 588.631 175.627C588.489 175.642 588.346 175.629 588.209 175.588C588.072 175.55 587.944 175.485 587.833 175.397C587.722 175.31 587.628 175.201 587.559 175.077C587.49 174.953 587.445 174.817 587.429 174.676C587.412 174.535 587.423 174.392 587.462 174.255C587.589 174.026 587.655 173.767 587.654 173.505C587.652 173.242 587.584 172.984 587.456 172.756C587.327 172.527 587.142 172.335 586.919 172.197C586.695 172.06 586.44 171.982 586.178 171.97C585.54 171.803 584.862 171.89 584.287 172.213C583.712 172.537 583.285 173.071 583.097 173.702L577.731 192.814C577.597 193.291 577.608 193.796 577.761 194.266C577.915 194.737 578.205 195.151 578.594 195.456C578.983 195.762 579.454 195.945 579.947 195.983C580.44 196.021 580.934 195.911 581.365 195.668C581.652 195.509 581.904 195.295 582.107 195.037C582.311 194.78 582.461 194.484 582.549 194.168C582.586 194.031 582.65 193.903 582.738 193.79C582.825 193.678 582.934 193.585 583.059 193.515C583.183 193.445 583.319 193.401 583.461 193.385C583.602 193.369 583.745 193.382 583.882 193.421C584.157 193.5 584.39 193.685 584.53 193.934C584.67 194.184 584.705 194.479 584.629 194.754C584.35 195.732 583.761 196.592 582.951 197.205C582.141 197.819 581.153 198.152 580.137 198.154L580.139 198.152Z" fill="#000444"/>
<path d="M535.747 484.745C535.63 484.746 535.514 484.727 535.404 484.69C535.132 484.598 534.909 484.403 534.781 484.147C534.654 483.89 534.633 483.594 534.724 483.323C536.715 477.387 540.145 457.076 541.45 445.223C541.465 445.082 541.508 444.945 541.576 444.821C541.644 444.697 541.736 444.587 541.846 444.498C541.957 444.409 542.084 444.343 542.22 444.303C542.356 444.263 542.498 444.251 542.639 444.266C542.78 444.281 542.917 444.324 543.041 444.392C543.165 444.46 543.275 444.552 543.364 444.663C543.453 444.773 543.519 444.9 543.558 445.036C543.598 445.172 543.611 445.315 543.596 445.456C542.391 456.375 538.996 477.373 536.771 484.005C536.7 484.22 536.563 484.408 536.379 484.541C536.195 484.674 535.974 484.745 535.747 484.745V484.745Z" fill="#000444"/>
<path d="M688.503 418.533C685.938 418.606 683.391 418.081 681.063 417.001C680.931 416.938 680.813 416.849 680.717 416.74C680.62 416.63 680.547 416.502 680.501 416.364C680.456 416.225 680.439 416.078 680.451 415.933C680.464 415.787 680.506 415.646 680.575 415.517C680.644 415.388 680.739 415.275 680.853 415.184C680.967 415.093 681.098 415.026 681.239 414.987C681.38 414.948 681.527 414.938 681.672 414.958C681.816 414.977 681.955 415.026 682.081 415.101C682.639 415.389 695.921 422.054 713.794 401.887C730.051 383.527 706.409 325.528 681.223 281.441C681.152 281.318 681.107 281.182 681.089 281.041C681.071 280.9 681.081 280.756 681.119 280.619C681.156 280.482 681.22 280.354 681.307 280.241C681.394 280.129 681.503 280.035 681.626 279.965C681.75 279.894 681.886 279.849 682.027 279.831C682.168 279.813 682.311 279.823 682.448 279.861C682.585 279.898 682.714 279.962 682.826 280.049C682.938 280.136 683.032 280.245 683.103 280.368C692.346 296.554 737.352 378.543 715.408 403.314C704.312 415.84 694.715 418.533 688.503 418.533Z" fill="#000444"/>
<path d="M686.485 484.745C686.24 484.745 686.001 484.663 685.809 484.51C685.618 484.357 685.483 484.144 685.429 483.905C685.347 483.529 677.154 446.229 681.296 405.716C689.971 320.916 686.403 275.462 669.714 258.337C669.604 258.238 669.516 258.117 669.455 257.983C669.395 257.848 669.362 257.702 669.36 257.555C669.357 257.407 669.385 257.26 669.442 257.124C669.498 256.988 669.582 256.864 669.688 256.761C669.794 256.659 669.92 256.579 670.058 256.527C670.196 256.474 670.344 256.451 670.491 256.458C670.639 256.465 670.783 256.503 670.916 256.568C671.048 256.633 671.166 256.724 671.262 256.837C688.662 274.698 692.309 319.294 683.443 405.937C679.343 446.086 687.459 483.064 687.543 483.43C687.604 483.71 687.553 484.003 687.4 484.246C687.246 484.488 687.003 484.66 686.724 484.724C686.645 484.739 686.565 484.746 686.485 484.745V484.745Z" fill="#000444"/>
<path d="M582.818 172.331C582.636 172.332 582.457 172.286 582.297 172.199C582.138 172.112 582.003 171.985 581.906 171.831L568.918 151.303C565.174 145.354 559.979 140.455 553.822 137.065C547.664 133.676 540.746 131.907 533.718 131.925H481.936C481.65 131.925 481.376 131.811 481.173 131.609C480.971 131.407 480.857 131.132 480.857 130.846C480.857 130.56 480.971 130.286 481.173 130.084C481.376 129.881 481.65 129.768 481.936 129.768H533.718C541.111 129.749 548.387 131.61 554.863 135.175C561.339 138.741 566.803 143.895 570.74 150.152L583.729 170.679C583.805 170.798 583.857 170.932 583.881 171.072C583.905 171.212 583.902 171.355 583.87 171.493C583.839 171.632 583.78 171.762 583.698 171.878C583.616 171.994 583.511 172.092 583.391 172.167C583.219 172.274 583.02 172.331 582.818 172.331V172.331Z" fill="#000444"/>
<path d="M423.14 131.923H324.551C324.265 131.923 323.991 131.809 323.789 131.607C323.586 131.404 323.473 131.13 323.473 130.844C323.473 130.558 323.586 130.284 323.789 130.081C323.991 129.879 324.265 129.766 324.551 129.766H423.141C423.427 129.766 423.702 129.879 423.904 130.081C424.106 130.284 424.22 130.558 424.22 130.844C424.22 131.13 424.106 131.404 423.904 131.607C423.702 131.809 423.427 131.923 423.141 131.923H423.14Z" fill="#000444"/>
<path d="M470.524 414.123H362.088C354.695 414.145 347.418 412.286 340.942 408.721C334.465 405.156 329.002 400.003 325.065 393.745L225.341 236.176C225.264 236.057 225.212 235.923 225.188 235.783C225.163 235.644 225.167 235.5 225.198 235.362C225.23 235.224 225.288 235.093 225.371 234.977C225.453 234.861 225.557 234.763 225.678 234.688C225.921 234.538 226.213 234.489 226.491 234.552C226.77 234.616 227.012 234.786 227.166 235.026L326.889 392.594C330.632 398.543 335.827 403.442 341.985 406.831C348.142 410.22 355.06 411.987 362.089 411.966H470.525C470.669 411.962 470.813 411.987 470.948 412.039C471.082 412.091 471.205 412.17 471.309 412.27C471.413 412.371 471.495 412.491 471.551 412.624C471.608 412.757 471.637 412.9 471.637 413.045C471.637 413.189 471.608 413.332 471.551 413.465C471.495 413.598 471.413 413.719 471.309 413.819C471.205 413.92 471.082 413.999 470.948 414.051C470.813 414.103 470.669 414.128 470.525 414.123H470.524Z" fill="#000444"/>
<path d="M334.29 225.047H192.199C188.557 225.059 184.972 224.144 181.781 222.387C178.59 220.63 175.899 218.09 173.962 215.006L114.22 120.615C112.154 117.351 111.003 113.592 110.885 109.731C110.767 105.87 111.688 102.048 113.552 98.6645C115.415 95.2807 118.152 92.459 121.478 90.4939C124.803 88.5287 128.595 87.4921 132.458 87.4923H274.549C278.191 87.4814 281.776 88.3973 284.966 90.1537C288.157 91.91 290.848 94.4491 292.787 97.5322L299.895 108.762L352.528 191.924C354.594 195.188 355.746 198.947 355.864 202.808C355.981 206.669 355.061 210.491 353.198 213.875C351.334 217.259 348.597 220.081 345.272 222.046C341.946 224.012 338.154 225.048 334.291 225.048L334.29 225.047ZM132.457 89.6473C128.98 89.6477 125.567 90.5811 122.574 92.3503C119.581 94.1196 117.117 96.6597 115.441 99.7057C113.764 102.752 112.936 106.192 113.042 109.667C113.148 113.142 114.185 116.525 116.045 119.463L175.786 213.854C177.532 216.628 179.954 218.912 182.825 220.492C185.696 222.072 188.922 222.897 192.199 222.887H334.29C337.767 222.887 341.18 221.954 344.174 220.185C347.167 218.416 349.63 215.875 351.307 212.829C352.984 209.783 353.812 206.343 353.706 202.868C353.599 199.392 352.562 196.009 350.702 193.071L290.961 98.6812C289.215 95.9076 286.794 93.6234 283.923 92.0431C281.052 90.4628 277.826 89.6384 274.549 89.6473H132.457Z" fill="#000444"/>
<path d="M207.131 377.991C206.949 377.992 206.769 377.947 206.609 377.859C206.45 377.772 206.315 377.645 206.218 377.491L193.291 357.062C191.512 354.251 190.52 351.013 190.419 347.687C190.318 344.362 191.111 341.07 192.716 338.155C194.321 335.24 196.678 332.81 199.543 331.117C202.407 329.424 205.673 328.531 209.001 328.531H285.747C286.033 328.531 286.307 328.645 286.51 328.847C286.712 329.05 286.825 329.324 286.825 329.61C286.825 329.896 286.712 330.171 286.51 330.373C286.307 330.576 286.033 330.689 285.747 330.689H209.001C206.059 330.69 203.172 331.48 200.64 332.977C198.108 334.474 196.024 336.622 194.606 339.199C193.188 341.776 192.487 344.686 192.577 347.626C192.666 350.566 193.544 353.428 195.116 355.913L208.043 376.341C208.147 376.504 208.204 376.692 208.21 376.885C208.216 377.078 208.17 377.269 208.076 377.438C207.983 377.607 207.846 377.748 207.679 377.846C207.513 377.944 207.324 377.996 207.131 377.995V377.991Z" fill="#000444"/>
<path d="M381.411 446.34H260.038C256.9 446.35 253.811 445.561 251.062 444.047C248.312 442.534 245.993 440.346 244.322 437.689L233.723 420.94C233.646 420.821 233.595 420.687 233.57 420.547C233.546 420.408 233.55 420.264 233.581 420.126C233.613 419.988 233.671 419.857 233.754 419.741C233.836 419.626 233.94 419.528 234.06 419.453C234.304 419.304 234.595 419.256 234.873 419.319C235.151 419.382 235.393 419.551 235.548 419.791L246.149 436.539C247.626 438.886 249.676 440.819 252.106 442.156C254.536 443.493 257.265 444.191 260.038 444.184H381.413C384.355 444.184 387.242 443.394 389.774 441.897C392.306 440.4 394.39 438.251 395.808 435.675C397.226 433.098 397.927 430.188 397.837 427.248C397.747 424.308 396.87 421.446 395.297 418.96L391.923 413.624C391.771 413.381 391.721 413.088 391.784 412.809C391.847 412.53 392.019 412.288 392.261 412.135C392.503 411.982 392.796 411.932 393.075 411.995C393.354 412.059 393.597 412.23 393.749 412.473L397.123 417.81C398.902 420.622 399.894 423.86 399.995 427.185C400.095 430.511 399.302 433.802 397.698 436.717C396.093 439.631 393.736 442.062 390.871 443.755C388.007 445.448 384.741 446.341 381.414 446.341L381.411 446.34Z" fill="#000444"/>
<path d="M493.493 89.65H440.073C438.59 89.6553 437.13 89.2822 435.831 88.566C434.532 87.8498 433.437 86.8141 432.65 85.5569L410.186 50.066C409.346 48.7373 408.878 47.2075 408.83 45.6363C408.783 44.065 409.158 42.5098 409.916 41.1329C410.674 39.7559 411.788 38.6077 413.141 37.8079C414.495 37.0081 416.038 36.5862 417.61 36.586H471.04C472.522 36.581 473.982 36.9535 475.28 37.6685C476.579 38.3835 477.674 39.4175 478.463 40.6729L481.135 44.894L500.927 76.165C501.768 77.4942 502.237 79.0249 502.285 80.5972C502.333 82.1696 501.957 83.7259 501.198 85.1037C500.439 86.4815 499.324 87.6304 497.97 88.4302C496.615 89.2301 495.071 89.6516 493.498 89.6509L493.493 89.65ZM417.605 38.742C416.419 38.7424 415.254 39.061 414.233 39.6647C413.212 40.2684 412.372 41.1351 411.8 42.1742C411.228 43.2134 410.945 44.3869 410.981 45.5726C411.017 46.7582 411.371 47.9125 412.005 48.915L434.469 84.405C435.064 85.3519 435.891 86.1319 436.87 86.6719C437.85 87.2119 438.95 87.4941 440.069 87.492H493.493C494.68 87.4912 495.844 87.1721 496.865 86.5679C497.887 85.9637 498.727 85.0965 499.299 84.0569C499.871 83.0173 500.154 81.8433 500.118 80.6573C500.081 79.4712 499.727 78.3167 499.093 77.314L476.629 41.8229C476.034 40.876 475.208 40.0963 474.228 39.5571C473.248 39.0178 472.147 38.737 471.029 38.741L417.605 38.742Z" fill="#000444"/>
<path d="M493.493 89.65H440.073C438.59 89.6553 437.13 89.2822 435.831 88.566C434.532 87.8498 433.437 86.8141 432.65 85.5569L410.186 50.066C409.346 48.7373 408.878 47.2075 408.83 45.6363C408.783 44.065 409.158 42.5098 409.916 41.1329C410.674 39.7559 411.788 38.6077 413.141 37.8079C414.495 37.0081 416.038 36.5862 417.61 36.586H471.04C472.522 36.581 473.982 36.9535 475.28 37.6685C476.579 38.3835 477.674 39.4175 478.463 40.6729L481.135 44.894L500.927 76.165C501.768 77.4942 502.237 79.0249 502.285 80.5972C502.333 82.1696 501.957 83.7259 501.198 85.1037C500.439 86.4815 499.324 87.6304 497.97 88.4302C496.615 89.2301 495.071 89.6516 493.498 89.6509L493.493 89.65ZM417.605 38.742C416.419 38.7424 415.254 39.061 414.233 39.6647C413.212 40.2684 412.372 41.1351 411.8 42.1742C411.228 43.2134 410.945 44.3869 410.981 45.5726C411.017 46.7582 411.371 47.9125 412.005 48.915L434.469 84.405C435.064 85.3519 435.891 86.1319 436.87 86.6719C437.85 87.2119 438.95 87.4941 440.069 87.492H493.493C494.68 87.4912 495.844 87.1721 496.865 86.5679C497.887 85.9637 498.727 85.0965 499.299 84.0569C499.871 83.0173 500.154 81.8433 500.118 80.6573C500.081 79.4712 499.727 78.3167 499.093 77.314L476.629 41.8229C476.034 40.876 475.208 40.0963 474.228 39.5571C473.248 39.0178 472.147 38.737 471.029 38.741L417.605 38.742Z" fill="#000444"/>
<path d="M434.625 295.625H426.438C424.955 295.63 423.495 295.257 422.196 294.542C420.897 293.827 419.802 292.793 419.014 291.537L396.549 256.047C395.709 254.718 395.24 253.188 395.192 251.616C395.144 250.044 395.518 248.488 396.277 247.11C397.035 245.732 398.15 244.583 399.503 243.783C400.857 242.983 402.401 242.561 403.974 242.561H457.404C458.886 242.556 460.345 242.929 461.644 243.644C462.942 244.359 464.038 245.393 464.827 246.648L467.498 250.874C467.574 250.993 467.626 251.127 467.65 251.267C467.674 251.406 467.67 251.55 467.639 251.688C467.607 251.826 467.549 251.957 467.467 252.072C467.385 252.188 467.281 252.286 467.161 252.362C467.041 252.439 466.908 252.492 466.768 252.517C466.627 252.542 466.484 252.538 466.345 252.507C466.206 252.475 466.076 252.416 465.96 252.333C465.845 252.25 465.747 252.145 465.673 252.024L463.001 247.799C462.405 246.853 461.578 246.074 460.599 245.534C459.619 244.995 458.519 244.714 457.401 244.717H403.971C402.784 244.717 401.619 245.036 400.598 245.64C399.576 246.244 398.736 247.111 398.164 248.151C397.591 249.191 397.309 250.365 397.345 251.551C397.382 252.737 397.736 253.892 398.371 254.895L420.836 290.386C421.43 291.333 422.256 292.113 423.236 292.652C424.216 293.191 425.317 293.472 426.435 293.468H434.622C434.909 293.468 435.183 293.581 435.385 293.783C435.587 293.986 435.701 294.26 435.701 294.546C435.701 294.832 435.587 295.106 435.385 295.309C435.183 295.511 434.909 295.625 434.622 295.625H434.625Z" fill="#000444"/>
<path d="M479.861 295.625H452.17C451.884 295.625 451.61 295.512 451.408 295.309C451.205 295.107 451.092 294.833 451.092 294.547C451.092 294.261 451.205 293.987 451.408 293.784C451.61 293.582 451.884 293.468 452.17 293.468H479.861C481.048 293.468 482.213 293.149 483.234 292.545C484.256 291.941 485.096 291.074 485.668 290.034C486.241 288.994 486.523 287.82 486.487 286.634C486.45 285.448 486.096 284.293 485.461 283.29L465.669 252.025C465.593 251.906 465.541 251.772 465.517 251.633C465.493 251.493 465.496 251.35 465.528 251.211C465.559 251.073 465.618 250.942 465.7 250.827C465.783 250.711 465.887 250.613 466.007 250.538C466.25 250.389 466.542 250.341 466.82 250.404C467.098 250.467 467.34 250.636 467.495 250.875L487.287 282.141C488.129 283.47 488.598 285.001 488.646 286.573C488.693 288.145 488.318 289.702 487.559 291.079C486.8 292.457 485.685 293.606 484.331 294.406C482.977 295.206 481.432 295.627 479.859 295.626L479.861 295.625Z" fill="#000444"/>
<path d="M537.237 212.061H456.437C453.929 212.067 451.461 211.437 449.264 210.228C447.066 209.02 445.212 207.273 443.875 205.152L433.508 187.168C432.094 184.919 431.308 182.332 431.233 179.676C431.157 177.021 431.795 174.394 433.079 172.068C434.363 169.743 436.247 167.804 438.535 166.453C440.822 165.103 443.43 164.39 446.087 164.389H541.613C544.121 164.381 546.59 165.012 548.787 166.222C550.984 167.433 552.836 169.184 554.169 171.309L564.541 189.287C565.871 191.357 566.656 193.731 566.824 196.186C566.991 198.642 566.535 201.1 565.498 203.332C565.439 203.461 565.354 203.577 565.25 203.674C565.146 203.771 565.024 203.846 564.891 203.896C564.758 203.946 564.616 203.969 564.474 203.963C564.332 203.958 564.192 203.925 564.063 203.866C563.934 203.807 563.817 203.723 563.721 203.619C563.624 203.515 563.548 203.393 563.499 203.26C563.449 203.126 563.426 202.985 563.431 202.843C563.436 202.701 563.47 202.561 563.529 202.432C564.418 200.519 564.808 198.413 564.662 196.308C564.516 194.204 563.838 192.172 562.693 190.401L552.322 172.424C551.181 170.617 549.6 169.129 547.726 168.101C545.853 167.072 543.75 166.536 541.613 166.544H446.087C443.812 166.545 441.58 167.156 439.623 168.314C437.666 169.472 436.055 171.134 434.959 173.126C433.863 175.118 433.321 177.369 433.391 179.642C433.461 181.915 434.139 184.127 435.356 186.049L445.721 204.026C446.865 205.831 448.448 207.316 450.321 208.343C452.195 209.371 454.299 209.907 456.436 209.901H537.236C537.522 209.901 537.796 210.014 537.999 210.217C538.201 210.419 538.315 210.694 538.315 210.98C538.315 211.266 538.201 211.54 537.999 211.743C537.796 211.945 537.522 212.059 537.236 212.059L537.237 212.061Z" fill="#000444"/>
<path d="M574.005 256.982C573.848 256.983 573.693 256.949 573.552 256.882C570.953 255.938 568.298 255.153 565.604 254.531C554.983 251.755 550.43 246.35 546.032 241.123L544.566 239.397C543.362 238.063 542.088 236.795 540.749 235.597C537.48 232.554 534.388 229.684 534.415 226.265C534.433 224.445 535.329 222.752 537.165 221.104C538.425 219.999 540.067 219.431 541.74 219.522C546.774 219.809 552.178 225.335 554.269 227.703C555.796 229.465 557.446 231.116 559.208 232.643C557.399 230.309 553.715 226.607 551.043 223.925L548.714 221.579C546.191 219.024 541.368 215.417 537.114 212.236C533.088 209.227 529.608 206.627 528.28 205.117C526.743 203.358 526.809 200.355 528.452 197.638C529.869 195.298 532.652 193.124 536.125 193.932C541.435 195.215 548.101 201.013 551.685 204.132C552.255 204.624 552.72 205.032 553.062 205.315C554.495 203.825 556.364 202.83 558.4 202.472C564.739 201.366 568.257 203.003 569.656 203.938C571.434 202.811 573.563 202.374 575.641 202.71C577.419 203.07 579.16 203.594 580.841 204.275C580.971 204.331 581.089 204.413 581.187 204.515C581.286 204.617 581.363 204.738 581.415 204.87C581.467 205.002 581.492 205.143 581.49 205.285C581.487 205.427 581.457 205.567 581.4 205.697C581.343 205.827 581.262 205.944 581.16 206.043C581.057 206.141 580.937 206.219 580.805 206.271C580.673 206.323 580.532 206.348 580.39 206.346C580.248 206.343 580.108 206.313 579.978 206.256C578.45 205.644 576.871 205.168 575.259 204.834C573.5 204.603 571.72 205.061 570.291 206.112C570.08 206.274 569.818 206.354 569.552 206.338C569.287 206.322 569.036 206.21 568.847 206.023C568.825 206.006 565.982 203.374 558.764 204.596C557.202 204.862 555.767 205.622 554.67 206.765C554.106 207.291 553.243 208.082 552.292 207.44C551.96 207.224 551.241 206.61 550.268 205.758C547.068 202.976 540.415 197.19 535.614 196.034C533.252 195.434 531.321 197.068 530.298 198.755C529.18 200.603 529.015 202.677 529.904 203.689C531.083 205.033 534.639 207.695 538.404 210.504C542.718 213.735 547.614 217.391 550.247 220.063L552.565 222.403C558.534 228.393 562.18 232.172 562.433 234.185C562.513 234.523 562.476 234.879 562.328 235.194C562.179 235.509 561.928 235.764 561.615 235.917C561.101 236.155 559.496 236.879 552.648 229.13C548.665 224.63 544.538 221.844 541.612 221.679C541.068 221.629 540.519 221.695 540.002 221.872C539.485 222.05 539.011 222.334 538.612 222.708C538.039 223.127 537.561 223.663 537.209 224.28C536.858 224.896 536.64 225.58 536.57 226.287C536.554 228.748 539.302 231.303 542.219 234.014C543.619 235.265 544.948 236.593 546.201 237.992L547.683 239.734C552.058 244.928 556.19 249.834 566.141 252.441C568.966 253.084 571.746 253.914 574.461 254.925C574.684 255.029 574.865 255.206 574.973 255.426C575.082 255.647 575.112 255.898 575.058 256.138C575.005 256.378 574.87 256.593 574.678 256.746C574.486 256.9 574.247 256.983 574.001 256.982H574.005Z" fill="#000444"/>
<path d="M567.057 221.028C566.879 221.028 566.703 220.984 566.546 220.9C566.389 220.816 566.256 220.695 566.157 220.546C562.799 215.489 552.345 207.48 552.239 207.397C552.126 207.312 552.032 207.205 551.961 207.082C551.889 206.96 551.843 206.825 551.824 206.685C551.805 206.544 551.814 206.402 551.85 206.265C551.886 206.128 551.949 206 552.035 205.887C552.121 205.775 552.228 205.68 552.35 205.609C552.472 205.538 552.608 205.492 552.748 205.473C552.888 205.454 553.03 205.462 553.167 205.499C553.304 205.535 553.432 205.598 553.545 205.683C553.988 206.02 564.404 213.996 567.96 219.351C568.068 219.514 568.131 219.703 568.14 219.898C568.149 220.093 568.105 220.287 568.013 220.459C567.92 220.631 567.783 220.775 567.615 220.875C567.447 220.975 567.255 221.028 567.06 221.027L567.057 221.028Z" fill="#000444"/>
<path d="M579.736 215.08C579.587 215.08 579.441 215.049 579.305 214.99C579.169 214.931 579.046 214.844 578.945 214.736C575.856 211.612 572.525 208.736 568.983 206.136C568.755 205.966 568.603 205.713 568.561 205.432C568.519 205.151 568.588 204.864 568.756 204.635C568.923 204.405 569.174 204.25 569.455 204.204C569.735 204.158 570.023 204.224 570.255 204.388C573.912 207.065 577.347 210.032 580.527 213.261C580.722 213.471 580.825 213.75 580.815 214.036C580.805 214.322 580.681 214.592 580.472 214.787C580.273 214.976 580.009 215.081 579.736 215.08V215.08Z" fill="#000444"/>
<path d="M749.92 484.746H221.136C220.85 484.746 220.575 484.632 220.373 484.43C220.17 484.228 220.057 483.953 220.057 483.667C220.057 483.381 220.17 483.106 220.373 482.904C220.575 482.702 220.85 482.588 221.136 482.588H749.92C750.206 482.588 750.48 482.702 750.683 482.904C750.885 483.106 750.999 483.381 750.999 483.667C750.999 483.953 750.885 484.228 750.683 484.43C750.48 484.632 750.206 484.746 749.92 484.746V484.746Z" fill="#000444"/>
<path d="M537.844 178.494H457.835C457.549 178.494 457.274 178.38 457.072 178.178C456.869 177.976 456.756 177.701 456.756 177.415C456.756 177.129 456.869 176.854 457.072 176.652C457.274 176.45 457.549 176.336 457.835 176.336H537.844C538.13 176.336 538.405 176.45 538.607 176.652C538.809 176.854 538.923 177.129 538.923 177.415C538.923 177.701 538.809 177.976 538.607 178.178C538.405 178.38 538.13 178.494 537.844 178.494Z" fill="#000444"/>
<path d="M545.891 193.103H465.891C465.605 193.103 465.331 192.99 465.128 192.787C464.926 192.585 464.812 192.31 464.812 192.024C464.812 191.738 464.926 191.464 465.128 191.261C465.331 191.059 465.605 190.945 465.891 190.945H545.891C546.178 190.945 546.452 191.059 546.655 191.261C546.857 191.464 546.97 191.738 546.97 192.024C546.97 192.31 546.857 192.585 546.655 192.787C546.452 192.99 546.178 193.103 545.891 193.103V193.103Z" fill="#000444"/>
<path d="M352.234 266.446H272.225C271.939 266.446 271.664 266.332 271.462 266.13C271.26 265.928 271.146 265.654 271.146 265.368C271.146 265.082 271.26 264.807 271.462 264.605C271.664 264.403 271.939 264.289 272.225 264.289H352.234C352.52 264.289 352.794 264.403 352.997 264.605C353.199 264.807 353.312 265.082 353.312 265.368C353.312 265.654 353.199 265.928 352.997 266.13C352.794 266.332 352.52 266.446 352.234 266.446V266.446Z" fill="#000444"/>
<path d="M360.284 281.056H280.275C279.994 281.047 279.728 280.93 279.533 280.729C279.338 280.527 279.229 280.258 279.229 279.977C279.229 279.697 279.338 279.428 279.533 279.226C279.728 279.025 279.994 278.907 280.275 278.899H360.284C360.428 278.895 360.572 278.919 360.707 278.971C360.841 279.024 360.964 279.102 361.068 279.203C361.172 279.304 361.254 279.424 361.31 279.557C361.367 279.69 361.396 279.833 361.396 279.977C361.396 280.122 361.367 280.265 361.31 280.398C361.254 280.531 361.172 280.651 361.068 280.752C360.964 280.853 360.841 280.931 360.707 280.984C360.572 281.036 360.428 281.06 360.284 281.056V281.056Z" fill="#000444"/>
<path d="M390.809 330.685H310.8C310.658 330.685 310.518 330.657 310.387 330.603C310.256 330.549 310.137 330.47 310.037 330.369C309.936 330.269 309.857 330.15 309.803 330.019C309.749 329.888 309.721 329.748 309.721 329.606C309.721 329.465 309.749 329.324 309.803 329.193C309.857 329.063 309.936 328.944 310.037 328.843C310.137 328.743 310.256 328.664 310.387 328.609C310.518 328.555 310.658 328.527 310.8 328.527H390.809C391.095 328.527 391.369 328.641 391.572 328.843C391.774 329.046 391.888 329.32 391.888 329.606C391.888 329.892 391.774 330.167 391.572 330.369C391.369 330.572 391.095 330.685 390.809 330.685V330.685Z" fill="#000444"/>
<path d="M398.862 345.295H318.853C318.711 345.295 318.57 345.267 318.439 345.213C318.309 345.158 318.19 345.079 318.09 344.979C317.989 344.879 317.91 344.76 317.856 344.629C317.801 344.498 317.773 344.358 317.773 344.216C317.773 344.074 317.801 343.934 317.856 343.803C317.91 343.672 317.989 343.553 318.09 343.453C318.19 343.353 318.309 343.273 318.439 343.219C318.57 343.165 318.711 343.137 318.853 343.137H398.862C399.148 343.137 399.422 343.25 399.625 343.453C399.827 343.655 399.94 343.93 399.94 344.216C399.94 344.502 399.827 344.776 399.625 344.979C399.422 345.181 399.148 345.295 398.862 345.295V345.295Z" fill="#000444"/>
<path d="M289.312 114.786H130.512C130.226 114.786 129.952 114.672 129.75 114.47C129.547 114.268 129.434 113.993 129.434 113.707C129.434 113.421 129.547 113.147 129.75 112.945C129.952 112.743 130.226 112.629 130.512 112.629H289.312C289.598 112.629 289.872 112.743 290.075 112.945C290.277 113.147 290.391 113.421 290.391 113.707C290.391 113.993 290.277 114.268 290.075 114.47C289.872 114.672 289.598 114.786 289.312 114.786Z" fill="#000444"/>
<path d="M306.691 142.704H238.315C238.029 142.704 237.755 142.59 237.552 142.388C237.35 142.186 237.236 141.911 237.236 141.625C237.236 141.339 237.35 141.065 237.552 140.863C237.755 140.661 238.029 140.547 238.315 140.547H306.691C306.977 140.547 307.251 140.661 307.453 140.863C307.656 141.065 307.769 141.339 307.769 141.625C307.769 141.911 307.656 142.186 307.453 142.388C307.251 142.59 306.977 142.704 306.691 142.704V142.704Z" fill="#000444"/>
<path d="M321.198 165.007H252.823C252.537 165.007 252.262 164.893 252.06 164.691C251.858 164.488 251.744 164.214 251.744 163.928C251.744 163.642 251.858 163.368 252.06 163.165C252.262 162.963 252.537 162.85 252.823 162.85H321.198C321.484 162.85 321.758 162.963 321.96 163.165C322.163 163.368 322.276 163.642 322.276 163.928C322.276 164.214 322.163 164.488 321.96 164.691C321.758 164.893 321.484 165.007 321.198 165.007V165.007Z" fill="#000444"/>
<path d="M334.904 187.315H266.528C266.242 187.315 265.967 187.202 265.765 186.999C265.563 186.797 265.449 186.523 265.449 186.237C265.449 185.951 265.563 185.676 265.765 185.474C265.967 185.272 266.242 185.158 266.528 185.158H334.904C335.19 185.158 335.464 185.272 335.666 185.474C335.869 185.676 335.982 185.951 335.982 186.237C335.982 186.523 335.869 186.797 335.666 186.999C335.464 187.202 335.19 187.315 334.904 187.315V187.315Z" fill="#000444"/>
<path d="M617.167 258.845C615.576 258.838 613.989 258.701 612.421 258.436C603.035 256.859 593.165 249.403 593.608 233.195C593.727 228.164 595.178 223.255 597.813 218.969C600.448 214.682 604.173 211.172 608.608 208.795C608.868 208.673 609.165 208.661 609.434 208.759C609.703 208.857 609.922 209.057 610.043 209.317C610.165 209.577 610.178 209.874 610.08 210.143C609.982 210.412 609.781 210.631 609.521 210.753C605.417 212.92 601.974 216.154 599.554 220.113C597.134 224.073 595.826 228.612 595.769 233.253C595.261 251.911 608.663 255.618 612.779 256.303C625.27 258.411 629.955 251.193 630.143 250.882C630.293 250.638 630.534 250.464 630.813 250.398C631.092 250.332 631.385 250.38 631.629 250.53C631.872 250.68 632.046 250.921 632.112 251.2C632.178 251.479 632.13 251.772 631.98 252.016C631.782 252.33 627.644 258.845 617.167 258.845Z" fill="#000444"/>
<path d="M651.6 263.918C641.726 263.918 632.206 260.765 627.2 255.798C626.996 255.597 626.88 255.323 626.878 255.037C626.876 254.75 626.988 254.475 627.19 254.271C627.391 254.067 627.665 253.951 627.951 253.949C628.237 253.947 628.513 254.059 628.717 254.26C633.457 258.967 642.734 262.031 652.281 261.76C660.823 261.627 668.118 259.022 672.289 254.618C677.068 249.568 679.54 241.06 679.081 231.28C678.958 226.151 677.712 221.112 675.43 216.516C673.643 213.103 670.801 210.824 667.791 208.416C665.94 206.998 664.19 205.453 662.553 203.791C661.159 202.52 660.251 200.803 659.986 198.935C659.848 196.462 661.302 193.751 662.47 191.572C662.697 191.146 662.918 190.737 663.112 190.361L663.942 188.734C665.09 186.606 666.117 184.414 667.018 182.169C669.4 176.392 670.143 170.07 669.164 163.898C666.88 151.242 643.586 146.02 643.349 145.97C643.168 145.93 643.001 145.844 642.862 145.721C631.762 135.864 612.288 130.066 598.874 137.435C586.036 144.504 589.294 159.435 589.437 160.064C589.458 160.971 589.515 176.233 613.245 185.233C613.379 185.283 613.501 185.359 613.605 185.456C613.71 185.553 613.794 185.67 613.853 185.799C613.912 185.929 613.945 186.069 613.95 186.211C613.954 186.354 613.931 186.496 613.881 186.629C613.83 186.763 613.754 186.885 613.657 186.989C613.559 187.092 613.442 187.176 613.312 187.234C613.182 187.293 613.042 187.325 612.9 187.329C612.757 187.333 612.615 187.309 612.482 187.258C587.235 177.682 587.292 160.994 587.307 160.285C587.274 160.285 583.591 143.385 597.834 135.542C611.978 127.753 632.384 133.672 644.089 143.922C646.965 144.587 668.865 150.079 671.289 163.509C672.339 170.069 671.56 176.791 669.038 182.937C668.11 185.256 667.052 187.52 665.869 189.718L665.039 191.333C664.839 191.733 664.613 192.152 664.375 192.594C663.335 194.53 662.04 196.943 662.146 198.811C662.396 200.167 663.094 201.399 664.126 202.311C665.696 203.899 667.372 205.378 669.143 206.737C672.196 209.181 675.349 211.709 677.343 215.515C679.77 220.392 681.099 225.742 681.237 231.187C681.525 237.277 680.944 248.611 673.858 256.106C669.283 260.935 661.435 263.784 652.313 263.923C652.08 263.918 651.838 263.918 651.6 263.918Z" fill="#000444"/>
<path d="M279.376 104.576C277.076 106.489 273.009 105.396 270.302 102.136C267.595 98.8759 267.268 94.68 269.573 92.768C271.878 90.856 275.94 91.9469 278.647 95.2089C281.354 98.4709 281.681 102.663 279.376 104.576Z" fill="#5B5BD5"/>
<path d="M255.182 106.6C254.982 106.6 254.769 106.589 254.553 106.573C251.984 106.208 249.656 104.867 248.053 102.828C244.972 99.1167 244.707 94.2277 247.461 91.9367C250.261 89.6187 254.923 90.7367 258.061 94.5197C259.462 96.1538 260.33 98.1776 260.548 100.32C260.671 101.259 260.562 102.213 260.231 103.1C259.899 103.988 259.356 104.78 258.649 105.41C257.671 106.204 256.442 106.626 255.182 106.6ZM250.919 92.9146C250.167 92.8895 249.43 93.1303 248.837 93.5946C247.037 95.0946 247.438 98.6946 249.712 101.445C250.948 103.046 252.752 104.112 254.752 104.421C255.645 104.534 256.547 104.292 257.263 103.746C257.702 103.334 258.034 102.822 258.232 102.253C258.429 101.685 258.486 101.077 258.397 100.482C258.212 98.7869 257.514 97.1891 256.397 95.9016C255.744 95.0474 254.919 94.3401 253.975 93.8255C253.031 93.3108 251.99 93.0004 250.919 92.9146V92.9146Z" fill="#000444"/>
<path d="M425.287 204.497C423.896 204.42 422.538 204.045 421.305 203.397C420.072 202.749 418.992 201.844 418.14 200.742C416.735 199.109 415.864 197.085 415.645 194.942C415.49 194.001 415.584 193.036 415.917 192.142C416.251 191.249 416.813 190.458 417.546 189.849C418.28 189.239 419.16 188.832 420.099 188.668C421.039 188.503 422.005 188.588 422.902 188.912C424.95 189.555 426.769 190.775 428.141 192.427C429.513 194.078 430.379 196.091 430.635 198.222C430.759 199.162 430.651 200.118 430.32 201.006C429.988 201.895 429.444 202.688 428.735 203.317C427.76 204.104 426.539 204.522 425.287 204.497V204.497ZM421.014 190.817C420.259 190.794 419.52 191.039 418.929 191.509C418.49 191.921 418.158 192.433 417.962 193.001C417.765 193.57 417.709 194.177 417.8 194.772C417.981 196.469 418.679 198.07 419.8 199.358C422.09 202.107 425.552 203.152 427.351 201.658C427.789 201.246 428.121 200.734 428.317 200.165C428.513 199.597 428.569 198.989 428.478 198.394C428.26 196.707 427.568 195.115 426.483 193.805C425.397 192.496 423.962 191.521 422.344 190.994C421.91 190.878 421.463 190.819 421.014 190.817Z" fill="#000444"/>
<path d="M123.127 191.862C122.486 191.857 121.847 191.77 121.227 191.603C119.164 190.994 117.336 189.768 115.989 188.09C112.908 184.374 112.641 179.49 115.396 177.199C118.196 174.865 122.859 176.009 125.996 179.782C127.398 181.416 128.267 183.44 128.485 185.582C128.608 186.521 128.499 187.476 128.167 188.363C127.836 189.25 127.293 190.043 126.585 190.672C125.61 191.467 124.385 191.888 123.127 191.862V191.862ZM118.857 178.172C118.107 178.148 117.372 178.391 116.783 178.857C114.974 180.357 115.372 183.957 117.651 186.706C118.713 188.042 120.156 189.022 121.788 189.516C122.35 189.751 122.965 189.827 123.567 189.737C124.169 189.647 124.735 189.394 125.203 189.006C125.671 188.617 126.024 188.108 126.224 187.533C126.424 186.958 126.462 186.339 126.335 185.744C126.151 184.049 125.453 182.451 124.335 181.164C123.684 180.309 122.859 179.6 121.915 179.085C120.971 178.569 119.929 178.258 118.857 178.172Z" fill="#000444"/>
<path d="M23.7709 207.407C18.1559 207.407 11.745 204.22 6.97797 198.479C3.64684 194.609 1.57928 189.812 1.05292 184.733C0.67692 179.893 2.17614 175.816 5.27314 173.244C8.37014 170.672 12.6529 169.944 17.3439 171.208C22.2383 172.661 26.5716 175.575 29.7621 179.561C36.9801 188.261 37.7441 199.58 31.4621 204.796C29.2868 206.546 26.5624 207.471 23.7709 207.407ZM12.9899 172.762C10.6917 172.703 8.44708 173.462 6.65595 174.903C4.11195 177.017 2.88402 180.446 3.20502 184.566C3.69846 189.198 5.59363 193.569 8.63715 197.096C15.1031 204.884 24.729 207.589 30.083 203.136C35.437 198.683 34.558 188.726 28.103 180.943C25.1965 177.301 21.2482 174.632 16.7851 173.293C15.5495 172.95 14.2743 172.772 12.9921 172.762H12.9899Z" fill="#000444"/>
<path d="M332.787 36.7831C327.167 36.7831 320.755 33.5971 315.987 27.8561C308.768 19.1561 308.004 7.83208 314.287 2.62108C320.57 -2.58992 331.551 0.234084 338.776 8.94108C346.001 17.6481 346.763 28.9631 340.484 34.1741C338.306 35.9249 335.58 36.8491 332.787 36.7831ZM322.023 2.13609C319.717 2.07711 317.466 2.83631 315.667 4.2791C310.301 8.7321 311.192 18.6891 317.647 26.4721C324.102 34.2551 333.738 36.9491 339.098 32.5121C344.464 28.0601 343.573 18.1021 337.112 10.3121C332.759 5.07212 326.969 2.13212 322.023 2.13212V2.13609Z" fill="#000444"/>
<path d="M198.429 411.606C198.229 411.606 198.015 411.594 197.798 411.578C195.23 411.214 192.901 409.872 191.298 407.833C189.893 406.2 189.023 404.176 188.804 402.033C188.68 401.093 188.788 400.138 189.119 399.249C189.451 398.361 189.995 397.568 190.704 396.939C193.476 394.639 198.222 395.81 201.297 399.522C203.006 401.472 203.898 404.006 203.787 406.596C203.741 407.326 203.55 408.04 203.223 408.695C202.897 409.349 202.442 409.932 201.887 410.408C200.912 411.204 199.687 411.629 198.429 411.606V411.606ZM194.165 397.921C193.413 397.896 192.677 398.137 192.085 398.601C191.648 399.014 191.317 399.526 191.122 400.095C190.926 400.663 190.871 401.271 190.962 401.865C191.144 403.562 191.842 405.163 192.962 406.45C194.198 408.052 196.002 409.117 198.001 409.426C198.443 409.486 198.893 409.457 199.325 409.341C199.756 409.225 200.16 409.024 200.513 408.751C201.186 408.148 201.592 407.303 201.642 406.401C201.704 404.382 200.988 402.415 199.642 400.908C198.99 400.054 198.165 399.346 197.222 398.831C196.278 398.317 195.236 398.006 194.165 397.921V397.921Z" fill="#000444"/>
<path d="M385.404 285.393C384.017 285.309 382.665 284.927 381.44 284.273C380.215 283.619 379.145 282.708 378.304 281.603C376.902 279.969 376.034 277.945 375.815 275.803C375.692 274.864 375.801 273.909 376.132 273.022C376.463 272.135 377.007 271.343 377.715 270.714C380.515 268.379 385.183 269.514 388.315 273.291C389.716 274.925 390.585 276.949 390.804 279.091C390.927 280.03 390.818 280.985 390.487 281.872C390.156 282.759 389.612 283.552 388.904 284.18C387.917 284.986 386.677 285.415 385.404 285.393V285.393ZM381.172 271.693C380.419 271.67 379.683 271.912 379.092 272.378C378.654 272.79 378.323 273.303 378.126 273.871C377.93 274.44 377.874 275.047 377.964 275.642C378.149 277.337 378.846 278.935 379.964 280.222C382.254 282.977 385.722 284.022 387.52 282.522C387.957 282.11 388.289 281.598 388.485 281.029C388.682 280.461 388.737 279.854 388.648 279.259C388.463 277.564 387.765 275.966 386.648 274.678C385.995 273.824 385.171 273.117 384.227 272.602C383.283 272.087 382.242 271.777 381.171 271.691L381.172 271.693Z" fill="#000444"/>
<path d="M234.28 106.601C233.638 106.599 232.999 106.512 232.38 106.341C230.318 105.731 228.491 104.506 227.146 102.828C225.436 100.876 224.545 98.34 224.658 95.7478C224.703 95.0177 224.895 94.3042 225.221 93.6496C225.547 92.9949 226.002 92.4125 226.558 91.9369C227.306 91.355 228.185 90.9659 229.119 90.8038C230.053 90.6418 231.012 90.7119 231.912 91.0078C233.976 91.6156 235.805 92.8417 237.151 94.5209C238.86 96.4709 239.751 99.0046 239.639 101.595C239.593 102.325 239.402 103.039 239.075 103.693C238.749 104.348 238.294 104.931 237.739 105.407C236.763 106.2 235.537 106.623 234.28 106.601V106.601ZM230.025 92.9009C229.27 92.8769 228.531 93.1222 227.94 93.5929C227.269 94.197 226.863 95.0421 226.813 95.9439C226.75 97.9658 227.466 99.9348 228.813 101.444C229.873 102.781 231.316 103.762 232.95 104.255C233.518 104.452 234.125 104.509 234.719 104.42C235.314 104.331 235.878 104.1 236.363 103.745C237.035 103.142 237.441 102.296 237.491 101.394C237.553 99.3743 236.837 97.4081 235.491 95.9009C234.431 94.5636 232.987 93.5829 231.354 93.0908C230.921 92.9697 230.474 92.9068 230.025 92.9038V92.9009Z" fill="#000444"/>
<path d="M375.756 269.09C375.58 269.09 375.407 269.047 375.252 268.965C375.097 268.883 374.964 268.765 374.866 268.62C372.508 265.127 370.459 261.437 368.741 257.59C368.679 257.46 368.645 257.319 368.639 257.176C368.633 257.033 368.655 256.89 368.705 256.755C368.755 256.62 368.831 256.497 368.929 256.392C369.026 256.288 369.144 256.203 369.275 256.145C369.406 256.086 369.547 256.054 369.691 256.05C369.834 256.046 369.977 256.072 370.11 256.124C370.244 256.176 370.366 256.254 370.469 256.354C370.572 256.454 370.654 256.573 370.711 256.705C372.379 260.435 374.365 264.015 376.647 267.405C376.758 267.567 376.822 267.756 376.833 267.952C376.845 268.148 376.802 268.344 376.71 268.517C376.619 268.691 376.481 268.836 376.313 268.937C376.145 269.039 375.952 269.092 375.756 269.092V269.09ZM365.6 246.504C365.361 246.504 365.128 246.425 364.939 246.279C364.75 246.133 364.614 245.928 364.554 245.697C363.496 241.623 362.792 237.467 362.447 233.273C362.424 232.987 362.516 232.704 362.701 232.485C362.887 232.266 363.151 232.13 363.437 232.105C363.579 232.091 363.722 232.105 363.859 232.148C363.995 232.191 364.121 232.26 364.23 232.353C364.339 232.445 364.428 232.559 364.493 232.686C364.557 232.814 364.594 232.953 364.604 233.096C364.933 237.167 365.616 241.202 366.646 245.155C366.717 245.432 366.675 245.726 366.53 245.973C366.385 246.22 366.149 246.399 365.872 246.472C365.783 246.493 365.691 246.504 365.6 246.504V246.504ZM363.791 221.883C363.632 221.876 363.476 221.836 363.334 221.764C363.192 221.693 363.067 221.592 362.967 221.468C362.867 221.345 362.795 221.201 362.754 221.048C362.714 220.894 362.707 220.733 362.734 220.577C363.679 216.295 365.945 212.417 369.212 209.492C369.422 209.297 369.7 209.193 369.986 209.203C370.273 209.214 370.543 209.337 370.738 209.547C370.933 209.757 371.037 210.036 371.026 210.322C371.016 210.608 370.892 210.879 370.683 211.074C367.742 213.697 365.701 217.179 364.847 221.026C364.796 221.268 364.663 221.485 364.471 221.641C364.278 221.797 364.038 221.883 363.791 221.883V221.883ZM380.474 204.873C380.224 204.873 379.982 204.787 379.789 204.63C379.596 204.472 379.463 204.252 379.413 204.008C379.364 203.763 379.401 203.509 379.517 203.289C379.634 203.068 379.824 202.895 380.054 202.799C383.957 201.196 387.996 199.948 392.123 199.07C392.4 199.014 392.689 199.07 392.926 199.225C393.163 199.38 393.33 199.622 393.39 199.898C393.451 200.175 393.401 200.464 393.251 200.704C393.101 200.945 392.863 201.116 392.588 201.183C388.589 202.031 384.675 203.238 380.894 204.79C380.76 204.843 380.618 204.871 380.474 204.873V204.873ZM404.653 199.273C404.377 199.272 404.111 199.165 403.912 198.975C403.712 198.784 403.593 198.524 403.579 198.249C403.565 197.973 403.657 197.703 403.836 197.493C404.015 197.283 404.268 197.15 404.543 197.121C410.284 196.529 414.787 196.469 416.457 196.469H417.105C417.391 196.469 417.665 196.582 417.867 196.785C418.07 196.987 418.183 197.261 418.183 197.547C418.183 197.833 418.07 198.108 417.867 198.31C417.665 198.512 417.391 198.626 417.105 198.626H416.457C414.82 198.626 410.406 198.692 404.764 199.267C404.727 199.271 404.69 199.272 404.653 199.27V199.273Z" fill="#000444"/>
<path d="M109.231 187.315H96.8013C96.5152 187.315 96.2408 187.202 96.0386 186.999C95.8363 186.797 95.7227 186.523 95.7227 186.237C95.7227 185.951 95.8363 185.676 96.0386 185.474C96.2408 185.272 96.5152 185.158 96.8013 185.158H109.231C109.517 185.158 109.792 185.272 109.994 185.474C110.196 185.676 110.31 185.951 110.31 186.237C110.31 186.523 110.196 186.797 109.994 186.999C109.792 187.202 109.517 187.315 109.231 187.315V187.315ZM84.3723 187.315H71.9373C71.6512 187.315 71.3768 187.202 71.1746 186.999C70.9723 186.797 70.8586 186.523 70.8586 186.237C70.8586 185.951 70.9723 185.676 71.1746 185.474C71.3768 185.272 71.6512 185.158 71.9373 185.158H84.3723C84.6584 185.158 84.9325 185.272 85.1348 185.474C85.337 185.676 85.4507 185.951 85.4507 186.237C85.4507 186.523 85.337 186.797 85.1348 186.999C84.9325 187.202 84.6584 187.315 84.3723 187.315V187.315ZM59.5073 187.315H47.0781C46.7921 187.315 46.5179 187.202 46.3157 186.999C46.1134 186.797 45.9998 186.523 45.9998 186.237C45.9998 185.951 46.1134 185.676 46.3157 185.474C46.5179 185.272 46.7921 185.158 47.0781 185.158H59.5073C59.7934 185.158 60.0675 185.272 60.2698 185.474C60.472 185.676 60.5857 185.951 60.5857 186.237C60.5857 186.523 60.472 186.797 60.2698 186.999C60.0675 187.202 59.7934 187.315 59.5073 187.315V187.315ZM34.6492 187.315H33.5122C33.2262 187.315 32.9518 187.202 32.7495 186.999C32.5473 186.797 32.4336 186.523 32.4336 186.237C32.4336 185.951 32.5473 185.676 32.7495 185.474C32.9518 185.272 33.2262 185.158 33.5122 185.158H34.6462C34.9323 185.158 35.2067 185.272 35.4089 185.474C35.6112 185.676 35.7246 185.951 35.7246 186.237C35.7246 186.523 35.6112 186.797 35.4089 186.999C35.2067 187.202 34.9323 187.315 34.6462 187.315H34.6492Z" fill="#000444"/>
<path d="M183.72 404.755H171.292C171.147 404.76 171.003 404.735 170.869 404.683C170.734 404.631 170.611 404.552 170.507 404.451C170.404 404.351 170.321 404.23 170.265 404.097C170.209 403.964 170.18 403.821 170.18 403.677C170.18 403.532 170.209 403.389 170.265 403.256C170.321 403.123 170.404 403.003 170.507 402.902C170.611 402.802 170.734 402.723 170.869 402.671C171.003 402.618 171.147 402.594 171.292 402.598H183.72C184.001 402.607 184.267 402.724 184.462 402.925C184.657 403.127 184.767 403.396 184.767 403.677C184.767 403.957 184.657 404.227 184.462 404.428C184.267 404.629 184.001 404.747 183.72 404.755V404.755ZM158.863 404.755H149.214C149.069 404.76 148.925 404.735 148.791 404.683C148.656 404.631 148.533 404.552 148.429 404.451C148.326 404.351 148.243 404.23 148.187 404.097C148.131 403.964 148.102 403.821 148.102 403.677C148.102 403.532 148.131 403.389 148.187 403.256C148.243 403.123 148.326 403.003 148.429 402.902C148.533 402.802 148.656 402.723 148.791 402.671C148.925 402.618 149.069 402.594 149.214 402.598H158.866C159.147 402.607 159.413 402.724 159.608 402.925C159.803 403.127 159.913 403.396 159.913 403.677C159.913 403.957 159.803 404.227 159.608 404.428C159.413 404.629 159.147 404.747 158.866 404.755H158.863Z" fill="#000444"/>
<path d="M149.209 404.759C149.027 404.761 148.847 404.715 148.688 404.628C148.528 404.54 148.393 404.414 148.296 404.259L144.181 397.759C144.104 397.64 144.052 397.506 144.028 397.367C144.003 397.227 144.007 397.083 144.038 396.945C144.07 396.807 144.128 396.676 144.21 396.56C144.293 396.445 144.397 396.346 144.518 396.271C144.76 396.12 145.053 396.071 145.331 396.134C145.61 396.197 145.852 396.368 146.006 396.609L150.121 403.109C150.223 403.273 150.281 403.46 150.286 403.653C150.292 403.846 150.246 404.037 150.153 404.206C150.059 404.374 149.923 404.515 149.757 404.613C149.591 404.711 149.402 404.763 149.209 404.764V404.759ZM138.45 387.759C138.268 387.761 138.088 387.715 137.928 387.628C137.769 387.54 137.634 387.414 137.537 387.259L130.887 376.759C130.81 376.64 130.759 376.506 130.734 376.366C130.71 376.227 130.714 376.083 130.745 375.945C130.777 375.807 130.835 375.676 130.917 375.56C131 375.445 131.104 375.346 131.225 375.271C131.467 375.12 131.76 375.071 132.038 375.134C132.317 375.198 132.559 375.368 132.713 375.609L139.362 386.109C139.464 386.273 139.521 386.461 139.526 386.653C139.532 386.846 139.486 387.037 139.392 387.205C139.299 387.374 139.163 387.515 138.997 387.613C138.831 387.711 138.642 387.763 138.449 387.764L138.45 387.759ZM125.15 366.759C124.968 366.761 124.788 366.715 124.628 366.628C124.469 366.54 124.334 366.414 124.237 366.259L117.587 355.759C117.51 355.64 117.458 355.506 117.434 355.367C117.41 355.227 117.413 355.084 117.445 354.945C117.476 354.807 117.534 354.676 117.617 354.56C117.699 354.445 117.803 354.346 117.924 354.271C118.166 354.12 118.459 354.071 118.737 354.134C119.016 354.198 119.258 354.368 119.412 354.609L126.062 365.109C126.138 365.229 126.19 365.363 126.214 365.502C126.239 365.642 126.235 365.785 126.204 365.924C126.173 366.062 126.114 366.193 126.032 366.309C125.95 366.424 125.845 366.522 125.725 366.597C125.55 366.702 125.351 366.755 125.148 366.751L125.15 366.759ZM111.85 345.75C111.667 345.752 111.488 345.706 111.328 345.619C111.169 345.531 111.034 345.405 110.937 345.25L104.293 334.745C104.214 334.626 104.16 334.491 104.134 334.35C104.108 334.209 104.11 334.065 104.14 333.925C104.171 333.785 104.229 333.652 104.311 333.534C104.393 333.417 104.498 333.317 104.619 333.241C104.74 333.164 104.876 333.113 105.017 333.089C105.158 333.065 105.303 333.07 105.443 333.103C105.582 333.136 105.714 333.197 105.83 333.281C105.945 333.365 106.043 333.472 106.118 333.594L112.762 344.094C112.864 344.258 112.921 344.446 112.927 344.638C112.932 344.831 112.886 345.022 112.792 345.19C112.699 345.359 112.563 345.5 112.397 345.598C112.231 345.696 112.041 345.748 111.849 345.748L111.85 345.75ZM98.5576 324.742C98.3755 324.742 98.1963 324.697 98.0366 324.609C97.8769 324.522 97.7421 324.395 97.6448 324.242L90.9956 313.742C90.9193 313.622 90.8674 313.488 90.843 313.349C90.8186 313.209 90.8224 313.066 90.8538 312.927C90.8851 312.789 90.9434 312.658 91.0256 312.542C91.1079 312.427 91.2123 312.329 91.3328 312.253C91.5755 312.103 91.8676 312.054 92.146 312.118C92.4244 312.181 92.6669 312.351 92.8208 312.591L99.4697 323.091C99.5461 323.211 99.5979 323.345 99.6223 323.484C99.6467 323.624 99.6432 323.767 99.6118 323.906C99.5805 324.044 99.5219 324.175 99.4397 324.291C99.3575 324.406 99.2532 324.504 99.1328 324.579C98.9604 324.683 98.7627 324.736 98.5618 324.733L98.5576 324.742ZM85.2578 303.742C85.0757 303.743 84.8961 303.697 84.7363 303.61C84.5766 303.522 84.4418 303.396 84.3447 303.242L77.6948 292.742C77.5483 292.5 77.5027 292.21 77.5676 291.935C77.6326 291.659 77.8028 291.421 78.042 291.27C78.2812 291.119 78.5701 291.068 78.8464 291.128C79.1228 291.188 79.3646 291.354 79.5198 291.591L86.1697 302.096C86.2459 302.215 86.2977 302.349 86.322 302.488C86.3463 302.628 86.3426 302.771 86.3113 302.91C86.2799 303.048 86.2216 303.179 86.1394 303.295C86.0572 303.41 85.9531 303.508 85.8328 303.583C85.6601 303.683 85.4632 303.734 85.2637 303.73L85.2578 303.742ZM71.9658 282.732C71.7837 282.734 71.6041 282.689 71.4443 282.601C71.2846 282.514 71.1498 282.387 71.0527 282.232L64.4038 271.732C64.3275 271.613 64.2756 271.479 64.2512 271.34C64.2268 271.2 64.2304 271.057 64.2617 270.918C64.2931 270.78 64.3514 270.649 64.4336 270.533C64.5158 270.418 64.6203 270.319 64.7407 270.244C64.9839 270.096 65.2756 270.048 65.5535 270.111C65.8314 270.174 66.0736 270.343 66.2288 270.582L72.8787 281.082C72.9815 281.246 73.0386 281.434 73.0442 281.626C73.0497 281.819 73.0036 282.01 72.9104 282.179C72.8172 282.348 72.6803 282.489 72.5142 282.587C72.348 282.685 72.1587 282.737 71.9658 282.737V282.732ZM58.6658 261.723C58.4836 261.725 58.304 261.679 58.1443 261.592C57.9845 261.504 57.8498 261.378 57.7527 261.223L51.1038 250.723C51.0275 250.604 50.9757 250.47 50.9514 250.331C50.9271 250.191 50.9307 250.048 50.9622 249.909C50.9936 249.771 51.0522 249.64 51.1345 249.525C51.2168 249.409 51.3212 249.311 51.4416 249.237C51.6842 249.086 51.9765 249.037 52.2549 249.1C52.5333 249.163 52.7756 249.333 52.9297 249.573L59.5786 260.073C59.6549 260.193 59.7069 260.327 59.7312 260.466C59.7555 260.606 59.7516 260.75 59.7202 260.888C59.6888 261.026 59.6304 261.157 59.5481 261.273C59.4658 261.388 59.3612 261.487 59.2407 261.561C59.0686 261.662 58.8719 261.713 58.6726 261.709L58.6658 261.723ZM45.3657 240.723C45.1836 240.725 45.0042 240.679 44.8445 240.592C44.6847 240.504 44.5497 240.378 44.4526 240.223L37.8086 229.723C37.656 229.481 37.6059 229.189 37.6692 228.909C37.7325 228.63 37.9041 228.388 38.1462 228.235C38.3884 228.082 38.6813 228.032 38.9604 228.095C39.2396 228.159 39.4821 228.33 39.6348 228.572L46.2776 239.077C46.4302 239.319 46.4804 239.612 46.4172 239.891C46.354 240.17 46.1826 240.413 45.9407 240.565C45.7686 240.664 45.573 240.714 45.3748 240.709L45.3657 240.723ZM32.0728 219.714C31.8906 219.716 31.711 219.67 31.5513 219.583C31.3915 219.495 31.2568 219.369 31.1597 219.214L24.5107 208.714C24.4343 208.595 24.3824 208.461 24.3579 208.322C24.3335 208.182 24.3368 208.039 24.3682 207.9C24.3995 207.762 24.4582 207.631 24.5405 207.515C24.6228 207.4 24.7271 207.301 24.8477 207.227C25.0901 207.076 25.3823 207.026 25.6609 207.089C25.9395 207.152 26.182 207.323 26.3357 207.563L32.9856 218.063C33.0619 218.183 33.1138 218.317 33.1382 218.456C33.1626 218.596 33.159 218.739 33.1277 218.878C33.0963 219.016 33.038 219.147 32.9558 219.263C32.8736 219.378 32.7691 219.476 32.6487 219.551C32.4771 219.652 32.2814 219.703 32.0828 219.699L32.0728 219.714Z" fill="#000444"/>
<path d="M270.975 403.028C269.017 403.028 262.999 402.728 260.289 399.178C258.801 397.23 258.559 394.702 259.549 391.66L278.272 349.277C279.661 347.071 281.867 345.505 284.407 344.923C287.284 344.354 290.425 345.255 293.678 347.65L304.355 357.259C304.549 357.455 304.661 357.719 304.667 357.995C304.673 358.271 304.573 358.539 304.387 358.744C304.202 358.949 303.945 359.075 303.67 359.096C303.394 359.117 303.121 359.033 302.906 358.859L292.312 349.316C289.657 347.364 287.101 346.579 284.828 347.038C282.926 347.485 281.266 348.64 280.186 350.269L261.567 392.43C260.843 394.654 260.981 396.512 262.005 397.862C264.105 400.594 269.561 400.976 271.541 400.854H333.341C333.628 400.854 333.902 400.968 334.104 401.17C334.307 401.372 334.42 401.647 334.42 401.933C334.42 402.219 334.307 402.493 334.104 402.696C333.902 402.898 333.628 403.012 333.341 403.012H271.599C271.551 403.023 271.33 403.028 270.975 403.028Z" fill="#000444"/>
<path d="M220.261 198.622C220.079 198.624 219.899 198.578 219.74 198.491C219.58 198.403 219.445 198.277 219.348 198.122L173.848 126.239C173.772 126.12 173.72 125.986 173.696 125.846C173.671 125.707 173.675 125.563 173.706 125.425C173.738 125.287 173.796 125.156 173.878 125.04C173.961 124.925 174.065 124.826 174.185 124.751C174.428 124.601 174.72 124.552 174.999 124.615C175.278 124.678 175.52 124.849 175.674 125.089L221.174 196.972C221.251 197.092 221.302 197.225 221.327 197.365C221.351 197.505 221.348 197.648 221.316 197.787C221.285 197.925 221.226 198.056 221.144 198.172C221.062 198.287 220.958 198.385 220.837 198.46C220.664 198.567 220.464 198.623 220.261 198.622Z" fill="#000444"/>
<path d="M402.85 65.7588C379.329 65.7588 357.933 55.4208 339.075 34.8928C338.976 34.7888 338.898 34.6661 338.847 34.5317C338.795 34.3973 338.771 34.254 338.776 34.1102C338.781 33.9664 338.814 33.8249 338.874 33.6942C338.934 33.5634 339.02 33.4461 339.126 33.3488C339.232 33.2516 339.356 33.1765 339.492 33.1279C339.627 33.0793 339.771 33.0583 339.915 33.066C340.058 33.0737 340.199 33.1101 340.328 33.1729C340.458 33.2357 340.573 33.3237 340.668 33.4317C363.325 58.0967 389.662 67.7118 419.019 61.9918C419.3 61.9455 419.588 62.0086 419.824 62.1682C420.06 62.3278 420.225 62.5718 420.286 62.8498C420.339 63.1315 420.279 63.4225 420.118 63.6598C419.957 63.897 419.709 64.0613 419.428 64.1168C413.968 65.1945 408.416 65.7443 402.85 65.7588V65.7588Z" fill="#000444"/>
<path d="M581.168 114.654C577.484 114.654 573.302 112.59 570.198 108.854C568.032 106.335 566.688 103.213 566.348 99.9087C566.108 98.502 566.243 97.057 566.738 95.7187C567.234 94.3805 568.073 93.1962 569.171 92.2848C570.269 91.3734 571.587 90.767 572.994 90.5265C574.4 90.286 575.846 90.4199 577.184 90.9147C580.367 91.8596 583.185 93.7546 585.261 96.3457C589.985 102.033 590.449 109.461 586.295 112.913C584.846 114.081 583.029 114.697 581.168 114.654V114.654ZM574.32 92.6766C572.954 92.6407 571.619 93.0896 570.552 93.9437C569.765 94.671 569.167 95.5795 568.81 96.5902C568.454 97.6009 568.349 98.6834 568.506 99.7436C568.809 102.601 569.979 105.297 571.858 107.471C575.819 112.245 581.677 113.937 584.913 111.255C588.149 108.573 587.563 102.498 583.602 97.7297C581.811 95.4787 579.376 93.8287 576.621 93.0007C575.872 92.7917 575.098 92.6823 574.32 92.6756V92.6766Z" fill="#000444"/>
<path d="M570.24 92.7251C570.09 92.7255 569.941 92.6942 569.803 92.6332C569.665 92.5722 569.542 92.4829 569.44 92.3711C546.562 67.0141 521.055 57.4951 491.4 63.2711C491.119 63.3203 490.83 63.2584 490.594 63.0985C490.358 62.9386 490.193 62.6933 490.134 62.4142C490.081 62.1329 490.141 61.8418 490.301 61.6046C490.462 61.3674 490.709 61.2034 490.99 61.1482C521.431 55.2232 547.617 64.9582 571.044 90.9192C571.184 91.074 571.276 91.2658 571.308 91.4717C571.341 91.6775 571.314 91.8885 571.229 92.079C571.144 92.2695 571.006 92.4313 570.832 92.5449C570.657 92.6585 570.453 92.719 570.244 92.7191L570.24 92.7251Z" fill="#000444"/>
<path d="M493.89 434.205C493.75 434.207 493.61 434.18 493.481 434.128C493.215 434.019 493.004 433.809 492.893 433.545C492.782 433.28 492.78 432.983 492.888 432.717C498.436 419.269 511.967 410.922 528.212 410.922C543.873 410.922 557.293 419.022 563.233 432.064C563.352 432.325 563.363 432.623 563.263 432.891C563.163 433.16 562.96 433.379 562.699 433.498C562.438 433.617 562.14 433.628 561.871 433.528C561.602 433.428 561.384 433.225 561.265 432.964C555.682 420.701 543.015 413.084 528.212 413.084C512.863 413.084 500.09 420.923 494.89 433.54C494.807 433.737 494.669 433.906 494.491 434.024C494.313 434.142 494.103 434.205 493.89 434.205V434.205Z" fill="#000444"/>
</svg>
