<svg xmlns="http://www.w3.org/2000/svg" viewBox="0 0 16 16" fill="#5b5bd5"><path d="M5 3c-1.383 0-2.412.573-3.06 1.29S1 5.833 1 6.5v4.75A1.76 1.76 0 0 0 2.75 13h2.5A1.76 1.76 0 0 0 7 11.25v-2.5A1.76 1.76 0 0 0 5.25 7h-2.5a1.72 1.72 0 0 0-.75.178V6.5c0-.333.205-1.01.684-1.54S3.883 4 5 4V3zm8 0c-1.383 0-2.412.573-3.06 1.29S9 5.833 9 6.5v4.75A1.76 1.76 0 0 0 10.75 13h2.5A1.76 1.76 0 0 0 15 11.25v-2.5A1.76 1.76 0 0 0 13.25 7h-2.5a1.72 1.72 0 0 0-.75.178V6.5c0-.333.205-1.01.684-1.54S11.883 4 13 4V3zM2.75 8h2.5c.42 0 .75.33.75.75v2.5c0 .42-.33.75-.75.75h-2.5c-.42 0-.75-.33-.75-.75v-2.5c0-.42.33-.75.75-.75zm8 0h2.5c.42 0 .75.33.75.75v2.5c0 .42-.33.75-.75.75h-2.5c-.42 0-.75-.33-.75-.75v-2.5c0-.42.33-.75.75-.75z"/></svg>