<svg width="180" height="253" viewBox="0 0 180 253" fill="none" xmlns="../../external.html?link=http://www.w3.org/2000/svg">
<path d="M49.512 238.577H44.6413V232.692C44.6055 230.113 45.5918 227.625 47.3848 225.771C49.1778 223.917 51.6317 222.848 54.2104 222.798H159.288C161.866 222.848 164.32 223.917 166.113 225.771C167.906 227.625 168.893 230.113 168.857 232.692V237.907H163.986V232.692C164.022 231.4 163.545 230.146 162.659 229.205C161.773 228.263 160.551 227.711 159.259 227.668H54.2391C52.9471 227.711 51.7245 228.263 50.8387 229.205C49.9529 230.146 49.4759 231.4 49.512 232.692V238.577Z" fill="#5B5BD5"/>
<path d="M139.241 242.788V227.248H133.643V235.994C132.722 235.663 131.75 235.495 130.772 235.496C129.069 235.496 127.404 236.001 125.987 236.947C124.571 237.894 123.467 239.239 122.815 240.812C122.164 242.386 121.993 244.118 122.325 245.788C122.658 247.459 123.478 248.993 124.682 250.198C125.887 251.402 127.421 252.222 129.092 252.555C130.762 252.887 132.494 252.717 134.068 252.065C135.641 251.413 136.986 250.309 137.933 248.893C138.879 247.477 139.384 245.811 139.384 244.108C139.368 243.665 139.32 243.224 139.241 242.788ZM130.762 251.017C128.92 251.017 127.153 250.285 125.85 248.982C124.547 247.679 123.815 245.912 123.815 244.07H137.71C137.71 245.912 136.978 247.679 135.675 248.982C134.372 250.285 132.605 251.017 130.762 251.017Z" fill="#5B5BD5"/>
<path d="M80.0277 242.788V227.248H74.4298V235.994C73.5091 235.662 72.5377 235.494 71.5591 235.496C69.8558 235.496 68.1908 236.001 66.7745 236.947C65.3582 237.894 64.2544 239.239 63.6026 240.812C62.9508 242.386 62.7802 244.118 63.1125 245.788C63.4448 247.459 64.265 248.993 65.4694 250.198C66.6739 251.402 68.2084 252.222 69.879 252.555C71.5496 252.887 73.2812 252.717 74.8548 252.065C76.4285 251.413 77.7735 250.309 78.7198 248.893C79.6661 247.477 80.1712 245.811 80.1712 244.108C80.16 243.665 80.112 243.223 80.0277 242.788ZM71.5496 251.017C69.7071 251.017 67.9401 250.285 66.6372 248.982C65.3344 247.679 64.6025 245.912 64.6025 244.07H78.4967C78.4967 245.912 77.7647 247.679 76.4619 248.982C75.1591 250.285 73.3921 251.017 71.5496 251.017Z" fill="#5B5BD5"/>
<path d="M168.713 242.788V230.664C168.713 229.758 168.353 228.889 167.712 228.248C167.072 227.607 166.203 227.248 165.297 227.248H163.125V235.994C161.35 235.353 159.414 235.313 157.615 235.879C155.815 236.446 154.251 237.588 153.164 239.129C152.076 240.671 151.525 242.527 151.594 244.412C151.664 246.298 152.351 248.108 153.549 249.565C154.748 251.022 156.392 252.045 158.228 252.477C160.065 252.909 161.992 252.726 163.715 251.957C165.437 251.187 166.859 249.873 167.762 248.216C168.665 246.56 168.999 244.652 168.713 242.788ZM160.244 251.017C158.402 251.017 156.635 250.285 155.332 248.982C154.029 247.679 153.297 245.912 153.297 244.07H167.192C167.189 245.907 166.46 247.668 165.164 248.969C163.868 250.271 162.11 251.007 160.273 251.017H160.244Z" fill="#5B5BD5"/>
<path d="M50.6125 242.587L50.5168 227.276H48.0767C47.6633 227.276 47.2539 227.358 46.8719 227.516C46.49 227.674 46.1429 227.906 45.8506 228.198C45.5583 228.491 45.3264 228.838 45.1681 229.22C45.0099 229.602 44.9285 230.011 44.9285 230.425V236.022C43.7395 235.562 42.4632 235.372 41.1917 235.465C39.9202 235.558 38.6852 235.932 37.5759 236.561C36.4666 237.189 35.5106 238.056 34.7769 239.098C34.0433 240.141 33.5503 241.334 33.3336 242.59C33.1169 243.846 33.1818 245.135 33.5236 246.363C33.8655 247.592 34.4758 248.729 35.3105 249.692C36.1451 250.656 37.1834 251.422 38.3502 251.936C39.517 252.45 40.7834 252.698 42.0578 252.663C44.3605 252.643 46.5611 251.709 48.1759 250.067C49.7907 248.426 50.6877 246.21 50.6699 243.907L50.6125 242.587ZM42.0004 251.017C40.1587 251.015 38.3931 250.282 37.0908 248.98C35.7886 247.677 35.0558 245.912 35.0533 244.07H48.9475C48.9475 245.906 48.2209 247.667 46.9263 248.969C45.6317 250.271 43.8745 251.007 42.0387 251.017H42.0004Z" fill="#5B5BD5"/>
<path d="M110.869 184.704H102.553C99.858 184.704 97.6731 186.889 97.6731 189.584V230.109C97.6731 232.804 99.858 234.989 102.553 234.989H110.869C113.564 234.989 115.749 232.804 115.749 230.109V189.584C115.749 186.889 113.564 184.704 110.869 184.704Z" fill="#5B5BD5"/>
<path d="M110.256 160.456H103.156V189.507H110.256V160.456Z" stroke="#5B5BD5" stroke-miterlimit="10"/>
<path d="M138.178 144.6H75.3482C74.931 145.499 74.7155 146.479 74.7167 147.47C74.7167 149.275 75.4335 151.005 76.7094 152.281C77.9853 153.557 79.7158 154.274 81.5202 154.274H98.3425V157.259C96.5078 159.08 94.0465 160.131 91.4624 160.197H68.4107C67.9666 160.197 67.5406 160.374 67.2266 160.688C66.9125 161.002 66.7361 161.428 66.7361 161.872C66.7361 162.316 66.9125 162.742 67.2266 163.056C67.5406 163.37 67.9666 163.546 68.4107 163.546H91.893C92.0953 163.545 92.2959 163.509 92.4863 163.441C94.7688 163.151 96.9853 162.474 99.0411 161.441H115.184V154.274H132.006C132.9 154.274 133.785 154.098 134.61 153.756C135.435 153.414 136.185 152.913 136.817 152.281C137.449 151.649 137.95 150.899 138.292 150.074C138.634 149.248 138.81 148.364 138.81 147.47C138.811 146.479 138.596 145.499 138.178 144.6Z" fill="#5B5BD5"/>
<path d="M29.3025 4.05008H104.754C104.754 4.05008 112.935 3.70559 113.653 11.5905C114.371 19.4753 124.409 115.041 124.409 115.041C124.409 115.041 124.839 130.399 141.059 130.256C158.56 130.112 172.636 130.256 172.636 130.256C172.636 130.256 179.67 130.112 179.459 138.217C179.459 138.217 179.239 143.451 174.675 144.6H97.3668L50.6127 140.667L33.4746 113.328L26.9868 9.98286L29.3025 4.05008Z" fill="#61DAFB" stroke="#5B5BD5" stroke-width="0.5" stroke-miterlimit="10"/>
<path d="M26.0106 3.34277C31.5798 3.34277 33.4361 8.06029 33.8476 13.0649C33.8476 13.0649 40.1536 90.1432 44.1056 115.597C46.5744 131.481 58.1242 129.826 64.2962 129.95L90.2664 130.381C90.2664 130.381 99.5197 130.237 98.8786 138.629C98.2374 147.021 90.2664 145.969 90.2664 145.969L57.3108 145.538C48.3638 144.82 32.0486 137.586 29.2832 119.903C25.1781 93.3966 18.5946 13.0649 18.5946 13.0649C18.1832 8.06029 21.4653 3.7064 26.0106 3.34277Z" fill="white" stroke="#5B5BD5" stroke-width="0.5" stroke-miterlimit="10"/>
<path d="M53.531 25.083H98.6584" stroke="#5B5BD5" stroke-width="0.75" stroke-linecap="round" stroke-linejoin="round"/>
<path d="M53.531 23.0254H98.6584" stroke="white" stroke-linecap="round" stroke-linejoin="round"/>
<path d="M54.9663 45.5513H100.094" stroke="#5B5BD5" stroke-width="0.75" stroke-linecap="round" stroke-linejoin="round"/>
<path d="M54.9663 43.4937H100.094" stroke="white" stroke-linecap="round" stroke-linejoin="round"/>
<path d="M84.9556 66.5933H102.677" stroke="#5B5BD5" stroke-width="0.75" stroke-linecap="round" stroke-linejoin="round"/>
<path d="M84.9556 64.5361H102.677" stroke="white" stroke-linecap="round" stroke-linejoin="round"/>
<path d="M97.8545 130.112H133.308" stroke="white" stroke-linecap="round" stroke-linejoin="round"/>
<path d="M50.0576 4.04082C50.0576 4.04082 56.7559 -2.80102 60.9663 4.04082L76.0661 53.4551" stroke="#5B5BD5" stroke-width="0.75" stroke-miterlimit="10"/>
<path d="M21.8671 50.8047L9.19775 71.8565" stroke="#5B5BD5" stroke-width="0.75" stroke-miterlimit="10"/>
<path d="M36.4597 20.6338L38.8998 48.1829" stroke="white" stroke-miterlimit="10"/>
<path d="M39.9717 56.7183L40.8138 63.4261" stroke="white" stroke-miterlimit="10"/>
<path d="M44.4597 100.985L46.3735 117.338C46.3735 117.338 47.8088 127.96 61.5882 128.247C75.3676 128.534 92.5822 128.247 92.5822 128.247C92.5822 128.247 99.1752 127.673 101.041 136.993" stroke="white" stroke-miterlimit="10"/>
<path d="M80.6287 52.1812L1 74.6688L8.30256 100.527L87.9313 78.0396L80.6287 52.1812Z" fill="white" stroke="#5B5BD5" stroke-width="0.75" stroke-miterlimit="10"/>
<path d="M80.8811 55.3901L4.78857 76.8791L11.0795 99.1553L87.172 77.6663L80.8811 55.3901Z" fill="#61DAFB"/>
<path d="M14.2467 82.6189L16.1826 82.0894C16.9523 81.8788 17.5712 81.8557 18.0391 82.0201C18.5071 82.1844 18.836 82.6138 19.026 83.3083C19.1542 83.7771 19.1956 84.167 19.15 84.478C19.1045 84.7891 18.9382 85.0678 18.651 85.3143L20.5455 88.4537L18.9395 88.893L17.3049 85.9532L16.8621 86.0743L17.7241 89.2255L16.1702 89.6506L14.2467 82.6189ZM17.0516 85.0614C17.3641 84.9759 17.559 84.8355 17.6362 84.6402C17.7176 84.4376 17.7132 84.1713 17.6229 83.8414C17.5359 83.5231 17.4131 83.3017 17.2546 83.1771C17.0945 83.0467 16.8727 83.0203 16.5891 83.0978L16.0856 83.2356L16.6175 85.1801L17.0516 85.0614ZM19.452 81.195L22.6119 80.3306L22.9016 81.3897L21.2956 81.829L21.7729 83.5739L22.997 83.2391L23.2914 84.3156L22.0674 84.6504L22.6421 86.7512L24.2654 86.3071L24.5528 87.3576L21.3755 88.2267L19.452 81.195ZM24.3244 79.8622L26.0953 79.3778L29.3296 86.0508L27.8973 86.4427L27.2568 85.0223L26.2238 85.3049L26.3868 86.8559L24.9197 87.2572L24.3244 79.8622ZM26.8551 84.1338L25.7315 81.4927L26.1086 84.338L26.8551 84.1338ZM31.9719 85.44C31.208 85.649 30.6093 85.5982 30.176 85.2875C29.7469 84.9694 29.4286 84.4313 29.2212 83.6732L28.5278 81.1383C28.3157 80.3628 28.3149 79.7348 28.5256 79.2541C28.7347 78.7677 29.2241 78.4193 29.9938 78.2087C30.7288 78.0077 31.2979 78.0417 31.7012 78.3108C32.1045 78.5799 32.3948 79.0386 32.5721 79.6868L32.7384 80.2944L31.2192 80.71L31.0268 80.0069C30.9524 79.7348 30.8665 79.5344 30.769 79.4056C30.6716 79.2767 30.5129 79.2424 30.293 79.3025C30.0731 79.3627 29.9498 79.4804 29.923 79.6556C29.8948 79.8251 29.9178 80.0459 29.9922 80.3179L30.897 83.6253C30.973 83.9031 31.0663 84.1078 31.1769 84.2392C31.2917 84.3633 31.4562 84.3961 31.6703 84.3375C31.8844 84.279 32.0006 84.1694 32.0189 84.0089C32.0414 83.841 32.0147 83.6182 31.9387 83.3404L31.7369 82.6025L33.256 82.1869L33.4223 82.7946C33.6028 83.4544 33.5903 84.0114 33.3849 84.4657C33.1779 84.9142 32.7069 85.239 31.9719 85.44ZM33.847 78.4983L32.7879 78.788L32.4721 77.6334L36.1442 76.6289L36.46 77.7835L35.4096 78.0708L37.0173 83.9479L35.4547 84.3754L33.847 78.4983ZM40.2529 82.0924C40.4786 82.0307 40.6446 81.9666 40.7508 81.9002C40.8571 81.8338 40.9228 81.7443 40.948 81.6317C40.9716 81.5133 40.9556 81.3528 40.9002 81.1502L39.4184 75.7332L40.9723 75.3082L42.4731 80.7946C42.5824 81.1939 42.6218 81.5315 42.5915 81.8073C42.5612 82.083 42.4419 82.3178 42.2337 82.5116C42.0313 82.7039 41.7217 82.857 41.305 82.971L40.5497 83.1776L40.2529 82.0924ZM45.8293 81.6494C45.158 81.833 44.6091 81.7934 44.1826 81.5306C43.7604 81.2605 43.4316 80.7408 43.1963 79.9716L44.4699 79.4086C44.5976 79.8527 44.7375 80.1596 44.8898 80.3295C45.0462 80.492 45.2257 80.5455 45.4282 80.4901C45.6886 80.4189 45.7722 80.2125 45.6788 79.8711C45.6044 79.5991 45.4766 79.3821 45.2954 79.2201C45.1201 79.0566 44.8684 78.8984 44.5404 78.7455L43.7879 78.3822C43.4173 78.2099 43.1093 78.0049 42.8639 77.7672C42.6227 77.5222 42.4483 77.2029 42.3406 76.8094C42.1791 76.219 42.2285 75.7172 42.4887 75.3039C42.7546 74.8891 43.1943 74.5977 43.8078 74.4299C44.4733 74.2479 44.9778 74.3182 45.3211 74.6411C45.6703 74.9624 45.9295 75.3984 46.0989 75.9492L44.8071 76.4799C44.6958 76.1184 44.5898 75.8675 44.4892 75.7271C44.3928 75.5793 44.252 75.5307 44.0668 75.5814C43.9337 75.6178 43.8453 75.7042 43.8018 75.8405C43.7624 75.9694 43.7617 76.1034 43.7997 76.2423C43.8646 76.4796 43.9713 76.665 44.1198 76.7985C44.2741 76.9305 44.4984 77.0682 44.7927 77.2116L45.5144 77.5647C45.9424 77.7649 46.297 78.0038 46.5782 78.2814C46.8594 78.5591 47.0618 78.9236 47.1853 79.375C47.2755 79.7049 47.2797 80.0272 47.1978 80.3419C47.1202 80.6493 46.9638 80.9191 46.7288 81.1514C46.4937 81.3836 46.1939 81.5496 45.8293 81.6494ZM48.4754 73.2557L49.2394 73.0468L49.0013 80.6697L48.246 80.8763L48.4754 73.2557ZM50.1324 72.8025L51.2262 72.5032L53.5934 75.4947L52.6673 72.1091L53.9521 71.7576L55.8756 78.7893L54.8252 79.0766L52.3868 75.8247L53.3841 79.4708L52.0559 79.8341L50.1324 72.8025ZM54.9986 71.4713L58.1585 70.607L58.4482 71.666L56.8422 72.1054L57.3195 73.8503L58.5435 73.5154L58.838 74.5919L57.614 74.9267L58.1886 77.0275L59.812 76.5835L60.0993 77.6339L56.9221 78.503L54.9986 71.4713ZM60.6723 73.409L58.482 70.5185L59.9491 70.1171L61.2418 71.8069L61.3467 69.7348L62.6402 69.381L62.4072 73.3729L64.7026 76.3746L63.2442 76.7736L61.8101 74.9079L61.6295 77.2153L60.3447 77.5667L60.6723 73.409ZM64.2986 70.1683L63.2395 70.458L62.9236 69.3035L66.5957 68.299L66.9116 69.4535L65.8611 69.7409L67.4688 75.618L65.9062 76.0454L64.2986 70.1683ZM70.7044 73.7625C70.9301 73.7007 71.0961 73.6367 71.2024 73.5703C71.3086 73.5039 71.3743 73.4144 71.3995 73.3017C71.4231 73.1833 71.4072 73.0228 71.3518 72.8203L69.87 67.4033L71.4239 66.9782L72.9247 72.4647C73.0339 72.864 73.0734 73.2015 73.0431 73.4773C73.0128 73.7531 72.8935 73.9879 72.6852 74.1817C72.4828 74.3739 72.1732 74.527 71.7565 74.641L71.0013 74.8476L70.7044 73.7625ZM76.2808 73.3194C75.6095 73.5031 75.0606 73.4635 74.6342 73.2007C74.2119 72.9305 73.8832 72.4109 73.6479 71.6417L74.9214 71.0787C75.0491 71.5227 75.1891 71.8297 75.3413 71.9995C75.4977 72.162 75.6772 72.2156 75.8798 72.1602C76.1402 72.0889 76.2237 71.8826 76.1303 71.5411C76.0559 71.2691 75.9281 71.0521 75.747 70.8902C75.5716 70.7267 75.3199 70.5685 74.992 70.4156L74.2395 70.0523C73.8689 69.8799 73.5608 69.6749 73.3154 69.4373C73.0742 69.1922 72.8998 68.8729 72.7922 68.4794C72.6307 67.8891 72.68 67.3873 72.9402 66.974C73.2062 66.5591 73.6459 66.2678 74.2593 66.1C74.9249 65.9179 75.4293 65.9883 75.7727 66.3111C76.1218 66.6324 76.3811 67.0685 76.5504 67.6193L75.2586 68.1499C75.1473 67.7885 75.0414 67.5376 74.9407 67.3971C74.8443 67.2493 74.7035 67.2008 74.5183 67.2514C74.3852 67.2878 74.2969 67.3742 74.2533 67.5105C74.2139 67.6395 74.2132 67.7734 74.2512 67.9123C74.3161 68.1496 74.4229 68.335 74.5714 68.4686C74.7256 68.6005 74.9499 68.7382 75.2442 68.8817L75.9659 69.2348C76.3939 69.4349 76.7485 69.6738 77.0297 69.9515C77.311 70.2291 77.5133 70.5936 77.6368 71.045C77.727 71.3749 77.7312 71.6972 77.6494 72.012C77.5717 72.3194 77.4154 72.5892 77.1803 72.8214C76.9453 73.0537 76.6455 73.2197 76.2808 73.3194Z" fill="white"/>
</svg>
