<svg xmlns="http://www.w3.org/2000/svg" width="100%" height="100%" viewBox="0 0 220.7 241.9" fill="none" stroke="#5b5bd5" stroke-width="6" stroke-linecap="round" stroke-linejoin="round" stroke-miterlimit="10"><path d="M66.6 205.2a7.9 7.9 0 1 1 15.8 0 7.9 7.9 0 1 1-15.8 0" stroke-dasharray="50, 52"/><path d="M132.1 168.6v51.3c0 4.9-4 8.9-8.9 8.9H27c-4.9 0-8.9-4-8.9-8.9v-198c0-4.9 4-8.9 8.9-8.9h96.2c4.9 0 8.9 4 8.9 8.9v51.3" stroke-dasharray="549, 551"/><path d="M182.3 156.8h-79.4a7.17 7.17 0 0 1-7.2-7.2v-58a7.17 7.17 0 0 1 7.2-7.2h79.4a7.17 7.17 0 0 1 7.2 7.2v58a7.17 7.17 0 0 1-7.2 7.2z" stroke-dasharray="321, 323"/><path d="M194.7 211.4h-38.1c-4.8 0-8.8-3.9-8.8-8.8v-22.8c0-4.8 3.9-8.8 8.8-8.8h38.1c4.8 0 8.8 3.9 8.8 8.8v22.8c-.1 4.9-4 8.8-8.8 8.8z" stroke-dasharray="178, 180"/><path d="M196 66.5h-40.7c-4.1 0-7.5-3.3-7.5-7.5V33.6c0-4.1 3.3-7.5 7.5-7.5H196c4.1 0 7.5 3.3 7.5 7.5V59c-.1 4.1-3.4 7.5-7.5 7.5z" stroke-dasharray="180, 182"/><path d="M18.4 40.3h113.7M18.4 184.7h113.7" stroke-dasharray="114, 116"/><path d="M61.1 27h28.1" stroke-dasharray="29, 31"/><path d="M150.6 174.2l23.9 21.3 25.8-22.2" stroke-dasharray="67, 69"/><path d="M168.6 38.1v18.4l18.2-9.6z" stroke-dasharray="60, 62"/><path d="M128 143.6h-5.2a3.12 3.12 0 0 1-3.1-3.1v-22.1a3.12 3.12 0 0 1 3.1-3.1h5.2a3.12 3.12 0 0 1 3.1 3.1v22.1a3.12 3.12 0 0 1-3.1 3.1z" stroke-dasharray="75, 77"/><path d="M132.3 139.1s.9 2.1 5.1 2.4c4.2.4 20.3.1 20.3.1s3.3-.5 4-3 4-20.8 4-20.8.9-3-3-3.1l-16.4-.3 1-10.7s.5-4.4-4.5-6.7c-1.2.4-2.2 1-2.2 1s.4 10.7-7.5 19.1" stroke-dasharray="117, 119"/></svg>