<svg width="580" height="368" viewBox="0 0 580 368" fill="none" xmlns="../../external.html?link=http://www.w3.org/2000/svg">
<path d="M17.2793 38C17.325 28.0134 21.2818 18.4423 28.3012 11.3388C35.3207 4.23518 44.844 0.164683 54.8293 0L55.3093 0C64.0626 0.0550974 72.5332 3.10538 79.3121 8.64346C86.0909 14.1815 90.7694 21.8736 92.5693 30.44C93.5007 34.8515 93.6193 39.3959 92.9193 43.85L104.119 63.85L91.7493 67.41V87.67H75.1693V102.57H71.8693V84.37H88.3993V64.9L99.1493 61.82L89.4493 44.45L89.5493 43.87C90.2813 39.6438 90.2033 35.317 89.3193 31.12C87.5909 22.7041 82.8036 15.228 75.8829 10.137C68.9622 5.04596 60.3997 2.70171 51.8509 3.55747C43.3021 4.41322 35.3742 8.40818 29.5999 14.77C23.8257 21.1318 20.6152 29.4085 20.5893 38V44C20.5686 50.5444 22.1432 56.9952 25.1768 62.794C28.2104 68.5929 32.6115 73.565 37.9993 77.28L38.7193 77.78V102.58H35.4593V79.5C29.8333 75.4647 25.2497 70.147 22.0881 63.9874C18.9266 57.8278 17.2781 51.0036 17.2793 44.08V38ZM27.1793 41.34C27.1823 40.1236 27.4165 38.9189 27.8693 37.79C26.351 36.0119 25.5207 33.7482 25.5293 31.41C25.5436 29.0666 26.3804 26.8026 27.8938 25.0133C29.4071 23.224 31.5008 22.023 33.8093 21.62V21.48C33.8157 19.5443 34.3076 17.6412 35.2401 15.9448C36.1725 14.2485 37.5156 12.8133 39.1464 11.7705C40.7772 10.7277 42.6436 10.1108 44.5746 9.97618C46.5056 9.84157 48.4396 10.1936 50.1993 11C51.2113 10.0361 52.4173 9.29913 53.7367 8.83819C55.0561 8.37725 56.4586 8.20295 57.8507 8.32692C59.2428 8.45089 60.5924 8.87029 61.8096 9.55712C63.0268 10.244 64.0835 11.1825 64.9093 12.31C66.0649 11.8378 67.3009 11.5933 68.5493 11.59C71.1821 11.5926 73.7063 12.6397 75.5679 14.5014C77.4296 16.363 78.4767 18.8872 78.4793 21.52V22.1C79.9388 22.6127 81.2573 23.4613 82.3285 24.5773C83.3997 25.6933 84.1936 27.0455 84.6461 28.5247C85.0986 30.004 85.1971 31.5688 84.9336 33.0931C84.6702 34.6175 84.0521 36.0585 83.1293 37.3C83.3349 38.0766 83.4391 38.8766 83.4393 39.68C83.4367 42.3128 82.3896 44.837 80.5279 46.6986C78.6663 48.5603 76.1421 49.6074 73.5093 49.61C72.3063 49.6027 71.1155 49.3686 69.9993 48.92C69.3359 49.4785 68.6032 49.9491 67.8193 50.32L66.4193 47.32C67.1959 46.9568 67.8952 46.4476 68.4793 45.82L69.3493 44.88L70.4793 45.48C71.429 46.004 72.4946 46.2825 73.5793 46.29C75.3342 46.2874 77.0165 45.589 78.2574 44.3481C79.4983 43.1072 80.1967 41.4249 80.1993 39.67C80.1891 38.9219 80.0504 38.1811 79.7893 37.48L79.4593 36.55L80.1193 35.82C80.9122 34.9589 81.4603 33.9013 81.7066 32.757C81.953 31.6127 81.8887 30.4233 81.5203 29.3122C81.152 28.2011 80.4931 27.2088 79.612 26.4383C78.7308 25.6677 77.6596 25.1469 76.5093 24.93V24.93C76.0893 24.8342 75.6601 24.7839 75.2293 24.78C74.2026 24.7761 73.1892 25.0129 72.2706 25.4713C71.3519 25.9298 70.5535 26.5972 69.9393 27.42L67.2993 25.42C68.2171 24.1781 69.4137 23.1691 70.7929 22.4743C72.172 21.7795 73.695 21.4184 75.2393 21.42C75.2421 20.4515 75.0294 19.4945 74.6166 18.6183C74.2038 17.7422 73.6014 16.9688 72.8528 16.3543C72.1042 15.7397 71.2283 15.2994 70.2886 15.0652C69.3488 14.8309 68.3687 14.8087 67.4193 15L66.9893 15.1C66.8093 15.1 66.6293 15.2 66.4493 15.27C65.9964 15.4246 65.5608 15.6257 65.1493 15.87L64.7493 16.11C63.8806 16.7179 63.1709 17.5259 62.6801 18.4658C62.1893 19.4056 61.9318 20.4497 61.9293 21.51H58.6293C58.6263 20.0865 58.9314 18.6792 59.5234 17.3846C60.1155 16.09 60.9805 14.9388 62.0593 14.01C61.45 13.238 60.6736 12.6141 59.7886 12.1851C58.9035 11.7562 57.9328 11.5334 56.9493 11.5334C55.9658 11.5334 54.9951 11.7562 54.11 12.1851C53.225 12.6141 52.4486 13.238 51.8393 14.01L50.9393 15.14L49.6993 14.38C48.4463 13.6136 47.0115 13.1951 45.5429 13.1678C44.0743 13.1405 42.625 13.5053 41.3444 14.2246C40.0637 14.9439 38.998 15.9916 38.2571 17.2599C37.5162 18.5282 37.1269 19.9712 37.1293 21.44V21.59C39.4376 21.9858 41.5321 23.184 43.0433 24.9733C44.5544 26.7626 45.3853 29.028 45.3893 31.37H42.0893C42.087 29.6383 41.4063 27.9764 40.193 26.7408C38.9798 25.5051 37.3307 24.794 35.5993 24.76H35.3793C33.64 24.7862 31.9807 25.4949 30.7592 26.7333C29.5377 27.9717 28.8517 29.6405 28.8493 31.38C28.8476 32.2954 29.038 33.201 29.4084 34.0382C29.7788 34.8754 30.3207 35.6255 30.9993 36.24L31.9393 37.11L31.3393 38.24C30.8156 39.1899 30.5372 40.2554 30.5293 41.34C30.5224 42.6171 30.8872 43.8685 31.5794 44.9418C32.2715 46.0151 33.261 46.8637 34.4272 47.3843C35.5934 47.9048 36.8858 48.0747 38.1469 47.8733C39.408 47.6719 40.5833 47.1079 41.5293 46.25L43.3493 44.62L44.1893 46.92C44.5778 47.9632 45.2216 48.8924 46.0619 49.6226C46.9022 50.3528 47.9121 50.8608 48.9993 51.1L48.3193 54.34C47.0292 54.0758 45.8052 53.5556 44.7197 52.8101C43.6342 52.0647 42.7091 51.1091 41.9993 50C40.5151 50.8557 38.8325 51.3074 37.1193 51.31C35.8114 51.31 34.5164 51.0519 33.3085 50.5505C32.1005 50.0491 31.0034 49.3142 30.08 48.388C29.1566 47.4618 28.4251 46.3625 27.9273 45.1531C27.4295 43.9436 27.1754 42.6479 27.1793 41.34V41.34Z" fill="white"/>
<path d="M61.9297 82.6999L60.2797 57.8799L70.2097 51.2599L53.6597 23.1299L55.2997 46.2999L43.7197 54.5699L61.9297 82.6999ZM75.4997 216.46V256.53H181.74V291.33H35.4297V102.57H172.78V137.37H75.4997V179.81H161.44V216.45L75.4997 216.46ZM318.3 222L371 291.86H320.4L272.95 224.11H252.65V291.86H211V103.36H295.9C343.35 103.36 361.54 133.16 361.54 163.73C361.54 189.3 348.09 215.13 316.72 221.99L318.3 222ZM252.66 135.53V192.21H284.82C304.59 192.21 320.94 187.73 320.94 163.74C320.94 139.22 304.59 135.54 284.82 135.54L252.66 135.53ZM406.6 103.37H491.5C538.7 103.37 556.6 133.17 556.6 163.74C556.6 194.31 538.67 224.11 491.5 224.11H448V291.61H406.6V103.37ZM448 191.94H480.16C499.16 191.94 516.54 187.72 516.54 163.74C516.54 139.76 499.14 135.54 480.16 135.54H448V191.94Z" fill="white"/>
<path d="M154.5 222.16C153.015 222.16 151.564 222.606 150.335 223.439C149.106 224.273 148.155 225.456 147.606 226.836C147.056 228.216 146.934 229.728 147.254 231.179C147.574 232.629 148.321 233.95 149.4 234.97V241.67C149.4 243.024 149.938 244.323 150.895 245.28C151.853 246.238 153.151 246.775 154.505 246.775C155.859 246.775 157.157 246.238 158.115 245.28C159.072 244.323 159.61 243.024 159.61 241.67V235C160.689 233.98 161.437 232.659 161.756 231.209C162.076 229.758 161.954 228.246 161.404 226.866C160.855 225.486 159.904 224.303 158.675 223.469C157.446 222.636 155.995 222.19 154.51 222.19L154.5 222.16ZM157.13 232.36C156.781 232.69 156.503 233.086 156.312 233.526C156.121 233.966 156.022 234.441 156.02 234.92V241.66C155.978 242.028 155.801 242.368 155.525 242.614C155.248 242.861 154.891 242.997 154.52 242.997C154.15 242.997 153.792 242.861 153.516 242.614C153.239 242.368 153.063 242.028 153.02 241.66V234.92C153.018 234.441 152.919 233.966 152.728 233.526C152.537 233.086 152.259 232.69 151.91 232.36C151.528 232.003 151.225 231.571 151.018 231.091C150.812 230.611 150.707 230.093 150.71 229.57C150.684 229.052 150.763 228.533 150.943 228.046C151.123 227.559 151.401 227.113 151.759 226.737C152.116 226.36 152.547 226.06 153.024 225.855C153.502 225.65 154.016 225.545 154.535 225.545C155.055 225.545 155.569 225.65 156.046 225.855C156.523 226.06 156.954 226.36 157.312 226.737C157.669 227.113 157.947 227.559 158.127 228.046C158.307 228.533 158.387 229.052 158.36 229.57C158.358 230.096 158.247 230.615 158.033 231.096C157.82 231.576 157.509 232.007 157.12 232.36H157.13ZM176.25 212.92H170.85V196.22C170.904 194.037 170.521 191.865 169.723 189.833C168.924 187.8 167.728 185.948 166.203 184.384C164.678 182.821 162.855 181.579 160.843 180.731C158.831 179.883 156.669 179.446 154.485 179.446C152.301 179.446 150.14 179.883 148.127 180.731C146.115 181.579 144.293 182.821 142.768 184.384C141.243 185.948 140.046 187.8 139.248 189.833C138.449 191.865 138.066 194.037 138.12 196.22V212.92H132.72C131.291 212.923 129.922 213.492 128.912 214.502C127.901 215.512 127.333 216.882 127.33 218.31V251.65C127.333 253.079 127.901 254.449 128.912 255.459C129.922 256.469 131.291 257.038 132.72 257.04H176.22C177.649 257.038 179.018 256.469 180.028 255.459C181.039 254.449 181.607 253.079 181.61 251.65V218.3C181.607 216.872 181.039 215.502 180.028 214.492C179.018 213.482 177.649 212.913 176.22 212.91L176.25 212.92ZM141.72 196.22C141.72 192.832 143.066 189.583 145.462 187.187C147.858 184.791 151.107 183.445 154.495 183.445C157.883 183.445 161.133 184.791 163.528 187.187C165.924 189.583 167.27 192.832 167.27 196.22V212.92H141.72V196.22ZM178 251.65C178 252.128 177.81 252.586 177.473 252.923C177.135 253.261 176.677 253.45 176.2 253.45H132.74C132.263 253.45 131.805 253.261 131.467 252.923C131.13 252.586 130.94 252.128 130.94 251.65V218.3C130.94 217.823 131.13 217.365 131.467 217.028C131.805 216.69 132.263 216.5 132.74 216.5H176.24C176.717 216.5 177.175 216.69 177.513 217.028C177.85 217.365 178.04 217.823 178.04 218.3V251.64L178 251.65ZM469.4 221C465.792 220.998 462.265 222.066 459.264 224.07C456.263 226.073 453.923 228.921 452.541 232.253C451.159 235.586 450.797 239.254 451.499 242.793C452.202 246.332 453.938 249.583 456.489 252.134C459.039 254.686 462.289 256.425 465.828 257.129C469.366 257.834 473.034 257.473 476.368 256.093C479.701 254.713 482.551 252.375 484.555 249.375C486.56 246.375 487.63 242.848 487.63 239.24C487.625 234.408 485.704 229.775 482.289 226.356C478.874 222.937 474.243 221.011 469.41 221H469.4ZM469.4 254.86C466.305 254.866 463.279 253.953 460.703 252.237C458.128 250.521 456.12 248.079 454.934 245.221C453.748 242.363 453.437 239.216 454.04 236.181C454.644 233.146 456.135 230.358 458.325 228.171C460.515 225.984 463.304 224.497 466.341 223.897C469.377 223.297 472.522 223.612 475.379 224.802C478.236 225.991 480.675 228.003 482.388 230.58C484.101 233.158 485.01 236.186 485 239.28C484.995 243.421 483.347 247.391 480.419 250.32C477.491 253.248 473.521 254.895 469.38 254.9L469.4 254.86ZM501 231.46H498.37C497.701 228.974 496.713 226.584 495.43 224.35L497.29 222.49C497.967 221.81 498.346 220.89 498.346 219.93C498.346 218.971 497.967 218.051 497.29 217.37L491.36 211.44C490.67 210.783 489.753 210.416 488.8 210.416C487.847 210.416 486.93 210.783 486.24 211.44L484.38 213.3C482.148 212.016 479.758 211.028 477.27 210.36V207.73C477.27 206.77 476.889 205.85 476.21 205.171C475.531 204.492 474.61 204.11 473.65 204.11H465.25C464.29 204.11 463.369 204.492 462.69 205.171C462.011 205.85 461.63 206.77 461.63 207.73V210.36C459.143 211.028 456.753 212.016 454.52 213.3L452.66 211.44C451.97 210.783 451.053 210.416 450.1 210.416C449.147 210.416 448.23 210.783 447.54 211.44L441.61 217.37C440.933 218.051 440.554 218.971 440.554 219.93C440.554 220.89 440.933 221.81 441.61 222.49L443.47 224.35C442.184 226.582 441.196 228.972 440.53 231.46H437.9C436.94 231.46 436.019 231.842 435.34 232.521C434.661 233.2 434.28 234.12 434.28 235.08V243.48C434.28 244.44 434.661 245.361 435.34 246.04C436.019 246.719 436.94 247.1 437.9 247.1H440.53C441.197 249.588 442.185 251.978 443.47 254.21L441.61 256.07C440.933 256.752 440.553 257.674 440.553 258.635C440.553 259.596 440.933 260.519 441.61 261.2L447.54 267.13C448.23 267.788 449.147 268.155 450.1 268.155C451.053 268.155 451.97 267.788 452.66 267.13L454.52 265.27C456.754 266.551 459.144 267.539 461.63 268.21V270.84C461.63 271.8 462.011 272.721 462.69 273.4C463.369 274.079 464.29 274.46 465.25 274.46H473.65C474.61 274.46 475.531 274.079 476.21 273.4C476.889 272.721 477.27 271.8 477.27 270.84V268.21C479.756 267.54 482.146 266.551 484.38 265.27L486.24 267.13C486.932 267.789 487.85 268.156 488.805 268.156C489.76 268.156 490.678 267.789 491.37 267.13L497.3 261.2C497.638 260.864 497.906 260.464 498.089 260.024C498.271 259.584 498.366 259.112 498.366 258.635C498.366 258.159 498.271 257.687 498.089 257.247C497.906 256.806 497.638 256.407 497.3 256.07L495.44 254.21C496.721 251.976 497.709 249.587 498.38 247.1H501C501.96 247.1 502.881 246.719 503.56 246.04C504.239 245.361 504.62 244.44 504.62 243.48V235.08C504.62 234.12 504.239 233.2 503.56 232.521C502.881 231.842 501.96 231.46 501 231.46ZM502 243.46C502 243.726 501.895 243.98 501.707 244.168C501.52 244.355 501.265 244.46 501 244.46H496.32L496.08 245.46C495.408 248.369 494.259 251.147 492.68 253.68L492.13 254.56L495.43 257.86C495.527 257.954 495.604 258.066 495.656 258.189C495.709 258.313 495.736 258.446 495.736 258.58C495.736 258.715 495.709 258.848 495.656 258.972C495.604 259.095 495.527 259.207 495.43 259.3L489.5 265.23C489.407 265.327 489.295 265.404 489.171 265.457C489.048 265.509 488.915 265.536 488.78 265.536C488.646 265.536 488.513 265.509 488.389 265.457C488.265 265.404 488.153 265.327 488.06 265.23L484.7 262L483.82 262.55C481.286 264.129 478.509 265.278 475.6 265.95L474.6 266.19V270.87C474.6 271.136 474.495 271.39 474.307 271.578C474.12 271.765 473.865 271.87 473.6 271.87H465.2C464.935 271.87 464.681 271.765 464.493 271.578C464.305 271.39 464.2 271.136 464.2 270.87V266.19L463.2 265.95C460.291 265.279 457.513 264.13 454.98 262.55L454.1 262L450.8 265.3C450.707 265.397 450.595 265.474 450.471 265.527C450.348 265.579 450.214 265.606 450.08 265.606C449.946 265.606 449.813 265.579 449.689 265.527C449.565 265.474 449.453 265.397 449.36 265.3L443.43 259.37C443.333 259.277 443.256 259.165 443.204 259.042C443.151 258.918 443.124 258.785 443.124 258.65C443.124 258.516 443.151 258.383 443.204 258.259C443.256 258.136 443.333 258.024 443.43 257.93L446.73 254.63L446.18 253.75C444.601 251.217 443.452 248.439 442.78 245.53L442.55 244.53H437.87C437.605 244.53 437.351 244.425 437.163 244.237C436.975 244.05 436.87 243.796 436.87 243.53V235.13C436.87 234.865 436.975 234.611 437.163 234.423C437.351 234.236 437.605 234.13 437.87 234.13H442.55L442.78 233.13C443.454 230.225 444.603 227.451 446.18 224.92L446.73 224.04L443.43 220.74C443.333 220.647 443.256 220.535 443.204 220.412C443.151 220.288 443.124 220.155 443.124 220.02C443.124 219.886 443.151 219.753 443.204 219.629C443.256 219.506 443.333 219.394 443.43 219.3L449.36 213.37C449.453 213.274 449.565 213.197 449.689 213.144C449.813 213.091 449.946 213.064 450.08 213.064C450.214 213.064 450.348 213.091 450.471 213.144C450.595 213.197 450.707 213.274 450.8 213.37L454.1 216.67L454.97 215.99C457.503 214.41 460.281 213.261 463.19 212.59L464.19 212.36V207.68C464.19 207.415 464.295 207.161 464.483 206.973C464.671 206.786 464.925 206.68 465.19 206.68H473.59C473.855 206.68 474.11 206.786 474.297 206.973C474.485 207.161 474.59 207.415 474.59 207.68V212.36L475.59 212.59C478.498 213.266 481.275 214.415 483.81 215.99L484.69 216.54L487.99 213.24C488.083 213.144 488.195 213.067 488.319 213.014C488.443 212.961 488.576 212.934 488.71 212.934C488.845 212.934 488.978 212.961 489.101 213.014C489.225 213.067 489.337 213.144 489.43 213.24L495.36 219.17C495.457 219.264 495.534 219.375 495.586 219.499C495.639 219.623 495.666 219.756 495.666 219.89C495.666 220.025 495.639 220.158 495.586 220.282C495.534 220.405 495.457 220.517 495.36 220.61L492.06 224.01L492.61 224.89C494.189 227.42 495.338 230.195 496.01 233.1L496.25 234.1H501C501.265 234.1 501.52 234.206 501.707 234.393C501.895 234.581 502 234.835 502 235.1V243.46ZM469.4 226.26C466.829 226.26 464.316 227.023 462.178 228.451C460.04 229.88 458.374 231.91 457.39 234.285C456.406 236.661 456.148 239.275 456.65 241.797C457.151 244.318 458.39 246.635 460.208 248.453C462.026 250.271 464.342 251.509 466.864 252.011C469.386 252.512 471.999 252.255 474.375 251.271C476.75 250.287 478.781 248.621 480.209 246.483C481.638 244.345 482.4 241.832 482.4 239.26C482.4 235.813 481.03 232.506 478.592 230.068C476.154 227.63 472.848 226.26 469.4 226.26V226.26ZM469.4 249.7C467.339 249.7 465.325 249.089 463.611 247.944C461.897 246.799 460.562 245.172 459.773 243.268C458.985 241.364 458.778 239.269 459.18 237.248C459.582 235.226 460.575 233.37 462.032 231.912C463.489 230.455 465.346 229.463 467.367 229.061C469.389 228.659 471.484 228.865 473.388 229.654C475.292 230.442 476.919 231.778 478.064 233.491C479.209 235.205 479.82 237.22 479.82 239.28C479.817 242.043 478.719 244.692 476.765 246.646C474.812 248.599 472.163 249.698 469.4 249.7V249.7ZM579 109.65H547.27V77.9004H548.77C556.787 77.9136 564.471 81.1056 570.138 86.7762C575.805 92.4469 578.992 100.133 579 108.15V109.65ZM550.26 106.65H576C575.61 99.9612 572.772 93.6496 568.026 88.919C563.281 84.1884 556.96 81.3697 550.27 81.0004L550.26 106.65ZM545.06 142.1C537.374 142.095 529.979 139.162 524.378 133.898C518.778 128.634 515.393 121.435 514.911 113.764C514.43 106.093 516.888 98.5272 521.786 92.6044C526.685 86.6816 533.655 82.8469 541.28 81.8804L542.98 81.6804V114H575.26L575.06 115.7C574.127 122.995 570.569 129.701 565.051 134.563C559.534 139.425 552.434 142.112 545.08 142.12L545.06 142.1ZM539.96 85.1004C535.101 86.0273 530.585 88.2605 526.9 91.5602C523.214 94.8598 520.496 99.1013 519.04 103.829C517.583 108.557 517.441 113.592 518.63 118.394C519.82 123.196 522.295 127.583 525.789 131.085C529.284 134.586 533.667 137.069 538.466 138.267C543.266 139.466 548.302 139.334 553.032 137.886C557.763 136.438 562.009 133.728 565.316 130.049C568.622 126.369 570.864 121.858 571.8 117H540L539.96 85.1004ZM338.38 293.6H318.12L271.56 226.22H255.06V293.6H208.4V102H236.9C237.298 102 237.679 102.158 237.961 102.44C238.242 102.721 238.4 103.103 238.4 103.5C238.4 103.898 238.242 104.28 237.961 104.561C237.679 104.842 237.298 105 236.9 105H211.4V290.6H252.07V223.22H273.15L319.71 290.6H338.39C338.788 290.6 339.169 290.758 339.451 291.04C339.732 291.321 339.89 291.703 339.89 292.1C339.89 292.498 339.732 292.88 339.451 293.161C339.169 293.442 338.788 293.6 338.39 293.6H338.38ZM274.38 152.42V175.27L297.28 162.54L274.38 152.42ZM252.31 193.25H250.81V158.4C250.81 158.003 250.968 157.621 251.249 157.34C251.531 157.058 251.912 156.9 252.31 156.9C252.708 156.9 253.089 157.058 253.371 157.34C253.652 157.621 253.81 158.003 253.81 158.4V190.25H297.28C298.13 190.25 319.16 189.25 319.16 163.51C319.16 163.113 319.318 162.731 319.599 162.45C319.881 162.168 320.262 162.01 320.66 162.01C321.058 162.01 321.439 162.168 321.721 162.45C322.002 162.731 322.16 163.113 322.16 163.51C322.16 192.21 297.58 193.25 297.33 193.25H252.31ZM406.54 107.85C406.142 107.85 405.761 107.692 405.479 107.411C405.198 107.13 405.04 106.748 405.04 106.35V105.85C405.04 105.453 405.198 105.071 405.479 104.79C405.761 104.508 406.142 104.35 406.54 104.35C406.938 104.35 407.319 104.508 407.601 104.79C407.882 105.071 408.04 105.453 408.04 105.85V106.35C408.04 106.748 407.882 107.13 407.601 107.411C407.319 107.692 406.938 107.85 406.54 107.85ZM406.54 287.21C406.142 287.21 405.761 287.052 405.479 286.771C405.198 286.49 405.04 286.108 405.04 285.71V284.71C405.04 284.313 405.198 283.931 405.479 283.65C405.761 283.368 406.142 283.21 406.54 283.21C406.938 283.21 407.319 283.368 407.601 283.65C407.882 283.931 408.04 284.313 408.04 284.71V285.71C408.04 286.108 407.882 286.49 407.601 286.771C407.319 287.052 406.938 287.21 406.54 287.21ZM406.54 280.31C406.142 280.31 405.761 280.152 405.479 279.871C405.198 279.59 405.04 279.208 405.04 278.81V277.81C405.04 277.413 405.198 277.031 405.479 276.75C405.761 276.468 406.142 276.31 406.54 276.31C406.938 276.31 407.319 276.468 407.601 276.75C407.882 277.031 408.04 277.413 408.04 277.81V278.81C408.04 279.208 407.882 279.59 407.601 279.871C407.319 280.152 406.938 280.31 406.54 280.31ZM406.54 273.41C406.142 273.41 405.761 273.252 405.479 272.971C405.198 272.69 405.04 272.308 405.04 271.91V270.91C405.04 270.513 405.198 270.131 405.479 269.85C405.761 269.568 406.142 269.41 406.54 269.41C406.938 269.41 407.319 269.568 407.601 269.85C407.882 270.131 408.04 270.513 408.04 270.91V271.91C408.04 272.308 407.882 272.69 407.601 272.971C407.319 273.252 406.938 273.41 406.54 273.41ZM406.54 266.51C406.339 266.516 406.139 266.481 405.951 266.407C405.764 266.333 405.594 266.223 405.45 266.082C405.306 265.941 405.192 265.773 405.115 265.587C405.038 265.401 404.999 265.202 405 265V264C405 263.603 405.158 263.221 405.439 262.94C405.721 262.658 406.102 262.5 406.5 262.5C406.898 262.5 407.279 262.658 407.561 262.94C407.842 263.221 408 263.603 408 264V265C407.998 265.391 407.843 265.766 407.568 266.044C407.293 266.322 406.921 266.483 406.53 266.49L406.54 266.51ZM406.54 259.61C406.142 259.61 405.761 259.452 405.479 259.171C405.198 258.89 405.04 258.508 405.04 258.11V257.11C405.04 256.713 405.198 256.331 405.479 256.05C405.761 255.768 406.142 255.61 406.54 255.61C406.938 255.61 407.319 255.768 407.601 256.05C407.882 256.331 408.04 256.713 408.04 257.11V258.11C408.04 258.508 407.882 258.89 407.601 259.171C407.319 259.452 406.938 259.61 406.54 259.61ZM406.54 252.71C406.142 252.71 405.761 252.552 405.479 252.271C405.198 251.99 405.04 251.608 405.04 251.21V250.21C405.04 249.813 405.198 249.431 405.479 249.15C405.761 248.868 406.142 248.71 406.54 248.71C406.938 248.71 407.319 248.868 407.601 249.15C407.882 249.431 408.04 249.813 408.04 250.21V251.21C408.041 251.408 408.004 251.604 407.929 251.787C407.854 251.971 407.744 252.137 407.604 252.278C407.465 252.418 407.299 252.529 407.116 252.605C406.934 252.681 406.738 252.72 406.54 252.72V252.71ZM406.54 245.81C406.142 245.81 405.761 245.652 405.479 245.371C405.198 245.09 405.04 244.708 405.04 244.31V243.31C405.04 242.913 405.198 242.531 405.479 242.25C405.761 241.968 406.142 241.81 406.54 241.81C406.938 241.81 407.319 241.968 407.601 242.25C407.882 242.531 408.04 242.913 408.04 243.31V244.31C408.041 244.508 408.004 244.704 407.929 244.887C407.854 245.071 407.744 245.237 407.604 245.378C407.465 245.518 407.299 245.629 407.116 245.705C406.934 245.781 406.738 245.82 406.54 245.82V245.81ZM406.54 238.91C406.142 238.91 405.761 238.752 405.479 238.471C405.198 238.19 405.04 237.808 405.04 237.41V236.41C405.04 236.013 405.198 235.631 405.479 235.35C405.761 235.068 406.142 234.91 406.54 234.91C406.938 234.91 407.319 235.068 407.601 235.35C407.882 235.631 408.04 236.013 408.04 236.41V237.41C408.041 237.608 408.004 237.804 407.929 237.987C407.854 238.171 407.744 238.337 407.604 238.478C407.465 238.618 407.299 238.729 407.116 238.805C406.934 238.881 406.738 238.92 406.54 238.92V238.91ZM406.54 232.01C406.142 232.01 405.761 231.852 405.479 231.571C405.198 231.29 405.04 230.908 405.04 230.51V229.51C405.04 229.113 405.198 228.731 405.479 228.45C405.761 228.168 406.142 228.01 406.54 228.01C406.938 228.01 407.319 228.168 407.601 228.45C407.882 228.731 408.04 229.113 408.04 229.51V230.51C408.041 230.708 408.004 230.904 407.929 231.087C407.854 231.271 407.744 231.437 407.604 231.578C407.465 231.718 407.299 231.829 407.116 231.905C406.934 231.981 406.738 232.02 406.54 232.02V232.01ZM406.54 225.11C406.142 225.11 405.761 224.952 405.479 224.671C405.198 224.39 405.04 224.008 405.04 223.61V222.61C405.04 222.213 405.198 221.831 405.479 221.55C405.761 221.268 406.142 221.11 406.54 221.11C406.938 221.11 407.319 221.268 407.601 221.55C407.882 221.831 408.04 222.213 408.04 222.61V223.61C408.041 223.808 408.004 224.004 407.929 224.188C407.854 224.371 407.744 224.537 407.604 224.678C407.465 224.818 407.299 224.929 407.116 225.005C406.934 225.081 406.738 225.12 406.54 225.12V225.11ZM406.54 218.21C406.142 218.21 405.761 218.052 405.479 217.771C405.198 217.49 405.04 217.108 405.04 216.71V215.71C405.04 215.313 405.198 214.931 405.479 214.65C405.761 214.368 406.142 214.21 406.54 214.21C406.938 214.21 407.319 214.368 407.601 214.65C407.882 214.931 408.04 215.313 408.04 215.71V216.71C408.043 216.909 408.006 217.106 407.932 217.291C407.858 217.475 407.747 217.643 407.608 217.784C407.468 217.925 407.302 218.038 407.119 218.114C406.935 218.191 406.739 218.23 406.54 218.23V218.21ZM406.54 211.31C406.142 211.31 405.761 211.152 405.479 210.871C405.198 210.59 405.04 210.208 405.04 209.81V208.81C405.04 208.413 405.198 208.031 405.479 207.75C405.761 207.468 406.142 207.31 406.54 207.31C406.938 207.31 407.319 207.468 407.601 207.75C407.882 208.031 408.04 208.413 408.04 208.81V209.81C408.043 210.009 408.006 210.206 407.932 210.391C407.858 210.575 407.747 210.743 407.608 210.884C407.468 211.025 407.302 211.138 407.119 211.214C406.935 211.291 406.739 211.33 406.54 211.33V211.31ZM406.54 204.41C406.142 204.41 405.761 204.252 405.479 203.971C405.198 203.69 405.04 203.308 405.04 202.91V201.91C405.04 201.513 405.198 201.131 405.479 200.85C405.761 200.568 406.142 200.41 406.54 200.41C406.938 200.41 407.319 200.568 407.601 200.85C407.882 201.131 408.04 201.513 408.04 201.91V202.91C408.043 203.109 408.006 203.306 407.932 203.491C407.858 203.675 407.747 203.843 407.608 203.984C407.468 204.125 407.302 204.238 407.119 204.314C406.935 204.391 406.739 204.43 406.54 204.43V204.41ZM406.54 197.51C406.339 197.516 406.139 197.481 405.951 197.407C405.764 197.333 405.594 197.223 405.45 197.082C405.306 196.941 405.192 196.773 405.115 196.587C405.038 196.401 404.999 196.202 405 196V195C405 194.603 405.158 194.221 405.439 193.94C405.721 193.658 406.102 193.5 406.5 193.5C406.898 193.5 407.279 193.658 407.561 193.94C407.842 194.221 408 194.603 408 195V196C408.003 196.395 407.85 196.774 407.575 197.057C407.3 197.34 406.924 197.503 406.53 197.51H406.54ZM406.54 190.61C406.142 190.61 405.761 190.452 405.479 190.171C405.198 189.89 405.04 189.508 405.04 189.11V188.11C405.04 187.713 405.198 187.331 405.479 187.05C405.761 186.768 406.142 186.61 406.54 186.61C406.938 186.61 407.319 186.768 407.601 187.05C407.882 187.331 408.04 187.713 408.04 188.11V189.11C408.044 189.31 408.008 189.508 407.935 189.694C407.861 189.879 407.751 190.048 407.612 190.19C407.472 190.333 407.305 190.446 407.121 190.523C406.937 190.601 406.74 190.64 406.54 190.64V190.61ZM406.54 183.71C406.142 183.71 405.761 183.552 405.479 183.271C405.198 182.99 405.04 182.608 405.04 182.21V181.21C405.04 180.813 405.198 180.431 405.479 180.15C405.761 179.868 406.142 179.71 406.54 179.71C406.938 179.71 407.319 179.868 407.601 180.15C407.882 180.431 408.04 180.813 408.04 181.21V182.21C408.044 182.41 408.008 182.608 407.935 182.794C407.861 182.979 407.751 183.148 407.612 183.29C407.472 183.433 407.305 183.546 407.121 183.623C406.937 183.701 406.74 183.74 406.54 183.74V183.71ZM406.54 176.81C406.142 176.81 405.761 176.652 405.479 176.371C405.198 176.09 405.04 175.708 405.04 175.31V174.31C405.04 173.913 405.198 173.531 405.479 173.25C405.761 172.968 406.142 172.81 406.54 172.81C406.938 172.81 407.319 172.968 407.601 173.25C407.882 173.531 408.04 173.913 408.04 174.31V175.31C408.044 175.51 408.008 175.708 407.935 175.894C407.861 176.079 407.751 176.248 407.612 176.39C407.472 176.533 407.305 176.646 407.121 176.723C406.937 176.801 406.74 176.84 406.54 176.84V176.81ZM406.54 169.91C406.142 169.91 405.761 169.752 405.479 169.471C405.198 169.19 405.04 168.808 405.04 168.41V167.41C405.04 167.013 405.198 166.631 405.479 166.35C405.761 166.068 406.142 165.91 406.54 165.91C406.938 165.91 407.319 166.068 407.601 166.35C407.882 166.631 408.04 167.013 408.04 167.41V168.41C408.044 168.61 408.008 168.808 407.935 168.994C407.861 169.179 407.751 169.348 407.612 169.491C407.472 169.633 407.305 169.746 407.121 169.823C406.937 169.901 406.74 169.94 406.54 169.94V169.91ZM406.54 163.01C406.142 163.01 405.761 162.852 405.479 162.571C405.198 162.29 405.04 161.908 405.04 161.51V160.51C405.04 160.113 405.198 159.731 405.479 159.45C405.761 159.168 406.142 159.01 406.54 159.01C406.938 159.01 407.319 159.168 407.601 159.45C407.882 159.731 408.04 160.113 408.04 160.51V161.51C408.041 161.708 408.004 161.904 407.929 162.087C407.854 162.271 407.744 162.437 407.604 162.578C407.465 162.718 407.299 162.829 407.116 162.905C406.934 162.981 406.738 163.02 406.54 163.02V163.01ZM406.54 156.11C406.142 156.11 405.761 155.952 405.479 155.671C405.198 155.39 405.04 155.008 405.04 154.61V153.61C405.04 153.213 405.198 152.831 405.479 152.55C405.761 152.268 406.142 152.11 406.54 152.11C406.938 152.11 407.319 152.268 407.601 152.55C407.882 152.831 408.04 153.213 408.04 153.61V154.61C408.045 154.811 408.011 155.01 407.938 155.197C407.865 155.383 407.755 155.553 407.615 155.697C407.475 155.841 407.308 155.955 407.123 156.033C406.939 156.11 406.74 156.15 406.54 156.15V156.11ZM406.54 149.21C406.142 149.21 405.761 149.052 405.479 148.771C405.198 148.49 405.04 148.108 405.04 147.71V146.71C405.04 146.313 405.198 145.931 405.479 145.65C405.761 145.368 406.142 145.21 406.54 145.21C406.938 145.21 407.319 145.368 407.601 145.65C407.882 145.931 408.04 146.313 408.04 146.71V147.71C408.045 147.911 408.011 148.11 407.938 148.297C407.865 148.483 407.755 148.653 407.615 148.797C407.475 148.941 407.308 149.055 407.123 149.132C406.939 149.21 406.74 149.25 406.54 149.25V149.21ZM406.54 142.31C406.142 142.31 405.761 142.152 405.479 141.871C405.198 141.59 405.04 141.208 405.04 140.81V139.81C405.04 139.413 405.198 139.031 405.479 138.75C405.761 138.468 406.142 138.31 406.54 138.31C406.938 138.31 407.319 138.468 407.601 138.75C407.882 139.031 408.04 139.413 408.04 139.81V140.81C408.045 141.011 408.011 141.21 407.938 141.397C407.865 141.583 407.755 141.753 407.615 141.897C407.475 142.041 407.308 142.155 407.123 142.233C406.939 142.31 406.74 142.35 406.54 142.35V142.31ZM406.54 135.41C406.142 135.41 405.761 135.252 405.479 134.971C405.198 134.69 405.04 134.308 405.04 133.91V132.91C405.04 132.513 405.198 132.131 405.479 131.85C405.761 131.568 406.142 131.41 406.54 131.41C406.938 131.41 407.319 131.568 407.601 131.85C407.882 132.131 408.04 132.513 408.04 132.91V133.91C408.045 134.111 408.011 134.31 407.938 134.497C407.865 134.683 407.755 134.853 407.615 134.997C407.475 135.141 407.308 135.255 407.123 135.333C406.939 135.41 406.74 135.45 406.54 135.45V135.41ZM406.54 128.51C406.339 128.516 406.139 128.481 405.951 128.407C405.764 128.333 405.594 128.223 405.45 128.082C405.306 127.941 405.192 127.773 405.115 127.587C405.038 127.401 404.999 127.202 405 127V126C405 125.603 405.158 125.221 405.439 124.94C405.721 124.658 406.102 124.5 406.5 124.5C406.898 124.5 407.279 124.658 407.561 124.94C407.842 125.221 408 125.603 408 126V127C408.004 127.197 407.969 127.393 407.897 127.577C407.826 127.76 407.719 127.928 407.582 128.07C407.446 128.212 407.282 128.326 407.102 128.405C406.921 128.484 406.727 128.526 406.53 128.53L406.54 128.51ZM406.54 121.61C406.142 121.61 405.761 121.452 405.479 121.171C405.198 120.89 405.04 120.508 405.04 120.11V119.11C405.04 118.713 405.198 118.331 405.479 118.05C405.761 117.768 406.142 117.61 406.54 117.61C406.938 117.61 407.319 117.768 407.601 118.05C407.882 118.331 408.04 118.713 408.04 119.11V120.11C408.047 120.312 408.013 120.512 407.941 120.7C407.868 120.888 407.759 121.059 407.619 121.204C407.479 121.348 407.311 121.463 407.126 121.542C406.941 121.62 406.741 121.661 406.54 121.66V121.61ZM406.54 114.71C406.142 114.71 405.761 114.552 405.479 114.271C405.198 113.99 405.04 113.608 405.04 113.21V112.21C405.04 111.813 405.198 111.431 405.479 111.15C405.761 110.868 406.142 110.71 406.54 110.71C406.938 110.71 407.319 110.868 407.601 111.15C407.882 111.431 408.04 111.813 408.04 112.21V113.21C408.047 113.412 408.013 113.612 407.941 113.8C407.868 113.988 407.759 114.159 407.619 114.304C407.479 114.448 407.311 114.563 407.126 114.642C406.941 114.72 406.741 114.761 406.54 114.76V114.71ZM407.01 293.61H406.51C406.112 293.61 405.731 293.452 405.449 293.171C405.168 292.89 405.01 292.508 405.01 292.11V291.61C405.056 291.285 405.192 290.978 405.402 290.725C405.613 290.473 405.89 290.283 406.202 290.179C406.514 290.075 406.848 290.06 407.169 290.135C407.489 290.21 407.782 290.374 408.014 290.606C408.247 290.839 408.41 291.132 408.486 291.452C408.561 291.772 408.546 292.107 408.441 292.419C408.337 292.731 408.148 293.008 407.895 293.218C407.642 293.429 407.336 293.564 407.01 293.61V293.61ZM448.68 293.61H447.68C447.282 293.61 446.901 293.452 446.619 293.171C446.338 292.89 446.18 292.508 446.18 292.11C446.18 291.713 446.338 291.331 446.619 291.05C446.901 290.768 447.282 290.61 447.68 290.61H448.68C449.078 290.61 449.459 290.768 449.741 291.05C450.022 291.331 450.18 291.713 450.18 292.11C450.18 292.508 450.022 292.89 449.741 293.171C449.459 293.452 449.078 293.61 448.68 293.61ZM441.74 293.61H440.74C440.342 293.61 439.961 293.452 439.679 293.171C439.398 292.89 439.24 292.508 439.24 292.11C439.24 291.713 439.398 291.331 439.679 291.05C439.961 290.768 440.342 290.61 440.74 290.61H441.74C442.138 290.61 442.519 290.768 442.801 291.05C443.082 291.331 443.24 291.713 443.24 292.11C443.24 292.508 443.082 292.89 442.801 293.171C442.519 293.452 442.138 293.61 441.74 293.61ZM434.8 293.61H433.8C433.402 293.61 433.021 293.452 432.739 293.171C432.458 292.89 432.3 292.508 432.3 292.11C432.3 291.713 432.458 291.331 432.739 291.05C433.021 290.768 433.402 290.61 433.8 290.61H434.8C435.198 290.61 435.579 290.768 435.861 291.05C436.142 291.331 436.3 291.713 436.3 292.11C436.3 292.508 436.142 292.89 435.861 293.171C435.579 293.452 435.198 293.61 434.8 293.61ZM427.86 293.61H426.86C426.462 293.61 426.081 293.452 425.799 293.171C425.518 292.89 425.36 292.508 425.36 292.11C425.36 291.713 425.518 291.331 425.799 291.05C426.081 290.768 426.462 290.61 426.86 290.61H427.86C428.258 290.61 428.639 290.768 428.921 291.05C429.202 291.331 429.36 291.713 429.36 292.11C429.36 292.508 429.202 292.89 428.921 293.171C428.639 293.452 428.258 293.61 427.86 293.61ZM420.92 293.61H419.92C419.522 293.61 419.141 293.452 418.859 293.171C418.578 292.89 418.42 292.508 418.42 292.11C418.42 291.713 418.578 291.331 418.859 291.05C419.141 290.768 419.522 290.61 419.92 290.61H420.92C421.318 290.61 421.699 290.768 421.981 291.05C422.262 291.331 422.42 291.713 422.42 292.11C422.42 292.508 422.262 292.89 421.981 293.171C421.699 293.452 421.318 293.61 420.92 293.61ZM413.98 293.61H412.98C412.582 293.61 412.201 293.452 411.919 293.171C411.638 292.89 411.48 292.508 411.48 292.11C411.48 291.713 411.638 291.331 411.919 291.05C412.201 290.768 412.582 290.61 412.98 290.61H413.98C414.378 290.61 414.759 290.768 415.041 291.05C415.322 291.331 415.48 291.713 415.48 292.11C415.48 292.508 415.322 292.89 415.041 293.171C414.759 293.452 414.378 293.61 413.98 293.61ZM454.62 293.61C454.222 293.61 453.841 293.452 453.559 293.171C453.278 292.89 453.12 292.508 453.12 292.11C453.12 291.713 453.278 291.331 453.559 291.05C453.841 290.768 454.222 290.61 454.62 290.61H455.62C456.018 290.61 456.399 290.768 456.681 291.05C456.962 291.331 457.12 291.713 457.12 292.11C457.12 292.508 456.962 292.89 456.681 293.171C456.399 293.452 456.018 293.61 455.62 293.61H454.62ZM461.56 293.61C461.162 293.61 460.781 293.452 460.499 293.171C460.218 292.89 460.06 292.508 460.06 292.11C460.06 291.713 460.218 291.331 460.499 291.05C460.781 290.768 461.162 290.61 461.56 290.61H462.56C462.958 290.61 463.339 290.768 463.621 291.05C463.902 291.331 464.06 291.713 464.06 292.11C464.06 292.508 463.902 292.89 463.621 293.171C463.339 293.452 462.958 293.61 462.56 293.61H461.56ZM468.5 293.61C468.102 293.61 467.721 293.452 467.439 293.171C467.158 292.89 467 292.508 467 292.11C467 291.713 467.158 291.331 467.439 291.05C467.721 290.768 468.102 290.61 468.5 290.61H469.5C469.898 290.61 470.279 290.768 470.561 291.05C470.842 291.331 471 291.713 471 292.11C471 292.508 470.842 292.89 470.561 293.171C470.279 293.452 469.898 293.61 469.5 293.61H468.5ZM475.44 293.61C475.042 293.61 474.661 293.452 474.379 293.171C474.098 292.89 473.94 292.508 473.94 292.11C473.94 291.713 474.098 291.331 474.379 291.05C474.661 290.768 475.042 290.61 475.44 290.61H476.44C476.838 290.61 477.219 290.768 477.501 291.05C477.782 291.331 477.94 291.713 477.94 292.11C477.94 292.508 477.782 292.89 477.501 293.171C477.219 293.452 476.838 293.61 476.44 293.61H475.44ZM482.38 293.61C481.982 293.61 481.601 293.452 481.319 293.171C481.038 292.89 480.88 292.508 480.88 292.11C480.88 291.713 481.038 291.331 481.319 291.05C481.601 290.768 481.982 290.61 482.38 290.61H483.38C483.778 290.61 484.159 290.768 484.441 291.05C484.722 291.331 484.88 291.713 484.88 292.11C484.88 292.508 484.722 292.89 484.441 293.171C484.159 293.452 483.778 293.61 483.38 293.61H482.38ZM489.32 293.61C488.922 293.61 488.541 293.452 488.259 293.171C487.978 292.89 487.82 292.508 487.82 292.11C487.82 291.713 487.978 291.331 488.259 291.05C488.541 290.768 488.922 290.61 489.32 290.61H490.32C490.718 290.61 491.099 290.768 491.381 291.05C491.662 291.331 491.82 291.713 491.82 292.11C491.82 292.508 491.662 292.89 491.381 293.171C491.099 293.452 490.718 293.61 490.32 293.61H489.32ZM496.26 293.61C495.862 293.61 495.481 293.452 495.199 293.171C494.918 292.89 494.76 292.508 494.76 292.11C494.76 291.713 494.918 291.331 495.199 291.05C495.481 290.768 495.862 290.61 496.26 290.61H497.26C497.658 290.61 498.039 290.768 498.321 291.05C498.602 291.331 498.76 291.713 498.76 292.11C498.76 292.508 498.602 292.89 498.321 293.171C498.039 293.452 497.658 293.61 497.26 293.61H496.26ZM503.2 293.61C502.802 293.61 502.421 293.452 502.139 293.171C501.858 292.89 501.7 292.508 501.7 292.11C501.7 291.713 501.858 291.331 502.139 291.05C502.421 290.768 502.802 290.61 503.2 290.61H504.2C504.598 290.61 504.979 290.768 505.261 291.05C505.542 291.331 505.7 291.713 505.7 292.11C505.7 292.508 505.542 292.89 505.261 293.171C504.979 293.452 504.598 293.61 504.2 293.61H503.2ZM510.14 293.61C509.742 293.61 509.361 293.452 509.079 293.171C508.798 292.89 508.64 292.508 508.64 292.11C508.64 291.713 508.798 291.331 509.079 291.05C509.361 290.768 509.742 290.61 510.14 290.61H511.14C511.538 290.61 511.919 290.768 512.201 291.05C512.482 291.331 512.64 291.713 512.64 292.11C512.64 292.508 512.482 292.89 512.201 293.171C511.919 293.452 511.538 293.61 511.14 293.61H510.14ZM517.08 293.31C516.682 293.31 516.301 293.152 516.019 292.871C515.738 292.59 515.58 292.208 515.58 291.81C515.58 291.413 515.738 291.031 516.019 290.75C516.301 290.468 516.682 290.31 517.08 290.31H517.58C517.978 290.31 518.359 290.468 518.641 290.75C518.922 291.031 519.08 291.413 519.08 291.81C519.08 292.208 518.922 292.59 518.641 292.871C518.359 293.152 517.978 293.31 517.58 293.31H517.08ZM355.36 272.81C355.127 272.81 354.898 272.756 354.689 272.652C354.481 272.548 354.3 272.397 354.16 272.21L315.5 220.96L317.68 220.4C352.4 211.53 364.08 180.4 360.22 155.27C356.09 128.27 334.32 101.97 295.05 104.09C294.853 104.101 294.656 104.072 294.47 104.007C294.284 103.941 294.113 103.839 293.966 103.708C293.819 103.576 293.7 103.416 293.615 103.238C293.53 103.06 293.481 102.867 293.47 102.67C293.46 102.473 293.488 102.276 293.554 102.09C293.619 101.904 293.721 101.733 293.853 101.586C293.985 101.44 294.144 101.32 294.322 101.235C294.5 101.15 294.693 101.101 294.89 101.09C336.02 98.8904 358.89 126.49 363.19 154.81C365.518 169.123 362.841 183.801 355.61 196.37C348.03 209.21 335.95 218.27 320.61 222.72L356.61 270.4C356.777 270.623 356.879 270.888 356.904 271.166C356.929 271.443 356.876 271.722 356.752 271.971C356.627 272.22 356.436 272.43 356.199 272.576C355.962 272.723 355.689 272.8 355.41 272.8L355.36 272.81ZM470.36 193.28H469.36C468.962 193.28 468.581 193.122 468.299 192.841C468.018 192.56 467.86 192.178 467.86 191.78C467.86 191.383 468.018 191.001 468.299 190.72C468.581 190.438 468.962 190.28 469.36 190.28H470.36C470.758 190.28 471.139 190.438 471.421 190.72C471.702 191.001 471.86 191.383 471.86 191.78C471.86 192.178 471.702 192.56 471.421 192.841C471.139 193.122 470.758 193.28 470.36 193.28V193.28ZM463.36 193.28H462.36C461.962 193.28 461.581 193.122 461.299 192.841C461.018 192.56 460.86 192.178 460.86 191.78C460.86 191.383 461.018 191.001 461.299 190.72C461.581 190.438 461.962 190.28 462.36 190.28H463.36C463.758 190.28 464.139 190.438 464.421 190.72C464.702 191.001 464.86 191.383 464.86 191.78C464.86 192.178 464.702 192.56 464.421 192.841C464.139 193.122 463.758 193.28 463.36 193.28V193.28ZM456.36 193.28H455.36C454.962 193.28 454.581 193.122 454.299 192.841C454.018 192.56 453.86 192.178 453.86 191.78C453.86 191.383 454.018 191.001 454.299 190.72C454.581 190.438 454.962 190.28 455.36 190.28H456.36C456.758 190.28 457.139 190.438 457.421 190.72C457.702 191.001 457.86 191.383 457.86 191.78C457.86 192.178 457.702 192.56 457.421 192.841C457.139 193.122 456.758 193.28 456.36 193.28V193.28ZM449.36 193.28H448.36C447.962 193.28 447.581 193.122 447.299 192.841C447.018 192.56 446.86 192.178 446.86 191.78C446.86 191.383 447.018 191.001 447.299 190.72C447.581 190.438 447.962 190.28 448.36 190.28H449.36C449.758 190.28 450.139 190.438 450.421 190.72C450.702 191.001 450.86 191.383 450.86 191.78C450.86 192.178 450.702 192.56 450.421 192.841C450.139 193.122 449.758 193.28 449.36 193.28V193.28ZM447.88 187.76C447.482 187.76 447.101 187.602 446.819 187.321C446.538 187.04 446.38 186.658 446.38 186.26V185.26C446.38 184.863 446.538 184.481 446.819 184.2C447.101 183.918 447.482 183.76 447.88 183.76C448.278 183.76 448.659 183.918 448.941 184.2C449.222 184.481 449.38 184.863 449.38 185.26V186.26C449.38 186.658 449.222 187.04 448.941 187.321C448.659 187.602 448.278 187.76 447.88 187.76ZM447.88 180.76C447.482 180.76 447.101 180.602 446.819 180.321C446.538 180.04 446.38 179.658 446.38 179.26V178.26C446.38 177.863 446.538 177.481 446.819 177.2C447.101 176.918 447.482 176.76 447.88 176.76C448.278 176.76 448.659 176.918 448.941 177.2C449.222 177.481 449.38 177.863 449.38 178.26V179.26C449.38 179.658 449.222 180.04 448.941 180.321C448.659 180.602 448.278 180.76 447.88 180.76ZM447.88 173.76C447.482 173.76 447.101 173.602 446.819 173.321C446.538 173.04 446.38 172.658 446.38 172.26V171.26C446.38 170.863 446.538 170.481 446.819 170.2C447.101 169.918 447.482 169.76 447.88 169.76C448.278 169.76 448.659 169.918 448.941 170.2C449.222 170.481 449.38 170.863 449.38 171.26V172.26C449.38 172.658 449.222 173.04 448.941 173.321C448.659 173.602 448.278 173.76 447.88 173.76ZM447.88 166.76C447.482 166.76 447.101 166.602 446.819 166.321C446.538 166.04 446.38 165.658 446.38 165.26V164.26C446.38 163.863 446.538 163.481 446.819 163.2C447.101 162.918 447.482 162.76 447.88 162.76C448.278 162.76 448.659 162.918 448.941 163.2C449.222 163.481 449.38 163.863 449.38 164.26V165.26C449.38 165.658 449.222 166.04 448.941 166.321C448.659 166.602 448.278 166.76 447.88 166.76ZM447.88 159.76C447.482 159.76 447.101 159.602 446.819 159.321C446.538 159.04 446.38 158.658 446.38 158.26V157.26C446.38 156.863 446.538 156.481 446.819 156.2C447.101 155.918 447.482 155.76 447.88 155.76C448.278 155.76 448.659 155.918 448.941 156.2C449.222 156.481 449.38 156.863 449.38 157.26V158.26C449.38 158.658 449.222 159.04 448.941 159.321C448.659 159.602 448.278 159.76 447.88 159.76ZM447.88 152.76C447.482 152.76 447.101 152.602 446.819 152.321C446.538 152.04 446.38 151.658 446.38 151.26V150.26C446.38 149.863 446.538 149.481 446.819 149.2C447.101 148.918 447.482 148.76 447.88 148.76C448.278 148.76 448.659 148.918 448.941 149.2C449.222 149.481 449.38 149.863 449.38 150.26V151.26C449.38 151.658 449.222 152.04 448.941 152.321C448.659 152.602 448.278 152.76 447.88 152.76ZM447.88 145.76C447.482 145.76 447.101 145.602 446.819 145.321C446.538 145.04 446.38 144.658 446.38 144.26V143.26C446.38 142.863 446.538 142.481 446.819 142.2C447.101 141.918 447.482 141.76 447.88 141.76C448.278 141.76 448.659 141.918 448.941 142.2C449.222 142.481 449.38 142.863 449.38 143.26V144.26C449.38 144.658 449.222 145.04 448.941 145.321C448.659 145.602 448.278 145.76 447.88 145.76ZM447.88 138.76C447.482 138.76 447.101 138.602 446.819 138.321C446.538 138.04 446.38 137.658 446.38 137.26V136.26C446.38 135.863 446.538 135.481 446.819 135.2C447.101 134.918 447.482 134.76 447.88 134.76C448.278 134.76 448.659 134.918 448.941 135.2C449.222 135.481 449.38 135.863 449.38 136.26V137.26C449.38 137.658 449.222 138.04 448.941 138.321C448.659 138.602 448.278 138.76 447.88 138.76Z" fill="white"/>
<path d="M528.72 243.35L522.88 240.62C522.71 240.548 522.521 240.533 522.341 240.576C522.161 240.619 522 240.719 521.88 240.86L520.1 243C518.779 242.784 517.436 242.724 516.1 242.82L514.56 240.52C514.453 240.363 514.297 240.246 514.116 240.186C513.935 240.127 513.74 240.128 513.56 240.19L507.5 242.39C507.319 242.458 507.166 242.584 507.064 242.749C506.963 242.914 506.919 243.108 506.94 243.3L507.24 246.06C506.155 246.842 505.165 247.748 504.29 248.76L501.56 248.22C501.364 248.171 501.156 248.192 500.974 248.28C500.791 248.367 500.645 248.516 500.56 248.7L497.83 254.54C497.759 254.71 497.744 254.899 497.787 255.079C497.83 255.259 497.929 255.42 498.07 255.54L500.23 257.28C500.015 258.602 499.954 259.944 500.05 261.28L497.75 262.82C497.594 262.928 497.476 263.084 497.417 263.264C497.357 263.445 497.358 263.64 497.42 263.82L499.62 269.88C499.688 270.061 499.814 270.215 499.979 270.316C500.144 270.417 500.338 270.461 500.53 270.44L503.29 270.14C504.072 271.225 504.979 272.215 505.99 273.09L505.45 275.82C505.401 276.016 505.423 276.224 505.51 276.406C505.598 276.589 505.746 276.735 505.93 276.82L511.77 279.55C511.941 279.623 512.13 279.639 512.31 279.596C512.49 279.553 512.652 279.452 512.77 279.31L514.51 277.15C515.832 277.366 517.175 277.426 518.51 277.33L520.05 279.63C520.158 279.787 520.314 279.904 520.495 279.963C520.675 280.023 520.87 280.022 521.05 279.96L527.11 277.76C527.292 277.692 527.445 277.566 527.546 277.401C527.648 277.236 527.691 277.042 527.67 276.85L527.37 274.09C528.455 273.308 529.446 272.402 530.32 271.39L533.05 271.93C533.247 271.979 533.454 271.958 533.637 271.87C533.819 271.782 533.966 271.634 534.05 271.45L536.78 265.61C536.852 265.439 536.867 265.25 536.824 265.071C536.781 264.891 536.681 264.729 536.54 264.61L534.38 262.87C534.596 261.548 534.656 260.206 534.56 258.87L536.86 257.33C537.017 257.222 537.134 257.066 537.194 256.885C537.253 256.705 537.252 256.51 537.19 256.33L534.99 250.27C534.923 250.089 534.796 249.935 534.631 249.834C534.467 249.732 534.273 249.689 534.08 249.71L531.32 250.01C530.538 248.925 529.632 247.935 528.62 247.06L529.16 244.33C529.209 244.133 529.188 243.926 529.1 243.743C529.013 243.561 528.864 243.415 528.68 243.33L528.72 243.35ZM520.42 268.58C518.748 269.183 516.934 269.277 515.207 268.85C513.481 268.423 511.92 267.494 510.722 266.181C509.523 264.868 508.74 263.229 508.472 261.471C508.203 259.713 508.462 257.915 509.214 256.304C509.967 254.693 511.18 253.341 512.7 252.419C514.22 251.496 515.98 251.045 517.756 251.121C519.533 251.198 521.247 251.799 522.682 252.849C524.117 253.899 525.209 255.35 525.82 257.02C526.228 258.133 526.411 259.316 526.36 260.501C526.309 261.685 526.025 262.848 525.523 263.922C525.021 264.996 524.312 265.961 523.436 266.76C522.561 267.559 521.536 268.178 520.42 268.58Z" fill="white"/>
<path d="M74.74 293.1H0L44.86 269.65C45.0351 269.554 45.2277 269.493 45.4264 269.472C45.6252 269.451 45.8262 269.47 46.0175 269.528C46.2089 269.586 46.3868 269.681 46.5408 269.808C46.6948 269.936 46.8218 270.093 46.9144 270.27C47.007 270.447 47.0632 270.641 47.0799 270.84C47.0965 271.039 47.0732 271.24 47.0113 271.43C46.9494 271.62 46.8502 271.795 46.7195 271.947C46.5887 272.098 46.4291 272.221 46.25 272.31L12.25 290.11H74.75C75.1478 290.11 75.5294 290.268 75.8107 290.549C76.092 290.831 76.25 291.212 76.25 291.61C76.25 292.008 76.092 292.389 75.8107 292.671C75.5294 292.952 75.1478 293.11 74.75 293.11L74.74 293.1ZM86.3 293.6C85.9022 293.6 85.5206 293.442 85.2393 293.161C84.958 292.879 84.8 292.498 84.8 292.1C84.8 291.702 84.958 291.321 85.2393 291.039C85.5206 290.758 85.9022 290.6 86.3 290.6L132.18 290.1C132.578 290.1 132.959 290.258 133.241 290.539C133.522 290.821 133.68 291.202 133.68 291.6C133.68 291.998 133.522 292.379 133.241 292.661C132.959 292.942 132.578 293.1 132.18 293.1L86.3 293.6V293.6Z" fill="white"/>
<path d="M161.499 293.1H145.699C145.301 293.1 144.92 292.942 144.639 292.661C144.357 292.38 144.199 291.998 144.199 291.6C144.199 291.203 144.357 290.821 144.639 290.54C144.92 290.258 145.301 290.1 145.699 290.1H161.499C161.897 290.1 162.279 290.258 162.56 290.54C162.841 290.821 162.999 291.203 162.999 291.6C162.999 291.998 162.841 292.38 162.56 292.661C162.279 292.942 161.897 293.1 161.499 293.1ZM42.1992 264.42L49.0692 277.08L59.0292 263.28L42.1992 264.42ZM46.5392 123.88C46.1414 123.88 45.7599 123.722 45.4786 123.441C45.1973 123.16 45.0392 122.778 45.0392 122.38V109.48C45.0392 109.083 45.1973 108.701 45.4786 108.42C45.7599 108.139 46.1414 107.98 46.5392 107.98C46.937 107.98 47.3186 108.139 47.5999 108.42C47.8812 108.701 48.0392 109.083 48.0392 109.48V122.38C48.0392 122.778 47.8812 123.16 47.5999 123.441C47.3186 123.722 46.937 123.88 46.5392 123.88V123.88Z" fill="white"/>
<path d="M52.9996 117.431H40.0996C39.7018 117.431 39.3203 117.273 39.039 116.991C38.7576 116.71 38.5996 116.328 38.5996 115.931C38.5996 115.533 38.7576 115.151 39.039 114.87C39.3203 114.589 39.7018 114.431 40.0996 114.431H52.9996C53.3974 114.431 53.779 114.589 54.0603 114.87C54.3416 115.151 54.4996 115.533 54.4996 115.931C54.4996 116.328 54.3416 116.71 54.0603 116.991C53.779 117.273 53.3974 117.431 52.9996 117.431V117.431ZM73.7596 117.431H60.8596C60.4618 117.431 60.0803 117.273 59.799 116.991C59.5176 116.71 59.3596 116.328 59.3596 115.931C59.3596 115.533 59.5176 115.151 59.799 114.87C60.0803 114.589 60.4618 114.431 60.8596 114.431H73.7596C74.1574 114.431 74.539 114.589 74.8203 114.87C75.1016 115.151 75.2596 115.533 75.2596 115.931C75.2596 116.328 75.1016 116.71 74.8203 116.991C74.539 117.273 74.1574 117.431 73.7596 117.431V117.431ZM41.7796 144.001C41.4776 143.999 41.1832 143.906 40.9348 143.734C40.6865 143.562 40.4958 143.319 40.3878 143.037C40.2797 142.755 40.2593 142.447 40.3292 142.153C40.3991 141.86 40.5561 141.594 40.7796 141.391L50.2996 132.691C50.4392 132.532 50.6108 132.405 50.803 132.317C50.9953 132.229 51.2039 132.183 51.4153 132.181C51.6266 132.18 51.8359 132.223 52.0294 132.308C52.2229 132.393 52.3962 132.518 52.538 132.675C52.6798 132.832 52.7869 133.017 52.8523 133.218C52.9176 133.419 52.9398 133.631 52.9173 133.841C52.8948 134.051 52.8281 134.254 52.7217 134.437C52.6152 134.62 52.4714 134.778 52.2996 134.901L42.7796 143.601C42.5078 143.854 42.1512 143.997 41.7796 144.001V144.001Z" fill="white"/>
<path d="M50.8994 144.4C50.6904 144.401 50.4838 144.357 50.2926 144.273C50.1015 144.188 49.9301 144.065 49.7894 143.91L41.0894 134.39C40.8748 134.091 40.7779 133.723 40.8171 133.357C40.8564 132.991 41.029 132.652 41.3021 132.404C41.5752 132.157 41.9297 132.019 42.2981 132.017C42.6664 132.014 43.0228 132.147 43.2994 132.39L51.9994 141.89C52.1952 142.105 52.3243 142.373 52.3709 142.66C52.4176 142.947 52.3798 143.241 52.2622 143.507C52.1446 143.773 51.9522 143.999 51.7085 144.158C51.4648 144.316 51.1802 144.401 50.8894 144.4H50.8994ZM71.3994 139.65H58.4994C58.1016 139.65 57.72 139.492 57.4387 139.211C57.1574 138.93 56.9994 138.548 56.9994 138.15C56.9994 137.753 57.1574 137.371 57.4387 137.09C57.72 136.808 58.1016 136.65 58.4994 136.65H71.3994C71.7972 136.65 72.1787 136.808 72.46 137.09C72.7413 137.371 72.8994 137.753 72.8994 138.15C72.8994 138.548 72.7413 138.93 72.46 139.211C72.1787 139.492 71.7972 139.65 71.3994 139.65V139.65Z" fill="white"/>
<path d="M64.9609 135.45C66.1096 135.45 67.0409 134.519 67.0409 133.37C67.0409 132.221 66.1096 131.29 64.9609 131.29C63.8121 131.29 62.8809 132.221 62.8809 133.37C62.8809 134.519 63.8121 135.45 64.9609 135.45Z" fill="white"/>
<path d="M64.9609 144.99C66.1096 144.99 67.0409 144.059 67.0409 142.91C67.0409 141.761 66.1096 140.83 64.9609 140.83C63.8121 140.83 62.8809 141.761 62.8809 142.91C62.8809 144.059 63.8121 144.99 64.9609 144.99Z" fill="white"/>
<path d="M297.7 344.601H260L223.34 325.371C223.121 325.254 222.877 325.193 222.63 325.193C222.382 325.193 222.138 325.254 221.92 325.371L186.52 344.791C186.279 344.918 186.078 345.109 185.937 345.343C185.797 345.576 185.723 345.843 185.723 346.116C185.723 346.388 185.797 346.655 185.937 346.889C186.078 347.122 186.279 347.313 186.52 347.441L221.9 365.761C222.109 365.866 222.34 365.921 222.575 365.921C222.809 365.921 223.04 365.866 223.25 365.761L260 347.601H297.7C298.097 347.601 298.479 347.443 298.76 347.161C299.041 346.88 299.2 346.499 299.2 346.101C299.2 345.703 299.041 345.321 298.76 345.04C298.479 344.759 298.097 344.601 297.7 344.601V344.601ZM222.6 362.751L190.4 346.081L222.6 328.411L256.3 346.081L222.6 362.751Z" fill="white"/>
<path d="M232.44 345H210.18C209.566 345 208.977 344.756 208.543 344.322C208.109 343.888 207.865 343.299 207.865 342.685C207.865 342.071 208.109 341.482 208.543 341.048C208.977 340.614 209.566 340.37 210.18 340.37H232.45C233.064 340.37 233.653 340.614 234.087 341.048C234.521 341.482 234.765 342.071 234.765 342.685C234.765 343.299 234.521 343.888 234.087 344.322C233.653 344.756 233.064 345 232.45 345H232.44ZM232.44 351.9H216.54C215.926 351.9 215.337 351.656 214.903 351.222C214.469 350.788 214.225 350.199 214.225 349.585C214.225 348.971 214.469 348.382 214.903 347.948C215.337 347.514 215.926 347.27 216.54 347.27H232.44C232.744 347.27 233.045 347.33 233.326 347.446C233.607 347.563 233.862 347.733 234.077 347.948C234.292 348.163 234.463 348.418 234.579 348.699C234.695 348.98 234.755 349.281 234.755 349.585C234.755 349.889 234.695 350.19 234.579 350.471C234.463 350.752 234.292 351.007 234.077 351.222C233.862 351.437 233.607 351.608 233.326 351.724C233.045 351.84 232.744 351.9 232.44 351.9V351.9Z" fill="white"/>
<path d="M395.861 304.3H298.301C297.839 304.3 297.397 304.117 297.071 303.791C296.744 303.464 296.561 303.022 296.561 302.56C296.561 302.099 296.744 301.656 297.071 301.33C297.397 301.003 297.839 300.82 298.301 300.82H343.601C344.988 300.82 346.318 300.269 347.299 299.288C348.28 298.308 348.831 296.977 348.831 295.59V285.77C349.769 285.368 350.539 284.655 351.012 283.751C351.484 282.847 351.631 281.807 351.425 280.808C351.22 279.808 350.677 278.91 349.886 278.265C349.095 277.62 348.106 277.268 347.086 277.268C346.066 277.268 345.077 277.62 344.286 278.265C343.495 278.91 342.952 279.808 342.746 280.808C342.541 281.807 342.687 282.847 343.16 283.751C343.633 284.655 344.403 285.368 345.341 285.77V295.59C345.341 296.052 345.158 296.494 344.831 296.821C344.505 297.147 344.062 297.33 343.601 297.33H298.541C297.215 297.307 295.927 297.774 294.923 298.641C293.919 299.508 293.271 300.715 293.101 302.03C293.028 302.757 293.109 303.491 293.337 304.184C293.565 304.878 293.936 305.516 294.426 306.058C294.916 306.6 295.514 307.033 296.181 307.329C296.849 307.626 297.571 307.78 298.301 307.78H395.861C396.322 307.78 396.765 307.963 397.091 308.29C397.418 308.616 397.601 309.059 397.601 309.52C397.601 309.982 397.418 310.424 397.091 310.751C396.765 311.077 396.322 311.26 395.861 311.26H350.561C349.174 311.26 347.844 311.811 346.863 312.792C345.882 313.773 345.331 315.103 345.331 316.49V319.99H296.561V366.99H397.561V319.99H348.821V316.51C348.821 316.049 349.004 315.606 349.331 315.28C349.657 314.953 350.099 314.77 350.561 314.77H395.621C396.947 314.793 398.235 314.327 399.239 313.46C400.243 312.592 400.891 311.386 401.061 310.07C401.14 309.34 401.064 308.602 400.838 307.904C400.613 307.205 400.243 306.562 399.752 306.016C399.262 305.469 398.662 305.033 397.991 304.734C397.321 304.435 396.595 304.28 395.861 304.28V304.3ZM394.121 323.46V363.53H300.001V323.47L394.121 323.46ZM307.001 328.68H313.971V332.18H307.001V328.68ZM319.201 328.68H326.171V332.18H319.201V328.68ZM331.401 328.68H338.371V332.18H331.401V328.68ZM343.601 328.68H350.571V332.18H343.601V328.68ZM355.801 328.68H362.771V332.18H355.801V328.68ZM367.981 328.68H374.951V332.18H367.981V328.68ZM380.181 328.68H387.151V332.18H380.181V328.68ZM307.001 337.4H313.971V340.88H307.001V337.4ZM319.201 337.4H326.171V340.88H319.201V337.4ZM331.401 337.4H338.371V340.88H331.401V337.4ZM343.601 337.4H350.571V340.88H343.601V337.4ZM355.801 337.4H362.771V340.88H355.801V337.4ZM367.981 337.4H374.951V340.88H367.981V337.4ZM380.181 337.4H387.151V340.88H380.181V337.4ZM307.001 346.1H313.971V349.58H307.001V346.1ZM319.201 346.1H326.171V349.58H319.201V346.1ZM331.401 346.1H338.371V349.58H331.401V346.1ZM343.601 346.1H350.571V349.58H343.601V346.1ZM355.801 346.1H362.771V349.58H355.801V346.1ZM367.981 346.1H374.951V349.58H367.981V346.1ZM380.181 346.1H387.151V349.58H380.181V346.1ZM307.001 354.82H313.971V358.32H307.001V354.82ZM319.201 354.82H374.951V358.32H319.201V354.82ZM380.181 354.82H387.151V358.32H380.181V354.82ZM563.601 90.3302V48.3302C563.596 42.7189 561.365 37.3388 557.398 33.3701C553.431 29.4014 548.052 27.1681 542.441 27.1602H286.801C281.19 27.1681 275.811 29.4014 271.844 33.3701C267.877 37.3388 265.646 42.7189 265.641 48.3302V107.73C264.66 108.083 263.834 108.771 263.311 109.673C262.787 110.575 262.598 111.632 262.777 112.66C262.956 113.687 263.492 114.618 264.29 115.289C265.089 115.961 266.098 116.328 267.141 116.328C268.184 116.328 269.193 115.961 269.992 115.289C270.79 114.618 271.326 113.687 271.505 112.66C271.684 111.632 271.495 110.575 270.971 109.673C270.447 108.771 269.622 108.083 268.641 107.73V48.3302C268.644 43.5137 270.557 38.8952 273.962 35.4885C277.367 32.0818 281.984 30.1655 286.801 30.1602H542.441C547.257 30.1655 551.875 32.0818 555.28 35.4885C558.684 38.8952 560.598 43.5137 560.601 48.3302V90.3302C559.62 90.6833 558.794 91.3713 558.271 92.273C557.747 93.1748 557.558 94.2324 557.737 95.2598C557.916 96.2872 558.452 97.2184 559.25 97.8895C560.049 98.5605 561.058 98.9285 562.101 98.9285C563.144 98.9285 564.153 98.5605 564.952 97.8895C565.75 97.2184 566.286 96.2872 566.465 95.2598C566.644 94.2324 566.455 93.1748 565.931 92.273C565.407 91.3713 564.582 90.6833 563.601 90.3302Z" fill="white"/>
</svg>
