<svg width="1" height="1" viewBox="0 0 1 1" fill="none" xmlns="../../external.html?link=http://www.w3.org/2000/svg">
<path d="M0.318359 0.848088C0.318359 0.843799 0.319204 0.839552 0.320845 0.83559C0.322487 0.831628 0.324892 0.828028 0.327925 0.824995C0.330957 0.821962 0.334558 0.819557 0.33852 0.817916C0.342482 0.816274 0.346729 0.81543 0.351018 0.81543C0.355306 0.81543 0.359553 0.816274 0.363515 0.817916C0.367478 0.819557 0.371078 0.821962 0.37411 0.824995C0.377143 0.828028 0.379548 0.831628 0.38119 0.83559C0.382831 0.839552 0.383676 0.843799 0.383676 0.848088C0.383676 0.852377 0.382831 0.856623 0.38119 0.860586C0.379548 0.864548 0.377143 0.868148 0.37411 0.871181C0.371078 0.874213 0.367478 0.876619 0.363515 0.87826C0.359553 0.879901 0.355306 0.880746 0.351018 0.880746C0.346729 0.880746 0.342482 0.879901 0.33852 0.87826C0.334558 0.876619 0.330957 0.874213 0.327925 0.871181C0.324892 0.868148 0.322487 0.864548 0.320845 0.860586C0.319204 0.856623 0.318359 0.852377 0.318359 0.848088" stroke="white" stroke-width="0.0248036" stroke-miterlimit="10" stroke-linecap="round" stroke-linejoin="round" stroke-dasharray="0.21 0.21"/>
<path d="M0.59041 0.696952V0.909023C0.59041 0.929279 0.573874 0.945815 0.553618 0.945815H0.155933C0.135676 0.945815 0.119141 0.929279 0.119141 0.909023V0.090503C0.119141 0.0702467 0.135676 0.0537109 0.155933 0.0537109H0.553618C0.573874 0.0537109 0.59041 0.0702467 0.59041 0.090503V0.302574" stroke="white" stroke-width="0.0248036" stroke-miterlimit="10" stroke-linecap="round" stroke-linejoin="round" stroke-dasharray="2.27 2.28"/>
<path d="M0.797453 0.64793H0.469218C0.465304 0.647947 0.461427 0.647188 0.457808 0.645698C0.454189 0.644208 0.450902 0.642016 0.448135 0.639249C0.445367 0.636482 0.443176 0.633194 0.441686 0.629576C0.440196 0.625957 0.439437 0.622079 0.439453 0.618166V0.378397C0.439437 0.374484 0.440196 0.370606 0.441686 0.366988C0.443176 0.363369 0.445367 0.360081 0.448135 0.357314C0.450902 0.354547 0.454189 0.352355 0.457808 0.350865C0.461427 0.349375 0.465304 0.348617 0.469218 0.348633H0.797453C0.801366 0.348617 0.805244 0.349375 0.808862 0.350865C0.812481 0.352355 0.815769 0.354547 0.818536 0.357314C0.821303 0.360081 0.823495 0.363369 0.824985 0.366988C0.826475 0.370606 0.827233 0.374484 0.827217 0.378397V0.618166C0.827233 0.622079 0.826475 0.625957 0.824985 0.629576C0.823495 0.633194 0.821303 0.636482 0.818536 0.639249C0.815769 0.642016 0.812481 0.644208 0.808862 0.645698C0.805244 0.647188 0.801366 0.647947 0.797453 0.64793V0.64793Z" stroke="white" stroke-width="0.0248036" stroke-miterlimit="10" stroke-linecap="round" stroke-linejoin="round" stroke-dasharray="1.33 1.34"/>
<path d="M0.848179 0.874042H0.690676C0.670833 0.874042 0.654297 0.85792 0.654297 0.837664V0.74341C0.654297 0.723567 0.670419 0.707031 0.690676 0.707031H0.848179C0.868022 0.707031 0.884557 0.723154 0.884557 0.74341V0.837664C0.884144 0.85792 0.868022 0.874042 0.848179 0.874042Z" stroke="white" stroke-width="0.0248036" stroke-miterlimit="10" stroke-linecap="round" stroke-linejoin="round" stroke-dasharray="0.74 0.74"/>
<path d="M0.853553 0.274433H0.685301C0.668352 0.274433 0.654297 0.260791 0.654297 0.243428V0.138426C0.654297 0.121477 0.667939 0.107422 0.685301 0.107422H0.853553C0.870502 0.107422 0.884557 0.121064 0.884557 0.138426V0.243428C0.884144 0.260378 0.870502 0.274433 0.853553 0.274433Z" stroke="white" stroke-width="0.0248036" stroke-miterlimit="10" stroke-linecap="round" stroke-linejoin="round" stroke-dasharray="0.74 0.75"/>
<path d="M0.119141 0.763933H0.58917M0.119141 0.166992H0.58917H0.119141Z" stroke="white" stroke-width="0.0248036" stroke-miterlimit="10" stroke-linecap="round" stroke-linejoin="round" stroke-dasharray="0.47 0.48"/>
<path d="M0.296875 0.111328H0.413039" stroke="white" stroke-width="0.0248036" stroke-miterlimit="10" stroke-linecap="round" stroke-linejoin="round" stroke-dasharray="0.12 0.13"/>
<path d="M0.666016 0.720517L0.764817 0.80857L0.871472 0.716797" stroke="white" stroke-width="0.0248036" stroke-miterlimit="10" stroke-linecap="round" stroke-linejoin="round" stroke-dasharray="0.28 0.29"/>
<path d="M0.740234 0.157227V0.233291L0.815472 0.193605L0.740234 0.157227Z" stroke="white" stroke-width="0.0248036" stroke-miterlimit="10" stroke-linecap="round" stroke-linejoin="round" stroke-dasharray="0.25 0.26"/>
<path d="M0.573374 0.593553H0.551878C0.548486 0.593531 0.545239 0.592174 0.54284 0.589776C0.540441 0.587377 0.539084 0.58413 0.539062 0.580738V0.489378C0.539084 0.485986 0.540441 0.482739 0.54284 0.48034C0.545239 0.477941 0.548486 0.476584 0.551878 0.476562H0.573374C0.576766 0.476584 0.580013 0.477941 0.582412 0.48034C0.584811 0.482739 0.586168 0.485986 0.586189 0.489378V0.580738C0.586168 0.58413 0.584811 0.587377 0.582412 0.589776C0.580013 0.592174 0.576766 0.593531 0.573374 0.593553V0.593553Z" stroke="white" stroke-width="0.0248036" stroke-miterlimit="10" stroke-linecap="round" stroke-linejoin="round" stroke-dasharray="0.31 0.32"/>
<path d="M0.589844 0.575406C0.589844 0.575406 0.593564 0.584087 0.610927 0.585328C0.628289 0.586981 0.694846 0.585741 0.694846 0.585741C0.694846 0.585741 0.708488 0.583674 0.711382 0.573339C0.714275 0.563004 0.727917 0.487353 0.727917 0.487353C0.727917 0.487353 0.731638 0.474951 0.715515 0.474538L0.647719 0.473298L0.651853 0.429065C0.651853 0.429065 0.65392 0.410875 0.63325 0.401367C0.628289 0.403021 0.624155 0.405501 0.624155 0.405501C0.624155 0.405501 0.625809 0.449734 0.593151 0.484459" stroke="white" stroke-width="0.0248036" stroke-miterlimit="10" stroke-linecap="round" stroke-linejoin="round" stroke-dasharray="0.48 0.49"/>
</svg>
