<svg xmlns="http://www.w3.org/2000/svg" xmlns:xlink="http://www.w3.org/1999/xlink" width="100%" height="100%" viewBox="0 0 296.2 229.7"><style><![CDATA[.D{stroke-dasharray:175, 177}.E{stroke-dasharray:36, 38}.F{stroke-dasharray:43, 45}]]></style><path d="M19.4 26a3.6 3.6 0 1 1 7.2 0 3.6 3.6 0 1 1-7.2 0m16.2 0a3.6 3.6 0 1 1 7.2 0 3.6 3.6 0 1 1-7.2 0m15.3 0a3.6 3.6 0 1 1 7.2 0 3.6 3.6 0 1 1-7.2 0" fill="#5b5bd5"/><g fill="none" stroke="#5b5bd5" stroke-linecap="round" stroke-linejoin="round" stroke-miterlimit="10" stroke-width="6"><path d="M275.4 12.2H17.9c-4.9 0-8.9 4-8.9 8.9v189.4c0 4.9 4 8.9 8.9 8.9h257.5c4.9 0 8.9-4 8.9-8.9V21.1c0-4.9-4-8.9-8.9-8.9z" stroke-dasharray="950, 952"/><path d="M9.5 36.8h274.9" stroke-dasharray="275, 277"/><path d="M75.5 83.9a7.1 7.1 0 1 1 14.2 0 7.1 7.1 0 1 1-14.2 0" stroke-dasharray="45, 47"/><path d="M31.2 102.3l-9.3 8.4 8.8 9.4m229.8 0l9.3-8.4-8.9-9.4" stroke-dasharray="26, 28"/><path d="M245.3 149.8H47.1c-2.4 0-4.4-2-4.4-4.4V67.1c0-2.4 2-4.4 4.4-4.4h198.2c2.4 0 4.4 2 4.4 4.4v78.3c0 2.4-2 4.4-4.4 4.4z" stroke-dasharray="581, 583"/><path d="M83.3 147.6c1-.5 36.7-36.4 36.7-36.4l37.2 37.4" stroke-dasharray="105, 107"/><path d="M131.2 120.3l34.1-33.1 60.4 61.2" stroke-dasharray="134, 136"/><path d="M96.1 198.5H46.3a3.37 3.37 0 0 1-3.4-3.4v-26.8a3.37 3.37 0 0 1 3.4-3.4h49.9a3.37 3.37 0 0 1 3.4 3.4v26.8c-.1 1.9-1.6 3.4-3.5 3.4z" class="D"/><path d="M51.9 197.3c.2-.2 12.9-12.5 12.9-12.5L77 197.5" class="E"/><path d="M69.1 188.2l10.5-10.7 18.8 19.4" class="F"/><use xlink:href="#A" class="D"/><use xlink:href="#B" class="E"/><path d="M144.3 188.2l10.6-10.7 18.7 19.4" class="F"/><use xlink:href="#A" x="74.2" class="D"/><use xlink:href="#B" x="74.2" class="E"/><path d="M218.5 188.2l10.6-10.7 18.7 19.4" class="F"/></g><defs><path id="A" d="M171.4 198.5h-49.9a3.37 3.37 0 0 1-3.4-3.4v-26.8a3.37 3.37 0 0 1 3.4-3.4h49.9a3.37 3.37 0 0 1 3.4 3.4v26.8a3.44 3.44 0 0 1-3.4 3.4z"/><path id="B" d="M127.2 197.3c.2-.2 12.9-12.5 12.9-12.5l12.1 12.7"/></defs></svg>