<svg xmlns="http://www.w3.org/2000/svg" viewBox="0 0 163.29 163.29" fill="#5b5bd5"><path d="M150.75 147.34a12.55 12.55 0 0 0 12.54-12.54V49.75a12.58 12.58 0 0 0-10-12.29l-.6-.12V25l-25-25H53.16v37.2H12.54A12.55 12.55 0 0 0 0 49.75v85.05a12.55 12.55 0 0 0 12.54 12.54h32.64v12.13H34.55v3.82h94.18v-3.82H118.1v-12.13zM126.08 3.86l22.72 22.72h-22.72zM57 3.82h65.3V30.4h26.58v86.55H57zM3.82 49.75A8.73 8.73 0 0 1 12.54 41h40.62v79.74h99.5V41.2l1 .36a8.73 8.73 0 0 1 5.81 8.19v77.83H3.82zM114.3 159.47H49v-12.13h65.3zM12.54 143.53a8.73 8.73 0 0 1-8.72-8.72v-3.4h155.65v3.4a8.73 8.73 0 0 1-8.72 8.72zm15.96-95.7A17.86 17.86 0 1 0 46.34 65.7a17.88 17.88 0 0 0-17.85-17.86zm3.4 12.54A3.41 3.41 0 1 1 28.49 57a3.41 3.41 0 0 1 3.4 3.38zM34 78.6a14 14 0 0 1-11 0l-.56-.24.12-.6a6.07 6.07 0 0 1 11.88 0l.12.6zm4.76-3.4L38 76l-.46-1a9.85 9.85 0 0 0-18.05 0l-.5 1-.77-.84a13.94 13.94 0 0 1 8.57-23.39l.2 1.53a7.22 7.22 0 1 0 2.91 0l.24-1.48a13.94 13.94 0 0 1 8.57 23.39z"/><path d="M28.5 85.05a17.86 17.86 0 1 0 17.86 17.86A17.88 17.88 0 0 0 28.5 85.05zm3.4 12.54a3.41 3.41 0 1 1-3.41-3.41 3.41 3.41 0 0 1 3.4 3.41zm2.1 18.23a14 14 0 0 1-11 0l-.56-.24.12-.6a6.07 6.07 0 0 1 11.88 0l.12.6zm4.76-3.4l-.77.84-.46-1a9.85 9.85 0 0 0-18.05 0l-.46 1-.77-.84A13.94 13.94 0 0 1 26.79 89l.2 1.52a7.22 7.22 0 1 0 2.91 0l.27-1.52a13.94 13.94 0 0 1 8.57 23.39zm62.44-95.68l-7 5v-5.8H69.1V41h25.07V26.43l9.22-6.6zm-10.82 7.73l-5.86 4.18L80.87 25l-2.7 2.7 5.93 5.93 6.27-4.48v8.06H72.92V19.76h17.45zm10.82 24.16l-7 5v-5.8H69.1V72.9h25.07V58.3l9.22-6.6zm-10.82 7.73l-5.86 4.18-3.64-3.64-2.7 2.7 5.93 5.93L90.37 61v8.06H72.92v-17.4h17.45zm10.82 24.17l-7 5v-5.8H69.1v25.08h25.07V90.2l9.22-6.6zm-10.82 7.73l-5.86 4.18-3.64-3.64-2.7 2.7 5.93 5.93 6.27-4.48V101H72.92V83.55h17.45zm15.94-51.06h30.4v3.82h-30.4zm0 31.9h30.4v3.82h-30.4zm0 31.9h30.4v3.82h-30.4zm0-10.63h30.4v3.82h-30.4zm0-31.9h30.4v3.82h-30.4zm0-31.9h9.13v3.82h-9.13z"/></svg>