<svg width="1" height="1" viewBox="0 0 1 1" fill="none" xmlns="../../external.html?link=http://www.w3.org/2000/svg">
<path d="M0.0664062 0.199654C0.0664062 0.196431 0.0676868 0.193339 0.0699661 0.19106C0.0722454 0.188781 0.0753368 0.1875 0.0785602 0.1875C0.0817836 0.1875 0.084875 0.188781 0.0871543 0.19106C0.0894336 0.193339 0.0907142 0.196431 0.0907142 0.199654C0.0907142 0.202877 0.0894336 0.205969 0.0871543 0.208248C0.084875 0.210527 0.0817836 0.211808 0.0785602 0.211808C0.0753368 0.211808 0.0722454 0.210527 0.0699661 0.208248C0.0676868 0.205969 0.0664062 0.202877 0.0664062 0.199654ZM0.121099 0.199654C0.121099 0.196431 0.12238 0.193339 0.124659 0.19106C0.126938 0.188781 0.13003 0.1875 0.133253 0.1875C0.136476 0.1875 0.139568 0.188781 0.141847 0.19106C0.144126 0.193339 0.145407 0.196431 0.145407 0.199654C0.145407 0.202877 0.144126 0.205969 0.141847 0.208248C0.139568 0.210527 0.136476 0.211808 0.133253 0.211808C0.13003 0.211808 0.126938 0.210527 0.124659 0.208248C0.12238 0.205969 0.121099 0.202877 0.121099 0.199654V0.199654ZM0.172753 0.199654C0.172753 0.196431 0.174034 0.193339 0.176313 0.19106C0.178592 0.188781 0.181684 0.1875 0.184907 0.1875C0.188131 0.1875 0.191222 0.188781 0.193501 0.19106C0.195781 0.193339 0.197061 0.196431 0.197061 0.199654C0.197061 0.202877 0.195781 0.205969 0.193501 0.208248C0.191222 0.210527 0.188131 0.211808 0.184907 0.211808C0.181684 0.211808 0.178592 0.210527 0.176313 0.208248C0.174034 0.205969 0.172753 0.202877 0.172753 0.199654" fill="white"/>
<path d="M0.930642 0.15332H0.0612973C0.0447544 0.15332 0.03125 0.166825 0.03125 0.183368V0.8228C0.03125 0.839343 0.0447544 0.852848 0.0612973 0.852848H0.930642C0.947185 0.852848 0.96069 0.839343 0.96069 0.8228V0.183368C0.96069 0.166825 0.947185 0.15332 0.930642 0.15332V0.15332Z" stroke="white" stroke-width="0.0202566" stroke-miterlimit="10" stroke-linecap="round" stroke-linejoin="round" stroke-dasharray="3.21 3.21"/>
<path d="M0.0332031 0.236328H0.961292" stroke="white" stroke-width="0.0202566" stroke-miterlimit="10" stroke-linecap="round" stroke-linejoin="round" stroke-dasharray="0.93 0.94"/>
<path d="M0.255859 0.395064C0.255859 0.388707 0.258385 0.38261 0.26288 0.378114C0.267375 0.373619 0.273472 0.371094 0.27983 0.371094C0.286187 0.371094 0.292284 0.373619 0.296779 0.378114C0.301275 0.38261 0.3038 0.388707 0.3038 0.395064C0.3038 0.401421 0.301275 0.407518 0.296779 0.412014C0.292284 0.416509 0.286187 0.419034 0.27983 0.419034C0.273472 0.419034 0.267375 0.416509 0.26288 0.412014C0.258385 0.407518 0.255859 0.401421 0.255859 0.395064Z" stroke="white" stroke-width="0.0202566" stroke-miterlimit="10" stroke-linecap="round" stroke-linejoin="round" stroke-dasharray="0.15 0.16"/>
<path d="M0.879756 0.517126L0.911153 0.488767L0.881106 0.457031M0.105616 0.457031L0.0742188 0.48539L0.103928 0.517126L0.105616 0.457031Z" stroke="white" stroke-width="0.0202566" stroke-miterlimit="10" stroke-linecap="round" stroke-linejoin="round" stroke-dasharray="0.09 0.09"/>
<path d="M0.828529 0.618277H0.159386C0.151283 0.618277 0.144531 0.611525 0.144531 0.603422V0.339074C0.144531 0.330971 0.151283 0.324219 0.159386 0.324219H0.828529C0.836631 0.324219 0.843383 0.330971 0.843383 0.339074V0.603422C0.843383 0.611525 0.836631 0.618277 0.828529 0.618277V0.618277Z" stroke="white" stroke-width="0.0202566" stroke-miterlimit="10" stroke-linecap="round" stroke-linejoin="round" stroke-dasharray="1.96 1.97"/>
<path d="M0.28125 0.610195C0.284626 0.608507 0.405153 0.487305 0.405153 0.487305L0.530744 0.613571" stroke="white" stroke-width="0.0202566" stroke-miterlimit="10" stroke-linecap="round" stroke-linejoin="round" stroke-dasharray="0.35 0.36"/>
<path d="M0.443359 0.517999L0.558484 0.40625L0.762401 0.612867" stroke="white" stroke-width="0.0202566" stroke-miterlimit="10" stroke-linecap="round" stroke-linejoin="round" stroke-dasharray="0.45 0.46"/>
<path d="M0.326093 0.782383H0.157964C0.156452 0.782396 0.154954 0.782108 0.153555 0.781536C0.152156 0.780964 0.150885 0.780119 0.149817 0.779051C0.148748 0.777982 0.147903 0.776711 0.147331 0.775313C0.146759 0.773914 0.146471 0.772415 0.146485 0.770904V0.680425C0.146471 0.678913 0.146759 0.677415 0.147331 0.676016C0.147903 0.674617 0.148748 0.673346 0.149817 0.672278C0.150885 0.671209 0.152156 0.670364 0.153555 0.669792C0.154954 0.66922 0.156452 0.668932 0.157964 0.668946H0.326431C0.327942 0.668932 0.329441 0.66922 0.330839 0.669792C0.332238 0.670364 0.333509 0.671209 0.334578 0.672278C0.335646 0.673346 0.336491 0.674617 0.337063 0.676016C0.337635 0.677415 0.337923 0.678913 0.33791 0.680425V0.770904C0.337572 0.777319 0.332508 0.782383 0.326093 0.782383Z" stroke="white" stroke-width="0.0202566" stroke-miterlimit="10" stroke-linecap="round" stroke-linejoin="round"/>
<path d="M0.175781 0.778529C0.176456 0.777854 0.219333 0.736328 0.219333 0.736328L0.260521 0.779205" stroke="white" stroke-width="0.0202566" stroke-miterlimit="10" stroke-linecap="round" stroke-linejoin="round"/>
<path d="M0.234375 0.747062L0.269824 0.710938L0.333295 0.776434" stroke="white" stroke-width="0.0202566" stroke-miterlimit="10" stroke-linecap="round" stroke-linejoin="round"/>
<path d="M0.580337 0.782383H0.41187C0.410359 0.782396 0.40886 0.782108 0.407461 0.781536C0.406062 0.780964 0.404792 0.780119 0.403723 0.779051C0.402654 0.777982 0.401809 0.776711 0.401237 0.775313C0.400665 0.773914 0.400378 0.772415 0.400391 0.770904V0.680425C0.400378 0.678913 0.400665 0.677415 0.401237 0.676016C0.401809 0.674617 0.402654 0.673346 0.403723 0.672278C0.404792 0.671209 0.406062 0.670364 0.407461 0.669792C0.40886 0.66922 0.410359 0.668932 0.41187 0.668946H0.580337C0.581848 0.668932 0.583347 0.66922 0.584746 0.669792C0.586144 0.670364 0.587415 0.671209 0.588484 0.672278C0.589552 0.673346 0.590397 0.674617 0.59097 0.676016C0.591542 0.677415 0.591829 0.678913 0.591816 0.680425V0.770904C0.591781 0.773937 0.59056 0.776837 0.588415 0.778982C0.58627 0.781127 0.583371 0.782348 0.580337 0.782383V0.782383Z" stroke="white" stroke-width="0.0202566" stroke-miterlimit="10" stroke-linecap="round" stroke-linejoin="round"/>
<path d="M0.429688 0.778529C0.430363 0.777854 0.473239 0.736328 0.473239 0.736328L0.51409 0.779205" stroke="white" stroke-width="0.0202566" stroke-miterlimit="10" stroke-linecap="round" stroke-linejoin="round"/>
<path d="M0.488281 0.747062L0.524068 0.710938L0.587201 0.776434" stroke="white" stroke-width="0.0202566" stroke-miterlimit="10" stroke-linecap="round" stroke-linejoin="round"/>
<path d="M0.830337 0.782383H0.66187C0.660359 0.782396 0.65886 0.782108 0.657461 0.781536C0.656062 0.780964 0.654792 0.780119 0.653723 0.779051C0.652654 0.777982 0.651809 0.776711 0.651237 0.775313C0.650665 0.773914 0.650378 0.772415 0.650391 0.770904V0.680425C0.650378 0.678913 0.650665 0.677415 0.651237 0.676016C0.651809 0.674617 0.652654 0.673346 0.653723 0.672278C0.654792 0.671209 0.656062 0.670364 0.657461 0.669792C0.65886 0.66922 0.660359 0.668932 0.66187 0.668946H0.830337C0.831848 0.668932 0.833347 0.66922 0.834746 0.669792C0.836144 0.670364 0.837415 0.671209 0.838484 0.672278C0.839552 0.673346 0.840397 0.674617 0.84097 0.676016C0.841542 0.677415 0.841829 0.678913 0.841816 0.680425V0.770904C0.841781 0.773937 0.84056 0.776837 0.838415 0.778982C0.83627 0.781127 0.833371 0.782348 0.830337 0.782383V0.782383Z" stroke="white" stroke-width="0.0202566" stroke-miterlimit="10" stroke-linecap="round" stroke-linejoin="round"/>
<path d="M0.681641 0.778529C0.682316 0.777854 0.725192 0.736328 0.725192 0.736328L0.766043 0.779205" stroke="white" stroke-width="0.0202566" stroke-miterlimit="10" stroke-linecap="round" stroke-linejoin="round"/>
<path d="M0.738281 0.747062L0.774068 0.710938L0.837201 0.776434" stroke="white" stroke-width="0.0202566" stroke-miterlimit="10" stroke-linecap="round" stroke-linejoin="round"/>
</svg>
