<svg width="64" height="64" viewBox="0 0 64 64" fill="none" xmlns="../../external.html?link=http://www.w3.org/2000/svg">
<path d="M58 18H53.462C53.019 18 52.627 17.718 52.487 17.298L51.86 15.421C51.18 13.375 49.26 12.001 47.114 12.001H16.886C14.729 12.001 12.822 13.376 12.14 15.421L11.513 17.298C11.373 17.718 10.981 18 10.538 18H6C4.346 18 3 19.346 3 21V43C3 44.654 4.346 46 6 46H10.538C10.7538 46.0001 10.9642 46.0681 11.1393 46.1942C11.3144 46.3204 11.4455 46.4983 11.514 46.703L12.14 48.579C12.82 50.625 14.74 51.999 16.886 51.999H47.116C49.273 51.999 51.18 50.624 51.862 48.579L52.489 46.702C52.629 46.282 53.019 46 53.464 46H58C59.654 46 61 44.654 61 43V21C61 19.346 59.654 18 58 18ZM59 43C59 43.2652 58.8946 43.5195 58.7071 43.7071C58.5196 43.8946 58.2652 44 58 44H53.462C52.8263 43.9989 52.2065 44.1983 51.6909 44.57C51.1752 44.9417 50.79 45.4666 50.59 46.07L49.964 47.946C49.7651 48.5445 49.3827 49.065 48.8711 49.4338C48.3595 49.8025 47.7447 50.0006 47.114 50H16.886C16.2553 50.0006 15.6405 49.8025 15.1289 49.4338C14.6173 49.065 14.2349 48.5445 14.036 47.946L13.411 46.071C13.2112 45.4672 12.8258 44.942 12.3099 44.5701C11.7941 44.1982 11.1739 43.9987 10.538 44H6C5.73478 44 5.48043 43.8946 5.29289 43.7071C5.10536 43.5195 5 43.2652 5 43V21C5 20.7348 5.10536 20.4804 5.29289 20.2929C5.48043 20.1053 5.73478 20 6 20H10.538C11.1737 20.0011 11.7935 19.8016 12.3091 19.4299C12.8248 19.0583 13.21 18.5334 13.41 17.93L14.036 16.054C14.2349 15.4555 14.6173 14.9349 15.1289 14.5662C15.6405 14.1975 16.2553 13.9993 16.886 14H47.116C47.7467 13.9993 48.3615 14.1975 48.8731 14.5662C49.3847 14.9349 49.7671 15.4555 49.966 16.054L50.592 17.93C50.7919 18.5332 51.177 19.058 51.6925 19.4296C52.2079 19.8013 52.8275 20.0009 53.463 20H58C58.2652 20 58.5196 20.1053 58.7071 20.2929C58.8946 20.4804 59 20.7348 59 21V43Z" fill="white"/>
<path d="M46 20H18C16.346 20 15 21.346 15 23V41C15 42.654 16.346 44 18 44H46C47.654 44 49 42.654 49 41V23C49 21.346 47.654 20 46 20ZM47 41C47 41.2652 46.8946 41.5196 46.7071 41.7071C46.5196 41.8946 46.2652 42 46 42H18C17.7348 42 17.4804 41.8946 17.2929 41.7071C17.1054 41.5196 17 41.2652 17 41V23C17 22.7348 17.1054 22.4804 17.2929 22.2929C17.4804 22.1054 17.7348 22 18 22H46C46.2652 22 46.5196 22.1054 46.7071 22.2929C46.8946 22.4804 47 22.7348 47 23V41Z" fill="white"/>
<path d="M55 26H53C51.897 26 51 26.897 51 28V30C51 31.103 51.897 32 53 32H55C56.103 32 57 31.103 57 30V28C57 26.897 56.103 26 55 26ZM55 30H53V28H55V30Z" fill="white"/>
<path d="M55 34H53C51.897 34 51 34.897 51 36V38C51 39.103 51.897 40 53 40H55C56.103 40 57 39.103 57 38V36C57 34.897 56.103 34 55 34ZM55 38H53V36H55V38Z" fill="white"/>
<path d="M11 29H9V31H7V33H9V35H11V33H13V31H11V29Z" fill="white"/>
<path d="M30 46H34V48H30V46Z" fill="white"/>
<path d="M36 46H40V48H36V46Z" fill="white"/>
<path d="M24 46H28V48H24V46Z" fill="white"/>
<path d="M38 33C39.1046 33 40 32.1046 40 31C40 29.8954 39.1046 29 38 29C36.8954 29 36 29.8954 36 31C36 32.1046 36.8954 33 38 33Z" fill="white"/>
<path d="M26 33C27.1046 33 28 32.1046 28 31C28 29.8954 27.1046 29 26 29C24.8954 29 24 29.8954 24 31C24 32.1046 24.8954 33 26 33Z" fill="white"/>
<path d="M29 34C29 34.7956 29.3161 35.5587 29.8787 36.1213C30.4413 36.6839 31.2044 37 32 37C32.7956 37 33.5587 36.6839 34.1213 36.1213C34.6839 35.5587 35 34.7956 35 34V33H29V34Z" fill="white"/>
</svg>
