<svg width="512" height="512" viewBox="0 0 512 512" fill="none" xmlns="../../external.html?link=http://www.w3.org/2000/svg">
<path d="M197.964 32.041H125.977C120.456 32.041 115.979 36.517 115.979 42.039C115.979 47.561 120.456 52.037 125.977 52.037H197.964C203.485 52.037 207.962 47.561 207.962 42.039C207.962 36.517 203.485 32.041 197.964 32.041Z" fill="white"/>
<path d="M169.039 456.653C167.18 454.792 164.601 453.723 161.971 453.723C159.341 453.723 156.762 454.793 154.902 456.653C153.042 458.513 151.973 461.092 151.973 463.722C151.973 466.352 153.042 468.931 154.902 470.791C156.762 472.651 159.341 473.72 161.971 473.72C164.601 473.72 167.18 472.65 169.039 470.791C170.899 468.931 171.969 466.352 171.969 463.722C171.969 461.082 170.9 458.512 169.039 456.653Z" fill="white"/>
<path d="M447.633 317.864L410.848 254.151C425.931 240.176 429.955 217.115 419.249 198.572C413.23 188.148 403.514 180.691 391.886 177.576C383.553 175.342 374.953 175.545 366.91 178.049L330.132 114.348C328.471 111.472 325.49 109.607 322.176 109.374C318.86 109.137 315.649 110.569 313.602 113.183L199.094 259.411L151.038 287.156C123.616 302.987 114.188 338.177 130.02 365.599C137.69 378.883 150.072 388.385 164.889 392.354C169.836 393.68 174.856 394.336 179.844 394.336C189.794 394.336 199.614 391.727 208.463 386.617L214.186 383.313L234.147 417.886H19.996V84.0309H303.944V87.0299C303.944 92.5519 308.421 97.0279 313.942 97.0279C319.463 97.0279 323.94 92.5519 323.94 87.0299V39.2999C323.94 17.6559 306.331 0.0458984 284.686 0.0458984H39.254C17.609 0.0458984 0 17.6549 0 39.2999V472.7C0 494.344 17.609 511.954 39.254 511.954H284.688C306.332 511.954 323.942 494.345 323.942 472.7V349.312L440.382 332.761C443.67 332.294 446.512 330.225 447.965 327.238C449.417 324.253 449.294 320.74 447.633 317.864ZM19.996 39.2999C19.996 28.6809 28.635 20.0429 39.253 20.0429H284.687C295.305 20.0429 303.944 28.6809 303.944 39.2999V64.0339H19.996V39.2999ZM386.711 196.891C393.179 198.624 398.584 202.772 401.932 208.571C407.066 217.464 406.11 228.227 400.372 236.008L377.384 196.191C380.469 195.84 383.622 196.063 386.711 196.891ZM198.465 369.3C189.807 374.299 179.718 375.626 170.064 373.039C160.408 370.451 152.337 364.259 147.338 355.6C137.02 337.727 143.165 314.791 161.037 304.472L202.113 280.757L239.537 345.586L198.465 369.3ZM231.504 373.315L249.535 362.905L273.156 403.816L255.125 414.226L231.504 373.315ZM303.944 472.699C303.944 483.318 295.305 491.956 284.687 491.956H39.254C28.636 491.956 19.997 483.318 19.997 472.699V437.882H303.945V472.699H303.944ZM303.944 417.886H288.777L291.81 416.134C296.592 413.374 298.231 407.259 295.469 402.476L269.262 357.083L303.944 352.153V417.886V417.886ZM258.492 338.417L217.806 267.948L290.524 175.086L375.243 321.822L258.492 338.417ZM396.581 318.789L303.815 158.113L320.218 137.167L422.916 315.045L396.581 318.789Z" fill="white"/>
<path d="M510.657 146.14C507.896 141.359 501.783 139.719 497 142.481L447.977 170.785C443.195 173.545 441.556 179.66 444.318 184.442C446.171 187.649 449.53 189.442 452.986 189.442C454.682 189.442 456.401 189.01 457.975 188.101L506.998 159.797C511.78 157.037 513.419 150.922 510.657 146.14Z" fill="white"/>
<path d="M420.163 102.243C414.828 100.813 409.348 103.98 407.918 109.313L400.771 135.987C399.341 141.322 402.507 146.804 407.841 148.233C408.708 148.465 409.578 148.576 410.435 148.576C414.849 148.576 418.889 145.63 420.086 141.163L427.233 114.489C428.662 109.154 425.497 103.672 420.163 102.243Z" fill="white"/>
<path d="M496.524 233.037L468.958 225.65C463.623 224.22 458.143 227.387 456.713 232.72C455.283 238.054 458.449 243.536 463.783 244.966L491.349 252.353C492.216 252.585 493.086 252.696 493.943 252.696C498.357 252.696 502.397 249.75 503.594 245.283C505.023 239.948 501.858 234.465 496.524 233.037Z" fill="white"/>
<path d="M189.633 113.194H51.6699C46.1489 113.194 41.6719 117.67 41.6719 123.192C41.6719 128.714 46.1489 133.19 51.6699 133.19H189.634C195.155 133.19 199.632 128.714 199.632 123.192C199.632 117.67 195.154 113.194 189.633 113.194Z" fill="white"/>
<path d="M196.704 164.116C194.844 162.246 192.265 161.186 189.635 161.186C186.995 161.186 184.426 162.246 182.566 164.116C180.696 165.976 179.637 168.555 179.637 171.185C179.637 173.815 180.697 176.394 182.566 178.254C184.426 180.113 186.995 181.183 189.635 181.183C192.265 181.183 194.844 180.113 196.704 178.254C198.563 176.394 199.633 173.815 199.633 171.185C199.633 168.555 198.564 165.976 196.704 164.116Z" fill="white"/>
<path d="M148.307 161.185H51.6699C46.1489 161.185 41.6719 165.661 41.6719 171.183C41.6719 176.705 46.1489 181.181 51.6699 181.181H148.307C153.828 181.181 158.305 176.705 158.305 171.183C158.305 165.661 153.828 161.185 148.307 161.185Z" fill="white"/>
<path d="M165.879 209.176H90.0742C84.5532 209.176 80.0762 213.652 80.0762 219.174C80.0762 224.696 84.5522 229.172 90.0742 229.172H165.878C171.399 229.172 175.876 224.696 175.876 219.174C175.876 213.652 171.4 209.176 165.879 209.176Z" fill="white"/>
<path d="M52.0499 209.176H51.5859C46.0649 209.176 41.5879 213.652 41.5879 219.174C41.5879 224.696 46.0649 229.172 51.5859 229.172H52.0499C57.5709 229.172 62.0479 224.696 62.0479 219.174C62.0479 213.652 57.5709 209.176 52.0499 209.176Z" fill="white"/>
</svg>
