<svg xmlns="http://www.w3.org/2000/svg" xmlns:xlink="http://www.w3.org/1999/xlink" viewBox="0 0 64 64"><linearGradient id="A" gradientUnits="userSpaceOnUse" x1="32" y1="10.75" x2="32" y2="53.762" spreadMethod="reflect"><stop offset="0" stop-color="#5b5bd5"/><stop offset="1" stop-color="#5b5bd5"/></linearGradient><g fill="url(#A)"><path d="M58 18h-4.538c-.443 0-.835-.282-.975-.702l-.627-1.877c-.68-2.046-2.6-3.42-4.746-3.42H16.886c-2.157 0-4.064 1.375-4.746 3.42l-.627 1.877c-.14.42-.532.702-.975.702H6c-1.654 0-3 1.346-3 3v22c0 1.654 1.346 3 3 3h4.538a1.03 1.03 0 0 1 .976.703l.626 1.876c.68 2.046 2.6 3.42 4.746 3.42h30.23c2.157 0 4.064-1.375 4.746-3.42l.627-1.877c.14-.42.53-.702.975-.702H58c1.654 0 3-1.346 3-3V21c0-1.654-1.346-3-3-3zm1 25a1 1 0 0 1-1 1h-4.538a3.02 3.02 0 0 0-2.872 2.07l-.626 1.876A3 3 0 0 1 47.114 50H16.886a3 3 0 0 1-2.85-2.054l-.625-1.875A3.02 3.02 0 0 0 10.538 44H6a1 1 0 0 1-1-1V21a1 1 0 0 1 1-1h4.538a3.02 3.02 0 0 0 2.872-2.07l.626-1.876A3 3 0 0 1 16.886 14h30.23a3 3 0 0 1 2.85 2.054l.626 1.876A3.02 3.02 0 0 0 53.463 20H58a1 1 0 0 1 1 1v22z"/><path d="M46 20H18c-1.654 0-3 1.346-3 3v18c0 1.654 1.346 3 3 3h28c1.654 0 3-1.346 3-3V23c0-1.654-1.346-3-3-3zm1 21a1 1 0 0 1-1 1H18a1 1 0 0 1-1-1V23a1 1 0 0 1 1-1h28a1 1 0 0 1 1 1v18z"/></g><linearGradient id="B" gradientUnits="userSpaceOnUse" x1="54" y1="10.75" x2="54" y2="53.762" spreadMethod="reflect"><stop offset="0" stop-color="#5b5bd5"/><stop offset="1" stop-color="#5b5bd5"/></linearGradient><use xlink:href="#J" fill="url(#B)"/><linearGradient id="C" gradientUnits="userSpaceOnUse" x1="54" y1="2.75" x2="54" y2="45.762" spreadMethod="reflect"><stop offset="0" stop-color="#5b5bd5"/><stop offset="1" stop-color="#5b5bd5"/></linearGradient><use xlink:href="#J" y="8" fill="url(#C)"/><linearGradient id="D" gradientUnits="userSpaceOnUse" x1="10" y1="10.75" x2="10" y2="53.762" spreadMethod="reflect"><stop offset="0" stop-color="#5b5bd5"/><stop offset="1" stop-color="#5b5bd5"/></linearGradient><path d="M11 29H9v2H7v2h2v2h2v-2h2v-2h-2z" fill="url(#D)"/><path d="M30 46h4v2h-4z" fill="url(#A)"/><linearGradient id="E" gradientUnits="userSpaceOnUse" x1="38" y1="10.75" x2="38" y2="53.762" spreadMethod="reflect"><stop offset="0" stop-color="#5b5bd5"/><stop offset="1" stop-color="#5b5bd5"/></linearGradient><path d="M36 46h4v2h-4z" fill="url(#E)"/><linearGradient id="F" gradientUnits="userSpaceOnUse" x1="26" y1="10.75" x2="26" y2="53.762" spreadMethod="reflect"><stop offset="0" stop-color="#5b5bd5"/><stop offset="1" stop-color="#5b5bd5"/></linearGradient><path d="M24 46h4v2h-4z" fill="url(#F)"/><linearGradient id="G" gradientUnits="userSpaceOnUse" x1="38" y1="28.833" x2="38" y2="33.519" spreadMethod="reflect"><stop offset="0" stop-color="#5b5bd5"/><stop offset="1" stop-color="#5b5bd5"/></linearGradient><circle cx="38" cy="31" r="2" fill="url(#G)"/><linearGradient id="H" gradientUnits="userSpaceOnUse" x1="26" y1="28.833" x2="26" y2="33.519" spreadMethod="reflect"><stop offset="0" stop-color="#5b5bd5"/><stop offset="1" stop-color="#5b5bd5"/></linearGradient><circle cx="26" cy="31" r="2" fill="url(#H)"/><linearGradient id="I" gradientUnits="userSpaceOnUse" x1="32" y1="32.5" x2="32" y2="37.417" spreadMethod="reflect"><stop offset="0" stop-color="#5b5bd5"/><stop offset="1" stop-color="#5b5bd5"/></linearGradient><path d="M29 34a3 3 0 1 0 6 0v-1h-6v1z" fill="url(#I)"/><defs><path id="J" d="M55 26h-2c-1.103 0-2 .897-2 2v2c0 1.103.897 2 2 2h2c1.103 0 2-.897 2-2v-2c0-1.103-.897-2-2-2zm0 4h-2v-2h2v2z"/></defs></svg>