<svg xmlns="http://www.w3.org/2000/svg" width="100%" height="100%" viewBox="0 0 260.2 224.6"><style><![CDATA[.G{stroke-miterlimit:10}.H{stroke-width:6}.I{stroke-dasharray:4, 6}.J{stroke-linecap:round}.K{stroke-linejoin:round}.L{stroke-dasharray:61, 63}]]></style><g fill="none" stroke="#5b5bd5" class="G H"><path d="M167.2,69.2c1-3.5,1.5-7.1,1.5-10.9c0-17.5-11.4-32.3-27.2-37.4" class="L"/><path d="M164 77c.6-1 1.1-2.1 1.6-3.2" class="I"/></g><linearGradient gradientUnits="userSpaceOnUse" x1="160.609" y1="83.25" x2="158.333" y2="83.25"><stop offset="0" stop-color="#fff"/><stop offset="1"/></linearGradient><path d="M158.3 84.4l2.3-2.4" fill="url(#SVGID_2_)" stroke="#e41c24" class="G H I"/><g fill="none" stroke="#5b5bd5" class="G H"><g class="J K"><path d="M179.5 38.4h61c4.5 0 8.1 3.6 8.1 8.1v128.4c0 4.5-3.6 8.1-8.1 8.1H20.7c-4.5 0-8.1-3.6-8.1-8.1V46.5c0-4.5 3.6-8.1 8.1-8.1h59.4" stroke-dasharray="648, 650"/><path d="M13.3 165.8h235.5" stroke-dasharray="236, 238"/></g><path d="M82.1 211.5h97" stroke-dasharray="98, 100"/><path d="M98.8 211.5v-27.8" stroke-dasharray="28, 30"/><path d="M163.1 211.7v-28.5" stroke-dasharray="29, 31"/><path d="M65 18.7h54.5m20.3 0h54.5" stroke-dasharray="55, 57" class="J K"/><path d="M107.4 133.6h46.7v12.5h-46.7z" stroke-dasharray="119, 121"/><path d="M48.8 18.2a8.1 8.1 0 1 1 16.2 0 8.1 8.1 0 1 1-16.2 0M122 91.4a8.1 8.1 0 1 1 16.2 0 8.1 8.1 0 1 1-16.2 0m72.1-73.2a8.1 8.1 0 1 1 16.2 0 8.1 8.1 0 1 1-16.2 0" stroke-dasharray="51, 53" class="J K"/><g stroke-dasharray="122, 124" class="J K"><path d="M115.7 131.3L100.4 99s27.1-25.1 30-46.8v28.9"/><path d="M145 131.3L160.3 99s-27.1-25.1-30-46.8v28.9"/></g><path d="M121.1 10.4h17.8v17.8h-17.8z" stroke-dasharray="72, 74"/><path d="M92.4,69.2c-1-3.5-1.5-7.1-1.5-10.9c0-17.5,11.4-32.3,27.2-37.4" class="L"/><path d="M95.7 77c-.6-1-1.1-2.1-1.6-3.2" class="I"/></g><linearGradient gradientUnits="userSpaceOnUse" x1="99.015" y1="83.25" x2="101.291" y2="83.25"><stop offset="0" stop-color="#fff"/><stop offset="1"/></linearGradient><path d="M101.3 84.4L99 82" fill="url(#SVGID_4_)" stroke="#e41c24" class="G H I"/></svg>