<svg width="1" height="1" viewBox="0 0 1 1" fill="none" xmlns="../../external.html?link=http://www.w3.org/2000/svg">
<path d="M0.641739 0.334064C0.645582 0.320613 0.647504 0.306777 0.647504 0.292173C0.647504 0.224917 0.603691 0.168038 0.542969 0.148438" stroke="white" stroke-width="0.0230592" stroke-miterlimit="10"/>
<path d="M0.628906 0.363861C0.631212 0.360018 0.633134 0.35579 0.635055 0.351562" stroke="white" stroke-width="0.0230592" stroke-miterlimit="10"/>
<path d="M0.607422 0.393013L0.616261 0.383789" stroke="#E41C24" stroke-width="0.0230592" stroke-miterlimit="10"/>
<path d="M0.690258 0.21582H0.924693C0.941987 0.21582 0.955823 0.229656 0.955823 0.24695V0.740417C0.955823 0.757711 0.941987 0.771547 0.924693 0.771547H0.079958C0.0626636 0.771547 0.0488281 0.757711 0.0488281 0.740417V0.24695C0.0488281 0.229656 0.0626636 0.21582 0.079958 0.21582H0.308244" stroke="white" stroke-width="0.0230592" stroke-miterlimit="10" stroke-dasharray="2.49 2.5"/>
<path d="M0.0507812 0.705078H0.955854" stroke="white" stroke-width="0.0230592" stroke-miterlimit="10" stroke-dasharray="0.91 0.91"/>
<path d="M0.316406 0.881836H0.689196" stroke="white" stroke-width="0.0230592" stroke-miterlimit="10" stroke-dasharray="0.38 0.38"/>
<path d="M0.380859 0.881255V0.774414" stroke="white" stroke-width="0.0230592" stroke-miterlimit="10" stroke-dasharray="0.11 0.12"/>
<path d="M0.626953 0.881992V0.772461" stroke="white" stroke-width="0.0230592" stroke-miterlimit="10" stroke-dasharray="0.11 0.12"/>
<path d="M0.537471 0.140625H0.746925M0.25 0.140625H0.459454H0.25Z" stroke="white" stroke-width="0.0230592" stroke-miterlimit="10" stroke-dasharray="0.21 0.22"/>
<path d="M0.414062 0.582031H0.59354V0.630071H0.414062V0.582031Z" stroke="white" stroke-width="0.0230592" stroke-miterlimit="10" stroke-dasharray="0.46 0.47"/>
<path d="M0.745917 0.138552C0.745917 0.130296 0.749196 0.122378 0.755034 0.11654C0.760872 0.110702 0.76879 0.107422 0.777046 0.107422C0.785303 0.107422 0.793221 0.110702 0.799059 0.11654C0.804897 0.122378 0.808176 0.130296 0.808176 0.138552C0.808176 0.146808 0.804897 0.154726 0.799059 0.160564C0.793221 0.166402 0.785303 0.169682 0.777046 0.169682C0.76879 0.169682 0.760872 0.166402 0.755034 0.160564C0.749196 0.154726 0.745917 0.146808 0.745917 0.138552M0.1875 0.138552C0.1875 0.130296 0.19078 0.122378 0.196618 0.11654C0.202456 0.110702 0.210374 0.107422 0.21863 0.107422C0.226886 0.107422 0.234804 0.110702 0.240642 0.11654C0.24648 0.122378 0.24976 0.130296 0.24976 0.138552C0.24976 0.146808 0.24648 0.154726 0.240642 0.160564C0.234804 0.166402 0.226886 0.169682 0.21863 0.169682C0.210374 0.169682 0.202456 0.166402 0.196618 0.160564C0.19078 0.154726 0.1875 0.146808 0.1875 0.138552V0.138552ZM0.468822 0.419874C0.468822 0.415786 0.469627 0.411738 0.471192 0.407961C0.472756 0.404184 0.475049 0.400752 0.47794 0.397862C0.48083 0.394971 0.484262 0.392678 0.488039 0.391114C0.491816 0.389549 0.495864 0.388744 0.499952 0.388744C0.50404 0.388744 0.508088 0.389549 0.511865 0.391114C0.515642 0.392678 0.519073 0.394971 0.521964 0.397862C0.524855 0.400752 0.527148 0.404184 0.528712 0.407961C0.530277 0.411738 0.531082 0.415786 0.531082 0.419874C0.531082 0.42813 0.527802 0.436048 0.521964 0.441886C0.516126 0.447724 0.508208 0.451004 0.499952 0.451004C0.491696 0.451004 0.483778 0.447724 0.47794 0.441886C0.472102 0.436048 0.468822 0.42813 0.468822 0.419874V0.419874Z" stroke="white" stroke-width="0.0230592" stroke-miterlimit="10" stroke-dasharray="0.2 0.2"/>
<path d="M0.44552 0.573528L0.386719 0.449393C0.386719 0.449393 0.490869 0.352929 0.502015 0.269531V0.3806" stroke="white" stroke-width="0.0230592" stroke-miterlimit="10" stroke-dasharray="0.47 0.48"/>
<path d="M0.558448 0.573528L0.617249 0.449393C0.617249 0.449393 0.513098 0.352929 0.501953 0.269531V0.3806" stroke="white" stroke-width="0.0230592" stroke-miterlimit="10" stroke-dasharray="0.47 0.48"/>
<path d="M0.464844 0.108398H0.533253V0.176807H0.464844V0.108398Z" stroke="white" stroke-width="0.0230592" stroke-miterlimit="10" stroke-dasharray="0.28 0.28"/>
<path d="M0.355374 0.335041C0.351531 0.321589 0.349609 0.307754 0.349609 0.29315C0.349609 0.225894 0.393422 0.169014 0.454144 0.149414" stroke="white" stroke-width="0.0230592" stroke-miterlimit="10"/>
<path d="M0.367477 0.364837C0.365171 0.360994 0.36325 0.356767 0.361328 0.352539" stroke="white" stroke-width="0.0230592" stroke-miterlimit="10"/>
<path d="M0.389699 0.393013L0.380859 0.383789" stroke="#E41C24" stroke-width="0.0230592" stroke-miterlimit="10"/>
</svg>
