<svg xmlns="http://www.w3.org/2000/svg" viewBox="0 0 579.02 367.01"><path d="M17.28 38A38.18 38.18 0 0 1 54.83 0h.48a38.32 38.32 0 0 1 37.26 30.44 37.06 37.06 0 0 1 .35 13.41l11.2 20-12.37 3.56v20.26H75.17v14.9h-3.3v-18.2H88.4V64.9l10.75-3.08-9.7-17.37.1-.58a33.84 33.84 0 0 0-.23-12.75A34.72 34.72 0 0 0 20.59 38v6A40.27 40.27 0 0 0 38 77.28l.72.5v24.8h-3.26V79.5a43.58 43.58 0 0 1-18.18-35.42zm9.9 3.34a9.6 9.6 0 0 1 .69-3.55 9.77 9.77 0 0 1-2.34-6.38 10 10 0 0 1 8.28-9.79v-.14A11.57 11.57 0 0 1 50.2 11a9.83 9.83 0 0 1 14.71 1.31 9.69 9.69 0 0 1 3.64-.72 9.94 9.94 0 0 1 9.93 9.93v.58a9.87 9.87 0 0 1 4.65 15.2 9.31 9.31 0 0 1 .31 2.38 9.94 9.94 0 0 1-9.93 9.93 9.57 9.57 0 0 1-3.51-.69 10.08 10.08 0 0 1-2.18 1.4l-1.4-3a6.68 6.68 0 0 0 2.06-1.5l.87-.94 1.13.6a6.51 6.51 0 0 0 3.1.81 6.63 6.63 0 0 0 6.62-6.62 6.53 6.53 0 0 0-.41-2.19l-.33-.93.66-.73a6.56 6.56 0 0 0-3.61-10.89h0a6 6 0 0 0-1.28-.15 6.57 6.57 0 0 0-5.29 2.64l-2.64-2a9.86 9.86 0 0 1 7.94-4A6.53 6.53 0 0 0 67.42 15l-.43.1c-.18 0-.36.1-.54.17a6.94 6.94 0 0 0-1.3.6l-.4.24a6.61 6.61 0 0 0-2.82 5.4h-3.3a9.87 9.87 0 0 1 3.43-7.5 6.51 6.51 0 0 0-10.22 0l-.9 1.13-1.24-.76a8.26 8.26 0 0 0-12.57 7.06v.15a9.94 9.94 0 0 1 8.26 9.78h-3.3a6.62 6.62 0 0 0-6.49-6.61h-.22a6.63 6.63 0 0 0-6.53 6.62A6.54 6.54 0 0 0 31 36.24l.94.87-.6 1.13a6.52 6.52 0 0 0-.81 3.1 6.58 6.58 0 0 0 11 4.91l1.82-1.63.84 2.3A6.66 6.66 0 0 0 49 51.1l-.68 3.24A9.85 9.85 0 0 1 42 50a9.8 9.8 0 0 1-4.88 1.31 9.94 9.94 0 0 1-9.94-9.97z" fill="#fff"/><path d="M61.93 82.7l-1.65-24.82 9.93-6.62-16.55-28.13L55.3 46.3l-11.58 8.27zM75.5 216.46v40.07h106.24v34.8H35.43V102.57h137.35v34.8H75.5v42.44h85.94v36.64zM318.3 222l52.7 69.86h-50.6l-47.45-67.75h-20.3v67.75H211v-188.5h84.9c47.45 0 65.64 29.8 65.64 60.37 0 25.57-13.45 51.4-44.82 58.26zm-65.64-86.47v56.68h32.16c19.77 0 36.12-4.48 36.12-28.47 0-24.52-16.35-28.2-36.12-28.2zm153.94-32.16h84.9c47.2 0 65.1 29.8 65.1 60.37s-17.93 60.37-65.1 60.37H448v67.5h-41.4zm41.4 88.57h32.16c19 0 36.38-4.22 36.38-28.2s-17.4-28.2-36.38-28.2H448z" fill="#5b5bd5"/><path d="M154.5 222.16a7.42 7.42 0 0 0-5.1 12.81v6.7a5.105 5.105 0 0 0 10.21 0V235a7.42 7.42 0 0 0-5.1-12.81zm2.63 10.2a3.54 3.54 0 0 0-1.11 2.56v6.74a1.51 1.51 0 0 1-3 0v-6.74a3.54 3.54 0 0 0-1.11-2.56 3.79 3.79 0 0 1-1.2-2.79 3.83 3.83 0 1 1 7.65 0 3.79 3.79 0 0 1-1.24 2.79zm19.12-19.44h-5.4v-16.7a16.37 16.37 0 1 0-32.73 0v16.7h-5.4a5.4 5.4 0 0 0-5.39 5.39v33.34a5.4 5.4 0 0 0 5.39 5.39h43.5a5.4 5.4 0 0 0 5.39-5.39V218.3a5.4 5.4 0 0 0-5.39-5.39zm-34.53-16.7a12.775 12.775 0 1 1 25.55 0v16.7h-25.55zM178 251.65a1.8 1.8 0 0 1-1.8 1.8h-43.46a1.8 1.8 0 0 1-1.8-1.8V218.3a1.8 1.8 0 0 1 1.8-1.8h43.5a1.8 1.8 0 0 1 1.8 1.8v33.34zM469.4 221a18.24 18.24 0 1 0 18.23 18.24A18.26 18.26 0 0 0 469.41 221zm0 33.86a15.63 15.63 0 1 1 15.6-15.58 15.64 15.64 0 0 1-15.62 15.62zm31.6-23.4h-2.63a29.86 29.86 0 0 0-2.94-7.11l1.86-1.86a3.63 3.63 0 0 0 0-5.12l-5.93-5.93a3.71 3.71 0 0 0-5.12 0l-1.86 1.86a29.67 29.67 0 0 0-7.11-2.94v-2.63a3.62 3.62 0 0 0-3.62-3.62h-8.4a3.62 3.62 0 0 0-3.62 3.62v2.63a29.69 29.69 0 0 0-7.11 2.94l-1.86-1.86a3.71 3.71 0 0 0-5.12 0l-5.93 5.93a3.63 3.63 0 0 0 0 5.12l1.86 1.86a29.51 29.51 0 0 0-2.94 7.11h-2.63a3.62 3.62 0 0 0-3.62 3.62v8.4a3.62 3.62 0 0 0 3.62 3.62h2.63a29.62 29.62 0 0 0 2.94 7.11l-1.86 1.86a3.64 3.64 0 0 0 0 5.13l5.93 5.93a3.71 3.71 0 0 0 5.12 0l1.86-1.86a30.06 30.06 0 0 0 7.11 2.94v2.63a3.62 3.62 0 0 0 3.62 3.62h8.4a3.62 3.62 0 0 0 3.62-3.62v-2.63a30 30 0 0 0 7.11-2.94l1.86 1.86a3.72 3.72 0 0 0 5.13 0l5.93-5.93a3.62 3.62 0 0 0 0-5.13l-1.86-1.86a30 30 0 0 0 2.94-7.11H501a3.62 3.62 0 0 0 3.62-3.62v-8.4a3.62 3.62 0 0 0-3.62-3.62zm1 12a1 1 0 0 1-1 1h-4.68l-.24 1a27.08 27.08 0 0 1-3.4 8.22l-.55.88 3.3 3.3a1 1 0 0 1 0 1.44l-5.93 5.93a1 1 0 0 1-1.44 0L484.7 262l-.88.55a27.08 27.08 0 0 1-8.22 3.4l-1 .24v4.68a1 1 0 0 1-1 1h-8.4a1 1 0 0 1-1-1v-4.68l-1-.24a27 27 0 0 1-8.22-3.4l-.88-.55-3.3 3.3a1 1 0 0 1-1.44 0l-5.93-5.93a1 1 0 0 1 0-1.44l3.3-3.3-.55-.88a27.07 27.07 0 0 1-3.4-8.22l-.23-1h-4.68a1 1 0 0 1-1-1v-8.4a1 1 0 0 1 1-1h4.68l.23-1a27.11 27.11 0 0 1 3.4-8.21l.55-.88-3.3-3.3a1 1 0 0 1 0-1.44l5.93-5.93a1 1 0 0 1 1.44 0l3.3 3.3.87-.68a27 27 0 0 1 8.22-3.4l1-.23v-4.68a1 1 0 0 1 1-1h8.4a1 1 0 0 1 1 1v4.68l1 .23a27.28 27.28 0 0 1 8.22 3.4l.88.55 3.3-3.3a1 1 0 0 1 1.44 0l5.93 5.93a1 1 0 0 1 0 1.44l-3.3 3.4.55.88a27 27 0 0 1 3.4 8.21l.24 1H501a1 1 0 0 1 1 1zm-32.6-17.2a13 13 0 1 0 13 13 13 13 0 0 0-13-13zm0 23.44a10.42 10.42 0 1 1 10.42-10.42 10.43 10.43 0 0 1-10.42 10.42zM579 109.65h-31.73V77.9h1.5A30.28 30.28 0 0 1 579 108.15zm-28.74-3H576A27.28 27.28 0 0 0 550.27 81zm-5.2 35.45a30.23 30.23 0 0 1-3.78-60.22l1.7-.2V114h32.28l-.2 1.7a30.26 30.26 0 0 1-29.98 26.42zm-5.1-57A27.23 27.23 0 1 0 571.8 117H540zM338.38 293.6h-20.26l-46.56-67.38h-16.5v67.38H208.4V102h28.5a1.5 1.5 0 0 1 0 3h-25.5v185.6h40.67v-67.38h21.08l46.56 67.38h18.68a1.5 1.5 0 0 1 0 3zm-64-141.18v22.85l22.9-12.73-22.9-10.12zm-22.07 40.83h-1.5V158.4a1.5 1.5 0 0 1 3 0v31.85h43.47c.85 0 21.88-1 21.88-26.74a1.5 1.5 0 0 1 3 0c0 28.7-24.58 29.74-24.83 29.74zm154.23-85.4a1.5 1.5 0 0 1-1.5-1.5v-.5a1.5 1.5 0 1 1 3 0v.5a1.5 1.5 0 0 1-1.5 1.5zm0 179.36a1.5 1.5 0 0 1-1.5-1.5v-1a1.5 1.5 0 1 1 3 0v1a1.5 1.5 0 0 1-1.5 1.5zm0-6.9a1.5 1.5 0 0 1-1.5-1.5v-1a1.5 1.5 0 1 1 3 0v1a1.5 1.5 0 0 1-1.5 1.5zm0-6.9a1.5 1.5 0 0 1-1.5-1.5v-1a1.5 1.5 0 0 1 3 0v1a1.5 1.5 0 0 1-1.5 1.5zm0-6.9A1.5 1.5 0 0 1 405 265v-1a1.5 1.5 0 0 1 3 0v1a1.5 1.5 0 0 1-1.47 1.49zm0-6.9a1.5 1.5 0 0 1-1.5-1.5v-1a1.5 1.5 0 0 1 3 0v1a1.5 1.5 0 0 1-1.5 1.5zm0-6.9a1.5 1.5 0 0 1-1.5-1.5v-1a1.5 1.5 0 0 1 3 0v1a1.5 1.5 0 0 1-1.5 1.51zm0-6.9a1.5 1.5 0 0 1-1.5-1.5v-1a1.5 1.5 0 0 1 3 0v1a1.5 1.5 0 0 1-1.5 1.51zm0-6.9a1.5 1.5 0 0 1-1.5-1.5v-1a1.5 1.5 0 0 1 3 0v1a1.5 1.5 0 0 1-1.5 1.51zm0-6.9a1.5 1.5 0 0 1-1.5-1.5v-1a1.5 1.5 0 0 1 3 0v1a1.5 1.5 0 0 1-1.5 1.51zm0-6.9a1.5 1.5 0 0 1-1.5-1.5v-1a1.5 1.5 0 0 1 3 0v1a1.5 1.5 0 0 1-1.5 1.51zm0-6.9a1.5 1.5 0 0 1-1.5-1.5v-1a1.5 1.5 0 1 1 3 0v1a1.5 1.5 0 0 1-1.5 1.52zm0-6.9a1.5 1.5 0 0 1-1.5-1.5v-1a1.5 1.5 0 0 1 3 0v1a1.5 1.5 0 0 1-1.5 1.52zm0-6.9a1.5 1.5 0 0 1-1.5-1.5v-1a1.5 1.5 0 0 1 3 0v1a1.5 1.5 0 0 1-1.5 1.52zm0-6.9A1.5 1.5 0 0 1 405 196v-1a1.5 1.5 0 1 1 3 0v1a1.5 1.5 0 0 1-1.47 1.51zm0-6.9a1.5 1.5 0 0 1-1.5-1.5v-1a1.5 1.5 0 1 1 3 0v1a1.5 1.5 0 0 1-1.5 1.53zm0-6.9a1.5 1.5 0 0 1-1.5-1.5v-1a1.5 1.5 0 1 1 3 0v1a1.5 1.5 0 0 1-1.5 1.53zm0-6.9a1.5 1.5 0 0 1-1.5-1.5v-1a1.5 1.5 0 1 1 3 0v1a1.5 1.5 0 0 1-1.5 1.53zm0-6.9a1.5 1.5 0 0 1-1.5-1.5v-1a1.5 1.5 0 0 1 3 0v1a1.5 1.5 0 0 1-1.5 1.53zm0-6.9a1.5 1.5 0 0 1-1.5-1.5v-1a1.5 1.5 0 0 1 3 0v1a1.5 1.5 0 0 1-1.5 1.51zm0-6.9a1.5 1.5 0 0 1-1.5-1.5v-1a1.5 1.5 0 0 1 3 0v1a1.5 1.5 0 0 1-1.5 1.54zm0-6.9a1.5 1.5 0 0 1-1.5-1.5v-1a1.5 1.5 0 0 1 3 0v1a1.5 1.5 0 0 1-1.5 1.54zm0-6.9a1.5 1.5 0 0 1-1.5-1.5v-1a1.5 1.5 0 0 1 3 0v1a1.5 1.5 0 0 1-1.5 1.54zm0-6.9a1.5 1.5 0 0 1-1.5-1.5v-1a1.5 1.5 0 0 1 3 0v1a1.5 1.5 0 0 1-1.5 1.54zm0-6.9A1.5 1.5 0 0 1 405 127v-1a1.5 1.5 0 1 1 3 0v1a1.5 1.5 0 0 1-1.47 1.53zm0-6.9a1.5 1.5 0 0 1-1.5-1.5v-1a1.5 1.5 0 1 1 3 0v1a1.5 1.5 0 0 1-1.5 1.55zm0-6.9a1.5 1.5 0 0 1-1.5-1.5v-1a1.5 1.5 0 0 1 3 0v1a1.5 1.5 0 0 1-1.5 1.55zm.47 178.9h-.5a1.5 1.5 0 0 1-1.5-1.5v-.5a1.77 1.77 0 1 1 2 2zm41.67 0h-1a1.5 1.5 0 0 1 0-3h1a1.5 1.5 0 0 1 0 3zm-6.94 0h-1a1.5 1.5 0 0 1 0-3h1a1.5 1.5 0 0 1 0 3zm-6.94 0h-1a1.5 1.5 0 0 1 0-3h1a1.5 1.5 0 0 1 0 3zm-6.94 0h-1a1.5 1.5 0 0 1 0-3h1a1.5 1.5 0 0 1 0 3zm-6.94 0h-1a1.5 1.5 0 0 1 0-3h1a1.5 1.5 0 0 1 0 3zm-6.94 0h-1a1.5 1.5 0 0 1 0-3h1a1.5 1.5 0 0 1 0 3zm40.64 0a1.5 1.5 0 0 1 0-3h1a1.5 1.5 0 0 1 0 3h-1zm6.94 0a1.5 1.5 0 0 1 0-3h1a1.5 1.5 0 0 1 0 3h-1zm6.94 0a1.5 1.5 0 0 1 0-3h1a1.5 1.5 0 0 1 0 3h-1zm6.94 0a1.5 1.5 0 0 1 0-3h1a1.5 1.5 0 0 1 0 3h-1zm6.94 0a1.5 1.5 0 0 1 0-3h1a1.5 1.5 0 0 1 0 3h-1zm6.94 0a1.5 1.5 0 0 1 0-3h1a1.5 1.5 0 0 1 0 3h-1zm6.94 0a1.5 1.5 0 0 1 0-3h1a1.5 1.5 0 0 1 0 3h-1zm6.94 0a1.5 1.5 0 0 1 0-3h1a1.5 1.5 0 0 1 0 3h-1zm6.94 0a1.5 1.5 0 0 1 0-3h1a1.5 1.5 0 0 1 0 3h-1zm6.94-.3a1.5 1.5 0 0 1 0-3h.5a1.5 1.5 0 0 1 0 3h-.5zm-161.72-20.5a1.5 1.5 0 0 1-1.2-.6l-38.66-51.25 2.18-.56c34.72-8.87 46.4-40 42.54-65.13-4.13-27-25.9-53.3-65.17-51.18a1.502 1.502 0 0 1-.16-3c41.13-2.2 64 25.4 68.3 53.72a63.05 63.05 0 0 1-7.58 41.56c-7.58 12.84-19.66 21.9-35 26.35l36 47.68a1.5 1.5 0 0 1-1.2 2.4zm115-79.53h-1a1.5 1.5 0 1 1 0-3h1a1.5 1.5 0 0 1 0 3zm-7 0h-1a1.5 1.5 0 1 1 0-3h1a1.5 1.5 0 0 1 0 3zm-7 0h-1a1.5 1.5 0 1 1 0-3h1a1.5 1.5 0 0 1 0 3zm-7 0h-1a1.5 1.5 0 1 1 0-3h1a1.5 1.5 0 0 1 0 3zm-1.48-5.52a1.5 1.5 0 0 1-1.5-1.5v-1a1.5 1.5 0 0 1 3 0v1a1.5 1.5 0 0 1-1.5 1.5zm0-7a1.5 1.5 0 0 1-1.5-1.5v-1a1.5 1.5 0 0 1 3 0v1a1.5 1.5 0 0 1-1.5 1.5zm0-7a1.5 1.5 0 0 1-1.5-1.5v-1a1.5 1.5 0 0 1 3 0v1a1.5 1.5 0 0 1-1.5 1.5zm0-7a1.5 1.5 0 0 1-1.5-1.5v-1a1.5 1.5 0 0 1 3 0v1a1.5 1.5 0 0 1-1.5 1.5zm0-7a1.5 1.5 0 0 1-1.5-1.5v-1a1.5 1.5 0 0 1 3 0v1a1.5 1.5 0 0 1-1.5 1.5zm0-7a1.5 1.5 0 0 1-1.5-1.5v-1a1.5 1.5 0 0 1 3 0v1a1.5 1.5 0 0 1-1.5 1.5zm0-7a1.5 1.5 0 0 1-1.5-1.5v-1a1.5 1.5 0 0 1 3 0v1a1.5 1.5 0 0 1-1.5 1.5zm0-7a1.5 1.5 0 0 1-1.5-1.5v-1a1.5 1.5 0 0 1 3 0v1a1.5 1.5 0 0 1-1.5 1.5z" fill="#fff"/><path d="M528.72 243.35l-5.84-2.73a.87.87 0 0 0-1 .24L520.1 243a17.18 17.18 0 0 0-4-.18l-1.54-2.3a.87.87 0 0 0-1-.33l-6.06 2.2a.87.87 0 0 0-.56.91l.3 2.76a17.19 17.19 0 0 0-2.95 2.7l-2.73-.54a.87.87 0 0 0-1 .48l-2.73 5.84a.87.87 0 0 0 .24 1l2.16 1.74a17.19 17.19 0 0 0-.18 4l-2.3 1.54a.87.87 0 0 0-.33 1l2.2 6.06a.87.87 0 0 0 .91.56l2.76-.3a17.18 17.18 0 0 0 2.7 2.95l-.54 2.73a.87.87 0 0 0 .48 1l5.84 2.73a.86.86 0 0 0 1-.24l1.74-2.16a17.18 17.18 0 0 0 4 .18l1.54 2.3a.87.87 0 0 0 1 .33l6.06-2.2a.87.87 0 0 0 .56-.91l-.3-2.76a17.17 17.17 0 0 0 2.95-2.7l2.73.54a.87.87 0 0 0 1-.48l2.73-5.84a.87.87 0 0 0-.24-1l-2.16-1.74a17.19 17.19 0 0 0 .18-4l2.3-1.54a.87.87 0 0 0 .33-1l-2.2-6.06a.87.87 0 0 0-.91-.56l-2.76.3a17.19 17.19 0 0 0-2.7-2.95l.54-2.73a.87.87 0 0 0-.48-1zm-8.3 25.23a9 9 0 1 1 5.4-11.56 9 9 0 0 1-5.4 11.56zm0 0" fill="#5b5bd5"/><g fill="#fff"><path d="M74.74 293.1H0l44.86-23.45a1.501 1.501 0 1 1 1.39 2.66l-34 17.8h62.5a1.5 1.5 0 1 1 0 3zm11.56.5a1.5 1.5 0 0 1 0-3l45.88-.5a1.5 1.5 0 0 1 0 3l-45.88.5z"/><path d="M161.5 293.1h-15.8a1.5 1.5 0 0 1 0-3h15.8a1.5 1.5 0 0 1 0 3zM42.2 264.42l6.87 12.66 9.96-13.8-16.83 1.14zm4.34-140.54a1.5 1.5 0 0 1-1.5-1.5v-12.9a1.5 1.5 0 0 1 3 0v12.9a1.5 1.5 0 0 1-1.5 1.5z"/><path d="M53 117.43H40.1a1.5 1.5 0 1 1 0-3H53a1.5 1.5 0 0 1 0 3zm20.76 0h-12.9a1.5 1.5 0 0 1 0-3h12.9a1.5 1.5 0 0 1 0 3zM41.78 144a1.5 1.5 0 0 1-1-2.61l9.52-8.7a1.5 1.5 0 1 1 2 2.21l-9.52 8.7a1.49 1.49 0 0 1-1 .4z"/><path d="M50.9 144.4a1.5 1.5 0 0 1-1.11-.49l-8.7-9.52a1.5 1.5 0 0 1 2.21-2l8.7 9.5a1.5 1.5 0 0 1-1.11 2.51zm20.5-4.75H58.5a1.5 1.5 0 0 1 0-3h12.9a1.5 1.5 0 0 1 0 3z"/><circle cx="64.96" cy="133.37" r="2.08"/><circle cx="64.96" cy="142.91" r="2.08"/><path d="M297.7 344.6H260l-36.66-19.23a1.51 1.51 0 0 0-1.42 0l-35.4 19.42a1.5 1.5 0 0 0 0 2.65l35.38 18.32a1.5 1.5 0 0 0 1.35 0L260 347.6h37.7a1.5 1.5 0 0 0 0-3zm-75.1 18.15l-32.2-16.67 32.2-17.67 33.7 17.67z"/></g><path d="M232.44 345h-22.26a2.315 2.315 0 0 1 0-4.63h22.27a2.315 2.315 0 1 1 0 4.63zm0 6.9h-15.9a2.315 2.315 0 0 1 0-4.63h15.9a2.315 2.315 0 1 1 0 4.63z" fill="#5b5bd5"/><path d="M395.86 304.3H298.3a1.74 1.74 0 1 1 0-3.48h45.3a5.23 5.23 0 0 0 5.23-5.23v-9.82a4.43 4.43 0 1 0-3.49 0v9.82a1.74 1.74 0 0 1-1.74 1.74h-45.06a5.39 5.39 0 0 0-5.44 4.7 5.23 5.23 0 0 0 5.2 5.75h97.56a1.74 1.74 0 0 1 0 3.48h-45.3a5.23 5.23 0 0 0-5.23 5.23v3.5h-48.77v47h101v-47h-48.74v-3.48a1.74 1.74 0 0 1 1.74-1.74h45.06a5.39 5.39 0 0 0 5.44-4.7 5.23 5.23 0 0 0-5.2-5.79zm-1.74 19.16v40.07H300v-40.06zM307 328.68h6.97v3.5H307zm12.2 0h6.97v3.5h-6.97zm12.2 0h6.97v3.5h-6.97zm12.2 0h6.97v3.5h-6.97zm12.2 0h6.97v3.5h-6.97zm12.18 0h6.97v3.5h-6.97zm12.2 0h6.97v3.5h-6.97zM307 337.4h6.97v3.48H307zm12.2 0h6.97v3.48h-6.97zm12.2 0h6.97v3.48h-6.97zm12.2 0h6.97v3.48h-6.97zm12.2 0h6.97v3.48h-6.97zm12.18 0h6.97v3.48h-6.97zm12.2 0h6.97v3.48h-6.97zM307 346.1h6.97v3.48H307zm12.2 0h6.97v3.48h-6.97zm12.2 0h6.97v3.48h-6.97zm12.2 0h6.97v3.48h-6.97zm12.2 0h6.97v3.48h-6.97zm12.18 0h6.97v3.48h-6.97zm12.2 0h6.97v3.48h-6.97zM307 354.82h6.97v3.5H307zm12.2 0h55.75v3.5H319.2zm60.98 0h6.97v3.5h-6.97zM563.6 90.33v-42a21.19 21.19 0 0 0-21.16-21.17H286.8a21.19 21.19 0 0 0-21.16 21.17v59.4a4.43 4.43 0 1 0 3 0v-59.4a18.18 18.18 0 0 1 18.16-18.17h255.64a18.18 18.18 0 0 1 18.16 18.17v42a4.43 4.43 0 1 0 3 0z" fill="#fff"/></svg>