<svg width="164" height="164" viewBox="0 0 164 164" fill="none" xmlns="../../external.html?link=http://www.w3.org/2000/svg">
<g clip-path="url(#clip0)">
<path d="M150.75 147.34C154.075 147.337 157.263 146.015 159.614 143.664C161.965 141.313 163.287 138.125 163.29 134.8V49.75C163.285 46.8655 162.288 44.0703 160.468 41.8329C158.647 39.5954 156.113 38.0516 153.29 37.46L152.69 37.34V25L127.69 0H53.16V37.2H12.54C9.21327 37.2027 6.02369 38.5261 3.67227 40.8793C1.32085 43.2326 -1.05609e-06 46.4233 0 49.75L0 134.8C0.00264835 138.125 1.32467 141.313 3.67581 143.664C6.02694 146.015 9.215 147.337 12.54 147.34H45.18V159.47H34.55V163.29H128.73V159.47H118.1V147.34H150.75ZM126.08 3.86L148.8 26.58H126.08V3.86ZM57 3.82H122.3V30.4H148.88V116.95H57V3.82ZM3.82 49.75C3.81737 48.6027 4.04091 47.4662 4.47783 46.4053C4.91475 45.3445 5.55649 44.3802 6.36634 43.5676C7.1762 42.7549 8.1383 42.1099 9.19762 41.6693C10.2569 41.2287 11.3927 41.0013 12.54 41H53.16V120.74H152.66V41.2L153.66 41.56C155.354 42.1611 156.821 43.2703 157.86 44.7361C158.9 46.2018 159.462 47.9528 159.47 49.75V127.58H3.82V49.75ZM114.3 159.47H49V147.34H114.3V159.47ZM12.54 143.53C10.2281 143.527 8.0117 142.608 6.37695 140.973C4.74221 139.338 3.82265 137.122 3.82 134.81V131.41H159.47V134.81C159.467 137.122 158.548 139.338 156.913 140.973C155.278 142.608 153.062 143.527 150.75 143.53H12.54ZM28.5 47.83C24.9672 47.826 21.5126 48.8699 18.5731 50.8295C15.6336 52.7892 13.3414 55.5765 11.9862 58.8391C10.6311 62.1017 10.274 65.6928 10.96 69.1584C11.6461 72.6239 13.3445 75.8081 15.8405 78.3083C18.3364 80.8085 21.5178 82.5122 24.9822 83.2041C28.4466 83.896 32.0383 83.5449 35.3032 82.1953C38.568 80.8456 41.3592 78.558 43.3238 75.6218C45.2884 72.6857 46.338 69.2328 46.34 65.7C46.3347 60.9666 44.4527 56.4284 41.1066 53.0804C37.7605 49.7325 33.2234 47.8479 28.49 47.84L28.5 47.83ZM31.9 60.37C31.9079 61.0461 31.7147 61.7093 31.3449 62.2753C30.975 62.8413 30.4453 63.2846 29.8229 63.5488C29.2005 63.813 28.5137 63.8863 27.8496 63.7593C27.1855 63.6323 26.5742 63.3107 26.0933 62.8354C25.6124 62.3602 25.2836 61.7527 25.1487 61.0901C25.0139 60.4276 25.079 59.7399 25.3359 59.1145C25.5928 58.489 26.0298 57.9541 26.5914 57.5776C27.153 57.2011 27.8139 57 28.49 57C29.3875 57.0026 30.2478 57.3589 30.8842 57.9916C31.5207 58.6244 31.8821 59.4826 31.89 60.38L31.9 60.37ZM34 78.6C32.2615 79.3427 30.3905 79.7256 28.5 79.7256C26.6095 79.7256 24.7385 79.3427 23 78.6L22.44 78.36L22.56 77.76C22.8467 76.397 23.5935 75.174 24.6751 74.2963C25.7566 73.4186 27.1071 72.9395 28.5 72.9395C29.8929 72.9395 31.2434 73.4186 32.3249 74.2963C33.4065 75.174 34.1533 76.397 34.44 77.76L34.56 78.36L34 78.6ZM38.76 75.2L38 76L37.54 75C36.7726 73.245 35.5102 71.7518 33.9073 70.7032C32.3043 69.6546 30.4304 69.0961 28.515 69.0961C26.5996 69.0961 24.7257 69.6546 23.1227 70.7032C21.5198 71.7518 20.2574 73.245 19.49 75L18.99 76L18.22 75.16C16.4514 73.2762 15.2413 70.9379 14.7246 68.4062C14.2079 65.8745 14.405 63.2491 15.2939 60.8229C16.1829 58.3967 17.7286 56.2654 19.7586 54.6668C21.7887 53.0682 24.223 52.0653 26.79 51.77L26.99 53.3C25.2384 53.6604 23.6829 54.658 22.6247 56.0995C21.5666 57.5411 21.081 59.3241 21.2621 61.1031C21.4432 62.8822 22.2781 64.5307 23.6051 65.7295C24.9321 66.9282 26.6567 67.5919 28.445 67.5919C30.2333 67.5919 31.9579 66.9282 33.2849 65.7295C34.6119 64.5307 35.4468 62.8822 35.6279 61.1031C35.809 59.3241 35.3234 57.5411 34.2653 56.0995C33.2071 54.658 31.6516 53.6604 29.9 53.3L30.14 51.82C32.707 52.1153 35.1413 53.1182 37.1714 54.7168C39.2014 56.3154 40.7471 58.4467 41.6361 60.8729C42.525 63.2991 42.7221 65.9245 42.2054 68.4562C41.6887 70.9879 40.4786 73.3262 38.71 75.21L38.76 75.2Z" fill="white"/>
<path d="M28.5006 85.0504C24.9683 85.0504 21.5152 86.0979 18.5781 88.0604C15.6411 90.0229 13.3519 92.8122 12.0001 96.0757C10.6484 99.3392 10.2947 102.93 10.9838 106.395C11.6729 109.859 13.3739 113.042 15.8717 115.539C18.3695 118.037 21.5518 119.738 25.0163 120.427C28.4808 121.116 32.0719 120.763 35.3354 119.411C38.5988 118.059 41.3882 115.77 43.3507 112.833C45.3132 109.896 46.3606 106.443 46.3606 102.91C46.3553 98.1753 44.472 93.6356 41.1237 90.2873C37.7755 86.9391 33.2358 85.0557 28.5006 85.0504V85.0504ZM31.9006 97.5904C31.9006 98.2649 31.7006 98.9242 31.3259 99.4849C30.9512 100.046 30.4187 100.483 29.7956 100.741C29.1725 100.999 28.4868 101.066 27.8254 100.935C27.1639 100.803 26.5563 100.479 26.0794 100.002C25.6025 99.5248 25.2777 98.9172 25.1462 98.2557C25.0146 97.5942 25.0821 96.9086 25.3402 96.2855C25.5983 95.6624 26.0354 95.1298 26.5961 94.7551C27.1569 94.3804 27.8162 94.1804 28.4906 94.1804C29.3933 94.1831 30.2581 94.5435 30.8954 95.1827C31.5327 95.8219 31.8906 96.6878 31.8906 97.5904H31.9006ZM34.0006 115.82C32.2621 116.563 30.3912 116.946 28.5006 116.946C26.6101 116.946 24.7392 116.563 23.0006 115.82L22.4406 115.58L22.5606 114.98C22.8474 113.617 23.5941 112.394 24.6757 111.517C25.7572 110.639 27.1078 110.16 28.5006 110.16C29.8935 110.16 31.244 110.639 32.3256 111.517C33.4071 112.394 34.1539 113.617 34.4406 114.98L34.5606 115.58L34.0006 115.82ZM38.7606 112.42L37.9906 113.26L37.5306 112.26C36.7633 110.505 35.5008 109.012 33.8979 107.964C32.295 106.915 30.4211 106.357 28.5056 106.357C26.5902 106.357 24.7163 106.915 23.1134 107.964C21.5104 109.012 20.248 110.505 19.4806 112.26L19.0206 113.26L18.2506 112.42C16.4742 110.539 15.2562 108.201 14.7331 105.667C14.21 103.133 14.4024 100.504 15.2888 98.0734C16.1751 95.6426 17.7204 93.5066 19.7518 91.9042C21.7831 90.3018 24.2203 89.2964 26.7906 89.0004L26.9906 90.5204C25.2391 90.8808 23.6836 91.8784 22.6254 93.3199C21.5672 94.7615 21.0816 96.5445 21.2628 98.3236C21.4439 100.103 22.2788 101.751 23.6058 102.95C24.9327 104.149 26.6574 104.812 28.4456 104.812C30.2339 104.812 31.9585 104.149 33.2855 102.95C34.6125 101.751 35.4474 100.103 35.6285 98.3236C35.8096 96.5445 35.3241 94.7615 34.2659 93.3199C33.2077 91.8784 31.6522 90.8808 29.9006 90.5204L30.1706 89.0004C32.7376 89.2957 35.172 90.2986 37.202 91.8972C39.232 93.4958 40.7778 95.6272 41.6667 98.0533C42.5556 100.479 42.7528 103.105 42.2361 105.637C41.7194 108.168 40.5092 110.507 38.7406 112.39L38.7606 112.42ZM101.201 16.7404L94.2006 21.7404V15.9404H69.1006V41.0004H94.1706V26.4304L103.391 19.8304L101.201 16.7404ZM90.3806 24.4704L84.5206 28.6504L80.8706 25.0004L78.1706 27.7004L84.1006 33.6304L90.3706 29.1504V37.2104H72.9206V19.7604H90.3706L90.3806 24.4704ZM101.201 48.6304L94.2006 53.6304V47.8304H69.1006V72.9004H94.1706V58.3004L103.391 51.7004L101.201 48.6304ZM90.3806 56.3604L84.5206 60.5404L80.8806 56.9004L78.1806 59.6004L84.1106 65.5304L90.3706 61.0004V69.0604H72.9206V51.6604H90.3706L90.3806 56.3604ZM101.201 80.5304L94.2006 85.5304V79.7304H69.1006V104.81H94.1706V90.2004L103.391 83.6004L101.201 80.5304ZM90.3806 88.2604L84.5206 92.4404L80.8806 88.8004L78.1806 91.5004L84.1106 97.4304L90.3806 92.9504V101H72.9206V83.5504H90.3706L90.3806 88.2604ZM106.321 37.2004H136.721V41.0204H106.321V37.2004ZM106.321 69.1004H136.721V72.9204H106.321V69.1004ZM106.321 101H136.721V104.82H106.321V101ZM106.321 90.3704H136.721V94.1904H106.321V90.3704ZM106.321 58.4704H136.721V62.2904H106.321V58.4704ZM106.321 26.5704H115.451V30.3904H106.321V26.5704Z" fill="white"/>
</g>
<defs>
<clipPath id="clip0">
<rect width="163.29" height="163.29" fill="white"/>
</clipPath>
</defs>
</svg>
