<svg xmlns="http://www.w3.org/2000/svg" width="100" height="100" fill="none"><path d="M49.6 32.252a8.6 8.6 0 0 0 8.59-8.59c0-4.737-3.854-8.6-8.6-8.6a8.6 8.6 0 0 0-8.588 8.59 8.6 8.6 0 0 0 8.588 8.59zm13.985 5.072c6.153-5.63 6.777-6.867 7.113-7.532 1.47-2.9 2.208-9.682 2.34-11a3.66 3.66 0 0 0-3.273-4.002 3.68 3.68 0 0 0-.365-.018c-1.885 0-3.45 1.414-3.638 3.3-.3 3.07-1 7.123-1.557 8.368-.716 1.03-4.2 4.335-7.892 7.622h-12.65C40 30.765 36.497 27.46 35.78 26.43c-.567-1.243-1.248-5.296-1.556-8.367-.188-1.877-1.75-3.292-3.634-3.292a3.68 3.68 0 0 0-.368.018 3.66 3.66 0 0 0-3.273 4.002c.133 1.328.87 8.1 2.34 11 .335.664.96 1.9 7.113 7.532l4.406 3.942v40.17a3.81 3.81 0 0 0 3.803 3.803 3.81 3.81 0 0 0 3.803-3.803V60.37h2.403v21.067a3.81 3.81 0 0 0 3.803 3.803 3.81 3.81 0 0 0 3.803-3.803l-.013-39.5 5.182-4.62z" fill="#5b5bd5"/><path d="M31.2 46.937a2.6 2.6 0 0 0-2.335-1.563l-9.2-.002a2.59 2.59 0 0 0-1.982.92l-.488-1.128c-.365-.845-1.197-1.4-2.117-1.4H6.752c-1.125 0-1.752.546-2.117 1.4L.2 55.44a2.29 2.29 0 0 0-.028 1.764 2.29 2.29 0 0 0 1.228 1.267 2.3 2.3 0 0 0 .914.2 2.31 2.31 0 0 0 2.117-1.39l.934-2.16v19.897c0 1.4 1.14 2.54 2.54 2.54s2.54-1.14 2.54-2.54V61.97h1.07v13.037c0 1.4 1.14 2.54 2.54 2.54s2.54-1.14 2.54-2.54v-13.75c.185-.205.34-.44.453-.704l1.037-2.4.013 22.347a2.86 2.86 0 0 0 2.856 2.855 2.86 2.86 0 0 0 2.855-2.855V65.684h1.204v14.818a2.86 2.86 0 0 0 2.855 2.855 2.86 2.86 0 0 0 2.855-2.855l.007-21.607.717 1.66a2.59 2.59 0 0 0 2.38 1.564c.354 0 .7-.072 1.028-.214.636-.275 1.126-.78 1.38-1.425s.244-1.35-.03-1.984L31.2 46.937zm-6.542-2.514c3.604 0 6.535-2.932 6.535-6.535s-2.932-6.535-6.535-6.535-6.534 2.932-6.534 6.535 2.93 6.535 6.534 6.535zM11.2 42.928a5.82 5.82 0 0 0 5.811-5.811 5.82 5.82 0 0 0-5.811-5.811 5.82 5.82 0 0 0-5.809 5.811 5.82 5.82 0 0 0 5.809 5.811zm57.606-5.04c0 3.604 2.932 6.535 6.535 6.535s6.534-2.932 6.534-6.535-2.93-6.535-6.534-6.535-6.535 2.932-6.535 6.535zM99.8 55.44l-4.444-10.276c-.365-.845-1.196-1.4-2.117-1.4h-8.32c-.92 0-1.752.546-2.117 1.4l-.488 1.128c-.485-.573-1.205-.92-1.98-.92l-9.2.002c-1.126 0-1.93.627-2.335 1.563l-4.998 11.557a2.57 2.57 0 0 0-.03 1.984c.256.644.746 1.15 1.38 1.424.328.142.674.214 1.028.214a2.59 2.59 0 0 0 2.38-1.564l.717-1.66.007 21.607a2.86 2.86 0 0 0 2.856 2.855 2.86 2.86 0 0 0 2.855-2.855V65.684H76.2v14.818a2.86 2.86 0 0 0 2.855 2.855 2.86 2.86 0 0 0 2.856-2.855V58.165l1.05 2.4a2.59 2.59 0 0 0 .453.704v13.75c0 1.4 1.14 2.54 2.54 2.54s2.54-1.14 2.54-2.54V61.97h1.07v13.037c0 1.4 1.14 2.54 2.54 2.54s2.54-1.14 2.54-2.54V55.1l.934 2.16c.365.845 1.196 1.4 2.117 1.4.316 0 .623-.064.914-.2a2.29 2.29 0 0 0 1.201-3.031zm-11-12.512a5.82 5.82 0 0 0 5.809-5.811 5.82 5.82 0 0 0-5.809-5.811 5.82 5.82 0 0 0-5.811 5.811 5.82 5.82 0 0 0 5.811 5.811z" fill="#ccc"/></svg>