<svg width="180" height="253" viewBox="0 0 180 253" fill="none" xmlns="../../external.html?link=http://www.w3.org/2000/svg">
<path d="M49.512 238.577H44.6413V232.692C44.6054 230.113 45.5917 227.625 47.3847 225.771C49.1777 223.917 51.6317 222.848 54.2103 222.798H159.288C161.866 222.848 164.32 223.917 166.113 225.771C167.906 227.625 168.892 230.113 168.857 232.692V237.907H163.986V232.692C164.022 231.4 163.545 230.146 162.659 229.205C161.773 228.263 160.551 227.711 159.259 227.668H54.239C52.9471 227.711 51.7245 228.263 50.8387 229.205C49.9529 230.146 49.4758 231.4 49.512 232.692V238.577Z" fill="#5B5BD5"/>
<path d="M139.241 242.788V227.248H133.643V235.994C132.722 235.663 131.75 235.495 130.772 235.496C129.069 235.496 127.404 236.001 125.987 236.947C124.571 237.894 123.467 239.239 122.815 240.812C122.164 242.386 121.993 244.118 122.325 245.788C122.658 247.459 123.478 248.993 124.682 250.198C125.887 251.402 127.421 252.222 129.092 252.555C130.762 252.887 132.494 252.717 134.068 252.065C135.641 251.413 136.986 250.309 137.933 248.893C138.879 247.477 139.384 245.811 139.384 244.108C139.368 243.665 139.32 243.224 139.241 242.788V242.788ZM130.762 251.017C128.92 251.017 127.153 250.285 125.85 248.982C124.547 247.679 123.815 245.912 123.815 244.07H137.71C137.71 245.912 136.978 247.679 135.675 248.982C134.372 250.285 132.605 251.017 130.762 251.017Z" fill="#5B5BD5"/>
<path d="M80.0277 242.788V227.248H74.4298V235.994C73.5091 235.662 72.5377 235.494 71.5591 235.496C69.8558 235.496 68.1908 236.001 66.7745 236.947C65.3582 237.894 64.2544 239.239 63.6026 240.812C62.9508 242.386 62.7802 244.118 63.1125 245.788C63.4448 247.459 64.265 248.993 65.4694 250.198C66.6739 251.402 68.2084 252.222 69.879 252.555C71.5496 252.887 73.2812 252.717 74.8548 252.065C76.4285 251.413 77.7735 250.309 78.7198 248.893C79.6661 247.477 80.1712 245.811 80.1712 244.108C80.16 243.665 80.112 243.223 80.0277 242.788V242.788ZM71.5496 251.017C69.7071 251.017 67.9401 250.285 66.6372 248.982C65.3344 247.679 64.6025 245.912 64.6025 244.07H78.4967C78.4967 245.912 77.7647 247.679 76.4619 248.982C75.1591 250.285 73.3921 251.017 71.5496 251.017Z" fill="#5B5BD5"/>
<path d="M168.713 242.788V230.664C168.713 229.758 168.353 228.889 167.712 228.248C167.072 227.607 166.203 227.248 165.297 227.248H163.125V235.994C161.35 235.353 159.414 235.313 157.615 235.879C155.815 236.446 154.251 237.588 153.164 239.129C152.076 240.671 151.525 242.527 151.594 244.412C151.664 246.298 152.351 248.108 153.549 249.565C154.748 251.022 156.392 252.045 158.228 252.477C160.065 252.909 161.992 252.726 163.715 251.957C165.437 251.187 166.859 249.873 167.762 248.216C168.665 246.56 168.999 244.652 168.713 242.788ZM160.244 251.017C158.402 251.017 156.635 250.285 155.332 248.982C154.029 247.679 153.297 245.912 153.297 244.07H167.191C167.189 245.907 166.46 247.668 165.164 248.969C163.868 250.271 162.11 251.007 160.273 251.017H160.244Z" fill="#5B5BD5"/>
<path d="M50.6125 242.587L50.5168 227.276H48.0767C47.6633 227.276 47.2539 227.358 46.8719 227.516C46.49 227.674 46.1429 227.906 45.8506 228.198C45.5583 228.491 45.3264 228.838 45.1681 229.22C45.0099 229.602 44.9285 230.011 44.9285 230.425V236.022C43.7395 235.562 42.4632 235.372 41.1917 235.465C39.9202 235.558 38.6852 235.932 37.5759 236.561C36.4666 237.189 35.5106 238.056 34.7769 239.098C34.0433 240.141 33.5503 241.334 33.3336 242.59C33.1169 243.846 33.1818 245.135 33.5236 246.363C33.8655 247.592 34.4758 248.729 35.3105 249.692C36.1451 250.656 37.1834 251.422 38.3502 251.936C39.517 252.45 40.7834 252.698 42.0578 252.663C44.3605 252.643 46.5611 251.709 48.1759 250.067C49.7907 248.426 50.6877 246.21 50.6699 243.907L50.6125 242.587ZM42.0004 251.017C40.1587 251.015 38.3931 250.282 37.0908 248.98C35.7886 247.677 35.0558 245.912 35.0533 244.07H48.9475C48.9475 245.906 48.2209 247.667 46.9263 248.969C45.6317 250.271 43.8745 251.007 42.0387 251.017H42.0004Z" fill="#5B5BD5"/>
<path d="M110.869 184.704H102.553C99.8578 184.704 97.6729 186.889 97.6729 189.584V230.109C97.6729 232.804 99.8578 234.989 102.553 234.989H110.869C113.564 234.989 115.749 232.804 115.749 230.109V189.584C115.749 186.889 113.564 184.704 110.869 184.704Z" fill="#5B5BD5"/>
<path d="M110.256 160.456H103.156V189.507H110.256V160.456Z" stroke="#5B5BD5" stroke-miterlimit="10"/>
<path d="M138.178 144.6H75.3484C74.9313 145.499 74.7157 146.479 74.7169 147.47C74.7169 149.275 75.4337 151.005 76.7096 152.281C77.9855 153.557 79.716 154.274 81.5204 154.274H98.3428V157.259C96.508 159.08 94.0468 160.131 91.4626 160.197H68.4109C67.9668 160.197 67.5409 160.374 67.2268 160.688C66.9128 161.002 66.7363 161.428 66.7363 161.872V161.872C66.7363 162.316 66.9128 162.742 67.2268 163.056C67.5409 163.37 67.9668 163.546 68.4109 163.546H91.8932C92.0955 163.545 92.2961 163.509 92.4865 163.441C94.769 163.151 96.9855 162.474 99.0413 161.441H115.184V154.274H132.006C132.9 154.274 133.785 154.098 134.61 153.756C135.436 153.414 136.186 152.913 136.817 152.281C137.449 151.649 137.95 150.899 138.292 150.074C138.634 149.248 138.81 148.364 138.81 147.47V147.47C138.811 146.479 138.596 145.499 138.178 144.6Z" fill="#5B5BD5"/>
<path d="M29.3023 4.05008H104.754C104.754 4.05008 112.935 3.70559 113.653 11.5905C114.371 19.4753 124.409 115.041 124.409 115.041C124.409 115.041 124.839 130.399 141.059 130.256C158.56 130.112 172.636 130.256 172.636 130.256C172.636 130.256 179.67 130.112 179.459 138.217C179.459 138.217 179.239 143.451 174.675 144.6H97.3666L50.6124 140.667L33.4744 113.328L26.9866 9.98286L29.3023 4.05008Z" fill="#222C37" stroke="#5B5BD5" stroke-width="0.5" stroke-miterlimit="10"/>
<path d="M26.0106 3.34277C31.5798 3.34277 33.4361 8.06029 33.8476 13.0649C33.8476 13.0649 40.1536 90.1432 44.1056 115.597C46.5744 131.481 58.1242 129.826 64.2962 129.95L90.2664 130.381C90.2664 130.381 99.5197 130.237 98.8786 138.629C98.2374 147.021 90.2664 145.969 90.2664 145.969L57.3108 145.538C48.3638 144.82 32.0486 137.586 29.2832 119.903C25.1781 93.3966 18.5946 13.0649 18.5946 13.0649C18.1832 8.06029 21.4653 3.7064 26.0106 3.34277Z" fill="white" stroke="#5B5BD5" stroke-width="0.5" stroke-miterlimit="10"/>
<path d="M53.531 25.083H98.6584" stroke="#5B5BD5" stroke-width="0.75" stroke-linecap="round" stroke-linejoin="round"/>
<path d="M53.531 23.0254H98.6584" stroke="white" stroke-linecap="round" stroke-linejoin="round"/>
<path d="M54.9666 45.5513H100.094" stroke="#5B5BD5" stroke-width="0.75" stroke-linecap="round" stroke-linejoin="round"/>
<path d="M54.9666 43.4937H100.094" stroke="white" stroke-linecap="round" stroke-linejoin="round"/>
<path d="M84.9556 66.5933H102.677" stroke="#5B5BD5" stroke-width="0.75" stroke-linecap="round" stroke-linejoin="round"/>
<path d="M84.9556 64.5361H102.677" stroke="white" stroke-linecap="round" stroke-linejoin="round"/>
<path d="M97.8547 130.112H133.308" stroke="white" stroke-linecap="round" stroke-linejoin="round"/>
<path d="M50.0576 4.04082C50.0576 4.04082 56.7559 -2.80102 60.9663 4.04082L76.0662 53.4551" stroke="#5B5BD5" stroke-width="0.75" stroke-miterlimit="10"/>
<path d="M21.8671 50.8047L9.19775 71.8565" stroke="#5B5BD5" stroke-width="0.75" stroke-miterlimit="10"/>
<path d="M36.4597 20.6338L38.8998 48.1829" stroke="white" stroke-miterlimit="10"/>
<path d="M39.9717 56.7183L40.8137 63.4261" stroke="white" stroke-miterlimit="10"/>
<path d="M44.4597 100.985L46.3735 117.338C46.3735 117.338 47.8089 127.96 61.5882 128.247C75.3676 128.534 92.5822 128.247 92.5822 128.247C92.5822 128.247 99.1753 127.673 101.041 136.993" stroke="white" stroke-miterlimit="10"/>
<path d="M80.6287 52.1813L1 74.6689L8.30256 100.527L87.9313 78.0397L80.6287 52.1813Z" fill="white" stroke="#5B5BD5" stroke-width="0.75" stroke-miterlimit="10"/>
<path d="M80.8811 55.3899L4.78857 76.8789L11.0795 99.1551L87.172 77.6661L80.8811 55.3899Z" fill="#222C37"/>
<path d="M25.8102 77.6862L27.9561 84.9355C28.1994 85.7574 28.3438 86.3437 28.3894 86.6946C28.4337 87.041 28.3762 87.4296 28.2172 87.8605C28.0568 88.2869 27.7871 88.6558 27.408 88.9672C27.0321 89.2728 26.5516 89.5122 25.9665 89.6854C25.3188 89.8771 24.7153 89.9392 24.1561 89.8715C23.5968 89.8039 23.1434 89.6345 22.796 89.3633C22.4485 89.0921 22.1962 88.7732 22.0392 88.4068C21.8808 88.0359 21.6205 87.2385 21.2582 86.0147L19.3581 79.5962L22.1788 78.7612L24.5866 86.8949C24.7267 87.3683 24.8412 87.6648 24.93 87.7842C25.022 87.8979 25.1461 87.9316 25.3024 87.8853C25.4811 87.8324 25.5738 87.7272 25.5807 87.5698C25.5906 87.4065 25.5156 87.0546 25.3556 86.5142L22.9895 78.5212L25.8102 77.6862ZM33.2002 75.4986L36.4112 86.3457L33.9389 87.0776L31.0119 82.5808L32.4716 87.5119L30.1133 88.2101L26.9022 77.3629L29.2606 76.6648L32.2876 81.081L30.8418 76.1967L33.2002 75.4986ZM37.1598 74.3264L40.3708 85.1736L37.5502 86.0086L34.3392 75.1614L37.1598 74.3264ZM43.9736 72.3094L44.6162 74.4802L42.9412 74.976L45.5097 83.6524L42.689 84.4874L40.1206 75.811L38.4523 76.3048L37.8097 74.1341L43.9736 72.3094ZM50.975 70.2368L50.9669 77.7667L52.1292 81.6928L49.5162 82.4663L48.354 78.5402L44.322 72.2063L46.9149 71.4387C47.9468 73.4311 48.5957 74.7863 48.8617 75.5042C48.6755 74.3011 48.5157 72.8012 48.3822 71.0044L50.975 70.2368ZM60.2866 72.5958C60.7385 72.6127 61.1119 72.7499 61.4068 73.0075C61.7004 73.2607 62.019 73.9679 62.3628 75.1292C62.618 75.9913 62.7181 76.6904 62.663 77.2265C62.6066 77.7581 62.3743 78.2204 61.9659 78.6133C61.5563 79.0018 60.974 79.3078 60.2191 79.5312C59.3616 79.7851 58.6448 79.8418 58.0688 79.7014C57.496 79.5552 57.07 79.2975 56.7907 78.9284C56.5145 78.5535 56.2237 77.8501 55.9183 76.8184L55.6644 75.9608L58.3712 75.1595L58.8928 76.9216C59.0316 77.3906 59.147 77.6819 59.239 77.7956C59.3341 77.9034 59.4776 77.929 59.6697 77.8721C59.8796 77.81 59.9943 77.6886 60.0137 77.5079C60.0331 77.3273 59.9423 76.8975 59.7413 76.2186L59.5192 75.4682C59.3962 75.0528 59.2594 74.763 59.1088 74.5987C58.9581 74.4344 58.7826 74.3503 58.5823 74.3464C58.3807 74.3381 58.015 74.4075 57.4853 74.5546L57.0192 72.9801C57.6624 72.7897 58.0527 72.6475 58.19 72.5534C58.3273 72.4593 58.405 72.3197 58.4231 72.1346C58.4411 71.9495 58.398 71.6805 58.2935 71.3277L58.115 70.7247C58.0026 70.345 57.8884 70.1068 57.7723 70.01C57.6606 69.9119 57.5222 69.8873 57.3569 69.9362C57.1693 69.9917 57.059 70.0948 57.0258 70.2455C56.9959 70.3904 57.0424 70.6706 57.1653 71.086L57.4291 71.977L54.7223 72.7783L54.4486 71.8537C54.1419 70.8175 54.1717 70.0484 54.5381 69.5464C54.9031 69.04 55.6015 68.6341 56.6333 68.3286C57.9241 67.9465 58.8743 67.9397 59.4838 68.3083C60.0932 68.6768 60.5309 69.31 60.7966 70.2078C60.9765 70.8152 61.0241 71.2796 60.9395 71.601C60.8535 71.9179 60.6359 72.2495 60.2866 72.5958ZM61.1656 67.2202L63.2761 66.5954C64.6384 66.1921 65.577 65.9823 66.092 65.9659C66.6114 65.9481 67.0385 66.0452 67.3732 66.257C67.708 66.4688 67.9588 66.7419 68.1258 67.0763C68.2915 67.4061 68.5264 68.0847 68.8305 69.1121L69.955 72.9109C70.2433 73.8846 70.3894 74.5506 70.3935 74.9089C70.4007 75.2614 70.3181 75.5652 70.1459 75.8202C69.9723 76.0708 69.7292 76.2836 69.4167 76.4587C69.1029 76.6294 68.6087 76.8145 67.9343 77.0142L64.3766 78.0673L61.1656 67.2202ZM64.5356 68.241L66.6479 75.3765C67.0544 75.2561 67.2807 75.1017 67.3269 74.9131C67.3718 74.7201 67.2871 74.2618 67.0729 73.5382L65.8254 69.3239C65.6799 68.8326 65.5711 68.5224 65.4988 68.3931C65.4266 68.2639 65.3254 68.1846 65.1952 68.1551C65.0637 68.1212 64.8438 68.1498 64.5356 68.241Z" fill="white"/>
</svg>
